<svg id="Group_15409" data-name="Group 15409" xmlns="http://www.w3.org/2000/svg" width="53.937" height="46.638" viewBox="0 0 53.937 46.638">
  <g id="Group_15405" data-name="Group 15405" transform="translate(15.031 36.486)">
    <path id="Path_6760" data-name="Path 6760" d="M-757.057,3497.778h-22.569a.871.871,0,0,1-.87-.871.87.87,0,0,1,.87-.87h22.569a.87.87,0,0,1,.87.87A.871.871,0,0,1-757.057,3497.778Z" transform="translate(780.496 -3496.037)" fill="#1c2533"/>
  </g>
  <g id="Group_15406" data-name="Group 15406" transform="translate(0 24.42)">
    <path id="Path_6761" data-name="Path 6761" d="M-825.85,3466.294l.73-.119V3460.4l-.73-.111v-.174h2.421a4.723,4.723,0,0,1,1.365.159,1.375,1.375,0,0,1,.738.48,1.42,1.42,0,0,1,.23.845q0,1.143-1.444,1.46v.04a2.674,2.674,0,0,1,1.369.524,1.384,1.384,0,0,1,.488,1.127,1.441,1.441,0,0,1-.639,1.294,3.106,3.106,0,0,1-1.726.42h-2.8Zm2.484-3.262a1.286,1.286,0,0,0,.976-.357,1.413,1.413,0,0,0,.341-1.016v-.047q0-1.3-1.381-1.3h-.818v2.722Zm.317,3.238a1.374,1.374,0,0,0,1.048-.393,1.569,1.569,0,0,0,.373-1.123v-.087a1.438,1.438,0,0,0-.369-1.08,1.453,1.453,0,0,0-1.052-.357h-1.2v3.04Z" transform="translate(825.85 -3459.953)" fill="#1c2533"/>
    <path id="Path_6762" data-name="Path 6762" d="M-796.036,3466.46v-.167l.73-.119V3460.4l-.73-.111v-.174h4.778v1.817h-.214l-.611-1.619h-2.349v2.857h1.032l.468-1.151h.206v2.508h-.206l-.476-1.167h-1.024v2.912h2.492l.651-1.746h.206v1.937Z" transform="translate(805.917 -3459.953)" fill="#1c2533"/>
    <path id="Path_6763" data-name="Path 6763" d="M-768.425,3466.14v-.167l.778-.318,2.294-6.024h.127l2.167,6.222.73.119v.167h-2.333v-.167l.651-.1-.674-1.881H-766.8l-.643,1.667.714.318v.167Zm1.69-2.318h1.992l-.952-2.794Z" transform="translate(787.457 -3459.632)" fill="#1c2533"/>
    <path id="Path_6764" data-name="Path 6764" d="M-737.6,3466.1a1.823,1.823,0,0,1-.54-1.377V3460.4l-.73-.111v-.174h2.334v.174l-.73.111v4.325a1.573,1.573,0,0,0,.436,1.194,1.854,1.854,0,0,0,1.326.417q1.682,0,1.682-1.611V3460.6l-.738-.31v-.174h1.691v.174l-.762.31v4.127a1.808,1.808,0,0,1-.532,1.425,2.58,2.58,0,0,1-1.73.472A2.389,2.389,0,0,1-737.6,3466.1Z" transform="translate(767.7 -3459.953)" fill="#1c2533"/>
    <path id="Path_6765" data-name="Path 6765" d="M-706.164,3466.46v-.167l.73-.119v-5.865h-1.31l-.6,1.571h-.23v-1.77h5.167v1.77h-.238l-.6-1.571h-1.317v5.865l.73.119v.167Z" transform="translate(746.775 -3459.953)" fill="#1c2533"/>
    <path id="Path_6766" data-name="Path 6766" d="M-678.411,3466.46v-.167l.738-.119v-2.413l-1.929-3.365-.627-.111v-.174h2.389v.174l-.738.111,1.667,2.881,1.531-2.611-.952-.381v-.174h1.778v.174l-.611.389-1.651,2.825v2.675l.738.119v.167Z" transform="translate(728.491 -3459.953)" fill="#1c2533"/>
  </g>
  <g id="Group_15407" data-name="Group 15407" transform="translate(15.031)">
    <path id="Path_6767" data-name="Path 6767" d="M-756.941,3403.178c-.392-.391-1.013-.642-4.27.572a33.233,33.233,0,0,0-3.986,1.783c-.174-.441-.326-.8-.424-1.031-1.785-4.156-2.507-4.156-2.939-4.156s-1.154,0-2.939,4.156c-.1.226-.25.589-.424,1.031a33.242,33.242,0,0,0-3.986-1.783c-3.257-1.214-3.878-.964-4.27-.572-.3.305-.816.816.86,5.016.363.909,1.631,3.958,2.733,5.06a4.585,4.585,0,0,0,3.247,1.333,4.581,4.581,0,0,0,2.386-.666,4.554,4.554,0,0,0,2.391.675,4.556,4.556,0,0,0,2.392-.675,4.58,4.58,0,0,0,2.387.666,4.585,4.585,0,0,0,3.247-1.333c1.1-1.1,2.37-4.151,2.733-5.06C-756.125,3403.994-756.636,3403.483-756.941,3403.178Zm-18.412,8.845c-1.051-1.051-2.889-5.522-3.318-7.334a30.4,30.4,0,0,1,6.146,2.5,10.316,10.316,0,0,0-.619,2.824,4.556,4.556,0,0,0,.841,2.641A2.863,2.863,0,0,1-775.353,3412.023Zm3.951-2.01c0-1.488,1.865-5.956,2.843-7.536.978,1.581,2.843,6.049,2.843,7.536a2.846,2.846,0,0,1-2.843,2.843A2.846,2.846,0,0,1-771.4,3410.013Zm9.637,2.01a2.861,2.861,0,0,1-3.051.631,4.558,4.558,0,0,0,.841-2.641,10.316,10.316,0,0,0-.618-2.824,30.4,30.4,0,0,1,6.146-2.5C-758.876,3406.5-760.714,3410.972-761.765,3412.023Z" transform="translate(780.496 -3395.574)" fill="#1c2533"/>
    <path id="Path_6768" data-name="Path 6768" d="M-747.28,3388.726a1.389,1.389,0,0,0,1.389-1.389,1.389,1.389,0,0,0-1.389-1.388,1.388,1.388,0,0,0-1.389,1.388A1.389,1.389,0,0,0-747.28,3388.726Z" transform="translate(759.217 -3385.948)" fill="#1c2533"/>
    <circle id="Ellipse_87" data-name="Ellipse 87" cx="1.389" cy="1.389" r="1.389" transform="translate(16.347 4.65) rotate(-22.228)" fill="#1c2533"/>
    <path id="Path_6769" data-name="Path 6769" d="M-766.05,3400.861a1.389,1.389,0,0,0,1.389-1.389,1.389,1.389,0,0,0-1.389-1.389,1.389,1.389,0,0,0-1.389,1.389A1.389,1.389,0,0,0-766.05,3400.861Z" transform="translate(771.766 -3394.061)" fill="#1c2533"/>
  </g>
  <g id="Group_15408" data-name="Group 15408" transform="translate(10.607 43.625)">
    <path id="Path_6770" data-name="Path 6770" d="M-793.846,3519.728a.438.438,0,0,1,.173-.351.679.679,0,0,1,.449-.143.626.626,0,0,1,.432.14.534.534,0,0,1,.172.384h-.283a.319.319,0,0,0-.093-.223.333.333,0,0,0-.243-.084.374.374,0,0,0-.244.074.237.237,0,0,0-.089.19.2.2,0,0,0,.1.179.7.7,0,0,0,.244.092q.143.029.286.066a.517.517,0,0,1,.244.142.407.407,0,0,1,.1.3.392.392,0,0,1-.173.322.726.726,0,0,1-.45.131.675.675,0,0,1-.445-.138.515.515,0,0,1-.182-.383h.283a.3.3,0,0,0,.1.221.362.362,0,0,0,.253.083.413.413,0,0,0,.253-.069.213.213,0,0,0,.092-.177.217.217,0,0,0-.073-.17.407.407,0,0,0-.181-.087q-.108-.024-.237-.058c-.086-.022-.164-.045-.236-.07a.385.385,0,0,1-.181-.131A.372.372,0,0,1-793.846,3519.728Z" transform="translate(793.846 -3518.685)" fill="#1c2533"/>
    <path id="Path_6771" data-name="Path 6771" d="M-784.36,3519.234a.751.751,0,0,1,.565.233.847.847,0,0,1,.225.612.874.874,0,0,1-.226.621.738.738,0,0,1-.563.242.671.671,0,0,1-.369-.1.682.682,0,0,1-.243-.264v1.121h-.274v-2.437h.274v.331a.672.672,0,0,1,.243-.259A.678.678,0,0,1-784.36,3519.234Zm-.053,1.473a.525.525,0,0,0,.395-.173.635.635,0,0,0,.164-.455.6.6,0,0,0-.164-.444.541.541,0,0,0-.395-.163.532.532,0,0,0-.395.169.615.615,0,0,0-.164.447.621.621,0,0,0,.164.449A.529.529,0,0,0-784.413,3520.707Z" transform="translate(788.096 -3518.685)" fill="#1c2533"/>
    <path id="Path_6772" data-name="Path 6772" d="M-775.62,3520.7a.874.874,0,0,1-.226-.621.849.849,0,0,1,.224-.612.752.752,0,0,1,.565-.233.68.68,0,0,1,.369.1.648.648,0,0,1,.239.259v-.331h.277v1.654h-.277v-.337a.657.657,0,0,1-.239.264.672.672,0,0,1-.369.1A.738.738,0,0,1-775.62,3520.7Zm1.008-.162a.616.616,0,0,0,.164-.449.617.617,0,0,0-.164-.449.532.532,0,0,0-.395-.169.541.541,0,0,0-.395.163.6.6,0,0,0-.164.442.633.633,0,0,0,.166.455.524.524,0,0,0,.394.175A.529.529,0,0,0-774.612,3520.538Z" transform="translate(781.812 -3518.685)" fill="#1c2533"/>
    <path id="Path_6773" data-name="Path 6773" d="M-758.777,3519.708a.627.627,0,0,1-.4.125.573.573,0,0,1-.413-.173.59.59,0,0,1-.178-.441.593.593,0,0,1,.173-.44.578.578,0,0,1,.423-.172.157.157,0,0,1,.078.027l-.121-.091a.826.826,0,0,1-.208-.474.467.467,0,0,1,.146-.347.539.539,0,0,1,.395-.143.551.551,0,0,1,.4.14.444.444,0,0,1,.148.333.526.526,0,0,1-.021.139h-.277a.478.478,0,0,0,.018-.145.233.233,0,0,0-.074-.166.255.255,0,0,0-.19-.075.256.256,0,0,0-.19.075.273.273,0,0,0-.074.2.556.556,0,0,0,.139.307l1.091,1.422h-.334l-.316-.422A.6.6,0,0,1-758.777,3519.708Zm-.628-.212a.335.335,0,0,0,.256.115.345.345,0,0,0,.259-.115.391.391,0,0,0,.108-.279.394.394,0,0,0-.107-.279.342.342,0,0,0-.259-.115.337.337,0,0,0-.257.113.393.393,0,0,0-.105.279A.4.4,0,0,0-759.405,3519.5Z" transform="translate(771.06 -3517.579)" fill="#1c2533"/>
    <path id="Path_6774" data-name="Path 6774" d="M-742.468,3518.127a.751.751,0,0,1,.565.233.846.846,0,0,1,.224.612.874.874,0,0,1-.226.621.737.737,0,0,1-.563.242.67.67,0,0,1-.369-.1.673.673,0,0,1-.243-.264v.338h-.274v-2.23h.274v.907a.668.668,0,0,1,.243-.259A.679.679,0,0,1-742.468,3518.127Zm-.053,1.473a.525.525,0,0,0,.395-.173.633.633,0,0,0,.164-.455.6.6,0,0,0-.164-.444.541.541,0,0,0-.395-.163.53.53,0,0,0-.394.169.614.614,0,0,0-.164.447.619.619,0,0,0,.164.449A.528.528,0,0,0-742.521,3519.6Z" transform="translate(760.088 -3517.579)" fill="#1c2533"/>
    <path id="Path_6775" data-name="Path 6775" d="M-733.153,3520.942a.761.761,0,0,1-.578-.235.863.863,0,0,1-.223-.621.855.855,0,0,1,.226-.62.78.78,0,0,1,.586-.233.776.776,0,0,1,.578.221.772.772,0,0,1,.219.565,1.034,1.034,0,0,1-.012.163h-1.317a.572.572,0,0,0,.156.391.5.5,0,0,0,.366.143.511.511,0,0,0,.285-.076.445.445,0,0,0,.17-.2h.3a.759.759,0,0,1-.27.358A.783.783,0,0,1-733.153,3520.942Zm.371-1.339a.506.506,0,0,0-.366-.143.5.5,0,0,0-.363.14.564.564,0,0,0-.16.384h1.04A.515.515,0,0,0-732.782,3519.6Z" transform="translate(753.803 -3518.685)" fill="#1c2533"/>
    <path id="Path_6776" data-name="Path 6776" d="M-724.537,3520.7a.874.874,0,0,1-.226-.621.848.848,0,0,1,.224-.612.752.752,0,0,1,.565-.233.679.679,0,0,1,.369.1.647.647,0,0,1,.239.259v-.331h.277v1.654h-.277v-.337a.657.657,0,0,1-.239.264.671.671,0,0,1-.369.1A.738.738,0,0,1-724.537,3520.7Zm1.008-.162a.615.615,0,0,0,.164-.449.617.617,0,0,0-.164-.449.533.533,0,0,0-.395-.169.541.541,0,0,0-.395.163.594.594,0,0,0-.164.442.634.634,0,0,0,.166.455.526.526,0,0,0,.395.175A.529.529,0,0,0-723.529,3520.538Z" transform="translate(747.658 -3518.685)" fill="#1c2533"/>
    <path id="Path_6777" data-name="Path 6777" d="M-713.573,3519.316h.274v1.654h-.274v-.265a.572.572,0,0,1-.539.292.624.624,0,0,1-.458-.182.7.7,0,0,1-.184-.517v-.982h.271v.937a.533.533,0,0,0,.122.378.43.43,0,0,0,.333.131.432.432,0,0,0,.333-.131.534.534,0,0,0,.122-.378Z" transform="translate(740.967 -3518.74)" fill="#1c2533"/>
    <path id="Path_6778" data-name="Path 6778" d="M-705.13,3519.92h.226v.223h-.277a.378.378,0,0,1-.431-.425v-1.006h-.214v-.223h.214v-.41h.277v.41h.428v.223h-.428v1.006a.218.218,0,0,0,.045.157A.227.227,0,0,0-705.13,3519.92Z" transform="translate(734.998 -3517.913)" fill="#1c2533"/>
    <path id="Path_6779" data-name="Path 6779" d="M-698.418,3520.943l-.654-1.627h.3l.506,1.337.515-1.337h.283l-1,2.428h-.283Z" transform="translate(730.482 -3518.74)" fill="#1c2533"/>
  </g>
</svg>
