<svg xmlns="http://www.w3.org/2000/svg" width="31.56" height="31.56" viewBox="0 0 31.56 31.56">
  <g id="Group_17037" data-name="Group 17037" transform="translate(1649.869 -4650.203)">
    <path id="Path_8041" data-name="Path 8041" d="M-1618.309,4665.983a15.78,15.78,0,0,1-15.78,15.78,15.78,15.78,0,0,1-15.78-15.78,15.78,15.78,0,0,1,15.78-15.78,15.78,15.78,0,0,1,15.78,15.78Zm0,0" fill="#4dc47d"/>
    <path id="Path_8042" data-name="Path 8042" d="M-1538.5,4694.331a15.825,15.825,0,0,0-.417-3.616l-9.675-9.625-1.688,2.049-2.332-2.049-3.067,1.937-2.19-1.937-2.1,4.313.984.94-.3,1.035,1.328,1.34-.386.709,1.345,1.249c0,.328.509,5.155-1.252,6.882-1.294,1.269-4.663,8.53-4.663,8.53l2.457,2.767a15.732,15.732,0,0,0,6.177,1.255,15.78,15.78,0,0,0,15.78-15.78Zm0,0" transform="translate(-79.807 -28.348)" fill="#22894c"/>
    <path id="Path_8043" data-name="Path 8043" d="M-1517.618,4773.906h-5.934v2.774c0,2.334-2.649,7.867-2.649,9.185h11.232c0-1.317-2.649-6.851-2.649-9.185v-2.774Zm0,0" transform="translate(-113.504 -113.536)" fill="#fff"/>
    <path id="Path_8044" data-name="Path 8044" d="M-1452.252,4785.864h-5.617v-11.958h2.967v2.774c0,2.334,2.62,7.728,2.648,8.936,0,.082,0,.165,0,.249Zm0,0" transform="translate(-176.22 -113.536)" fill="#f1f4f6"/>
    <rect id="Rectangle_11204" data-name="Rectangle 11204" width="8.128" height="2.145" transform="translate(-1638.153 4658.935)" fill="#f1f4f6"/>
    <rect id="Rectangle_11205" data-name="Rectangle 11205" width="4.064" height="2.145" transform="translate(-1634.089 4658.934)" fill="#daeaec"/>
    <rect id="Rectangle_11206" data-name="Rectangle 11206" width="14.811" height="2.369" transform="translate(-1641.494 4672.081)" fill="#daeaec"/>
    <rect id="Rectangle_11207" data-name="Rectangle 11207" width="7.405" height="2.369" transform="translate(-1634.089 4672.08)" fill="#cedfe2"/>
    <rect id="Rectangle_11208" data-name="Rectangle 11208" width="17.267" height="3.383" transform="translate(-1642.723 4674.356)" fill="#f1f4f6"/>
    <rect id="Rectangle_11209" data-name="Rectangle 11209" width="8.634" height="3.383" transform="translate(-1634.089 4674.356)" fill="#daeaec"/>
    <rect id="Rectangle_11210" data-name="Rectangle 11210" width="10.011" height="2.322" transform="translate(-1639.094 4656.708)" fill="#daeaec"/>
    <rect id="Rectangle_11211" data-name="Rectangle 11211" width="5.005" height="2.322" transform="translate(-1634.089 4656.708)" fill="#cedfe2"/>
    <path id="Path_8045" data-name="Path 8045" d="M-1517.8,4681.09v1.92h-1.921v-1.92h-3.336v1.92h-1.921v-1.92h-2.1v4.313h11.376v-4.312Zm0,0" transform="translate(-112.698 -28.348)" fill="#fff"/>
    <path id="Path_8046" data-name="Path 8046" d="M-1452.181,4681.09v4.313h-5.688v-4.312h1.668v1.919h1.921v-1.919Zm0,0" transform="translate(-176.22 -28.348)" fill="#f1f4f6"/>
  </g>
</svg>
