<svg id="Component_31_1" data-name="Component 31 – 1" xmlns="http://www.w3.org/2000/svg" width="12.482" height="12.482" viewBox="0 0 12.482 12.482">
  <circle id="Ellipse_190" data-name="Ellipse 190" cx="6.241" cy="6.241" r="6.241" fill="#4dc47d"/>
  <path id="Path_8787" data-name="Path 8787" d="M753.229-338.68v-2.237c.079-.124.146-.139.272-.055a.637.637,0,0,0,.366.1q1.136,0,2.273,0h.088c0,.031,0,.053,0,.076,0,.12,0,.239,0,.359a.152.152,0,0,0,.167.166q.436,0,.872,0a.15.15,0,0,0,.163-.155c0-.061,0-.122,0-.183,0-.086,0-.171,0-.263h.094c.755,0,1.51,0,2.266,0a.636.636,0,0,0,.39-.115.152.152,0,0,1,.171-.02.159.159,0,0,1,.081.159c0,.689,0,1.379,0,2.068a.679.679,0,0,1-.036.213.593.593,0,0,1-.6.4H753.8a.6.6,0,0,1-.547-.423Z" transform="translate(-750.592 347.412)" fill="#fff"/>
  <path id="Path_8788" data-name="Path 8788" d="M753.229-373.464v-1.084s.007-.007.008-.011a.6.6,0,0,1,.65-.5h1.443c0-.1,0-.2,0-.294a.591.591,0,0,1,.579-.6c.617-.006,1.234,0,1.851,0a.57.57,0,0,1,.55.442,1.913,1.913,0,0,1,.025.321c0,.043,0,.087,0,.135h.1c.46,0,.919,0,1.379,0a.6.6,0,0,1,.626.629q0,.418,0,.837a.6.6,0,0,1-.637.634h-2.365c0-.05,0-.09,0-.13a.152.152,0,0,0-.17-.169q-.433,0-.865,0a.15.15,0,0,0-.167.165c0,.043,0,.087,0,.127a.175.175,0,0,1-.025.006c-.8,0-1.6,0-2.406,0a.589.589,0,0,1-.543-.419C753.248-373.407,753.238-373.435,753.229-373.464Zm2.707-1.893v.294h1.793v-.294Z" transform="translate(-750.592 379.199)" fill="#fff"/>
</svg>
