<svg xmlns="http://www.w3.org/2000/svg" width="348" height="356.094" viewBox="0 0 348 356.094">
  <g id="Group_17430" data-name="Group 17430" transform="translate(-4456.243 -4803.681)">
    <g id="Group_17257" data-name="Group 17257" transform="translate(4456.243 4809.908)">
      <g id="Group_17255" data-name="Group 17255" transform="translate(0 0)">
        <path id="Path_8225" data-name="Path 8225" d="M4771.4,4916.094q-3.467-1.968-6.872-4.029c-24.481-14.795-138.891-81.88-184.474-71.85-51.182,11.263-149.157,188.662-117.726,237.045s177.235,126.073,213.307,109.536,124.676-177.139,128.356-215.31C4807.137,4938.893,4779.537,4920.712,4771.4,4916.094Z" transform="translate(-4456.243 -4839.197)" fill="#92e3a9"/>
      </g>
      <g id="Group_17256" data-name="Group 17256" transform="translate(0 0)" opacity="0.7">
        <path id="Path_8226" data-name="Path 8226" d="M4771.4,4916.094q-3.467-1.968-6.872-4.029c-24.481-14.795-138.891-81.88-184.474-71.85-51.182,11.263-149.157,188.662-117.726,237.045s177.235,126.073,213.307,109.536,124.676-177.139,128.356-215.31C4807.137,4938.893,4779.537,4920.712,4771.4,4916.094Z" transform="translate(-4456.243 -4839.197)" fill="#fff"/>
      </g>
    </g>
    <g id="Group_17258" data-name="Group 17258" transform="translate(4487.432 5111.939)" opacity="0.3">
      <ellipse id="Ellipse_119" data-name="Ellipse 119" cx="129.752" cy="23.784" rx="129.752" ry="23.784" transform="translate(0 0)"/>
    </g>
    <g id="Group_17268" data-name="Group 17268" transform="translate(4504.252 4859.993)">
      <g id="Group_17259" data-name="Group 17259" transform="translate(0 122.351)">
        <path id="Path_8227" data-name="Path 8227" d="M4730.157,5836.75l-.092-.779,3.894-.462.092.779Zm7.788-.924-.092-.778,3.894-.462.093.778Zm7.788-.923-.093-.779,3.894-.462.093.779Zm7.788-.924-.093-.779,3.894-.461.093.778Zm7.788-.924-.093-.778,3.894-.462.092.779Zm7.788-.924-.092-.778,3.894-.462.093.779Zm7.788-.924-.093-.778,3.894-.462.093.778Zm7.788-.924-.093-.778,3.894-.462.092.779Zm7.788-.923-.092-.779,3.894-.462.092.779Zm7.788-.924-.093-.779,3.894-.461.093.778Zm7.788-.924-.093-.779,3.894-.461.093.778Zm7.788-.924-.092-.778,3.894-.462.092.778Zm7.788-.924-.092-.779,3.894-.462.092.779Zm7.788-.924-.093-.779,3.894-.462.093.779Zm7.788-.923-.093-.779,2.94-.349.092.779Z" transform="translate(-4730.065 -5822.689)" fill="#263238"/>
      </g>
      <g id="Group_17260" data-name="Group 17260" transform="translate(3.116 86.164)">
        <path id="Path_8228" data-name="Path 8228" d="M4858.657,5642.553l-3.821-.879.176-.765,3.821.879Zm-7.642-1.758-3.822-.879.176-.765,3.821.879Zm-7.643-1.759-3.822-.879.176-.764,3.821.879Zm-7.643-1.758-3.822-.879.176-.765,3.821.879Zm-7.643-1.758-3.821-.879.176-.765,3.821.879Zm-7.643-1.759-3.821-.879.176-.765,3.821.879ZM4812.8,5632l-3.822-.879.177-.765,3.821.879Zm-7.643-1.759-3.822-.879.176-.764,3.821.879Zm-7.643-1.758-3.821-.879.176-.765,3.821.88Zm-7.642-1.758-3.822-.879.176-.765,3.821.879Zm-7.643-1.759-3.822-.879.176-.764,3.821.878Zm-7.643-1.758-3.822-.879.176-.765,3.822.879Zm-7.643-1.758-3.822-.88.176-.764,3.821.879Zm-7.643-1.759-3.821-.879.176-.765,3.821.879Zm-7.643-1.758-3.822-.879.176-.765,3.822.879Z" transform="translate(-4747.838 -5616.295)" fill="#263238"/>
      </g>
      <g id="Group_17261" data-name="Group 17261" transform="translate(20.896 44.63)">
        <path id="Path_8229" data-name="Path 8229" d="M4938.723,5434.814l-2.512-1.537.409-.668,2.512,1.536Zm-5.857-3.583-3.345-2.046.409-.669,3.345,2.046Zm-6.69-4.093-3.345-2.046.41-.669,3.345,2.046Zm-6.689-4.092-3.345-2.046.409-.669,3.345,2.046Zm-6.69-4.093-3.345-2.046.409-.669,3.345,2.046Zm-6.69-4.092-3.345-2.046.409-.669,3.345,2.047Zm-6.69-4.093-3.345-2.046.409-.669,3.345,2.046Zm-6.689-4.092-3.345-2.046.409-.669,3.345,2.046Zm-6.69-4.092-3.345-2.047.41-.669,3.345,2.047Zm-6.69-4.093-3.345-2.046.41-.669,3.345,2.046Zm-6.689-4.093-3.345-2.046.409-.668,3.345,2.046Zm-6.69-4.093-3.344-2.046.409-.669,3.345,2.046Zm-6.689-4.093-3.346-2.045.41-.669,3.345,2.046Zm-6.69-4.092-3.345-2.046.41-.669,3.345,2.047Z" transform="translate(-4849.243 -5379.405)" fill="#263238"/>
      </g>
      <g id="Group_17262" data-name="Group 17262" transform="translate(70.809 41.021)">
        <path id="Path_8230" data-name="Path 8230" d="M5183.133,5415.28l-2.59-2.944.589-.518,2.589,2.944Zm-5.18-5.889-2.59-2.944.588-.518,2.59,2.944Zm-5.18-5.889-2.59-2.944.589-.518,2.59,2.944Zm-5.18-5.888-2.59-2.944.589-.518,2.59,2.944Zm-5.18-5.888-2.59-2.944.589-.519,2.59,2.944Zm-5.18-5.889-2.59-2.944.589-.518,2.589,2.944Zm-5.179-5.889-2.59-2.944.588-.518,2.59,2.944Zm-5.18-5.889-2.59-2.944.588-.518,2.59,2.944Zm-5.18-5.888-2.589-2.944.589-.519,2.589,2.944Zm-5.18-5.889-2.59-2.944.589-.518,2.59,2.943Z" transform="translate(-5133.926 -5358.822)" fill="#263238"/>
      </g>
      <g id="Group_17263" data-name="Group 17263" transform="translate(124.399 3.383)">
        <path id="Path_8231" data-name="Path 8231" d="M5440.362,5234.337h-.785v-3.921h.785Zm0-7.842h-.785v-3.921h.785Zm0-7.842h-.785v-3.921h.785Zm0-7.842h-.785v-3.921h.785Zm0-7.843h-.785v-3.921h.785Zm0-7.842h-.785V5191.2h.785Zm0-7.842h-.785v-3.921h.785Zm0-7.842h-.785v-3.921h.785Zm0-7.843h-.785v-3.921h.785Zm0-7.842h-.785v-3.921h.785Zm0-7.842h-.785v-3.921h.785Zm0-7.843h-.785v-3.921h.785Z" transform="translate(-5439.577 -5144.15)" fill="#263238"/>
      </g>
      <g id="Group_17264" data-name="Group 17264" transform="translate(136.05 0)">
        <path id="Path_8232" data-name="Path 8232" d="M5506.67,5223.732l-.643-.45,1.458-2.081.642.45Zm3.708-5.293-.643-.449,2.25-3.212.643.45Zm4.5-6.423-.643-.449,2.25-3.212.642.45Zm4.5-6.423-.642-.45,2.25-3.211.642.449Zm4.5-6.423-.643-.45,2.25-3.212.643.45Zm4.5-6.423-.643-.45,2.25-3.212.642.45Zm4.5-6.424-.642-.45,2.25-3.211.642.45Zm4.5-6.423-.643-.45,2.25-3.211.643.449Zm4.5-6.424-.643-.449,2.25-3.212.642.45Zm4.5-6.422-.642-.45,2.25-3.212.642.45Zm4.5-6.424-.643-.449,2.25-3.212.643.449Zm4.5-6.423-.643-.45,2.25-3.211.642.45Zm4.5-6.423-.642-.45,2.25-3.212.642.45Zm4.5-6.424-.643-.449,2.25-3.212.643.45Zm4.5-6.423-.643-.449,2.25-3.212.642.449Zm4.5-6.423-.642-.45,2.25-3.211.642.449Z" transform="translate(-5506.028 -5124.855)" fill="#263238"/>
      </g>
      <g id="Group_17265" data-name="Group 17265" transform="translate(141.208 36.218)">
        <path id="Path_8233" data-name="Path 8233" d="M5535.886,5400.1l-.439-.65,3.25-2.194.439.65Zm6.5-4.389-.438-.65,3.25-2.194.438.65Zm6.5-4.389-.439-.649,3.25-2.194.439.65Zm6.5-4.389-.439-.649,3.25-2.195.438.65Zm6.5-4.389-.439-.649,3.25-2.195.439.65Zm6.5-4.388-.439-.65,3.25-2.194.439.649Zm6.5-4.389-.439-.65,3.25-2.194.439.649Zm6.5-4.389-.439-.65,3.249-2.194.439.65Zm6.5-4.389-.439-.65,3.25-2.194.439.65Zm6.5-4.389-.439-.649,3.25-2.195.439.65Zm6.5-4.389-.439-.649,3.25-2.195.439.65Zm6.5-4.389-.438-.65,3.249-2.194.439.65Zm6.5-4.388-.439-.65,3.25-2.194.439.65Zm6.5-4.389-.438-.65,3.249-2.194.439.65Zm6.5-4.389-.439-.65,3.25-2.194.439.65Zm6.5-4.389-.439-.65,3.25-2.195.439.65Z" transform="translate(-5535.447 -5331.426)" fill="#263238"/>
      </g>
      <g id="Group_17266" data-name="Group 17266" transform="translate(144.191 89.85)">
        <path id="Path_8234" data-name="Path 8234" d="M5552.645,5661.247l-.185-.761,3.811-.927.185.762Zm7.621-1.853-.186-.762,3.81-.927.186.762Zm7.62-1.854-.186-.761,3.811-.927.186.762Zm7.619-1.854-.185-.762,3.811-.927.185.762Zm7.621-1.854-.186-.762,3.811-.927.185.762Zm7.62-1.853-.186-.762,3.811-.927.186.762Zm7.62-1.854-.186-.762,3.811-.927.186.762Zm7.62-1.854-.186-.762,3.811-.927.186.762Zm7.62-1.854-.186-.761,3.811-.927.185.762Zm7.62-1.853-.185-.762,3.81-.927.186.762Zm7.62-1.854-.186-.762,3.811-.927.186.762Zm7.62-1.854-.186-.762,3.811-.926.186.762Zm7.62-1.854-.186-.762,3.811-.926.186.762Z" transform="translate(-5552.46 -5637.316)" fill="#263238"/>
      </g>
      <g id="Group_17267" data-name="Group 17267" transform="translate(146.253 125.649)">
        <path id="Path_8235" data-name="Path 8235" d="M5655.279,5871.192l-3.737-1.187.238-.748,3.736,1.188Zm-7.474-2.375-3.737-1.188.237-.747,3.737,1.188Zm-7.474-2.376-3.737-1.188.238-.748,3.737,1.189Zm-7.474-2.376-3.737-1.188.238-.747,3.736,1.188Zm-7.474-2.376-3.737-1.187.238-.748,3.737,1.188Zm-7.474-2.376-3.737-1.188.237-.747,3.737,1.188Zm-7.474-2.376-3.737-1.188.238-.747,3.737,1.188Zm-7.474-2.376-3.737-1.188.238-.747,3.736,1.188Zm-7.474-2.375-3.737-1.188.237-.747,3.737,1.188Zm-7.474-2.376-3.737-1.188.238-.747,3.737,1.188Zm-7.474-2.376-3.737-1.188.237-.747,3.737,1.188Zm-7.474-2.376-3.737-1.188.238-.748,3.737,1.188Zm-7.474-2.376-1.373-.436.237-.748,1.373.437Z" transform="translate(-5564.221 -5841.496)" fill="#263238"/>
      </g>
    </g>
    <g id="Group_17277" data-name="Group 17277" transform="translate(4745.242 5001.102)">
      <g id="Group_17269" data-name="Group 17269">
        <rect id="Rectangle_11259" data-name="Rectangle 11259" width="31.528" height="28.564" rx="14.282" transform="translate(0.392 0.392)" fill="#fff"/>
        <path id="Path_8236" data-name="Path 8236" d="M6129.993,5959.025H6111.44a6.888,6.888,0,0,1-6.88-6.879v-15.589a6.889,6.889,0,0,1,6.88-6.88h18.552a6.889,6.889,0,0,1,6.88,6.88v15.589A6.888,6.888,0,0,1,6129.993,5959.025Zm-18.552-28.564a6.1,6.1,0,0,0-6.1,6.1v15.589a6.1,6.1,0,0,0,6.1,6.1h18.552a6.1,6.1,0,0,0,6.1-6.1v-15.589a6.1,6.1,0,0,0-6.1-6.1Z" transform="translate(-6104.56 -5929.677)" fill="#263238"/>
      </g>
      <g id="Group_17276" data-name="Group 17276" transform="translate(4.385 3.915)">
        <g id="Group_17270" data-name="Group 17270" transform="translate(12.691 3.777)">
          <rect id="Rectangle_11260" data-name="Rectangle 11260" width="9.367" height="1.813" fill="#263238"/>
        </g>
        <g id="Group_17271" data-name="Group 17271" transform="translate(12.691 14.241)">
          <rect id="Rectangle_11261" data-name="Rectangle 11261" width="9.367" height="1.813" fill="#263238"/>
        </g>
        <g id="Group_17272" data-name="Group 17272">
          <path id="Path_8237" data-name="Path 8237" d="M6135.16,5952h-1.813v3.777h-3.778v1.813h3.778v3.777h1.813v-3.777h3.777v-1.813h-3.777Z" transform="translate(-6129.569 -5952.004)" fill="#263238"/>
        </g>
        <g id="Group_17273" data-name="Group 17273" transform="translate(0.731 12.067)">
          <path id="Path_8238" data-name="Path 8238" d="M6140.361,6020.829l-2.67,2.671-2.671-2.671-1.282,1.282,2.67,2.671-2.67,2.671,1.282,1.282,2.671-2.671,2.67,2.671,1.282-1.282-2.671-2.671,2.671-2.671Z" transform="translate(-6133.737 -6020.829)" fill="#263238"/>
        </g>
        <g id="Group_17274" data-name="Group 17274" transform="translate(16.409 11.087)">
          <circle id="Ellipse_120" data-name="Ellipse 120" cx="1.221" cy="1.221" r="1.221" fill="#263238"/>
        </g>
        <g id="Group_17275" data-name="Group 17275" transform="translate(16.409 17.017)">
          <circle id="Ellipse_121" data-name="Ellipse 121" cx="1.221" cy="1.221" r="1.221" fill="#263238"/>
        </g>
      </g>
    </g>
    <g id="Group_17278" data-name="Group 17278" transform="translate(4749.266 4876.047)">
      <path id="Path_8239" data-name="Path 8239" d="M6138.338,5216.423a10.828,10.828,0,0,0-10.827,10.828c0,5.979,10.827,16.158,10.827,16.158s10.828-10.178,10.828-16.158A10.828,10.828,0,0,0,6138.338,5216.423Zm0,14.634a3.806,3.806,0,1,1,3.807-3.806A3.806,3.806,0,0,1,6138.338,5231.057Z" transform="translate(-6127.511 -5216.423)" fill="#263238"/>
    </g>
    <g id="Group_17284" data-name="Group 17284" transform="translate(4603.326 4826.114)">
      <g id="Group_17279" data-name="Group 17279" transform="translate(0 0)">
        <path id="Path_8240" data-name="Path 8240" d="M5317.008,4950.877a3.93,3.93,0,0,1,3.925-3.926h3.964V4935.7a4.073,4.073,0,0,0-4.073-4.073h-21.618a4.073,4.073,0,0,0-4.073,4.073v12.532a4.073,4.073,0,0,0,4.073,4.073h4.841l4.245,8.772,2.339-8.772h6.376Z" transform="translate(-5295.134 -4931.629)" fill="#263238"/>
      </g>
      <g id="Group_17280" data-name="Group 17280" transform="translate(23.023 16.47)">
        <path id="Path_8241" data-name="Path 8241" d="M5429.223,5025.568h14.741a2.778,2.778,0,0,1,2.778,2.777v8.545a2.778,2.778,0,0,1-2.778,2.777h-3.3l-2.895,5.982-1.6-5.982h-6.95a2.777,2.777,0,0,1-2.777-2.777v-8.545A2.777,2.777,0,0,1,5429.223,5025.568Z" transform="translate(-5426.446 -5025.568)" fill="#263238"/>
      </g>
      <g id="Group_17281" data-name="Group 17281" transform="translate(5.561 5.309)">
        <path id="Path_8242" data-name="Path 8242" d="M5345.1,4962.693h-17.858a.392.392,0,1,1,0-.785H5345.1a.392.392,0,1,1,0,.785Z" transform="translate(-5326.849 -4961.908)" fill="#92e3a9"/>
      </g>
      <g id="Group_17282" data-name="Group 17282" transform="translate(5.561 9.695)">
        <path id="Path_8243" data-name="Path 8243" d="M5345.1,4987.71h-17.858a.392.392,0,1,1,0-.784H5345.1a.392.392,0,1,1,0,.784Z" transform="translate(-5326.849 -4986.926)" fill="#92e3a9"/>
      </g>
      <g id="Group_17283" data-name="Group 17283" transform="translate(5.561 14.081)">
        <path id="Path_8244" data-name="Path 8244" d="M5345.1,5012.728h-17.858a.392.392,0,1,1,0-.785H5345.1a.392.392,0,1,1,0,.785Z" transform="translate(-5326.849 -5011.943)" fill="#92e3a9"/>
      </g>
    </g>
    <g id="Group_17287" data-name="Group 17287" transform="translate(4482.894 4878.307)">
      <g id="Group_17285" data-name="Group 17285" transform="translate(0 0)">
        <circle id="Ellipse_122" data-name="Ellipse 122" cx="15.962" cy="15.962" r="15.962" transform="translate(0.784 0.784)" fill="#fff"/>
        <path id="Path_8245" data-name="Path 8245" d="M4624.995,5262.8a16.746,16.746,0,1,1,16.746-16.746A16.765,16.765,0,0,1,4624.995,5262.8Zm0-31.924a15.178,15.178,0,1,0,15.178,15.178A15.2,15.2,0,0,0,4624.995,5230.878Z" transform="translate(-4608.249 -5229.309)" fill="#263238"/>
      </g>
      <g id="Group_17286" data-name="Group 17286" transform="translate(9.331 16.354)">
        <path id="Path_8246" data-name="Path 8246" d="M4668.885,5332.146a.393.393,0,0,1-.393-.393v-8.385h-6.63a.392.392,0,0,1,0-.785h7.022a.392.392,0,0,1,.393.392v8.778A.393.393,0,0,1,4668.885,5332.146Z" transform="translate(-4661.471 -5322.584)" fill="#263238"/>
      </g>
    </g>
    <g id="Group_17290" data-name="Group 17290" transform="translate(4466.274 4981.188)">
      <g id="Group_17288" data-name="Group 17288" transform="translate(0 0)">
        <path id="Path_8247" data-name="Path 8247" d="M4536,5833.616v-6.576a10.941,10.941,0,1,0-21.882,0v6.576h-.661v22.149h23.2v-22.149Zm-19-6.576a8.063,8.063,0,1,1,16.125,0v6.576h-16.125Z" transform="translate(-4513.455 -5816.098)" fill="#263238"/>
      </g>
      <g id="Group_17289" data-name="Group 17289" transform="translate(8.627 23.493)">
        <path id="Path_8248" data-name="Path 8248" d="M4568.759,5953.141a3.05,3.05,0,1,0-4.828,2.469v5.039h3.555v-5.038A3.04,3.04,0,0,0,4568.759,5953.141Z" transform="translate(-4562.659 -5950.091)" fill="#fff"/>
      </g>
    </g>
    <g id="Group_17336" data-name="Group 17336" transform="translate(4477.604 4861.636)">
      <g id="Group_17291" data-name="Group 17291" transform="translate(113.628 193.705)">
        <path id="Path_8249" data-name="Path 8249" d="M5313.417,6313.029c-.46-1.381-21.547-12.081-29.539-16.094h22.791a3.532,3.532,0,1,0,4.169,1.5,1.875,1.875,0,0,0,1.821-.36c.758-.568.947-3.408-1.136-4.734-1.808-1.15-30-1.73-37.415-1.863v-24.455h5.8v-25.75h-20.07v25.75h5.8v24.5c-9.681.191-33.487.767-35.144,1.82-2.083,1.326-1.894,4.166-1.136,4.734a2.035,2.035,0,0,0,1.39.458,3.481,3.481,0,0,0-.465,1.719,3.525,3.525,0,1,0,4.687-3.313h23.169c-7.991,4.013-29.078,14.713-29.539,16.094a6.329,6.329,0,0,0,.165,3.6,4.827,4.827,0,1,0,7.169-2.888c8.323-3.632,33.8-12.665,35.078-12.825,1.255.157,25.917,8.9,34.651,12.64a4.826,4.826,0,1,0,7,4.365A6.606,6.606,0,0,0,5313.417,6313.029Zm-4.324-16.062c-.032-.013-.067-.02-.1-.031h.069Z" transform="translate(-5228.007 -6240.878)" fill="#263238"/>
        <path id="Path_8250" data-name="Path 8250" d="M5305.98,6321.233a5.218,5.218,0,0,1-3.034-9.465c-9.33-3.911-32.145-11.979-33.792-12.3-1.691.334-25.618,8.83-34.281,12.511a5.174,5.174,0,0,1,1.917,4.038,5.22,5.22,0,1,1-10.291-1.222,6.66,6.66,0,0,1-.13-3.73c.113-.339.349-1.044,12.134-7.282,5.647-2.989,12.065-6.25,16.125-8.295h-20.087a3.912,3.912,0,1,1-6.51,2.921,3.765,3.765,0,0,1,.26-1.373,2.7,2.7,0,0,1-1.028-.491,2.543,2.543,0,0,1-.681-2.071,4.068,4.068,0,0,1,1.842-3.307c1.652-1.051,22.432-1.623,34.961-1.874v-23.721h-5.4a.392.392,0,0,1-.393-.393v-25.75a.393.393,0,0,1,.393-.393h20.07a.392.392,0,0,1,.392.393v25.75a.392.392,0,0,1-.392.393h-5.4v23.678c10.907.2,35.431.77,37.233,1.917a4.065,4.065,0,0,1,1.842,3.306,2.541,2.541,0,0,1-.681,2.072,2.509,2.509,0,0,1-1.384.543,3.826,3.826,0,0,1,.238,1.321,3.917,3.917,0,1,1-6.509-2.921h-19.709c4.06,2.046,10.477,5.306,16.125,8.295,11.785,6.237,12.021,6.943,12.134,7.282h0a7.069,7.069,0,0,1-.743,5.131A5.238,5.238,0,0,1,5305.98,6321.233Zm-36.826-22.559a.328.328,0,0,1,.049,0c1.438.18,26.444,9.106,34.757,12.668a.392.392,0,0,1,.022.71,4.434,4.434,0,1,0,6.431,4.011.4.4,0,0,1,.067-.213,6.241,6.241,0,0,0,.719-4.53c-.631-1.023-11.866-7.1-29.347-15.882a.392.392,0,0,1,.176-.743h22.791a.392.392,0,0,1,.129.762,3.127,3.127,0,1,0,4.165,2.943,3.077,3.077,0,0,0-.462-1.614.393.393,0,0,1,.472-.571,1.484,1.484,0,0,0,1.45-.306,1.913,1.913,0,0,0,.368-1.415,3.288,3.288,0,0,0-1.479-2.674c-1.115-.709-15.721-1.417-37.211-1.8a.392.392,0,0,1-.385-.392v-24.456a.392.392,0,0,1,.392-.392h5.4v-24.965h-19.285v24.965h5.4a.393.393,0,0,1,.393.392v24.5a.392.392,0,0,1-.385.392c-20.483.4-33.871,1.079-34.94,1.76a3.292,3.292,0,0,0-1.479,2.675,1.914,1.914,0,0,0,.368,1.414,1.637,1.637,0,0,0,1.121.381.394.394,0,0,1,.363.179.39.39,0,0,1,.012.4,3.086,3.086,0,0,0-.414,1.526,3.133,3.133,0,1,0,4.165-2.943.392.392,0,0,1,.13-.762h23.169a.392.392,0,0,1,.176.743c-17.524,8.8-28.771,14.89-29.352,15.89a5.932,5.932,0,0,0,.176,3.329.391.391,0,0,1,.005.22,4.434,4.434,0,1,0,8.72,1.133,4.4,4.4,0,0,0-2.135-3.786.392.392,0,0,1,.048-.695c8.522-3.718,33.9-12.693,35.186-12.854A.322.322,0,0,1,5269.154,6298.675Zm42.049,12.656Zm-.009-.022h0Zm-3.952-15.794a.4.4,0,0,1-.139-.025c-.045-.013-.067-.02-.089-.027a.392.392,0,0,1,.128-.763h.069a.392.392,0,0,1,.277.115l.031.031a.392.392,0,0,1-.277.669Z" transform="translate(-5226.156 -6239.033)" fill="#263238"/>
      </g>
      <g id="Group_17292" data-name="Group 17292" transform="translate(92.317 99.107)">
        <path id="Path_8251" data-name="Path 8251" d="M5138.588,5719.656a16.573,16.573,0,0,1-7.176,4.1c-10.606,2.68-18.11-3.759-23.235,9.909s4.442,41,16.4,49.888,31.094,15.035,55.7,5.125,47.5-36.9,49.888-64.239-63.016-23.727-69.778-20.577S5138.588,5719.656,5138.588,5719.656Z" transform="translate(-5106.385 -5701.332)" fill="#fff"/>
        <path id="Path_8252" data-name="Path 8252" d="M5153.95,5792.315a52.358,52.358,0,0,1-31.385-10.287c-5.756-4.276-11.269-13-14.746-23.34-3.527-10.489-4.2-20.583-1.79-27,3.614-9.638,8.427-9.546,14.519-9.432a32.8,32.8,0,0,0,8.988-.72,16.325,16.325,0,0,0,6.989-3.991.288.288,0,0,1,.031-.029c.615-.518,15.152-12.712,21.884-15.848,2.9-1.351,14.786-2.536,27.2-2.074a113.027,113.027,0,0,1,19.595,2.287c6.875,1.492,12.346,3.639,16.261,6.381,5.334,3.737,7.781,8.572,7.273,14.372-1.136,12.988-7.067,26.791-16.7,38.864-9.276,11.628-21.149,20.757-33.433,25.7A65.806,65.806,0,0,1,5153.95,5792.315Zm-35.3-69.3c-5.047,0-8.83.813-11.88,8.946-2.346,6.255-1.673,16.152,1.8,26.476,3.427,10.192,8.836,18.776,14.469,22.96,8.918,6.625,27.964,16.093,55.317,5.077,12.16-4.9,23.919-13.942,33.113-25.466,9.537-11.955,15.408-25.608,16.531-38.444.481-5.5-1.854-10.1-6.943-13.661-4.06-2.844-14.062-7.734-35.435-8.527-12.939-.48-24.356.842-26.845,2-6.542,3.047-21.132,15.253-21.694,15.724a16.811,16.811,0,0,1-7.347,4.194,33.42,33.42,0,0,1-9.2.744C5119.885,5723.028,5119.256,5723.016,5118.646,5723.016Z" transform="translate(-5104.605 -5699.492)" fill="#263238"/>
      </g>
      <g id="Group_17300" data-name="Group 17300" transform="translate(106.089 24.44)">
        <g id="Group_17293" data-name="Group 17293" transform="translate(2.617)">
          <path id="Path_8253" data-name="Path 8253" d="M5242.434,5322.142s-3.782,1.991-4.778,4.779-13.143,24.492-13.143,24.492-1.194-20.51-2.986-32.257-3.783-25.289-6.571-31.263-9.558-10.752-12.346-11.748-2.987.8-.8,2.19,5.574,6.173,5.574,6.173l1.793,3.583s-5.974,7.368-5.974,11.151,7.766,8.164,7.766,8.164-6.571,44.4-4.779,52.568,6.372,16.328,9.559,17.125,18.916-10.354,18.916-10.354,9.758-30.466,10.554-36.24S5245.819,5320.947,5242.434,5322.142Z" transform="translate(-5199.933 -5275.464)" fill="#fff"/>
          <path id="Path_8254" data-name="Path 8254" d="M5214.236,5375.687a1.777,1.777,0,0,1-.429-.047c-3.334-.833-8.027-9.138-9.846-17.421-.752-3.428-.176-13.345,1.711-29.475,1.283-10.964,2.768-21.214,3.024-22.971-1.34-.789-7.731-4.742-7.731-8.371,0-3.57,4.928-9.969,5.9-11.2l-1.666-3.333c-.262-.366-3.427-4.758-5.449-6.045-1.3-.826-1.928-1.871-1.571-2.6.158-.321.736-.992,2.709-.287,3.012,1.075,9.787,5.989,12.569,11.952,2.71,5.807,4.674,18.7,6.407,30.078l.2,1.291c1.511,9.9,2.608,26.208,2.909,30.959,2.533-4.546,11.623-20.911,12.463-23.266,1.035-2.9,4.806-4.91,4.966-4.994a.385.385,0,0,1,.052-.023,2.532,2.532,0,0,1,2.557.2c1.219.995,1.442,3.563.75,8.59-.792,5.742-10.17,35.061-10.569,36.306a.392.392,0,0,1-.146.2C5231.484,5366.331,5218.169,5375.686,5214.236,5375.687Zm-14.854-101.28c-.292,0-.453.073-.5.159-.1.2.187.9,1.288,1.6,2.229,1.419,5.544,6.08,5.685,6.277a.361.361,0,0,1,.031.051l1.792,3.584a.393.393,0,0,1-.046.423c-.059.072-5.886,7.3-5.886,10.9,0,1.423,1.29,3.218,3.729,5.189a31.88,31.88,0,0,0,3.837,2.633.393.393,0,0,1,.2.4c-.065.443-6.54,44.426-4.784,52.427,1.732,7.892,6.237,16.07,9.27,16.828,2.2.553,12.216-5.781,18.488-10.218.682-2.136,9.741-30.561,10.5-36.05.4-2.892.784-6.854-.468-7.875a1.782,1.782,0,0,0-1.773-.075c-.318.173-3.676,2.054-4.568,4.551-.995,2.787-12.672,23.665-13.169,24.552a.393.393,0,0,1-.734-.169c-.012-.205-1.214-20.626-2.983-32.221l-.2-1.292c-1.725-11.324-3.68-24.159-6.342-29.863-2.69-5.766-9.222-10.509-12.123-11.545A3.858,3.858,0,0,0,5199.382,5274.407Z" transform="translate(-5198.083 -5273.624)" fill="#263238"/>
        </g>
        <g id="Group_17294" data-name="Group 17294" transform="translate(8.178 46.065)">
          <path id="Path_8255" data-name="Path 8255" d="M5268.577,5538.811s-3.783,1.991-4.779,4.778-13.143,24.493-13.143,24.493-.245-4.21-.68-9.9c-6.527,4.576-13.362,3.16-17.238,1.677-.679,7.589-.986,14.123-.4,16.789,1.792,8.165,6.372,16.328,9.558,17.125s18.917-10.354,18.917-10.354,9.757-30.466,10.554-36.241S5271.962,5537.616,5268.577,5538.811Z" transform="translate(-5231.637 -5538.199)" fill="#92e3a9"/>
          <path id="Path_8256" data-name="Path 8256" d="M5240.4,5592.356a1.778,1.778,0,0,1-.43-.047c-3.334-.833-8.027-9.137-9.846-17.421-.527-2.4-.4-8.093.393-16.908a.393.393,0,0,1,.531-.331c3.515,1.345,10.379,2.921,16.874-1.632a.393.393,0,0,1,.616.292c.286,3.754.492,6.89.6,8.575,2.534-4.545,11.622-20.911,12.463-23.266,1.035-2.9,4.806-4.909,4.966-4.994a.356.356,0,0,1,.052-.023,2.531,2.531,0,0,1,2.557.2c1.219.994,1.443,3.563.75,8.59-.792,5.742-10.17,35.061-10.568,36.306a.389.389,0,0,1-.147.2C5257.642,5583,5244.328,5592.355,5240.4,5592.356Zm-9.146-33.8c-.742,8.443-.863,13.879-.363,16.16,1.732,7.892,6.237,16.07,9.27,16.828,2.2.552,12.216-5.781,18.488-10.218.682-2.136,9.741-30.561,10.5-36.05.4-2.892.784-6.854-.468-7.875a1.782,1.782,0,0,0-1.772-.075c-.319.174-3.677,2.055-4.569,4.551-1,2.787-12.672,23.665-13.169,24.552a.392.392,0,0,1-.734-.169c0-.041-.231-3.939-.628-9.224C5241.472,5561.142,5234.921,5559.871,5231.249,5558.561Z" transform="translate(-5229.803 -5536.359)" fill="#263238"/>
        </g>
        <g id="Group_17295" data-name="Group 17295" transform="translate(26.806 75.922)">
          <path id="Path_8257" data-name="Path 8257" d="M5336.643,5716.848c-.2-4.13-.593-10.088-.6-10.148l.783-.051c0,.06.4,6.025.6,10.162Z" transform="translate(-5336.046 -5706.648)" fill="#263238"/>
        </g>
        <g id="Group_17296" data-name="Group 17296" transform="translate(1.087 15.097)">
          <path id="Path_8258" data-name="Path 8258" d="M5194.619,5361.968s-3.281,2.745-3.013,4.62,5.892,7.23,7.632,6.695,2.544-.669.8-3.013-4.151-5.222-4.553-6.293S5194.619,5361.968,5194.619,5361.968Z" transform="translate(-5191.198 -5361.576)" fill="#fff"/>
          <path id="Path_8259" data-name="Path 8259" d="M5197.121,5371.868a4.277,4.277,0,0,1-2.1-.823c-2.3-1.462-5.426-4.7-5.647-6.247-.127-.894.375-2.012,1.5-3.323a15.777,15.777,0,0,1,1.653-1.654.393.393,0,0,1,.6.126c.019.039.482.968.886,2.046a27.822,27.822,0,0,0,2.848,4.036c.559.721,1.137,1.466,1.653,2.161.9,1.212,1.18,1.9,1,2.457-.2.617-.877.822-1.81,1.107l-.19.058A1.309,1.309,0,0,1,5197.121,5371.868Zm-4.476-11.107c-1,.923-2.664,2.739-2.494,3.926s3.037,4.265,5.292,5.7c1.227.779,1.717.718,1.838.681l.191-.059c.654-.2,1.218-.372,1.294-.6.058-.175-.048-.621-.881-1.744-.512-.688-1.087-1.43-1.644-2.148a25.788,25.788,0,0,1-2.962-4.241C5193.058,5361.682,5192.815,5361.131,5192.645,5360.761Z" transform="translate(-5189.355 -5359.731)" fill="#263238"/>
        </g>
        <g id="Group_17297" data-name="Group 17297" transform="translate(4.268 12.235)">
          <path id="Path_8260" data-name="Path 8260" d="M5216.974,5345.644s-5.35.25-6.421,1.255-1.272,3.415.938,6.427,3.75,4.955,4.62,4.018.67-2.209-.134-3.548a39.351,39.351,0,0,1-1.807-3.683l2.745-3.213Z" transform="translate(-5209.376 -5345.251)" fill="#fff"/>
          <path id="Path_8261" data-name="Path 8261" d="M5213.723,5356.126l-.064,0c-1.094-.063-2.437-1.788-4.362-4.413-2.335-3.184-2.129-5.782-.889-6.945,1.144-1.072,6.108-1.334,6.67-1.361a.385.385,0,0,1,.3.115.39.39,0,0,1,.115.3l-.06,1.255a.393.393,0,0,1-.094.236l-2.585,3.027a36.43,36.43,0,0,0,1.687,3.412c1.238,2.063.729,3.324.084,4.018A1.067,1.067,0,0,1,5213.723,5356.126Zm.96-11.914c-2.041.126-5.085.512-5.74,1.126-.956.9-1.055,3.128.986,5.91,1.252,1.708,2.968,4.047,3.775,4.094a.273.273,0,0,0,.241-.112c.672-.723.61-1.759-.182-3.079a39.3,39.3,0,0,1-1.833-3.73.393.393,0,0,1,.063-.409l2.658-3.112Z" transform="translate(-5207.498 -5343.404)" fill="#263238"/>
        </g>
        <g id="Group_17298" data-name="Group 17298" transform="translate(0 19.717)">
          <path id="Path_8262" data-name="Path 8262" d="M5186.5,5388.317s-2.008,3.347-.6,5.289,5.958,4.553,7.5,3.816a1.775,1.775,0,0,0,.737-2.411,20.723,20.723,0,0,1-3.816-2.41A27.076,27.076,0,0,1,5186.5,5388.317Z" transform="translate(-5185.001 -5387.925)" fill="#fff"/>
          <path id="Path_8263" data-name="Path 8263" d="M5190.9,5396.091c-2.131,0-5.9-2.351-7.17-4.1-1.541-2.127.5-5.575.584-5.721a.393.393,0,0,1,.32-.19.387.387,0,0,1,.335.164,26.821,26.821,0,0,0,3.745,4.209,20.594,20.594,0,0,0,3.735,2.359.392.392,0,0,1,.188.185,2.628,2.628,0,0,1,.136,1.817,1.949,1.949,0,0,1-1.057,1.117A1.889,1.889,0,0,1,5190.9,5396.091Zm-6.194-8.883c-.468.972-1.268,3.043-.341,4.324,1.417,1.956,5.808,4.268,7.012,3.692a1.179,1.179,0,0,0,.655-.67,1.741,1.741,0,0,0-.057-1.1,21.068,21.068,0,0,1-3.757-2.394A24.777,24.777,0,0,1,5184.708,5387.208Z" transform="translate(-5183.157 -5386.08)" fill="#263238"/>
        </g>
        <g id="Group_17299" data-name="Group 17299" transform="translate(5.043 12.198)">
          <path id="Path_8264" data-name="Path 8264" d="M5227.75,5349.246s-4.617-4.269-7.168-3.784c-1.141.217-5.377,3.784-6.173,5.376s.4,2.19,1.593,1.792,6.173-2.19,6.173-2.19-1.593,6.571,0,8.363,6.571,1.792,6.571,1.792" transform="translate(-5213.759 -5345.033)" fill="#fff"/>
          <path id="Path_8265" data-name="Path 8265" d="M5226.9,5359.15c-.21,0-5.174-.022-6.864-1.924-.737-.829-.97-2.563-.694-5.155.122-1.147.316-2.2.452-2.859-1.4.5-4.592,1.646-5.514,1.953a1.908,1.908,0,0,1-2.055-.355c-.238-.275-.556-.9-.013-1.984.811-1.621,5.09-5.328,6.45-5.586,2.715-.517,7.313,3.7,7.508,3.881l-.533.576c-1.244-1.15-4.9-4.054-6.829-3.686-1.034.2-5.15,3.675-5.9,5.166-.251.5-.286.9-.1,1.12a1.193,1.193,0,0,0,1.214.125c1.177-.392,6.114-2.169,6.164-2.187a.392.392,0,0,1,.514.461c-.43,1.772-1.282,6.667-.088,8.01,1.457,1.639,6.23,1.66,6.278,1.66Z" transform="translate(-5211.917 -5343.195)" fill="#263238"/>
        </g>
      </g>
      <g id="Group_17301" data-name="Group 17301" transform="translate(123.944 67.738)">
        <path id="Path_8266" data-name="Path 8266" d="M5341.579,5522.813s-25.488,1.394-27.479,2.986-3.385,5.974-3.584,7.169-7.567,36.639-8.96,42.812-14.327,21.512-14.327,21.512,23.245,12.626,34.255,18.253a79.46,79.46,0,0,0,22.865,7.368l25.9-54.7s12.346-30.466,12.744-33.452-.4-1.792-8.363-5.575a62.727,62.727,0,0,0-16.129-5.178C5356.512,5523.609,5341.579,5522.813,5341.579,5522.813Z" transform="translate(-5286.836 -5522.421)" fill="#92e3a9"/>
        <path id="Path_8267" data-name="Path 8267" d="M5342.5,5621.46a.306.306,0,0,1-.051,0,80.63,80.63,0,0,1-22.993-7.407c-10.889-5.565-34.032-18.132-34.264-18.258a.393.393,0,0,1-.112-.6c.128-.152,12.887-15.336,14.244-21.346,1.467-6.5,8.81-41.913,8.956-42.789.181-1.082,1.571-5.687,3.726-7.41,2.031-1.625,25.081-2.929,27.7-3.072h.042c.611.032,14.985.8,16.981,1.2l.536.1a62.389,62.389,0,0,1,15.684,5.1c2.563,1.218,4.35,1.905,5.654,2.407,2.682,1.032,3.24,1.247,2.93,3.574-.4,3-12.265,32.3-12.77,33.548l-25.912,54.721A.391.391,0,0,1,5342.5,5621.46Zm-56.513-26.129c3.2,1.736,23.759,12.874,33.826,18.02a80.2,80.2,0,0,0,22.458,7.287l25.778-54.437c.115-.284,12.323-30.433,12.71-33.337.229-1.714.229-1.714-2.434-2.739-1.316-.507-3.119-1.2-5.708-2.431a61.582,61.582,0,0,0-15.5-5.041c-.205-.039-.386-.074-.542-.105-1.907-.382-16.207-1.152-16.848-1.187-10.2.559-25.847,1.79-27.235,2.9-1.828,1.464-3.221,5.6-3.442,6.928-.2,1.207-7.514,36.409-8.964,42.833C5298.8,5579.754,5288.014,5592.9,5285.992,5595.331Z" transform="translate(-5284.992 -5520.575)" fill="#263238"/>
      </g>
      <g id="Group_17302" data-name="Group 17302" transform="translate(0 184.051)">
        <path id="Path_8268" data-name="Path 8268" d="M4618.842,6196.451l-16.261-.508s-20.071-10.417-21.85-9.654,2.287,12.957,7.622,19.817,20.071,16.26,22.866,17.785,4.319,2.541,6.86.762,8.638-13.719,8.638-13.719Z" transform="translate(-4579.916 -6185.849)" fill="#92e3a9"/>
        <path id="Path_8269" data-name="Path 8269" d="M4613.684,6224.109a8.9,8.9,0,0,1-4.058-1.515l-.437-.239c-1.565-.854-5.993-3.644-10.522-6.918-4.1-2.964-9.59-7.273-12.465-10.97a46.959,46.959,0,0,1-6.1-11.14c-1.209-3.074-2.356-6.923-1.947-8.509a1.056,1.056,0,0,1,.577-.77c.381-.163,1.274-.547,11.915,4.548,4.83,2.313,9.527,4.735,10.19,5.078l16.171.505a.394.394,0,0,1,.333.2l7.876,14.482a.394.394,0,0,1,0,.366c-.251.491-6.172,12.049-8.763,13.862A4.782,4.782,0,0,1,4613.684,6224.109Zm-34.5-39.356a.441.441,0,0,0-.14.018c-.023.01-.08.074-.124.244-.611,2.372,3.138,12.843,7.9,18.97,5.27,6.776,19.988,16.177,22.744,17.682l.438.24c2.533,1.391,3.8,2.088,6.009.544,2.265-1.585,7.64-11.884,8.419-13.393l-7.669-14.1-16.035-.5a.386.386,0,0,1-.169-.044C4588.265,6188.031,4580.554,6184.753,4579.181,6184.753Z" transform="translate(-4578.074 -6183.969)" fill="#263238"/>
      </g>
      <g id="Group_17303" data-name="Group 17303" transform="translate(0 184.06)">
        <path id="Path_8270" data-name="Path 8270" d="M4591.911,6203.823a68.284,68.284,0,0,1-9.827-17.361,2.65,2.65,0,0,0-1.352-.169c-1.778.762,2.287,12.957,7.622,19.817s20.071,16.261,22.866,17.785,4.319,2.541,6.86.763a9.433,9.433,0,0,0,1.811-2.024C4614.172,6219.7,4597.747,6210.909,4591.911,6203.823Z" transform="translate(-4579.916 -6185.862)" fill="#fff"/>
        <path id="Path_8271" data-name="Path 8271" d="M4613.684,6224.149a8.906,8.906,0,0,1-4.058-1.515l-.437-.24c-2.782-1.518-17.644-11.017-22.987-17.888a46.959,46.959,0,0,1-6.1-11.14c-1.209-3.074-2.356-6.923-1.947-8.508a1.057,1.057,0,0,1,.577-.771,2.673,2.673,0,0,1,1.612.154.39.39,0,0,1,.257.232c1.549,3.9,4.877,11.32,9.766,17.256,1.479,1.8,7.861,8.455,27.856,18.709a.393.393,0,0,1,.138.58,9.507,9.507,0,0,1-1.9,2.115A4.778,4.778,0,0,1,4613.684,6224.149Zm-34.545-39.348a.342.342,0,0,0-.1.009c-.023.01-.079.074-.123.244-.611,2.371,3.138,12.843,7.9,18.97,5.27,6.775,19.988,16.178,22.744,17.682l.438.24c2.533,1.391,3.8,2.088,6.009.544a7.661,7.661,0,0,0,1.446-1.565c-6.753-3.482-22.026-11.815-27.693-18.7a68.679,68.679,0,0,1-9.817-17.284A3.431,3.431,0,0,0,4579.139,6184.8Z" transform="translate(-4578.074 -6184.018)" fill="#263238"/>
      </g>
      <g id="Group_17306" data-name="Group 17306" transform="translate(69.271 249.14)">
        <g id="Group_17304" data-name="Group 17304">
          <path id="Path_8272" data-name="Path 8272" d="M4997,6557.441s-5.843,10.925-8.638,14.989-13.211,9.4-12.958,11.688,12.958,3.049,19.817,2.541,12.958-8.893,16.515-10.925,6.1-2.795,4.065-7.623-4.573-9.655-4.573-9.655Z" transform="translate(-4975.008 -6557.049)" fill="#92e3a9"/>
          <path id="Path_8273" data-name="Path 8273" d="M4988.8,6585.36c-2.625,0-5.413-.128-7.852-.376-7.571-.769-7.729-2.2-7.782-2.666-.15-1.356,2.153-3.106,5.926-5.85,2.723-1.98,5.808-4.225,7.1-6.1,2.75-4,8.558-14.844,8.615-14.953a.4.4,0,0,1,.374-.207l14.228,1.016a.393.393,0,0,1,.319.208c.025.048,2.571,4.9,4.588,9.685,1.972,4.684-.211,5.889-3.232,7.556-.321.178-.656.362-1,.559a26.966,26.966,0,0,0-4.028,3.349c-3.489,3.239-7.833,7.27-12.651,7.626C4992.019,6585.31,4990.443,6585.36,4988.8,6585.36Zm6.577-29.353c-.852,1.583-5.987,11.089-8.54,14.8-1.368,1.989-4.375,4.176-7.284,6.292-2.679,1.948-5.715,4.157-5.607,5.129.015.13.336,1.287,7.082,1.972a77.315,77.315,0,0,0,12.317.222c4.544-.337,8.776-4.264,12.176-7.42a27.241,27.241,0,0,1,4.173-3.455c.348-.2.685-.385,1.01-.564,2.957-1.633,4.587-2.532,2.889-6.565-1.776-4.217-3.968-8.485-4.459-9.432Z" transform="translate(-4973.162 -6555.207)" fill="#263238"/>
        </g>
        <g id="Group_17305" data-name="Group 17305" transform="translate(0 10.67)">
          <path id="Path_8274" data-name="Path 8274" d="M4995.984,6633.8c-4.971,1.6-14.278-.153-19.437-1.353-.754.733-1.2,1.368-1.142,1.861.254,2.287,12.958,3.049,19.817,2.541s12.958-8.893,16.515-10.925,6.1-2.795,4.065-7.623C5002.843,6622.875,5003.1,6631.513,4995.984,6633.8Z" transform="translate(-4975.008 -6617.91)" fill="#fff"/>
          <path id="Path_8275" data-name="Path 8275" d="M4988.8,6635.548c-2.625,0-5.413-.128-7.852-.375-7.571-.77-7.729-2.2-7.782-2.666-.066-.593.334-1.287,1.259-2.186a.4.4,0,0,1,.362-.1c5.084,1.183,14.342,2.932,19.228,1.362h0c2.943-.946,4.607-3.062,6.535-5.51,2.573-3.27,5.776-7.339,13.272-9.985a.392.392,0,0,1,.492.218c1.972,4.684-.211,5.888-3.232,7.556-.321.177-.656.362-1,.559a26.911,26.911,0,0,0-4.028,3.349c-3.49,3.239-7.833,7.269-12.652,7.626C4992.02,6635.5,4990.444,6635.548,4988.8,6635.548Zm-13.979-4.515c-.8.813-.895,1.215-.875,1.387.014.129.335,1.287,7.082,1.972a77.312,77.312,0,0,0,12.317.221c4.544-.336,8.776-4.264,12.176-7.419a27.251,27.251,0,0,1,4.172-3.456c.348-.2.685-.385,1.01-.564,2.872-1.585,4.491-2.479,3.028-6.221-7.027,2.567-9.967,6.3-12.565,9.6-2.006,2.55-3.739,4.752-6.911,5.771h0C4989.262,6633.935,4980.03,6632.233,4974.825,6631.033Z" transform="translate(-4973.163 -6616.065)" fill="#263238"/>
        </g>
      </g>
      <g id="Group_17307" data-name="Group 17307" transform="translate(69.105 138.859)">
        <path id="Path_8276" data-name="Path 8276" d="M4976.067,5958.66l19.309,70.631-2.794,2.287,3.048,10.163a47.791,47.791,0,0,0,8.13,2.286c5.844,1.271,9.146.508,9.146.508s.254-7.114-.508-9.4-2.033-6.352-2.033-6.352l-3.557-61.738s32.267,12.2,44.97,11.433-9.146-25.407-23.628-37.348-46.24-18.547-51.322-5.844A33.657,33.657,0,0,0,4976.067,5958.66Z" transform="translate(-4973.979 -5928.018)" fill="#858585"/>
        <path id="Path_8277" data-name="Path 8277" d="M5008.322,6043.352a30.309,30.309,0,0,1-6.409-.747,47.687,47.687,0,0,1-8.207-2.312.394.394,0,0,1-.216-.246l-3.049-10.163a.392.392,0,0,1,.127-.416l2.6-2.125-19.236-70.365a34.426,34.426,0,0,1,.771-23.643c1.246-3.115,4.035-5.246,8.292-6.334,11.61-2.969,32.413,2.761,43.644,12.021a150.944,150.944,0,0,1,19.008,19.008c4.513,5.478,9.632,12.809,8.392,16.617-.479,1.473-1.825,2.287-4,2.417-11.875.7-40.075-9.575-44.567-11.247l3.52,61.09c.143.456,1.307,4.172,2.016,6.3.776,2.327.539,9.246.528,9.539a.394.394,0,0,1-.3.368A14.108,14.108,0,0,1,5008.322,6043.352Zm-14.134-3.708a53,53,0,0,0,7.891,2.195,24.664,24.664,0,0,0,8.681.562c.037-1.4.144-7.022-.5-8.947-.755-2.264-2.022-6.318-2.035-6.359a.386.386,0,0,1-.017-.094l-3.557-61.739a.39.39,0,0,1,.159-.338.4.4,0,0,1,.371-.051c.081.031,8.169,3.08,17.7,6,12.585,3.85,21.956,5.721,27.106,5.413,1.845-.111,2.924-.725,3.3-1.877,1.941-5.96-14.786-24.578-27.154-34.777-11.07-9.128-31.542-14.783-42.95-11.866-4,1.022-6.61,3-7.758,5.865a33.563,33.563,0,0,0-.763,23.082.457.457,0,0,1,.015.043l19.309,70.631a.391.391,0,0,1-.13.406l-2.593,2.121Z" transform="translate(-4972.215 -5926.213)" fill="#263238"/>
      </g>
      <g id="Group_17308" data-name="Group 17308" transform="translate(81.379 138.856)">
        <path id="Path_8278" data-name="Path 8278" d="M5085.962,5941.148a49.573,49.573,0,0,0-10.041-6.231l-16.933-5.554a42.54,42.54,0,0,0-14.531-.531l11.017,10.792,9.146,27.439s32.267,12.2,44.97,11.434S5100.443,5953.09,5085.962,5941.148Z" transform="translate(-5044.065 -5928.034)" fill="#263238"/>
        <path id="Path_8279" data-name="Path 8279" d="M5106.522,5977.085c-5.455,0-14.236-1.84-26.14-5.482-9.556-2.923-17.664-5.98-17.745-6.01a.39.39,0,0,1-.233-.243l-9.117-27.35-10.949-10.726a.392.392,0,0,1,.208-.667,42.833,42.833,0,0,1,14.67.532.428.428,0,0,1,.049.012l16.932,5.554a.447.447,0,0,1,.047.019,49.614,49.614,0,0,1,10.122,6.283,151.006,151.006,0,0,1,19.008,19.007c4.513,5.479,9.632,12.809,8.393,16.618-.48,1.473-1.825,2.287-4,2.417Q5107.178,5977.086,5106.522,5977.085Zm-43.434-12.161c2.577.961,32.642,12.071,44.634,11.343,1.845-.111,2.924-.725,3.3-1.877,1.941-5.961-14.786-24.578-27.154-34.777h0a48.811,48.811,0,0,0-9.938-6.169l-16.883-5.538a43.423,43.423,0,0,0-13.6-.644l10.458,10.244a.384.384,0,0,1,.1.156Z" transform="translate(-5042.221 -5926.196)" fill="#263238"/>
      </g>
      <g id="Group_17313" data-name="Group 17313" transform="translate(34.623 116.426)">
        <g id="Group_17309" data-name="Group 17309">
          <path id="Path_8280" data-name="Path 8280" d="M4925.241,5849.119s-4.065,10.163-9.909,17.277-22.357,9.146-29.218,6.605-25.661-18.039-36.332-27.185-14.228-11.687-14.228-11.687l-36.84,51.322s-2.032,2.032-1.778,4.065-10.163,8.384-10.163,8.384-4.828-4.064-6.352-7.113-3.048-5.59-2.541-7.622-.508-3.558.508-6.352,5.336-4.065,5.336-4.065,32.266-59.452,36.078-65.3,6.1-7.368,8.892-6.86,40.143,19.309,46.24,22.866S4925.241,5849.119,4925.241,5849.119Z" transform="translate(-4777.391 -5800.109)" fill="#858585"/>
          <path id="Path_8281" data-name="Path 8281" d="M4784.932,5896.45a.391.391,0,0,1-.253-.093c-.2-.167-4.907-4.152-6.45-7.238-.194-.389-.389-.769-.579-1.14-1.326-2.6-2.471-4.837-1.992-6.752a7,7,0,0,0,.085-2.318,8.816,8.816,0,0,1,.435-4.073c.97-2.667,4.615-3.99,5.435-4.257,1.75-3.224,32.332-59.531,36.018-65.183,3.754-5.755,6.187-7.6,9.291-7.031,2.828.514,40.314,19.382,46.368,22.913,6.017,3.51,49.841,25.428,50.283,25.649a.392.392,0,0,1,.189.5c-.041.1-4.155,10.3-9.97,17.38-5.94,7.231-22.686,9.307-29.657,6.725-7.4-2.739-27.955-19.973-36.451-27.255-8.821-7.56-12.806-10.624-13.886-11.433l-36.608,51a.384.384,0,0,1-.041.048c-.019.019-1.894,1.924-1.667,3.739.081.645-.365,1.9-5.146,5.322-2.555,1.83-5.175,3.43-5.2,3.445A.392.392,0,0,1,4784.932,5896.45Zm40.941-97.4c-2.02,0-4.093,1.422-7.584,6.775-3.759,5.764-35.739,64.674-36.062,65.269a.4.4,0,0,1-.234.189c-.041.012-4.142,1.249-5.078,3.823a8.043,8.043,0,0,0-.39,3.745,7.592,7.592,0,0,1-.106,2.568c-.408,1.629.676,3.75,1.93,6.2.19.374.386.756.581,1.147,1.291,2.58,5.1,5.983,6.041,6.8,4.934-3.031,9.871-6.755,9.734-7.852-.263-2.1,1.62-4.113,1.866-4.367l36.823-51.3a.392.392,0,0,1,.546-.09c.036.025,3.693,2.656,14.255,11.708,6.6,5.661,28.731,24.344,36.212,27.116,3.358,1.244,9.16,1.361,14.781.3,6.336-1.2,11.438-3.671,14-6.787,5.146-6.266,8.953-15.032,9.709-16.84-4.056-2.029-44.239-22.148-50-25.509-6.034-3.52-43.323-22.312-46.113-22.82A5.135,5.135,0,0,0,4825.874,5799.048Z" transform="translate(-4775.548 -5798.267)" fill="#263238"/>
        </g>
        <g id="Group_17310" data-name="Group 17310" transform="translate(106.266 57.174)">
          <path id="Path_8282" data-name="Path 8282" d="M5386.894,6128.614a62.043,62.043,0,0,1-5.254-3.624l.463-.632c2.692,1.974,4.428,3.173,5.16,3.564Z" transform="translate(-5381.64 -6124.358)" fill="#263238"/>
        </g>
        <g id="Group_17311" data-name="Group 17311" transform="translate(65.272 25.917)">
          <path id="Path_8283" data-name="Path 8283" d="M5186.032,5975.9c-5.859-4.376-13.952-10.6-21.779-16.624-6.155-4.735-11.968-9.207-16.423-12.572l.473-.626c4.458,3.367,10.273,7.84,16.429,12.576,7.825,6.02,15.916,12.244,21.771,16.617Z" transform="translate(-5147.829 -5946.083)" fill="#263238"/>
        </g>
        <g id="Group_17312" data-name="Group 17312" transform="translate(49.778 20.233)">
          <path id="Path_8284" data-name="Path 8284" d="M5060.236,5927.02l-.779-.09c.15-1.3.962-7.818,2.254-8.712a.733.733,0,0,1,.61-.123,7.178,7.178,0,0,1,2.288,1.64,8.892,8.892,0,0,0,1.635,1.28,1.09,1.09,0,0,0,.01-.16c0-.454-.036-1.064-.073-1.71-.15-2.583-.205-4.467.471-5.184a.91.91,0,0,1,.674-.3c.227,0,.509,0,6.034,4.133l-.47.628a56.485,56.485,0,0,0-5.6-3.972.147.147,0,0,0-.069.046c-.5.526-.353,2.978-.259,4.6.039.658.075,1.279.075,1.756s-.147.774-.437.9c-.581.259-1.3-.347-2.516-1.438a7.989,7.989,0,0,0-1.931-1.458C5061.59,5919.155,5060.716,5922.863,5060.236,5927.02Zm5.989-5.931Zm1.033-6.649Z" transform="translate(-5059.457 -5913.663)" fill="#263238"/>
        </g>
      </g>
      <g id="Group_17314" data-name="Group 17314" transform="translate(167.804 57.872)">
        <path id="Path_8285" data-name="Path 8285" d="M5546.675,5468.643s-3.783,16.527-5.376,20.708-5.974,10.554-2.788,11.35,26.683-19.315,28.275-22.9,3.952-11.26,3.952-11.26S5555.039,5472.227,5546.675,5468.643Z" transform="translate(-5536.987 -5466.151)" fill="#fff"/>
        <path id="Path_8286" data-name="Path 8286" d="M5536.842,5499.267a1.126,1.126,0,0,1-.267-.029,1.746,1.746,0,0,1-1.235-.958c-.714-1.533.666-4.358,2.126-7.35.6-1.221,1.214-2.484,1.625-3.562,1.565-4.108,5.323-20.492,5.361-20.657a.392.392,0,0,1,.537-.272c8.127,3.483,23.619-2.052,23.774-2.108a.393.393,0,0,1,.509.484c-.024.077-2.384,7.738-3.968,11.3-.877,1.974-7.53,8.151-13.648,13.234C5548,5492.394,5539.434,5499.267,5536.842,5499.267Zm8.272-31.933c-.629,2.725-3.833,16.489-5.29,20.313-.423,1.111-1.048,2.391-1.652,3.628-1.255,2.568-2.677,5.479-2.121,6.673a.976.976,0,0,0,.714.529c1.028.262,5.874-2.653,14.389-9.728,6.826-5.671,12.726-11.359,13.433-12.95,1.277-2.873,3.074-8.474,3.705-10.479a69.792,69.792,0,0,1-8.215,2.157C5553.67,5468.73,5548.64,5468.683,5545.114,5467.334Z" transform="translate(-5535.147 -5464.306)" fill="#263238"/>
      </g>
      <g id="Group_17328" data-name="Group 17328" transform="translate(170.647 0)">
        <g id="Group_17315" data-name="Group 17315" transform="translate(3.464)">
          <path id="Path_8287" data-name="Path 8287" d="M5577.622,5147.811s-6.253,1.807-3.612,5.28,7.225,3.2,7.225,3.2-3.2-2.918,5.558-2.918,13.9,1.39,13.756,6.114-2.084,7.087.139,10.283,5.141,11.394,5.141,11.394l6.809,1.529s7.087-8.06,8.476-17.37,2.64-14.173-11.95-22.093-32.932-8.615-34.46-3.335A6.97,6.97,0,0,0,5577.622,5147.811Z" transform="translate(-5572.966 -5136.095)" fill="#263238"/>
          <path id="Path_8288" data-name="Path 8288" d="M5610.789,5181.214a.367.367,0,0,1-.086-.01l-6.809-1.528a.392.392,0,0,1-.284-.251c-.028-.081-2.926-8.186-5.093-11.3-1.555-2.234-1.2-4.082-.742-6.42a24.432,24.432,0,0,0,.533-4.1,4.025,4.025,0,0,0-1.108-3.082c-1.742-1.793-5.637-2.629-12.257-2.629-4.713,0-5.557.853-5.7,1.219-.179.457.4,1.012.408,1.018a.393.393,0,0,1-.242.68c-.195.009-4.826.249-7.562-3.35a2.809,2.809,0,0,1-.606-2.659c.521-1.572,2.582-2.557,3.7-2.986a7.278,7.278,0,0,1-2.462-7.9,4.294,4.294,0,0,1,2.745-2.594c5.947-2.485,20.336-.79,32.278,5.693,6.771,3.675,10.475,6.881,12.007,10.394,1.465,3.357.94,6.832.275,11.232l-.131.87c-1.391,9.317-8.5,17.488-8.569,17.57A.391.391,0,0,1,5610.789,5181.214Zm-6.513-2.256,6.368,1.43c1.023-1.224,6.988-8.654,8.233-16.993l.131-.872c.646-4.274,1.156-7.651-.218-10.8-1.458-3.341-5.055-6.431-11.662-10.018a58,58,0,0,0-18.112-6.113c-5.627-.893-10.67-.723-13.489.454a3.574,3.574,0,0,0-2.294,2.089,6.526,6.526,0,0,0,2.742,7.475.392.392,0,0,1-.092.713c-.033.009-3.318.98-3.9,2.729a2.049,2.049,0,0,0,.487,1.937,8.391,8.391,0,0,0,6.133,3.027,1.444,1.444,0,0,1-.094-1.182c.449-1.159,2.553-1.722,6.432-1.722,6.94,0,10.894.884,12.819,2.867a4.829,4.829,0,0,1,1.33,3.651,25.016,25.016,0,0,1-.547,4.224c-.435,2.241-.75,3.86.615,5.822C5601.219,5170.634,5603.8,5177.642,5604.276,5178.958Z" transform="translate(-5571.117 -5134.229)" fill="#263238"/>
        </g>
        <g id="Group_17316" data-name="Group 17316" transform="translate(0 11.462)">
          <path id="Path_8289" data-name="Path 8289" d="M5567.144,5201.843s-5.7,4.585-5.836,6.669-6.669,21.26-7.5,26.679.695,14.868,3.335,17.925,8.615,3.752,15.563,1.945,10.561-4.585,11.394-6.808,6.67-15.7,6.67-15.7-4.03-9.449-5.142-12.089,2.64-7.087,2.779-8.2-6.67-5.7-8.615-6.809-4.585-.139-6.53-.695A43.363,43.363,0,0,1,5567.144,5201.843Z" transform="translate(-5553.188 -5201.451)" fill="#fff"/>
          <path id="Path_8290" data-name="Path 8290" d="M5563.813,5254.585c-3.918,0-7.06-1.047-8.8-3.058-2.8-3.241-4.248-12.9-3.425-18.241.473-3.078,2.707-10.355,4.678-16.776,1.421-4.63,2.764-9,2.821-9.869.146-2.192,5.385-6.469,5.981-6.949a.392.392,0,0,1,.44-.036,43.257,43.257,0,0,0,6.028,2.882,8.63,8.63,0,0,0,2.606.144,7.292,7.292,0,0,1,4.012.587c1.054.6,3.259,2.049,5.127,3.429,3.8,2.809,3.721,3.458,3.682,3.769a6.809,6.809,0,0,1-.944,1.948c-1.02,1.75-2.56,4.394-1.863,6.05,1.1,2.609,5.1,11.993,5.141,12.087a.394.394,0,0,1,0,.31c-.059.135-5.841,13.494-6.663,15.683-.392,1.044-2.39,4.64-11.663,7.051A28.769,28.769,0,0,1,5563.813,5254.585Zm1.544-54.115c-1.671,1.372-5.385,4.72-5.485,6.224-.064.957-1.295,4.968-2.854,10.047-1.866,6.079-4.188,13.644-4.653,16.666-.79,5.133.641,14.595,3.244,17.608,2.508,2.9,8.32,3.6,15.167,1.823,7.077-1.841,10.387-4.6,11.126-6.567.789-2.1,5.928-13.988,6.61-15.565-.528-1.239-4.055-9.511-5.076-11.936-.849-2.016.811-4.864,1.909-6.749a8.219,8.219,0,0,0,.843-1.65c-.115-.855-5.845-4.948-8.42-6.42a6.742,6.742,0,0,0-3.592-.485,9.257,9.257,0,0,1-2.853-.173A39.972,39.972,0,0,1,5565.358,5200.47Z" transform="translate(-5551.362 -5199.605)" fill="#263238"/>
        </g>
        <g id="Group_17317" data-name="Group 17317" transform="translate(0.003 36.352)">
          <path id="Path_8291" data-name="Path 8291" d="M5584.129,5365.323c.833-2.223,6.67-15.7,6.67-15.7s-1.205-2.826-2.479-5.819c-1.758,4.176-7.27,17.279-7.387,17.629-.139.417-.556-1.806-7.365-4.863s-7.92-4.863-12.5-3.613a36.793,36.793,0,0,0-7.365,2.779l-.082.273c.064,5.275,1.456,11.746,3.556,14.178,2.64,3.057,8.615,3.752,15.563,1.945S5583.3,5367.546,5584.129,5365.323Z" transform="translate(-5553.225 -5343.411)" fill="#263238"/>
          <path id="Path_8292" data-name="Path 8292" d="M5563.829,5371.656c-3.917,0-7.061-1.046-8.8-3.058-2.29-2.651-3.591-9.413-3.651-14.429a.377.377,0,0,1,.017-.117l.082-.274a.391.391,0,0,1,.186-.231,36.87,36.87,0,0,1,7.451-2.813c3.558-.971,5.114-.175,8.524,1.57,1.177.6,2.511,1.285,4.245,2.063,4.619,2.074,6.36,3.789,7.044,4.57,1-2.431,5.243-12.517,7.185-17.131a.394.394,0,0,1,.361-.24h0a.393.393,0,0,1,.361.238c1.274,2.993,2.479,5.819,2.479,5.819a.392.392,0,0,1,0,.31c-.058.135-5.841,13.495-6.662,15.684h0c-.392,1.044-2.391,4.639-11.663,7.05A28.772,28.772,0,0,1,5563.829,5371.656Zm-11.663-17.437c.069,4.938,1.378,11.457,3.459,13.867,2.508,2.9,8.321,3.6,15.167,1.822,7.078-1.84,10.388-4.6,11.125-6.567h0c.79-2.1,5.928-13.988,6.61-15.565-.239-.56-1.092-2.562-2.05-4.812-3.381,8.034-6.9,16.414-7.018,16.75a.44.44,0,0,1-.336.309c-.263.048-.417-.133-.594-.345-.485-.581-1.961-2.349-6.967-4.6-1.752-.787-3.155-1.5-4.282-2.08-3.321-1.7-4.7-2.4-7.96-1.512a38.121,38.121,0,0,0-7.139,2.671Zm26.552,5.244h0Z" transform="translate(-5551.381 -5341.566)" fill="#263238"/>
        </g>
        <g id="Group_17318" data-name="Group 17318" transform="translate(32.6 42.696)">
          <path id="Path_8293" data-name="Path 8293" d="M5742.869,5381.946s2.917-2.918,6.114-1.667.417,5.836-1.389,7.642-8.06,1.529-8.06,1.529Z" transform="translate(-5739.142 -5379.578)" fill="#fff"/>
          <path id="Path_8294" data-name="Path 8294" d="M5738.612,5388.026c-.532,0-.883-.015-.941-.018a.392.392,0,0,1-.341-.551l3.335-7.5a.376.376,0,0,1,.081-.118,8.309,8.309,0,0,1,1.958-1.375,5.5,5.5,0,0,1,4.576-.38,2.5,2.5,0,0,1,1.648,1.847c.445,2.13-1.544,5.079-2.9,6.438C5744.543,5387.849,5740.472,5388.026,5738.612,5388.026Zm-.327-.785c2,.025,5.941-.185,7.186-1.43,1.3-1.3,3.048-4.012,2.69-5.723a1.706,1.706,0,0,0-1.166-1.277c-2.7-1.057-5.258,1.175-5.644,1.532Z" transform="translate(-5737.297 -5377.745)" fill="#263238"/>
        </g>
        <g id="Group_17326" data-name="Group 17326" transform="translate(7.084 23.381)">
          <g id="Group_17319" data-name="Group 17319">
            <path id="Path_8295" data-name="Path 8295" d="M5598.129,5269.713c-1.521-1.093-2.863-1.522-3.991-1.282a2.681,2.681,0,0,0-1.692,1.158l-.682-.387a3.484,3.484,0,0,1,2.192-1.534c1.357-.3,2.916.176,4.631,1.408Z" transform="translate(-5591.764 -5267.581)" fill="#263238"/>
          </g>
          <g id="Group_17320" data-name="Group 17320" transform="translate(12.505 1.972)">
            <path id="Path_8296" data-name="Path 8296" d="M5670.619,5282.524c-3.5-4.533-7.092-2.427-7.128-2.405l-.407-.67c.042-.026,4.235-2.486,8.156,2.6Z" transform="translate(-5663.084 -5278.831)" fill="#263238"/>
          </g>
          <g id="Group_17321" data-name="Group 17321" transform="translate(1.15 2.82)">
            <path id="Path_8297" data-name="Path 8297" d="M5606.172,5284.264a19.883,19.883,0,0,1,.695,4.03c0,1.528-6.948,15.7-6.253,16.118s5.558-2.64,5.975-2.64" transform="translate(-5600.173 -5284.159)" fill="#fff"/>
            <path id="Path_8298" data-name="Path 8298" d="M5598.939,5304.344a.714.714,0,0,1-.375-.09c-.557-.334-.369-1.082,3.047-8.911,1.344-3.08,3.016-6.913,3.016-7.543a19.577,19.577,0,0,0-.681-3.925l.756-.21a19.975,19.975,0,0,1,.709,4.135c0,.756-1.171,3.478-3.082,7.857a82.72,82.72,0,0,0-3.194,7.89,24.253,24.253,0,0,0,3.731-1.778c1.342-.727,1.65-.883,1.874-.883v.785a.241.241,0,0,0,.051,0,17.06,17.06,0,0,0-1.551.792C5600.91,5303.72,5599.63,5304.344,5598.939,5304.344Zm-.014-.78" transform="translate(-5598.324 -5283.665)" fill="#263238"/>
          </g>
          <g id="Group_17322" data-name="Group 17322" transform="translate(13.73 6.524)">
            <path id="Path_8299" data-name="Path 8299" d="M5672.333,5306.947c-.312.988-1.04,1.639-1.625,1.454s-.807-1.136-.495-2.124,1.04-1.639,1.625-1.454S5672.646,5305.959,5672.333,5306.947Z" transform="translate(-5670.072 -5304.792)" fill="#263238"/>
          </g>
          <g id="Group_17323" data-name="Group 17323" transform="translate(1.224 3.745)">
            <path id="Path_8300" data-name="Path 8300" d="M5601.008,5291.1c-.312.988-1.04,1.639-1.625,1.454s-.807-1.136-.495-2.124,1.04-1.639,1.625-1.453S5601.32,5290.109,5601.008,5291.1Z" transform="translate(-5598.746 -5288.941)" fill="#263238"/>
          </g>
          <g id="Group_17324" data-name="Group 17324" transform="translate(12.593 11.373)">
            <path id="Path_8301" data-name="Path 8301" d="M5667.484,5335.909c-4.008-1.187-3.9-3.369-3.893-3.461l.783.056-.391-.028.391.021c0,.017-.02,1.667,3.333,2.66Z" transform="translate(-5663.59 -5332.448)" fill="#263238"/>
          </g>
          <g id="Group_17325" data-name="Group 17325" transform="translate(0.156 7.723)">
            <path id="Path_8302" data-name="Path 8302" d="M5592.748,5314.031l-.092-.779a15.3,15.3,0,0,0,4.719-1.621l.381.686A15.808,15.808,0,0,1,5592.748,5314.031Z" transform="translate(-5592.656 -5311.632)" fill="#263238"/>
          </g>
        </g>
        <g id="Group_17327" data-name="Group 17327" transform="translate(6.351 48.505)">
          <path id="Path_8303" data-name="Path 8303" d="M5594.706,5413.589a12.205,12.205,0,0,1-7.119-2.086l.48-.621c.042.032,4.249,3.187,10.769,1.323l.216.754A15.783,15.783,0,0,1,5594.706,5413.589Z" transform="translate(-5587.587 -5410.882)" fill="#fff"/>
        </g>
      </g>
      <g id="Group_17329" data-name="Group 17329" transform="translate(106.624 77.131)">
        <path id="Path_8304" data-name="Path 8304" d="M5290.576,5635.837s-24.137,2.032-31,13.465-13.974,30.488-21.342,36.586-35.062-1.27-39.635-3.557a82.7,82.7,0,0,0-10.162-4.064s5.335,8.384,22.358,13.974a104.9,104.9,0,0,0,69.614-2.287c26.931-10.417,34.553-30.234,37.856-45.225s0-35.314-4.827-48.019-12.449-20.579-14.99-20.325-2.287,29.218-.763,40.143S5290.576,5635.837,5290.576,5635.837Z" transform="translate(-5188.049 -5575.987)" fill="#fff"/>
        <path id="Path_8305" data-name="Path 8305" d="M5240.333,5695.651h-.287a101.8,101.8,0,0,1-31.213-4.878c-16.96-5.569-22.345-13.789-22.566-14.136a.392.392,0,0,1,.45-.583,83.679,83.679,0,0,1,10.219,4.088c2.25,1.125,10.188,3.512,18.657,4.886,5.935.964,16.5,2.078,20.553-1.28,4.759-3.938,9.478-13.493,14.042-22.733,2.487-5.034,4.836-9.791,7.213-13.753,2.9-4.83,9.056-8.6,18.3-11.2a79.43,79.43,0,0,1,12.854-2.445c.93-.956,8.3-8.9,6.9-18.877a192.082,192.082,0,0,1-1.153-22.879c.01-5.7.237-15.536,1.649-17.332a.9.9,0,0,1,.615-.376c2.938-.288,10.7,8.217,15.4,20.577,4.717,12.414,8.245,32.806,4.844,48.243-3.182,14.439-10.593,34.866-38.1,45.5A106,106,0,0,1,5240.333,5695.651Zm-52.648-18.448a28.473,28.473,0,0,0,3.993,3.839,54.885,54.885,0,0,0,17.4,8.984,100.99,100.99,0,0,0,30.97,4.839h.286a105.19,105.19,0,0,0,38.095-7.12c27.153-10.5,34.472-30.68,37.615-44.943,3.366-15.28-.133-35.487-4.811-47.795a56.581,56.581,0,0,0-8.292-14.916c-2.952-3.681-5.323-5.26-6.292-5.158-.5.2-1.484,3.818-1.555,16.021a195.741,195.741,0,0,0,1.142,23.677c1.535,10.995-7.142,19.56-7.229,19.646a.4.4,0,0,1-.24.109,77.822,77.822,0,0,0-12.865,2.436c-6.214,1.748-14.352,5.048-17.828,10.841-2.361,3.935-4.7,8.676-7.183,13.7-4.6,9.313-9.357,18.944-14.245,22.989-4.081,3.377-13.77,2.653-21.178,1.45-8.545-1.386-16.588-3.812-18.882-4.958A78.8,78.8,0,0,0,5187.685,5677.2Z" transform="translate(-5186.205 -5574.147)" fill="#263238"/>
      </g>
      <g id="Group_17335" data-name="Group 17335" transform="translate(146.553 74.133)">
        <g id="Group_17330" data-name="Group 17330" transform="translate(14.322 35.871)">
          <path id="Path_8306" data-name="Path 8306" d="M5497.861,5763.879a19.823,19.823,0,0,0,3.473,3.171c1.962,1.359,2.718,6.342,3.322,7.1a16.725,16.725,0,0,1,1.359,3.775,69.426,69.426,0,0,1-6.644-5.285C5498.012,5771.127,5497.861,5763.879,5497.861,5763.879Z" transform="translate(-5497.469 -5763.487)" fill="#fff"/>
          <path id="Path_8307" data-name="Path 8307" d="M5504.17,5776.468a.393.393,0,0,1-.229-.073,68.135,68.135,0,0,1-6.707-5.342c-1.416-1.572-1.595-8.255-1.61-9.012a.392.392,0,0,1,.693-.259,19.624,19.624,0,0,0,3.4,3.1c1.428.989,2.215,3.575,2.79,5.463a8.9,8.9,0,0,0,.615,1.711,16,16,0,0,1,1.434,3.925.391.391,0,0,1-.16.419A.387.387,0,0,1,5504.17,5776.468Zm-7.724-13.378c.116,2.4.488,6.458,1.371,7.438a54.767,54.767,0,0,0,5.681,4.576,10.42,10.42,0,0,0-.994-2.559,7.259,7.259,0,0,1-.752-1.973c-.511-1.678-1.282-4.213-2.487-5.047A19.325,19.325,0,0,1,5496.447,5763.09Z" transform="translate(-5495.625 -5761.641)" fill="#263238"/>
        </g>
        <g id="Group_17331" data-name="Group 17331" transform="translate(0 27.548)">
          <path id="Path_8308" data-name="Path 8308" d="M5416.235,5718.443l7.357,26.484a1.607,1.607,0,0,0,1.216,1.142l10.094,2.131a1.607,1.607,0,0,0,1.887-1.977l-6.94-26.694a1.609,1.609,0,0,0-1.267-1.177l-10.51-1.92A1.606,1.606,0,0,0,5416.235,5718.443Z" transform="translate(-5415.783 -5716.014)" fill="#263238"/>
          <path id="Path_8309" data-name="Path 8309" d="M5433.4,5746.786a2.037,2.037,0,0,1-.418-.044l-10.094-2.131a1.993,1.993,0,0,1-1.514-1.421l-7.356-26.484h0a2,2,0,0,1,2.286-2.5l10.51,1.921a2.009,2.009,0,0,1,1.576,1.464l6.94,26.693a2,2,0,0,1-1.93,2.5Zm-18.626-30.29,7.357,26.484a1.21,1.21,0,0,0,.919.864l10.094,2.131a1.215,1.215,0,0,0,1.427-1.494l-6.94-26.694a1.219,1.219,0,0,0-.958-.889l-10.51-1.922a1.215,1.215,0,0,0-1.389,1.521Z" transform="translate(-5413.941 -5714.171)" fill="#263238"/>
        </g>
        <g id="Group_17332" data-name="Group 17332" transform="translate(0.208)">
          <path id="Path_8310" data-name="Path 8310" d="M5481.949,5559.155s6.6,2.373,7.96,3.582,2.417,5.738,4.832,13.589,6.191,40.467,6.342,42.732-9.664,4.681-17.516,6.04-37.3-1.359-37.3-1.359-6.04-.906-10.418-1.359-10.872-3.624-12.23-3.926-.454-2.417-.454-2.417a7.65,7.65,0,0,1-2.265.453c-1.057,0-1.057-1.358-1.057-1.358s1.208-2.869,1.813-3.171,9.512-.453,9.512-.453l-7.852-3.473s-4.077.755-4.983.453-.6-1.812,0-2.265,5.285-1.51,6.191-1.208,7.1,1.812,7.1,1.812l-.906-1.812-7.248-3.926s-2.869-.151-3.775-.151-2.718-.6-2.265-2.114,5.133-1.359,6.644-1.058,10.569,3.473,12.08,5.134,6.342,11.476,6.342,11.476a44.569,44.569,0,0,0,20.384-1.812c11.325-3.624,15.553-4.983,15.553-4.983l-4.681-23.1" transform="translate(-5416.968 -5558.786)" fill="#92e3a9"/>
          <path id="Path_8311" data-name="Path 8311" d="M5474.775,5624.137c-11.323,0-29.425-1.655-30.381-1.744-.083-.012-6.1-.913-10.423-1.36-3.112-.322-7.2-1.963-9.9-3.049a24.181,24.181,0,0,0-2.372-.884,1.258,1.258,0,0,1-.884-.659,2.361,2.361,0,0,1-.083-1.543,6.813,6.813,0,0,1-1.667.249c-1.146,0-1.449-1.146-1.449-1.751a.39.39,0,0,1,.031-.152c.38-.9,1.336-3.038,2-3.369.505-.252,4.863-.392,7.911-.46l-6.123-2.708c-.91.166-4.15.721-5.059.417a1.211,1.211,0,0,1-.817-1.015,2.2,2.2,0,0,1,.706-1.936c.668-.5,5.511-1.613,6.55-1.267.684.229,4.53,1.18,6.243,1.6l-.471-.943-7.061-3.825c-.489-.025-2.87-.146-3.667-.146a3.23,3.23,0,0,1-2.4-1.057,1.7,1.7,0,0,1-.242-1.562c.583-1.944,5.759-1.6,7.1-1.329s10.632,3.428,12.293,5.255c1.434,1.577,5.633,10.007,6.315,11.388a45.155,45.155,0,0,0,20-1.834c9.52-3.046,14.024-4.492,15.218-4.875l-4.611-22.759.769-.155,4.681,23.1a.392.392,0,0,1-.264.451s-4.228,1.359-15.553,4.983a45.442,45.442,0,0,1-20.581,1.823.4.4,0,0,1-.275-.211c-.048-.1-4.824-9.784-6.28-11.385-1.43-1.573-10.355-4.71-11.867-5.013-1.9-.38-5.877-.26-6.191.785a.924.924,0,0,0,.121.868,2.454,2.454,0,0,0,1.769.741c.906,0,3.678.146,3.8.152a.388.388,0,0,1,.166.046l7.248,3.926a.385.385,0,0,1,.164.17l.906,1.811a.392.392,0,0,1-.443.557c-.253-.062-6.217-1.517-7.128-1.821-.742-.247-5.269.728-5.831,1.149a1.424,1.424,0,0,0-.4,1.183c.052.316.232.376.291.4a19.53,19.53,0,0,0,4.787-.466.391.391,0,0,1,.23.026l7.852,3.473a.392.392,0,0,1-.152.75c-4.174.071-8.873.242-9.357.418a11.228,11.228,0,0,0-1.58,2.887c.015.235.106.894.662.894a7.3,7.3,0,0,0,2.127-.428.392.392,0,0,1,.5.521,2.511,2.511,0,0,0-.178,1.629.472.472,0,0,0,.356.25,23.252,23.252,0,0,1,2.494.922c2.664,1.07,6.688,2.686,9.691,3,4.337.449,10.376,1.353,10.437,1.361.272.025,29.459,2.7,37.171,1.361a102.49,102.49,0,0,0,11.709-2.668c5.163-1.6,5.5-2.668,5.482-2.959-.139-2.093-3.9-34.775-6.325-42.643-.542-1.761-1.019-3.366-1.439-4.781-1.39-4.678-2.308-7.768-3.278-8.631-1.068-.949-6.017-2.852-7.833-3.5l.265-.738c.272.1,6.688,2.413,8.088,3.657,1.138,1.012,1.98,3.847,3.509,8.994.42,1.414.9,3.017,1.437,4.773,2.436,7.916,6.218,40.722,6.358,42.821.053.8-.514,2.053-6.032,3.76a103.217,103.217,0,0,1-11.808,2.692A46.106,46.106,0,0,1,5474.775,5624.137Z" transform="translate(-5415.126 -5557.05)" fill="#263238"/>
        </g>
        <g id="Group_17333" data-name="Group 17333" transform="translate(0.208 38.387)">
          <path id="Path_8312" data-name="Path 8312" d="M5442.5,5795.063s-4.832-9.814-6.342-11.476-10.569-4.832-12.08-5.134-6.19-.453-6.644,1.058,1.359,2.114,2.265,2.114,3.775.151,3.775.151l7.248,3.926.906,1.812s-6.191-1.51-7.1-1.812-5.587.755-6.191,1.208-.906,1.963,0,2.265,4.983-.453,4.983-.453l7.852,3.473s-8.908.151-9.512.453-1.812,3.171-1.812,3.171,0,1.358,1.057,1.358a7.661,7.661,0,0,0,2.265-.453s-.905,2.114.454,2.416,7.852,3.473,12.23,3.926,10.418,1.359,10.418,1.359,11.661,1.076,22.263,1.535c1.461-7.007.707-11.567-.423-14.383l-5.23,1.674A44.569,44.569,0,0,1,5442.5,5795.063Z" transform="translate(-5416.968 -5777.859)" fill="#fff"/>
          <path id="Path_8313" data-name="Path 8313" d="M5466.693,5804.482h-.018c-10.49-.455-22.165-1.526-22.282-1.537-.083-.011-6.1-.913-10.423-1.359-3.112-.322-7.2-1.963-9.9-3.049a24.181,24.181,0,0,0-2.372-.884,1.26,1.26,0,0,1-.884-.658,2.364,2.364,0,0,1-.083-1.544,6.789,6.789,0,0,1-1.667.249c-1.146,0-1.449-1.146-1.449-1.751a.4.4,0,0,1,.031-.152c.38-.9,1.336-3.038,2-3.369.505-.253,4.863-.392,7.911-.46l-6.123-2.708c-.91.166-4.15.721-5.059.417a1.211,1.211,0,0,1-.817-1.015,2.2,2.2,0,0,1,.706-1.936c.669-.5,5.511-1.614,6.55-1.266.684.228,4.53,1.18,6.243,1.6l-.472-.943-7.061-3.826c-.489-.025-2.87-.146-3.667-.146a3.228,3.228,0,0,1-2.4-1.057,1.7,1.7,0,0,1-.242-1.562c.583-1.944,5.757-1.6,7.1-1.329s10.632,3.428,12.293,5.254c1.434,1.578,5.633,10.008,6.316,11.388a45.153,45.153,0,0,0,20-1.834l5.23-1.674a.391.391,0,0,1,.483.227c1.048,2.61,1.976,7.264.443,14.609A.392.392,0,0,1,5466.693,5804.482Zm-45.366-10.02a.392.392,0,0,1,.361.546,2.51,2.51,0,0,0-.178,1.628.472.472,0,0,0,.356.25,23.364,23.364,0,0,1,2.494.922c2.664,1.07,6.688,2.686,9.691,3,4.337.449,10.376,1.353,10.437,1.361.093.008,11.5,1.055,21.888,1.517,1.336-6.655.6-10.964-.339-13.491l-4.878,1.562a45.448,45.448,0,0,1-20.581,1.823.4.4,0,0,1-.275-.211c-.048-.1-4.824-9.784-6.28-11.385-1.43-1.573-10.355-4.71-11.867-5.013a15.352,15.352,0,0,0-3.609-.145c-1.478.118-2.442.465-2.582.929a.925.925,0,0,0,.121.868,2.455,2.455,0,0,0,1.769.742c.906,0,3.678.145,3.8.151a.389.389,0,0,1,.166.047l7.248,3.926a.38.38,0,0,1,.164.169l.907,1.812a.393.393,0,0,1-.444.557c-.253-.062-6.217-1.517-7.128-1.821-.742-.245-5.268.729-5.831,1.15a1.424,1.424,0,0,0-.4,1.183c.052.316.232.376.291.4a19.563,19.563,0,0,0,4.787-.466.391.391,0,0,1,.23.026l7.852,3.473a.392.392,0,0,1-.152.751c-4.174.071-8.873.241-9.357.418a11.246,11.246,0,0,0-1.58,2.887c.015.234.106.894.662.894a7.321,7.321,0,0,0,2.127-.428A.385.385,0,0,1,5421.327,5794.462Z" transform="translate(-5415.126 -5775.989)" fill="#263238"/>
        </g>
        <g id="Group_17334" data-name="Group 17334" transform="translate(6.277 55.946)">
          <path id="Path_8314" data-name="Path 8314" d="M5459.592,5878.276a44.247,44.247,0,0,0-6.633-1.353,27.3,27.3,0,0,0-2.953.889l-.264-.739a27.3,27.3,0,0,1,3.087-.923c.943-.157,5.96,1.11,6.957,1.366Z" transform="translate(-5449.743 -5876.137)" fill="#263238"/>
        </g>
      </g>
    </g>
    <g id="Group_17356" data-name="Group 17356" transform="translate(4463.646 4912.043)">
      <g id="Group_17337" data-name="Group 17337" transform="translate(6.086 11.603)">
        <path id="Path_8315" data-name="Path 8315" d="M4558.753,5513.972l-2.042-5.8-4.568-1.046-7.744-11.643-2.665-7.573-2.951,1.038-2.655.935-2.95,1.038,2.665,7.573,1.253,13.927-2.907,3.675,2.042,5.8h0a1.46,1.46,0,0,0-.892,1.862l1,2.84a61.755,61.755,0,0,0,25.275-8.894l-1-2.84a1.46,1.46,0,0,0-1.861-.892Z" transform="translate(-4533.179 -5487.908)" fill="#91e986"/>
      </g>
      <g id="Group_17341" data-name="Group 17341" transform="translate(0)">
        <g id="Group_17338" data-name="Group 17338" transform="translate(0.466 0.367)">
          <path id="Path_8316" data-name="Path 8316" d="M4517.357,5429.4a8.353,8.353,0,1,1-10.653-5.107A8.354,8.354,0,0,1,4517.357,5429.4Z" transform="translate(-4501.122 -5423.821)" fill="#91e986"/>
        </g>
        <g id="Group_17340" data-name="Group 17340">
          <g id="Group_17339" data-name="Group 17339">
            <path id="Path_8317" data-name="Path 8317" d="M4515.167,5427.678c-.085.033-.324-.675-1.077-1.736a8.336,8.336,0,0,0-4.342-3.115,7.948,7.948,0,1,0,4.231,12.026,8.332,8.332,0,0,0,1.435-5.148c-.077-1.3-.335-2-.247-2.027.03-.011.112.154.242.485a6.226,6.226,0,0,1,.37,1.508,8.311,8.311,0,0,1-1.242,5.547,8.657,8.657,0,0,1-7.335,4.011,8.757,8.757,0,0,1-5.479-15.572,8.655,8.655,0,0,1,8.229-1.465,8.312,8.312,0,0,1,4.443,3.546,6.2,6.2,0,0,1,.655,1.408C4515.158,5427.486,4515.2,5427.667,4515.167,5427.678Z" transform="translate(-4498.465 -5421.728)" fill="#263238"/>
          </g>
        </g>
      </g>
      <g id="Group_17343" data-name="Group 17343" transform="translate(8.131 38.185)">
        <g id="Group_17342" data-name="Group 17342">
          <path id="Path_8318" data-name="Path 8318" d="M4570.088,5639.529a13.317,13.317,0,0,1-3.246,2.293,49.846,49.846,0,0,1-18.035,6.28,13.3,13.3,0,0,1-3.968.218c-.039-.295,5.992-.916,12.979-3.377C4564.821,5642.534,4569.935,5639.274,4570.088,5639.529Z" transform="translate(-4544.839 -5639.515)" fill="#263238"/>
        </g>
      </g>
      <g id="Group_17345" data-name="Group 17345" transform="translate(8.779 37.608)">
        <g id="Group_17344" data-name="Group 17344">
          <path id="Path_8319" data-name="Path 8319" d="M4571.578,5636.241a11.174,11.174,0,0,1-2.916,2.175,41.639,41.639,0,0,1-16.492,5.736,11.221,11.221,0,0,1-3.635.1c-.033-.3,5.5-.743,11.876-2.989C4566.807,5639.07,4571.42,5635.988,4571.578,5636.241Z" transform="translate(-4548.536 -5636.226)" fill="#263238"/>
        </g>
      </g>
      <g id="Group_17347" data-name="Group 17347" transform="translate(7.106 31.958)">
        <g id="Group_17346" data-name="Group 17346">
          <path id="Path_8320" data-name="Path 8320" d="M4561.545,5604.014a10.771,10.771,0,0,1-2.842,2.148,39.923,39.923,0,0,1-16.147,5.615,10.754,10.754,0,0,1-3.561.079c-.032-.3,5.385-.7,11.63-2.9C4556.884,5606.8,4561.386,5603.761,4561.545,5604.014Z" transform="translate(-4538.995 -5604)" fill="#263238"/>
        </g>
      </g>
      <g id="Group_17349" data-name="Group 17349" transform="translate(10.065 30.792)">
        <g id="Group_17348" data-name="Group 17348">
          <path id="Path_8321" data-name="Path 8321" d="M4571.034,5597.368c.18.149-2.536,2.918-6.952,4.456-4.4,1.577-8.256,1.125-8.21.9,0-.291,3.693-.274,7.9-1.786C4567.986,5599.473,4570.856,5597.139,4571.034,5597.368Z" transform="translate(-4555.872 -5597.352)" fill="#263238"/>
        </g>
      </g>
      <g id="Group_17353" data-name="Group 17353" transform="translate(4.298 13.046)">
        <g id="Group_17350" data-name="Group 17350" transform="translate(0 0)">
          <path id="Rectangle_11262" data-name="Rectangle 11262" d="M2.507,0h9.611a2.507,2.507,0,0,1,2.507,2.507v0a2.507,2.507,0,0,1-2.507,2.507H2.507A2.507,2.507,0,0,1,0,2.507v0A2.507,2.507,0,0,1,2.507,0Z" transform="translate(0 4.854) rotate(-19.384)" fill="#91e986"/>
        </g>
        <g id="Group_17352" data-name="Group 17352" transform="translate(0.187 0.282)">
          <g id="Group_17351" data-name="Group 17351">
            <path id="Path_8322" data-name="Path 8322" d="M4537.071,5502.98c-.041-.08.479-.227.957-.913a2.254,2.254,0,0,0,.372-1.4,2.659,2.659,0,0,0-.812-1.68,2.056,2.056,0,0,0-2.072-.365l-2.8,1.033-6.447,2.308a1.935,1.935,0,0,0-1.224,2.288,2.027,2.027,0,0,0,1.875,1.7,3.5,3.5,0,0,0,1.334-.305l1.376-.459,2.475-.811a2.587,2.587,0,1,1,.222.629l-2.437.919-1.36.5a4.2,4.2,0,0,1-1.638.391,2.921,2.921,0,0,1-2.739-2.329,2.858,2.858,0,0,1,1.8-3.412l6.471-2.237,2.833-.951a2.75,2.75,0,0,1,2.783.612,2.821,2.821,0,0,1,.281,3.789C4537.658,5503.012,4537.065,5503.018,4537.071,5502.98Z" transform="translate(-4524.046 -5497.741)" fill="#263238"/>
          </g>
        </g>
      </g>
      <g id="Group_17355" data-name="Group 17355" transform="translate(8.589 18.624)" opacity="0.3">
        <g id="Group_17354" data-name="Group 17354">
          <path id="Path_8323" data-name="Path 8323" d="M4547.453,5530.978a7.873,7.873,0,0,0,4.587-.263,8.887,8.887,0,0,0,4.019-2.762c-2.766.928-5.841,2.1-8.606,3.025" transform="translate(-4547.453 -5527.953)"/>
        </g>
      </g>
    </g>
    <g id="Group_17376" data-name="Group 17376" transform="translate(4527.647 4803.681)">
      <g id="Group_17373" data-name="Group 17373" transform="translate(0 0)">
        <g id="Group_17357" data-name="Group 17357" transform="translate(29.152)">
          <path id="Path_8324" data-name="Path 8324" d="M5058.287,4813.66l-2.916,6.139-4.6-2.187,2.916-6.139-5.73-2.722-2.916,6.139-4.6-2.187,2.916-6.139-5.034-2.391-8.051,16.951,24.863,11.808,8.05-16.951Z" transform="translate(-5030.177 -4804.087)" fill="#91e986"/>
          <path id="Path_8325" data-name="Path 8325" d="M5054.75,4832.612l-24.98-11.864,8.105-17.066,5.15,2.446-2.915,6.138,4.487,2.131,2.915-6.138,5.85,2.778-2.916,6.138,4.487,2.131,2.915-6.138,5.007,2.378Zm-24.808-11.926,24.747,11.753,7.994-16.833-4.772-2.267-2.915,6.138-4.721-2.242,2.916-6.138-5.617-2.667-2.915,6.138-4.721-2.241,2.916-6.139-4.916-2.335Z" transform="translate(-5029.77 -4803.681)" fill="#263238"/>
        </g>
        <g id="Group_17359" data-name="Group 17359" transform="translate(12.864 12.821)">
          <g id="Group_17358" data-name="Group 17358">
            <path id="Path_8326" data-name="Path 8326" d="M4962.3,4918.157l15.017-31.618,1.049-.442-9.473-4.5-.623-.3-9.472-4.5.319,1.092-15.017,31.618a18.847,18.847,0,0,1-3.8,5.18,9.513,9.513,0,0,1-3.437,2.1l11.868,5.637.622.3,11.869,5.637a9.493,9.493,0,0,1-.543-3.992A16.255,16.255,0,0,1,4962.3,4918.157Z" transform="translate(-4936.872 -4876.803)" fill="#91e986"/>
          </g>
        </g>
        <g id="Group_17360" data-name="Group 17360" transform="translate(0 51.866)">
          <path id="Path_8327" data-name="Path 8327" d="M4879.129,5099.859l-6.792.677-3.718,7.829h0a2.106,2.106,0,0,0-2.827.934l-1.82,3.831a95.262,95.262,0,0,0,35.7,16.957l1.82-3.832a2.106,2.106,0,0,0-1.062-2.781h0l3.718-7.829-3.767-5.691" transform="translate(-4863.891 -5099.797)" fill="#91e986"/>
          <path id="Path_8328" data-name="Path 8328" d="M4880.74,5123.335a99.784,99.784,0,0,1-17.195-10.447l-.043-.032,1.842-3.879a2.172,2.172,0,0,1,2.856-.991l3.706-7.8.038,0,6.791-.677.011.126-6.753.673-3.731,7.855-.059-.027a2.044,2.044,0,0,0-2.742.9l-1.8,3.785a95.766,95.766,0,0,0,35.584,16.9l1.8-3.785a2.044,2.044,0,0,0-1.03-2.7l-.059-.028,3.731-7.854-3.746-5.659.105-.071,3.787,5.723-3.706,7.8a2.17,2.17,0,0,1,1.035,2.838l-1.842,3.879-.052-.013A92.891,92.891,0,0,1,4880.74,5123.335Z" transform="translate(-4863.502 -5099.503)" fill="#263238"/>
        </g>
        <g id="Group_17362" data-name="Group 17362" transform="translate(2.244 60.778)">
          <g id="Group_17361" data-name="Group 17361">
            <path id="Path_8329" data-name="Path 8329" d="M4911.875,5167.375c-.035.162-2.259-.127-5.762-1.041a76.852,76.852,0,0,1-25.385-12.154c-2.908-2.155-4.527-3.707-4.423-3.835.251-.335,7.259,5.2,17.129,9.886C4903.268,5164.983,4911.978,5166.97,4911.875,5167.375Z" transform="translate(-4876.299 -5150.331)" fill="#263238"/>
          </g>
        </g>
        <g id="Group_17364" data-name="Group 17364" transform="translate(4.297 60.099)">
          <g id="Group_17363" data-name="Group 17363">
            <path id="Path_8330" data-name="Path 8330" d="M4920.468,5162.024c-.032.163-2.074-.042-5.294-.822a64.207,64.207,0,0,1-23.2-11.117c-2.625-2.021-4.064-3.484-3.957-3.61.258-.331,6.56,4.869,15.571,9.146C4912.561,5159.963,4920.564,5161.617,4920.468,5162.024Z" transform="translate(-4888.008 -5146.46)" fill="#263238"/>
          </g>
        </g>
        <g id="Group_17366" data-name="Group 17366" transform="translate(8.426 52.625)">
          <g id="Group_17365" data-name="Group 17365">
            <path id="Path_8331" data-name="Path 8331" d="M4943.322,5119.066c-.031.163-2.032-.024-5.189-.772a61.546,61.546,0,0,1-22.717-10.887c-2.561-1.991-3.96-3.434-3.853-3.56.259-.33,6.4,4.794,15.223,8.98C4935.571,5117.078,4943.417,5118.657,4943.322,5119.066Z" transform="translate(-4911.557 -5103.832)" fill="#263238"/>
          </g>
        </g>
        <g id="Group_17368" data-name="Group 17368" transform="translate(15.243 52.021)">
          <g id="Group_17367" data-name="Group 17367">
            <path id="Path_8332" data-name="Path 8332" d="M4971.89,5110.554c.025.329-5.663.3-11.855-2.674-6.223-2.913-9.85-7.292-9.579-7.481.279-.3,4.18,3.5,10.148,6.28C4966.536,5109.533,4971.943,5110.15,4971.89,5110.554Z" transform="translate(-4950.441 -5100.383)" fill="#263238"/>
          </g>
        </g>
        <g id="Group_17372" data-name="Group 17372" transform="translate(29.183 17.077)">
          <g id="Group_17369" data-name="Group 17369" transform="translate(0.001 0.03)">
            <path id="Path_8333" data-name="Path 8333" d="M5029.957,4901.255c8.451,4.014,16.466,7.724,24.917,11.737" transform="translate(-5029.957 -4901.255)" fill="#91e986"/>
          </g>
          <g id="Group_17371" data-name="Group 17371">
            <g id="Group_17370" data-name="Group 17370">
              <path id="Path_8334" data-name="Path 8334" d="M5054.869,4912.851c-.157.331-5.861-2.027-12.741-5.268s-12.332-6.138-12.176-6.47,5.86,2.026,12.742,5.269S5055.025,4912.519,5054.869,4912.851Z" transform="translate(-5029.949 -4901.082)" fill="#263238"/>
            </g>
          </g>
        </g>
      </g>
      <g id="Group_17375" data-name="Group 17375" transform="translate(32.941 18.915)" opacity="0.3">
        <g id="Group_17374" data-name="Group 17374">
          <path id="Path_8335" data-name="Path 8335" d="M5051.382,4911.564a17.08,17.08,0,0,0,7.462,6.6c3.3,1.456,7.452,2.5,10.4,1.889-5.674-2.8-12.192-5.7-17.866-8.492" transform="translate(-5051.382 -4911.564)"/>
        </g>
      </g>
    </g>
    <g id="Group_17402" data-name="Group 17402" transform="translate(4706.465 4813.541)">
      <g id="Group_17401" data-name="Group 17401" transform="translate(0)">
        <g id="Group_17380" data-name="Group 17380">
          <g id="Group_17377" data-name="Group 17377" transform="translate(0.378 0.578)">
            <path id="Path_8336" data-name="Path 8336" d="M5906.681,4900.173a9.366,9.366,0,0,1-3.548-1.821l-3.262,2.559-10.838-13.892s-5.36-7.918-2.784-15.086a13.532,13.532,0,0,1,3.292-5.683s-.469-1.056.083-1.486,1.179.146,1.179.146l4-1.7.575,2.216,14.478.69.463.593a6.429,6.429,0,0,1,2.192,1.331,3.916,3.916,0,0,1-.344,4c-.944,1.18-3.945,1.657-3.945,1.657l-2.809,1.748a8.505,8.505,0,0,1-1.833,2.317,7.3,7.3,0,0,1-2.042,1.593s6.988.763,9.39,1.908a12.355,12.355,0,0,1,5.516,5.818,30.716,30.716,0,0,1,1.215,4.53Z" transform="translate(-5885.549 -4863.208)" fill="#91e986"/>
          </g>
          <g id="Group_17379" data-name="Group 17379">
            <g id="Group_17378" data-name="Group 17378">
              <path id="Path_8337" data-name="Path 8337" d="M5904.9,4897.457a5.627,5.627,0,0,1,.724-.649l2.124-1.742,7.971-6.381-.1.253a28.767,28.767,0,0,0-1.26-4.53,11.723,11.723,0,0,0-3.166-4.1,9.748,9.748,0,0,0-2.339-1.517,16.386,16.386,0,0,0-2.838-.81c-2-.415-4.117-.722-6.3-.97l-1.245-.142,1.159-.6a9.586,9.586,0,0,0,1.979-1.593,9.064,9.064,0,0,0,1.659-2.119l.062-.12.092-.058,2.8-1.754.065-.041.085-.016a11.59,11.59,0,0,0,2.5-.723,2.521,2.521,0,0,0,1.634-1.666,3.74,3.74,0,0,0-.021-2.448,4.532,4.532,0,0,0-2.1-1.355l-.116-.047-.069-.088-.463-.593.312.162-7.53-.356-6.947-.334-.311-.015-.078-.3q-.287-1.115-.572-2.216l.571.281-4,1.7-.232.1-.211-.175c-.277-.23-.568-.252-.681-.085-.125.112-.077.615.075.954l.116.26-.207.2a12.893,12.893,0,0,0-3.192,5.486l-.009.031v0a14.992,14.992,0,0,0,.349,9.833,24.451,24.451,0,0,0,1.919,4.234c.742,1.254,1.777,2.384,2.6,3.516l8.542,11.136-.287-.035,3.3-2.51.09-.069.087.069a11.714,11.714,0,0,0,3.459,1.934,2.821,2.821,0,0,1-.98-.24,9.969,9.969,0,0,1-2.656-1.469h.177l-3.223,2.606-.158.127-.129-.163-8.734-11.008-1.343-1.7a14.121,14.121,0,0,1-1.334-1.847,25.03,25.03,0,0,1-2.014-4.342,15.678,15.678,0,0,1-.408-10.339l-.011.035a13.594,13.594,0,0,1,3.39-5.879l-.091.461a1.851,1.851,0,0,1,.024-1.794,1.142,1.142,0,0,1,1-.426,1.623,1.623,0,0,1,.891.408l-.442-.077,4-1.705.448-.191.123.472.576,2.215-.388-.315,6.948.329,7.53.362.193.009.119.152.462.594-.184-.135a9.727,9.727,0,0,1,1.359.651,2.9,2.9,0,0,1,1.2,1.125,4.482,4.482,0,0,1,.058,3.072,3.392,3.392,0,0,1-.806,1.356,4.395,4.395,0,0,1-1.286.8,12.277,12.277,0,0,1-2.707.772l.15-.056-2.813,1.742.153-.177a9.556,9.556,0,0,1-1.841,2.354,9.4,9.4,0,0,1-2.27,1.756l-.086-.737c2.213.265,4.336.589,6.37,1.029a16.883,16.883,0,0,1,2.967.879,10.351,10.351,0,0,1,2.49,1.646,12.215,12.215,0,0,1,3.289,4.379,28.638,28.638,0,0,1,1.222,4.652l.03.158-.127.1c-3.455,2.628-6.222,4.732-8.2,6.234l-2.181,1.617A4.647,4.647,0,0,1,5904.9,4897.457Z" transform="translate(-5883.394 -4859.914)" fill="#263238"/>
            </g>
          </g>
        </g>
        <g id="Group_17384" data-name="Group 17384" transform="translate(2.588 2.785)">
          <g id="Group_17381" data-name="Group 17381" transform="translate(0.397 0.008)">
            <path id="Path_8338" data-name="Path 8338" d="M5915.16,4908.969c-4.39-4.029-7.8-8.993-11.062-13.98-1.861-2.846-3.753-5.94-3.681-9.34a10.4,10.4,0,0,1,2.183-5.934,13.3,13.3,0,0,1,5.037-3.87" transform="translate(-5900.415 -4875.845)" fill="#91e986"/>
          </g>
          <g id="Group_17383" data-name="Group 17383">
            <g id="Group_17382" data-name="Group 17382">
              <path id="Path_8339" data-name="Path 8339" d="M5905.771,4875.808a9.157,9.157,0,0,1-1.339.889,13.6,13.6,0,0,0-3.2,2.839,10.517,10.517,0,0,0-2.271,5.754,13.206,13.206,0,0,0,2.268,7.26,122.486,122.486,0,0,0,8.178,11.846c2.308,2.872,3.987,4.433,3.891,4.536a5.393,5.393,0,0,1-1.276-1,36.874,36.874,0,0,1-3.074-3.154,92.532,92.532,0,0,1-8.45-11.8,13.626,13.626,0,0,1-2.317-7.738,10.8,10.8,0,0,1,2.588-6.087,12.108,12.108,0,0,1,3.5-2.743A4.393,4.393,0,0,1,5905.771,4875.808Z" transform="translate(-5898.152 -4875.8)" fill="#263238"/>
            </g>
          </g>
        </g>
        <g id="Group_17386" data-name="Group 17386" transform="translate(8.07 11.967)">
          <g id="Group_17385" data-name="Group 17385">
            <path id="Path_8340" data-name="Path 8340" d="M5936.859,4932.274c.087.044-.184.688-1.143,1.106a3.842,3.842,0,0,1-3.778-.6,6.622,6.622,0,0,1-2.18-3.091c-.318-.9-.4-1.481-.292-1.52s.4.472.837,1.271a8.168,8.168,0,0,0,2.139,2.658,3.652,3.652,0,0,0,3.081.711C5936.354,4932.611,5936.76,4932.185,5936.859,4932.274Z" transform="translate(-5929.423 -4928.17)" fill="#263238"/>
          </g>
        </g>
        <g id="Group_17387" data-name="Group 17387" transform="translate(19.871 28.486)">
          <path id="Path_8341" data-name="Path 8341" d="M5998.192,5031.575l-1.467,3.832,3.205,4.108h0a1.265,1.265,0,0,0-.26,1.77l1.568,2.011a57.278,57.278,0,0,0,18.732-14.615l-1.568-2.01a1.267,1.267,0,0,0-1.781-.179h0l-3.2-4.107-4.073.49" transform="translate(-5996.726 -5022.384)" fill="#91e986"/>
        </g>
        <g id="Group_17389" data-name="Group 17389" transform="translate(22.597 32.516)">
          <g id="Group_17388" data-name="Group 17388">
            <path id="Path_8342" data-name="Path 8342" d="M6031.016,5045.373a11.754,11.754,0,0,1-2.1,2.828,45.8,45.8,0,0,1-13.375,10.369,11.761,11.761,0,0,1-3.262,1.328c-.117-.238,4.74-2.52,9.914-6.561C6027.392,5049.335,6030.815,5045.2,6031.016,5045.373Z" transform="translate(-6012.277 -5045.367)" fill="#263238"/>
          </g>
        </g>
        <g id="Group_17391" data-name="Group 17391" transform="translate(22.786 32.504)">
          <g id="Group_17390" data-name="Group 17390">
            <path id="Path_8343" data-name="Path 8343" d="M6030.458,5045.31a9.869,9.869,0,0,1-1.855,2.636,38.254,38.254,0,0,1-12.231,9.476,9.881,9.881,0,0,1-3.015,1.138c-.113-.241,4.372-2.235,9.095-5.922C6027.2,5048.986,6030.253,5045.14,6030.458,5045.31Z" transform="translate(-6013.354 -5045.304)" fill="#263238"/>
          </g>
        </g>
        <g id="Group_17393" data-name="Group 17393" transform="translate(19.883 28.556)">
          <g id="Group_17392" data-name="Group 17392">
            <path id="Path_8344" data-name="Path 8344" d="M6013.534,5022.792a9.5,9.5,0,0,1-1.8,2.592,36.672,36.672,0,0,1-11.977,9.277,9.49,9.49,0,0,1-2.959,1.1c-.112-.241,4.29-2.172,8.913-5.78C6010.358,5026.4,6013.328,5022.623,6013.534,5022.792Z" transform="translate(-5996.795 -5022.787)" fill="#263238"/>
          </g>
        </g>
        <g id="Group_17395" data-name="Group 17395" transform="translate(21.398 28.909)">
          <g id="Group_17394" data-name="Group 17394">
            <path id="Path_8345" data-name="Path 8345" d="M6016.673,5024.805c.2.082-1.347,3.139-4.616,5.669-3.246,2.562-6.584,3.321-6.617,3.111-.088-.243,2.994-1.327,6.094-3.78C6014.663,5027.391,6016.458,5024.661,6016.673,5024.805Z" transform="translate(-6005.438 -5024.8)" fill="#263238"/>
          </g>
        </g>
        <g id="Group_17396" data-name="Group 17396" transform="translate(5.191 3.245)">
          <path id="Path_8346" data-name="Path 8346" d="M5913,4880.234l1.605,1.626,1.7-1.81s-1.232-1.27-1.662-1.627Z" transform="translate(-5913 -4878.423)" fill="#91e986"/>
        </g>
        <g id="Group_17398" data-name="Group 17398" transform="translate(4.14 3.073)">
          <g id="Group_17397" data-name="Group 17397">
            <path id="Path_8347" data-name="Path 8347" d="M5911.359,4881.952c-.038.222-1.652-.055-2.973-1.461s-1.522-3.022-1.3-3.047c.237-.066.747,1.255,1.914,2.464C5910.146,4881.138,5911.438,4881.719,5911.359,4881.952Z" transform="translate(-5907.008 -4877.441)" fill="#263238"/>
          </g>
        </g>
        <g id="Group_17400" data-name="Group 17400" transform="translate(5.207 1.974)">
          <g id="Group_17399" data-name="Group 17399">
            <path id="Path_8348" data-name="Path 8348" d="M5917.1,4874.917c-.189.152-1.076-.691-2.15-1.691s-1.98-1.812-1.848-2.014,1.29.329,2.426,1.393S5917.281,4874.778,5917.1,4874.917Z" transform="translate(-5913.093 -4871.173)" fill="#263238"/>
          </g>
        </g>
      </g>
    </g>
    <g id="Group_17429" data-name="Group 17429" transform="translate(4749.418 4913.688)">
      <g id="Group_17426" data-name="Group 17426" transform="translate(0 0)">
        <g id="Group_17403" data-name="Group 17403" transform="translate(0.346 4.783)">
          <path id="Path_8349" data-name="Path 8349" d="M6136.389,5478.036s-3.256-.913-5.279-5.307c-2.3-5,1.36-13.368,1.36-13.368l2.124-.977,7.778,16.9Z" transform="translate(-6130.351 -5458.384)" fill="#91e986"/>
        </g>
        <g id="Group_17404" data-name="Group 17404">
          <path id="Path_8350" data-name="Path 8350" d="M6134.329,5432.918a3.118,3.118,0,1,1-4.136-1.529A3.118,3.118,0,0,1,6134.329,5432.918Z" transform="translate(-6128.377 -5431.103)" fill="#91e986"/>
        </g>
        <g id="Group_17405" data-name="Group 17405" transform="translate(3.814 4.162)">
          <path id="Path_8351" data-name="Path 8351" d="M6157.4,5457.06a7.858,7.858,0,0,0-2.294,3.771l-1.739-.616c-.172-1.484,1.335-3.408,1.994-4.168a29.169,29.169,0,0,0-3.1-1.2l-2.124.977,7.778,16.9,5.983-2.753s1.424-3.067-.6-7.462C6162.218,5460.167,6159.736,5458.341,6157.4,5457.06Z" transform="translate(-6150.13 -5454.842)" fill="#91e986"/>
        </g>
        <g id="Group_17406" data-name="Group 17406" transform="translate(7.099 18.42)">
          <path id="Path_8352" data-name="Path 8352" d="M6168.868,5540.7l2.9,6.3,8.571,29.122,18.053-8.31-16.653-25.4-3-6.253Z" transform="translate(-6168.868 -5536.162)" fill="#91e986"/>
        </g>
        <g id="Group_17410" data-name="Group 17410" transform="translate(5.866 21.528)">
          <g id="Group_17407" data-name="Group 17407" transform="translate(0 0)">
            <rect id="Rectangle_11263" data-name="Rectangle 11263" width="18.66" height="4.391" rx="2.195" transform="translate(0 7.802) rotate(-24.716)" fill="#91e986"/>
          </g>
          <g id="Group_17409" data-name="Group 17409" transform="translate(0.085 0.267)">
            <g id="Group_17408" data-name="Group 17408">
              <path id="Path_8353" data-name="Path 8353" d="M6179.122,5560.006c-.07-.087.585-.334.875-1.281a1.959,1.959,0,0,0-2.119-2.449l-13.5,6.343a1.5,1.5,0,0,0-.86,1.207,1.478,1.478,0,0,0,.114.742,1.817,1.817,0,0,0,.425.685,1.517,1.517,0,0,0,1.356.394c.409-.1,1.147-.492,1.684-.713l6.192-2.708c3.54-1.51,5.763-2.368,5.833-2.218s-2.029,1.281-5.478,2.988l-6.084,2.942a15.069,15.069,0,0,1-1.9.828,2.671,2.671,0,0,1-2.413-.661,3.028,3.028,0,0,1-.7-1.061,2.662,2.662,0,0,1-.215-1.335,2.691,2.691,0,0,1,1.546-2.179c5.39-2.437,10.058-4.65,13.856-6.088a2.563,2.563,0,0,1,2.7,3.44C6179.9,5560,6179.1,5560.06,6179.122,5560.006Z" transform="translate(-6162.316 -5555.412)" fill="#263238"/>
            </g>
          </g>
        </g>
        <g id="Group_17414" data-name="Group 17414" transform="translate(4.955 18.32)">
          <g id="Group_17411" data-name="Group 17411" transform="translate(0 0)">
            <rect id="Rectangle_11264" data-name="Rectangle 11264" width="15.775" height="4.391" rx="2.195" transform="translate(0 6.596) rotate(-24.716)" fill="#91e986"/>
          </g>
          <g id="Group_17413" data-name="Group 17413" transform="translate(0.084 0.242)">
            <g id="Group_17412" data-name="Group 17412">
              <path id="Path_8354" data-name="Path 8354" d="M6171.308,5541.591c-.062-.09.479-.307.8-1.094a1.86,1.86,0,0,0-.037-1.425,1.833,1.833,0,0,0-1.339-1.189,1.635,1.635,0,0,0-1,.116l-1.254.611-2.812,1.355-6.476,3.032a1.555,1.555,0,0,0-.58,2.308,1.593,1.593,0,0,0,2.279.475l5.359-2.325c3.065-1.292,5-2.015,5.065-1.865s-1.736,1.146-4.711,2.635l-5.251,2.559a2.928,2.928,0,0,1-1.966.369,2.667,2.667,0,0,1-1.79-1.252,2.925,2.925,0,0,1-.39-2.187,2.689,2.689,0,0,1,1.483-1.8l6.515-2.947,2.858-1.254,1.318-.564a2.493,2.493,0,0,1,1.554-.085,2.583,2.583,0,0,1,1.6,3.641C6171.967,5541.606,6171.3,5541.643,6171.308,5541.591Z" transform="translate(-6157.122 -5536.973)" fill="#263238"/>
            </g>
          </g>
        </g>
        <g id="Group_17415" data-name="Group 17415" transform="translate(14.636 47.741)">
          <path id="Path_8355" data-name="Path 8355" d="M6215.112,5711.756l-3.259,4.8,3.079,6.691h0a1.791,1.791,0,0,0-.931,2.353l1.507,3.275a80.986,80.986,0,0,0,30.517-14.047l-1.508-3.275a1.791,1.791,0,0,0-2.394-.822h0l-3.079-6.691-5.766-.645" transform="translate(-6211.854 -5703.394)" fill="#91e986"/>
        </g>
        <g id="Group_17417" data-name="Group 17417" transform="translate(16.597 55.471)">
          <g id="Group_17416" data-name="Group 17416">
            <path id="Path_8356" data-name="Path 8356" d="M6253.53,5747.5c.092.119-1.3,1.419-3.805,3.212a64.755,64.755,0,0,1-21.769,9.938c-2.994.717-4.89.919-4.919.771-.085-.366,7.34-1.933,15.769-5.818C6247.259,5751.777,6253.309,5747.193,6253.53,5747.5Z" transform="translate(-6223.037 -5747.482)" fill="#263238"/>
          </g>
        </g>
        <g id="Group_17419" data-name="Group 17419" transform="translate(17.273 54.987)">
          <g id="Group_17418" data-name="Group 17418">
            <path id="Path_8357" data-name="Path 8357" d="M6254.728,5744.738c.094.117-1.147,1.344-3.408,3.026a54.113,54.113,0,0,1-19.9,9.081c-2.751.6-4.492.737-4.518.589-.078-.368,6.742-1.66,14.437-5.205C6249.053,5748.742,6254.5,5744.438,6254.728,5744.738Z" transform="translate(-6226.897 -5744.723)" fill="#263238"/>
          </g>
        </g>
        <g id="Group_17421" data-name="Group 17421" transform="translate(14.649 48.495)">
          <g id="Group_17420" data-name="Group 17420">
            <path id="Path_8358" data-name="Path 8358" d="M6239.162,5707.708c.1.116-1.112,1.328-3.318,2.984a51.873,51.873,0,0,1-19.488,8.888c-2.7.58-4.4.7-4.429.549-.076-.369,6.608-1.6,14.14-5.068C6233.622,5711.65,6238.934,5707.41,6239.162,5707.708Z" transform="translate(-6211.926 -5707.693)" fill="#263238"/>
          </g>
        </g>
        <g id="Group_17423" data-name="Group 17423" transform="translate(17.976 47.687)">
          <g id="Group_17422" data-name="Group 17422">
            <path id="Path_8359" data-name="Path 8359" d="M6249.207,5703.1c.242.176-2.872,3.883-8.19,6.308-5.3,2.474-10.138,2.438-10.115,2.139-.043-.364,4.55-.856,9.612-3.229C6245.6,5706.011,6248.958,5702.835,6249.207,5703.1Z" transform="translate(-6230.901 -5703.087)" fill="#263238"/>
          </g>
        </g>
        <g id="Group_17425" data-name="Group 17425" transform="translate(2.244 4.15)">
          <g id="Group_17424" data-name="Group 17424">
            <path id="Path_8360" data-name="Path 8360" d="M6145,5454.784c.308.025.287,1.491-1.272,2.275-1.483.58-2.645-.02-2.55-.322.059-.325,1.1-.373,2.076-.78C6144.134,5455.568,6144.7,5454.674,6145,5454.784Z" transform="translate(-6141.176 -5454.774)" fill="#263238"/>
          </g>
        </g>
      </g>
      <g id="Group_17428" data-name="Group 17428" transform="translate(10.835 27.325)" opacity="0.3">
        <g id="Group_17427" data-name="Group 17427">
          <path id="Path_8361" data-name="Path 8361" d="M6190.177,5591.515a9.43,9.43,0,0,0,5.44-.824,10.644,10.644,0,0,0,4.484-3.74c-3.194,1.415-6.73,3.149-9.925,4.564" transform="translate(-6190.177 -5586.95)"/>
        </g>
      </g>
    </g>
  </g>
</svg>
