<svg xmlns="http://www.w3.org/2000/svg" width="60" height="60" viewBox="0 0 60 60">
  <g id="Group_18022" data-name="Group 18022" transform="translate(289.274 -3935.965)">
    <circle id="Ellipse_220" data-name="Ellipse 220" cx="30" cy="30" r="30" transform="translate(-289.274 3935.965)" fill="#edf2f6"/>
    <path id="Path_8825" data-name="Path 8825" d="M983.328,675.6c.381,4.437,1,8.788,3.472,12.7H973.748c2.56-3.849,3.152-8.224,3.459-12.7Z" transform="translate(-1238.588 3292.029)" fill="#4dc47d"/>
    <path id="Path_8828" data-name="Path 8828" d="M981.778,634.629c1.382,0,2.764-.006,4.146,0,1.3.007,1.758.592,1.473,1.844q-.749,3.276-1.5,6.552a.556.556,0,0,1-.652.507c-2.332-.024-4.664-.011-7-.01-.282,0-.528.032-.622-.372-.514-2.224-1.068-4.439-1.589-6.661-.3-1.257.17-1.847,1.464-1.863,1.425-.017,2.85,0,4.276,0Z" transform="translate(-1240.022 3318.79)" fill="#4dc47d"/>
    <path id="Path_8833" data-name="Path 8833" d="M974.78,719.922c-2.459,0-4.919.014-7.378,0a1.938,1.938,0,0,1-2.01-2.476,1.87,1.87,0,0,1,1.859-1.326c2.955-.011,5.911,0,8.866,0,2.047,0,4.1-.008,6.143,0a1.851,1.851,0,0,1,1.868,1.122,1.791,1.791,0,0,1-.61,2.248,2.593,2.593,0,0,1-1.427.421C979.656,719.944,977.218,719.922,974.78,719.922Z" transform="translate(-1233.1 3265.627)" fill="#4dc47d"/>
    <path id="Path_8837" data-name="Path 8837" d="M981.573,613.987a2.937,2.937,0,0,1,1.976-2.028.892.892,0,0,0,.718-1.123,9.527,9.527,0,0,1-.008-1.133c-.432,0-.831.013-1.23,0-.775-.03-1.222-.443-1.228-1.118s.418-1.088,1.214-1.128c.385-.019.771,0,1.247,0,0-.464-.009-.867,0-1.269a1.076,1.076,0,0,1,1.161-1.175,1.061,1.061,0,0,1,1.054,1.143c.014.4,0,.809,0,1.3.454,0,.836-.012,1.217,0,.8.031,1.277.478,1.255,1.165-.021.669-.487,1.075-1.263,1.09-.382.007-.765,0-1.21,0,0,.6-.034,1.14.021,1.669.016.158.253.361.431.424a3.836,3.836,0,0,1,2.312,2.156c-.182.016-.283.033-.383.033C986.45,613.988,984.039,613.987,981.573,613.987Z" transform="translate(-1243.68 3338.156)" fill="#4dc47d"/>
    <path id="Path_8840" data-name="Path 8840" d="M981.726,666.6c-1.488,0-2.976-.005-4.463,0a1.279,1.279,0,0,1-1.308-.95,1.252,1.252,0,0,1,.489-1.488,1.738,1.738,0,0,1,.957-.291c2.867-.022,5.735-.018,8.6-.009a1.436,1.436,0,0,1,1.454,1.413A1.4,1.4,0,0,1,986,666.6C984.574,666.609,983.149,666.6,981.726,666.6Z" transform="translate(-1239.972 3299.724)" fill="#4dc47d"/>
  </g>
</svg>
