<svg id="Sd51DH.tif" xmlns="http://www.w3.org/2000/svg" width="26.359" height="35.162" viewBox="0 0 26.359 35.162">
  <g id="Group_18050" data-name="Group 18050" transform="translate(0 0)">
    <path id="Path_8861" data-name="Path 8861" d="M-3631.27,3720.294v24.1a1.279,1.279,0,0,1-1.278.83q-11.9-.015-23.807-.008a1.77,1.77,0,0,1-.44-.042,1.123,1.123,0,0,1-.825-1.259q0-16.2-.009-32.4a1.369,1.369,0,0,1,.833-1.45h15.645a4.571,4.571,0,0,1,.718.506q4.3,4.458,8.581,8.936A7.574,7.574,0,0,1-3631.27,3720.294Zm-12.077-8.009h-12.05V3743h21.911v-20.856h-8.554a1.135,1.135,0,0,1-1.306-1.3q0-4.085,0-8.169Zm8.877,7.656-6.657-6.929v6.929Z" transform="translate(3657.629 -3710.063)" fill="#4dc47d"/>
    <path id="Path_8862" data-name="Path 8862" d="M-3431.16,4019.493c.556-1.208,1.071-2.326,1.583-3.445.19-.415.371-.834.558-1.25a.906.906,0,0,1,1.252-.348.56.56,0,0,1,.149.789c-.39.826-.793,1.646-1.178,2.473-.562,1.211-1.112,2.428-1.668,3.641-.209.457-.372.529-1,.495-.39-.021-.542-.259-.649-.593-.625-1.957-1.26-3.909-1.89-5.864a1.041,1.041,0,0,1-.1-.461.817.817,0,0,1,.251-.483.818.818,0,0,1,1.212.431q.67,2.1,1.339,4.208C-3431.266,4019.189-3431.228,4019.293-3431.16,4019.493Z" transform="translate(3449.484 -3993.381)" fill="#4dc47d"/>
    <path id="Path_8863" data-name="Path 8863" d="M-3589.719,4013.347c.292.042.747.086,1.192.178a.875.875,0,0,1,.438,1.278.619.619,0,0,1-.684.176,5.891,5.891,0,0,0-1.409-.212,2.057,2.057,0,0,0-1.978,2.072,4.761,4.761,0,0,0,.075,1.292,1.853,1.853,0,0,0,2.156,1.5,10.026,10.026,0,0,0,1.034-.223c.423-.1.727.008.823.323.117.383-.086.975-.4,1.061a5.043,5.043,0,0,1-2.536.142,3.131,3.131,0,0,1-2.491-2.607,4.789,4.789,0,0,1,.317-3.017A3.465,3.465,0,0,1-3589.719,4013.347Z" transform="translate(3598.019 -3992.482)" fill="#4dc47d"/>
    <path id="Path_8864" data-name="Path 8864" d="M-3500.786,4013.39c.246.037.61.077.967.147.428.085.521.483.457,1.045-.04.349-.355.479-.778.381a8.209,8.209,0,0,0-.871-.169.621.621,0,0,0-.674.308.549.549,0,0,0,.168.68c.582.6,1.178,1.182,1.754,1.785a2.18,2.18,0,0,1,.6,1.825,1.891,1.891,0,0,1-1.652,1.636,3.852,3.852,0,0,1-2.146-.27.932.932,0,0,1-.349-1.164c.149-.319.437-.354.888-.208a3.781,3.781,0,0,0,1.283.259c.594-.026.769-.516.377-.964-.368-.42-.783-.8-1.176-1.2-.208-.212-.424-.417-.621-.64a2.007,2.007,0,0,1-.365-2.407A2.151,2.151,0,0,1-3500.786,4013.39Z" transform="translate(3513.996 -3992.521)" fill="#4dc47d"/>
  </g>
</svg>
