<svg xmlns="http://www.w3.org/2000/svg" width="35.35" height="35.35" viewBox="0 0 35.35 35.35">
  <g id="Group_17038" data-name="Group 17038" transform="translate(704.444 -4654.66)">
    <path id="Path_8047" data-name="Path 8047" d="M-669.094,4672.335a17.675,17.675,0,0,1-17.675,17.675,17.675,17.675,0,0,1-17.675-17.675,17.675,17.675,0,0,1,17.675-17.675,17.675,17.675,0,0,1,17.675,17.675Zm0,0" fill="#4dc47d"/>
    <path id="Path_8048" data-name="Path 8048" d="M-590.146,4703.921c0-.47-.019-.937-.055-1.4l-10.582-10.582c-1.775-1.854-3.326.272-3.326.272l-1.221-1.063-1.7-1.7-9.118,10.238,4.8,4.817c-.309.473-3.786,10.084-3.786,10.084l-2.36,2.433,3.447,3.447a17.635,17.635,0,0,0,6.224,1.128,17.675,17.675,0,0,0,17.675-17.675Zm0,0" transform="translate(-78.948 -31.586)" fill="#22894c"/>
    <path id="Path_8049" data-name="Path 8049" d="M-495.635,4689.78l1.717-1.214s6.293,2.264,6.465,9.121a39.762,39.762,0,0,1-.414,8.015h-4.806Zm0,0" transform="translate(-189.587 -30.784)" fill="#cedfe2"/>
    <path id="Path_8050" data-name="Path 8050" d="M-603.765,4680.47a13.722,13.722,0,0,1-2.043,1.075c-.759.263-1.548.351-1.986,1.344a9.1,9.1,0,0,1-2.95,2.716,2.206,2.206,0,0,0-.64,3.026,2.071,2.071,0,0,0,2.156.9c.669-.062,1.26-.683,1.873-1.209s1.326-.265,2.082.087a3.7,3.7,0,0,0,1.764.345,22.436,22.436,0,0,0-4.413,5.652,11.792,11.792,0,0,0-.952,5.662h11.39a61.138,61.138,0,0,1,0-6.227c.2-1.489,2.528-6.588.513-10.151s-4.071-3.65-4.071-3.65-.927-2.085-2.75-2.2Zm0,0" transform="translate(-84.179 -21.042)" fill="#fff"/>
    <path id="Path_8051" data-name="Path 8051" d="M-507.338,4697.741a61.247,61.247,0,0,0,0,6.226h-5.106v-21.834a4.562,4.562,0,0,1,1.547,1.807s2.056.087,4.071,3.65-.308,8.662-.513,10.151Zm0,0" transform="translate(-174.325 -24.944)" fill="#f1f4f6"/>
    <rect id="Rectangle_11212" data-name="Rectangle 11212" width="16.59" height="3.172" transform="translate(-695.064 4678.75)" fill="#daeaec"/>
    <rect id="Rectangle_11213" data-name="Rectangle 11213" width="8.295" height="3.172" transform="translate(-686.769 4678.75)" fill="#cedfe2"/>
    <rect id="Rectangle_11214" data-name="Rectangle 11214" width="19.341" height="3.79" transform="translate(-696.439 4681.646)" fill="#f1f4f6"/>
    <rect id="Rectangle_11215" data-name="Rectangle 11215" width="9.67" height="3.79" transform="translate(-686.769 4681.646)" fill="#daeaec"/>
  </g>
</svg>
