<svg id="Component_43_1" data-name="Component 43 – 1" xmlns="http://www.w3.org/2000/svg" width="12.482" height="12.482" viewBox="0 0 12.482 12.482">
  <circle id="Ellipse_195" data-name="Ellipse 195" cx="6.241" cy="6.241" r="6.241" fill="#4dc47d"/>
  <path id="Path_8799" data-name="Path 8799" d="M-2730.36,4667.321h2.915a.078.078,0,0,0,.023.012.683.683,0,0,1,.607.714c0,.911,0,1.822,0,2.733a.743.743,0,0,1-.222.55q-1.819,1.816-3.639,3.633a.786.786,0,0,1-.285.179.665.665,0,0,1-.734-.2q-1.325-1.327-2.652-2.65a1.062,1.062,0,0,1-.33-.511v-.2a1.049,1.049,0,0,1,.328-.513q1.707-1.7,3.409-3.408A.98.98,0,0,1-2730.36,4667.321Zm1.18,1.863a.508.508,0,0,0,.5.5.513.513,0,0,0,.511-.507.514.514,0,0,0-.5-.505A.508.508,0,0,0-2729.18,4669.184Z" transform="translate(2735.819 -4664.964)" fill="#fff"/>
  <path id="Path_8800" data-name="Path 8800" d="M-2726.142,4668.014a.642.642,0,0,1,.632.433.943.943,0,0,1,.042.274c0,.914,0,1.828,0,2.742a.724.724,0,0,1-.216.535q-1.673,1.671-3.347,3.343a.672.672,0,0,1-1.021-.042c.023-.025.046-.05.07-.074q1.8-1.8,3.607-3.6a.743.743,0,0,0,.232-.561c0-.978,0-1.955,0-2.932Z" transform="translate(2735.819 -4664.964)" fill="#fff"/>
</svg>
