<svg id="Component_38_1" data-name="Component 38 – 1" xmlns="http://www.w3.org/2000/svg" width="70.039" height="70.039" viewBox="0 0 70.039 70.039">
  <g id="Group_17886" data-name="Group 17886">
    <g id="Group_17876" data-name="Group 17876" transform="translate(0 0)">
      <ellipse id="Ellipse_177" data-name="Ellipse 177" cx="35.02" cy="35.02" rx="35.02" ry="35.02" fill="#4dc47d"/>
    </g>
  </g>
  <g id="SUBpHA.tif" transform="translate(14.843 18.292)">
    <g id="Group_18048" data-name="Group 18048">
      <path id="Path_8855" data-name="Path 8855" d="M-2686.659,4821.675h-20.509q-5.052-8.761-10.105-17.522a1.223,1.223,0,0,0-.149-.174v-.16c.082-.118.172-.23.244-.354q4.9-8.484,9.788-16.975a.647.647,0,0,1,.654-.375q9.791.015,19.581,0a.736.736,0,0,1,.749.42q4.878,8.5,9.791,16.973a.669.669,0,0,1-.008.784Q-2681.653,4812.978-2686.659,4821.675Zm-10.213-32.351c-2.7,0-5.393,0-8.089-.006a.523.523,0,0,0-.534.3q-4.017,6.986-8.054,13.959a.529.529,0,0,0-.011.614q4.048,6.99,8.076,13.993a.5.5,0,0,0,.5.287q8.069-.012,16.138,0a.5.5,0,0,0,.5-.285q4.028-7,8.075-13.993a.53.53,0,0,0-.007-.614q-4.038-6.974-8.055-13.959a.525.525,0,0,0-.533-.3C-2691.533,4789.328-2694.2,4789.324-2696.873,4789.324Z" transform="translate(2717.423 -4786.113)" fill="#fff"/>
      <path id="Path_8856" data-name="Path 8856" d="M-2568.341,4891.983a9.3,9.3,0,0,1,9.295,9.287,9.314,9.314,0,0,1-9.307,9.284,9.315,9.315,0,0,1-9.275-9.316A9.3,9.3,0,0,1-2568.341,4891.983Zm0,3.2a6.09,6.09,0,0,0-6.083,6.084,6.1,6.1,0,0,0,6.089,6.084,6.1,6.1,0,0,0,6.084-6.09A6.09,6.09,0,0,0-2568.34,4895.185Z" transform="translate(2588.846 -4883.488)" fill="#fff"/>
    </g>
  </g>
</svg>
