<svg id="Component_40_1" data-name="Component 40 – 1" xmlns="http://www.w3.org/2000/svg" width="12.482" height="12.482" viewBox="0 0 12.482 12.482">
  <circle id="Ellipse_191" data-name="Ellipse 191" cx="6.241" cy="6.241" r="6.241" fill="#4dc47d"/>
  <g id="Group_17910" data-name="Group 17910" transform="translate(2735.819 -4479.352)">
    <path id="Path_8736" data-name="Path 8736" d="M-2729.05,4489.073V4490h-.99v-.933a2.165,2.165,0,0,1-2-2.23h1.231c.028.682.413,1.124,1.317,1.124.769,0,1.144-.365,1.144-.846,0-.682-.683-.865-1.442-1.1-.991-.3-2.106-.663-2.106-2.029a1.868,1.868,0,0,1,1.827-1.855v-.943h.99v.952a1.971,1.971,0,0,1,1.8,2.086h-1.23a.986.986,0,0,0-1.116-.98c-.692,0-1.038.346-1.038.76,0,.577.663.74,1.394.961,1.01.3,2.154.683,2.154,2.087A2.013,2.013,0,0,1-2729.05,4489.073Z" fill="#fff"/>
  </g>
</svg>
