<svg id="Component_42_1" data-name="Component 42 – 1" xmlns="http://www.w3.org/2000/svg" width="12.482" height="12.482" viewBox="0 0 12.482 12.482">
  <circle id="Ellipse_193" data-name="Ellipse 193" cx="6.241" cy="6.241" r="6.241" fill="#4dc47d"/>
  <path id="Path_8796" data-name="Path 8796" d="M-2725.124,4580.032v1.287c-.02,0-.04-.007-.06-.007h-1.739c-.019,0-.039,0-.062,0v.8h-5.184v-.807h-1.853a.254.254,0,0,1-.007-.042c0-.394-.013-.789.006-1.182a2.432,2.432,0,0,1,.687-1.6c.165-.173.357-.319.543-.482a.784.784,0,0,1-.075-.081,3.227,3.227,0,0,1-.279-.4,1.885,1.885,0,0,1,.308-2.249,1.854,1.854,0,0,1,1.927-.521,1.842,1.842,0,0,1,1.007.689.117.117,0,0,0,.115.052,3.126,3.126,0,0,1,.4,0,.161.161,0,0,0,.158-.07,1.869,1.869,0,0,1,1.278-.73,1.889,1.889,0,0,1,1.574.512,1.931,1.931,0,0,1,.322,2.409c-.091.143-.2.273-.3.41l.015.012.1.069a2.556,2.556,0,0,1,1.035,1.465C-2725.173,4579.724-2725.154,4579.88-2725.124,4580.032Zm-2.348,1.6c0-.217.007-.422,0-.628a2.067,2.067,0,0,0-1.143-1.837.164.164,0,0,0-.127,0,1.914,1.914,0,0,1-1.663,0,.14.14,0,0,0-.137,0,2.126,2.126,0,0,0-1.006,1.129,3.482,3.482,0,0,0-.131,1.322s.007.009.011.015Zm-2.107-5.672a1.469,1.469,0,0,0-1.458,1.463,1.465,1.465,0,0,0,1.457,1.455,1.464,1.464,0,0,0,1.463-1.467A1.469,1.469,0,0,0-2729.579,4575.963Zm-1.84,2.1a1.972,1.972,0,0,1,1.051-2.425,1.448,1.448,0,0,0-1.77-.308,1.46,1.46,0,0,0-.7,1.722A1.439,1.439,0,0,0-2731.419,4578.065Zm3.669,0a1.44,1.44,0,0,0,1.434-1.019,1.465,1.465,0,0,0-.716-1.723,1.453,1.453,0,0,0-1.761.328,1.926,1.926,0,0,1,.991,1A1.917,1.917,0,0,1-2727.75,4578.064Zm-3.168.765c-.071-.085-.137-.169-.21-.246a.143.143,0,0,0-.1-.043,2,2,0,0,1-1.064-.184.134.134,0,0,0-.1,0,2.08,2.08,0,0,0-1.043,1.19,3.57,3.57,0,0,0-.11,1.263s.006.009.009.013h1.381A2.616,2.616,0,0,1-2730.918,4578.829Zm3.92,2h1.389c0-.245.015-.483,0-.719a2.053,2.053,0,0,0-1.153-1.75.119.119,0,0,0-.095,0,1.984,1.984,0,0,1-1.073.185.11.11,0,0,0-.082.028c-.076.084-.146.172-.222.262A2.618,2.618,0,0,1-2727,4580.826Z" transform="translate(2735.819 -4572.158)" fill="#fff"/>
</svg>
