<svg xmlns="http://www.w3.org/2000/svg" width="23.158" height="22" viewBox="0 0 23.158 22">
  <path id="Icon_material-next-week" data-name="Icon material-next-week" d="M23.842,9.132H19.211V6.816A2.333,2.333,0,0,0,16.895,4.5H12.263A2.323,2.323,0,0,0,9.947,6.816V9.132H5.316A2.323,2.323,0,0,0,3,11.447V24.184A2.323,2.323,0,0,0,5.316,26.5H23.842a2.323,2.323,0,0,0,2.316-2.316V11.447A2.323,2.323,0,0,0,23.842,9.132ZM12.263,6.816h4.632V9.132H12.263Zm1.158,15.632-1.158-1.158,3.474-3.474-3.474-3.474,1.158-1.158,4.632,4.632Z" transform="translate(-3 -4.5)" fill="#fff"/>
</svg>
