<svg xmlns="http://www.w3.org/2000/svg" width="30.291" height="27.957" viewBox="0 0 30.291 27.957">
  <path id="Icon_ionic-logo-bitbucket" data-name="Icon ionic-logo-bitbucket" d="M32.853,4.515a1.19,1.19,0,0,0-.16-.015H4.358a.979.979,0,0,0-.983.983.709.709,0,0,0,.015.175L7.51,31.321a1.4,1.4,0,0,0,.444.808h0a1.272,1.272,0,0,0,.852.328H28.565a.972.972,0,0,0,.968-.837l2.454-15.471h-9.1l-1.165,6.989H15.315L13.691,13.9H32.344l1.31-8.234A1.006,1.006,0,0,0,32.853,4.515Z" transform="translate(-3.375 -4.5)" fill="#4dc47d"/>
</svg>
