<svg xmlns="http://www.w3.org/2000/svg" width="90.198" height="90.198" viewBox="0 0 90.198 90.198">
  <g id="Group_17864" data-name="Group 17864" transform="translate(2656.18 -5214.901)">
    <circle id="Ellipse_171" data-name="Ellipse 171" cx="45.099" cy="45.099" r="45.099" transform="translate(-2656.18 5214.901)" fill="#ecf2f6"/>
    <g id="Group_17863" data-name="Group 17863">
      <path id="Path_8765" data-name="Path 8765" d="M-2592.634,5243.383q-4.443-4.413-8.855-8.857a5.208,5.208,0,0,0-2.125-1.471h-24.528a.483.483,0,0,1-.12.09,3.022,3.022,0,0,0-2.315,3.165c0,.849,0,27.964,0,28.813h0q0,9.176,0,18.351a5.125,5.125,0,0,0,.061,1.046,3.055,3.055,0,0,0,3.187,2.423h29.208c1.157,0,2.315.005,3.473,0a2.985,2.985,0,0,0,2.317-1.058,3.353,3.353,0,0,0,.743-2.344q-.014-18.812,0-37.622A3.375,3.375,0,0,0-2592.634,5243.383Zm-9.721-6.5,6.877,6.92c-.015,0-.165.016-.316.016-1.979,0-3.958-.01-5.937.009-.46,0-.644-.1-.637-.609C-2602.338,5241.083-2602.355,5238.949-2602.355,5236.88Zm7.359,47.959h-32.154c-1.045,0-1.321-.27-1.321-1.293v-18.423h0c0-.866,0-28,0-28.866,0-.752.345-1.095,1.095-1.095q11.287,0,22.576,0c.087,0,.173.009.338.018v.559q0,3.814,0,7.629a2.337,2.337,0,0,0,2.544,2.557c2.526.007,5.052,0,7.578,0h.6c.015.2.035.353.035.5q0,18.548,0,37.094C-2593.7,5284.562-2593.972,5284.839-2595,5284.839Z" fill="#4f5359"/>
      <path id="Path_8766" data-name="Path 8766" d="M-2621.295,5267.795q5.127-.009,10.254,0v0h6.941c1.21,0,2.419.007,3.629-.008a1.022,1.022,0,0,0,1.083-1.138c-.047-.628-.5-.962-1.324-.962h-19.246c-.526,0-1.053-.024-1.577.006a1.046,1.046,0,0,0-.865,1.632A1.2,1.2,0,0,0-2621.295,5267.795Z" fill="#4f5359"/>
      <path id="Path_8767" data-name="Path 8767" d="M-2621.295,5262.118q5.127-.011,10.254,0v0h6.941c1.21,0,2.419.007,3.629-.008a1.021,1.021,0,0,0,1.083-1.138c-.047-.628-.5-.961-1.324-.961h-19.246c-.526,0-1.053-.023-1.577.006a1.047,1.047,0,0,0-.865,1.633A1.2,1.2,0,0,0-2621.295,5262.118Z" fill="#4f5359"/>
      <path id="Path_8768" data-name="Path 8768" d="M-2600.654,5270.933q-8.755,0-17.51,0c-1.122,0-2.244-.009-3.365.01a1,1,0,0,0-1.039.972,1.046,1.046,0,0,0,.96,1.112,4.189,4.189,0,0,0,.526.012h18.088c.841,0,1.683.02,2.524,0a1.057,1.057,0,0,0,1.042-1.4C-2599.586,5271.167-2599.986,5270.934-2600.654,5270.933Z" fill="#4f5359"/>
      <path id="Path_8769" data-name="Path 8769" d="M-2600.717,5276.164q-5.131-.006-10.263,0h-10.1a4.281,4.281,0,0,0-.577.023,1.012,1.012,0,0,0-.911.988,1.019,1.019,0,0,0,.89,1.063,4.1,4.1,0,0,0,.63.029h20.156a3.768,3.768,0,0,0,.681-.04,1,1,0,0,0,.83-1.054C-2599.407,5276.517-2599.861,5276.165-2600.717,5276.164Z" fill="#4f5359"/>
    </g>
  </g>
</svg>
