<svg id="Component_41_1" data-name="Component 41 – 1" xmlns="http://www.w3.org/2000/svg" width="12.482" height="12.482" viewBox="0 0 12.482 12.482">
  <circle id="Ellipse_192" data-name="Ellipse 192" cx="6.241" cy="6.241" r="6.241" fill="#4dc47d"/>
  <path id="Path_8795" data-name="Path 8795" d="M-2725.934,4531.35a.74.74,0,0,1-.24.548q-.54.527-1.08,1.052a.149.149,0,0,0-.053.154c.089.5.173,1,.257,1.5a.714.714,0,0,1-.3.74.719.719,0,0,1-.8.058q-.66-.344-1.315-.693a.209.209,0,0,0-.224,0c-.427.232-.858.456-1.289.681a.76.76,0,0,1-1.074-.339.835.835,0,0,1-.045-.51c.084-.482.164-.964.25-1.446a.135.135,0,0,0-.046-.139c-.374-.363-.75-.725-1.118-1.094a.7.7,0,0,1-.177-.735.712.712,0,0,1,.551-.519c.172-.039.349-.055.524-.08.359-.052.719-.1,1.077-.158a.161.161,0,0,0,.1-.082c.23-.457.452-.917.682-1.374a.755.755,0,0,1,1.1-.3.782.782,0,0,1,.271.322c.221.451.444.9.664,1.351a.145.145,0,0,0,.128.09c.515.072,1.031.145,1.546.226A.741.741,0,0,1-2725.934,4531.35Zm-3.641,2.6a2.326,2.326,0,0,1,.227.093c.481.251.961.5,1.441.758.055.028.11.072.175.026s.046-.109.035-.172c-.093-.538-.181-1.077-.279-1.615a.427.427,0,0,1,.134-.425c.4-.384.8-.774,1.2-1.164a.176.176,0,0,0,.054-.136.17.17,0,0,0-.121-.082q-.847-.129-1.7-.248a.358.358,0,0,1-.293-.211c-.1-.2-.2-.407-.3-.611-.154-.311-.305-.623-.463-.933a.164.164,0,0,0-.109-.083c-.037,0-.075.05-.111.081-.011.009-.015.028-.022.042q-.371.751-.741,1.5a.356.356,0,0,1-.291.213c-.213.028-.425.062-.638.093-.356.051-.712.1-1.068.156a.162.162,0,0,0-.114.078c-.012.035.024.088.044.131a.227.227,0,0,0,.046.047c.387.376.772.756,1.163,1.129a.416.416,0,0,1,.132.409q-.148.834-.286,1.671a.156.156,0,0,0,.041.123c.024.021.08.009.121.006a.184.184,0,0,0,.058-.03l1.468-.77A2.12,2.12,0,0,1-2729.575,4533.951Z" transform="translate(2735.819 -4525.754)" fill="#fff" stroke="#fff" stroke-linecap="round" stroke-linejoin="round" stroke-width="0.25"/>
</svg>
