<svg id="Group_15404" data-name="Group 15404" xmlns="http://www.w3.org/2000/svg" width="58.931" height="45.399" viewBox="0 0 58.931 45.399">
  <g id="Group_15393" data-name="Group 15393" transform="translate(0 21.512)">
    <path id="Path_6742" data-name="Path 6742" d="M-12.919,3457.141a.8.8,0,0,1-.7-.41.8.8,0,0,1,.308-1.089l5.036-2.814a.8.8,0,0,1,1.089.308.8.8,0,0,1-.308,1.089l-5.036,2.814A.794.794,0,0,1-12.919,3457.141Z" transform="translate(13.72 -3452.726)" fill="#1c2533"/>
  </g>
  <g id="Group_15394" data-name="Group 15394" transform="translate(52.294 21.512)">
    <path id="Path_6743" data-name="Path 6743" d="M149.9,3457.14a.793.793,0,0,1-.389-.1l-5.036-2.814a.8.8,0,1,1,.781-1.4l5.036,2.814a.8.8,0,0,1-.391,1.5Z" transform="translate(-144.068 -3452.726)" fill="#1c2533"/>
  </g>
  <g id="Group_15398" data-name="Group 15398" transform="translate(23.881 6.151)">
    <g id="Group_15395" data-name="Group 15395">
      <path id="Path_6744" data-name="Path 6744" d="M63.921,3417.546a5.584,5.584,0,1,1,5.584-5.584A5.591,5.591,0,0,1,63.921,3417.546Zm0-9.568a3.984,3.984,0,1,0,3.984,3.983A3.988,3.988,0,0,0,63.921,3407.979Z" transform="translate(-58.337 -3406.378)" fill="#1c2533"/>
    </g>
    <g id="Group_15396" data-name="Group 15396" transform="translate(4.784 9.568)">
      <path id="Path_6745" data-name="Path 6745" d="M73.572,3442.641a.8.8,0,0,1-.8-.8v-5.793a.8.8,0,1,1,1.6,0v5.793A.8.8,0,0,1,73.572,3442.641Z" transform="translate(-72.772 -3435.247)" fill="#1c2533"/>
    </g>
    <g id="Group_15397" data-name="Group 15397" transform="translate(2.792 12.846)">
      <path id="Path_6746" data-name="Path 6746" d="M71.545,3446.739H67.56a.8.8,0,0,1,0-1.6h3.985a.8.8,0,1,1,0,1.6Z" transform="translate(-66.76 -3445.139)" fill="#1c2533"/>
    </g>
  </g>
  <g id="Group_15400" data-name="Group 15400" transform="translate(0)">
    <g id="Group_15399" data-name="Group 15399" transform="translate(4.124)">
      <path id="Path_6747" data-name="Path 6747" d="M59.671,3500.044c-1.849,1.275-3.745,2.449-5.57,3.55q-1.53.922-3.069,1.842l-1.8,1.078-1.8-1.078c-1.023-.613-2.049-1.227-3.069-1.842-1.825-1.1-3.721-2.275-5.57-3.55a21.959,21.959,0,0,1-2.427.24c2.351,1.723,4.819,3.262,7.17,4.681,1.021.615,2.049,1.231,3.073,1.844q1.108.664,2.21,1.325a.8.8,0,0,0,.825,0q1.1-.662,2.21-1.325,1.538-.92,3.074-1.844c2.352-1.419,4.819-2.958,7.17-4.681A22.022,22.022,0,0,1,59.671,3500.044Z" transform="translate(-23.89 -3462.85)" fill="#1c2533"/>
      <path id="Path_6748" data-name="Path 6748" d="M.866,3413.537c.738.182,1.4.388,2.076.588a22.343,22.343,0,0,1-2.5-7.9,15.992,15.992,0,0,1,1.63-9.468,14.094,14.094,0,0,1,10.543-7.256,9.731,9.731,0,0,1,1.241-.081c3.45,0,6.591,1.928,9.567,5.86a.8.8,0,0,0,1.276,0c3.328-4.4,6.863-6.289,10.807-5.779a14.094,14.094,0,0,1,10.543,7.256,15.992,15.992,0,0,1,1.63,9.468,22.34,22.34,0,0,1-2.5,7.9c.678-.2,1.339-.406,2.077-.588a23.8,23.8,0,0,0,2.01-7.135,17.578,17.578,0,0,0-1.813-10.411,15.7,15.7,0,0,0-11.744-8.08c-4.241-.547-8.156,1.332-11.651,5.59-3.495-4.258-7.411-6.139-11.651-5.59a15.7,15.7,0,0,0-11.745,8.08A17.58,17.58,0,0,0-1.144,3406.4,23.793,23.793,0,0,0,.866,3413.537Z" transform="translate(1.277 -3387.817)" fill="#1c2533"/>
    </g>
    <path id="Path_6749" data-name="Path 6749" d="M30.078,3475.159a22.32,22.32,0,0,1-7.4-1.1,20.725,20.725,0,0,0-6.938-1.035,20.724,20.724,0,0,0-6.937,1.035,22.317,22.317,0,0,1-7.395,1.1,22.32,22.32,0,0,1-7.4-1.1,20.721,20.721,0,0,0-6.937-1.035.8.8,0,0,1-.8-.8v-10.2a.8.8,0,0,1,.8-.8,22.34,22.34,0,0,1,7.4,1.1,20.7,20.7,0,0,0,6.937,1.035,20.7,20.7,0,0,0,6.937-1.035,22.336,22.336,0,0,1,7.395-1.1,22.339,22.339,0,0,1,7.4,1.1,20.7,20.7,0,0,0,6.938,1.035,20.7,20.7,0,0,0,6.938-1.035,22.34,22.34,0,0,1,7.4-1.1.8.8,0,0,1,.8.8v10.2a.8.8,0,0,1-.8.8,20.725,20.725,0,0,0-6.938,1.035A22.32,22.32,0,0,1,30.078,3475.159Zm-14.333-3.739a22.331,22.331,0,0,1,7.4,1.1,20.707,20.707,0,0,0,6.938,1.036,20.707,20.707,0,0,0,6.938-1.036,21.918,21.918,0,0,1,6.595-1.093v-8.6a20.3,20.3,0,0,0-6.138,1.026,22.321,22.321,0,0,1-7.4,1.1,22.321,22.321,0,0,1-7.4-1.1,20.716,20.716,0,0,0-6.938-1.035,20.715,20.715,0,0,0-6.937,1.035,22.319,22.319,0,0,1-7.395,1.1,22.321,22.321,0,0,1-7.4-1.1,20.293,20.293,0,0,0-6.137-1.026v8.6a21.917,21.917,0,0,1,6.595,1.093,20.7,20.7,0,0,0,6.937,1.036,20.7,20.7,0,0,0,6.937-1.036A22.328,22.328,0,0,1,15.745,3471.42Z" transform="translate(13.72 -3436.891)" fill="#1c2533"/>
  </g>
  <g id="Group_15401" data-name="Group 15401" transform="translate(9.433 27.7)">
    <path id="Path_6750" data-name="Path 6750" d="M14.742,3481.689l.92-5.145,3.184.57-.143.8-2.145-.384-.241,1.349,1.636.292-.143.8-1.636-.292-.394,2.2Z" transform="translate(-14.742 -3474.838)" fill="#1c2533"/>
    <path id="Path_6751" data-name="Path 6751" d="M33.668,3477.79l.033.808-1.96.081.057,1.369,1.735-.072.033.808-1.735.072.059,1.444,1.96-.081.033.808-3.015.125-.216-5.237Z" transform="translate(-25.38 -3475.671)" fill="#1c2533"/>
    <path id="Path_6752" data-name="Path 6752" d="M49.367,3472.322l1.392,5.037-1.01.279-.88-3.182-.491,3.562-.729.2-2.24-2.791.876,3.168-1.017.281-1.392-5.037,1.133-.313,2.647,3.284.586-4.177Z" transform="translate(-34.22 -3472.015)" fill="#1c2533"/>
    <path id="Path_6753" data-name="Path 6753" d="M69.049,3476.932l-.229-5.221,1.055-.046.229,5.221Z" transform="translate(-50.897 -3471.576)" fill="#1c2533"/>
    <path id="Path_6754" data-name="Path 6754" d="M81.755,3471.795l1.049.123-.609,5.206L81.145,3477l-1.929-3.874-.422,3.6-1.048-.123.609-5.206,1.049.123,1.929,3.874Z" transform="translate(-56.866 -3471.397)" fill="#1c2533"/>
    <path id="Path_6755" data-name="Path 6755" d="M95.92,3480.252l1.458-5.018,1.014.294-1.458,5.019Z" transform="translate(-69.016 -3473.962)" fill="#1c2533"/>
    <path id="Path_6756" data-name="Path 6756" d="M108.425,3478.483a.79.79,0,0,0-.524.121.543.543,0,0,0-.232.428.642.642,0,0,0,.111.456.94.94,0,0,0,.366.276,4.734,4.734,0,0,0,.51.193q.278.089.555.208a2.806,2.806,0,0,1,.5.279,1.034,1.034,0,0,1,.352.444,1.391,1.391,0,0,1,.094.672,1.444,1.444,0,0,1-.6,1.065,1.952,1.952,0,0,1-1.395.357,2.2,2.2,0,0,1-1.339-.506,1.335,1.335,0,0,1-.435-1.164l1.12.086a.69.69,0,0,0,.73.748.823.823,0,0,0,.582-.143.636.636,0,0,0,.247-.48.557.557,0,0,0-.238-.51,2.062,2.062,0,0,0-.647-.32q-.385-.121-.771-.278a1.474,1.474,0,0,1-.637-.5,1.235,1.235,0,0,1-.211-.861,1.4,1.4,0,0,1,.6-1.095,2.015,2.015,0,0,1,1.358-.323,2.127,2.127,0,0,1,1.274.471,1.431,1.431,0,0,1,.45,1.165l-1.149-.089a.711.711,0,0,0-.187-.492A.732.732,0,0,0,108.425,3478.483Z" transform="translate(-76.016 -3475.567)" fill="#1c2533"/>
    <path id="Path_6757" data-name="Path 6757" d="M121.846,3477.99l-.123-.8,3.826-.59.123.8-1.4.216.673,4.366-1.036.16-.673-4.366Z" transform="translate(-86.267 -3474.876)" fill="#1c2533"/>
  </g>
  <g id="Group_15402" data-name="Group 15402" transform="translate(7.643 12.961)">
    <path id="Path_6758" data-name="Path 6758" d="M10.14,3431.821h-.006a.8.8,0,0,1-.794-.806,15.728,15.728,0,0,1,.4-3.472.8.8,0,0,1,1.558.366,14.115,14.115,0,0,0-.362,3.117A.8.8,0,0,1,10.14,3431.821Z" transform="translate(-9.34 -3426.926)" fill="#1c2533"/>
  </g>
  <g id="Group_15403" data-name="Group 15403" transform="translate(9.227 3.214)">
    <path id="Path_6759" data-name="Path 6759" d="M14.92,3405.683a.8.8,0,0,1-.7-1.182,13.562,13.562,0,0,1,10.147-6.98.8.8,0,1,1,.205,1.587,11.958,11.958,0,0,0-8.945,6.157A.8.8,0,0,1,14.92,3405.683Z" transform="translate(-14.12 -3397.514)" fill="#1c2533"/>
  </g>
</svg>
