<svg xmlns="http://www.w3.org/2000/svg" width="121.882" height="79.597" viewBox="0 0 121.882 79.597">
  <g id="Group_12247" data-name="Group 12247" transform="translate(-1424.519 -676.112)">
    <g id="Group_12246" data-name="Group 12246" transform="translate(1424.519 676.112)">
      <path id="Path_4447" data-name="Path 4447" d="M1516.613,703.17v47.57h-13.531V707.683a44.713,44.713,0,0,0-.506-6.921l11.665-11.632A39.537,39.537,0,0,1,1516.613,703.17Z" transform="translate(-1394.731 -671.144)" fill="#fff"/>
      <path id="Path_4448" data-name="Path 4448" d="M1477.316,721.278V739.22h-13.531v-7.681L1476,719.32Z" transform="translate(-1409.535 -659.623)" fill="#fff"/>
      <path id="Path_4449" data-name="Path 4449" d="M1538.121,684.53l-10.238,10.2c-3.189-3.95-7.933-6.022-14.128-6.022-10.41,0-19.129,9.178-21.052,21.776L1478.77,724.42V712.652c0-15.4-6.53-23.941-18.344-23.941-11.965,0-22.386,11.343-22.386,27.049v39.948h-13.521v-77.73h10.572l2.325,10.571a34.068,34.068,0,0,1,26.28-12.437c11.032,0,20.049,5.286,24.873,14.613,6.057-9.166,16.479-14.613,28.132-14.613C1525.523,676.112,1532.917,679.072,1538.121,684.53Z" transform="translate(-1424.519 -676.112)" fill="#fff"/>
    </g>
    <path id="Path_4450" data-name="Path 4450" d="M1489.014,700.189l5.407,5.407-10.646,10.645-6.132-9.117L1463.772,721v15.459l12.669-12.669,6.131,9.117,19.578-19.578,5.407,5.407,4.384-22.927Z" transform="translate(14.979 7.515)" fill="#91e986"/>
  </g>
</svg>
