<svg xmlns="http://www.w3.org/2000/svg" width="60" height="60" viewBox="0 0 60 60">
  <g id="Group_18023" data-name="Group 18023" transform="translate(820.757 -3935.965)">
    <ellipse id="Ellipse_218" data-name="Ellipse 218" cx="30" cy="30" rx="30" ry="30" transform="translate(-820.757 3935.965)" fill="#edf2f6"/>
    <path id="Path_8823" data-name="Path 8823" d="M548.006,641.641a62.231,62.231,0,0,1,6.412.04c3.508.373,5.644,2.584,6.946,5.752a14.265,14.265,0,0,1,.625,6.622,50.7,50.7,0,0,1-2.258,11.124.9.9,0,0,1-1.03.757c-4.119-.034-8.239-.018-12.358-.018h-.779a11.742,11.742,0,0,1,1.386-3.247,36.586,36.586,0,0,1,4.919-5.768,7.541,7.541,0,0,0,2.288-4.054,2.454,2.454,0,0,0-.108-1.117.9.9,0,0,0-1.366-.382c-1.42.9-2.84,1.8-4.27,2.678a2.522,2.522,0,0,1-2.868-.173,2.882,2.882,0,0,1-.527-3.466c1.031-1.539,2.117-3.042,3.173-4.566a2.592,2.592,0,0,0,.194-3.149A4.957,4.957,0,0,1,548.006,641.641Z" transform="translate(-1344.443 3314.364)" fill="#4dc47d"/>
    <path id="Path_8835" data-name="Path 8835" d="M549.523,719.867c-2.455,0-4.91.017-7.365-.006a1.887,1.887,0,0,1-1.84-2.5,1.78,1.78,0,0,1,1.8-1.259c1.644-.013,3.287,0,4.931,0q4.931,0,9.863,0a1.9,1.9,0,0,1,1.982,1.382,1.86,1.86,0,0,1-1.626,2.346c-1.128.066-2.262.034-3.393.037-1.451,0-2.9,0-4.355,0Z" transform="translate(-1341.558 3265.67)" fill="#4dc47d"/>
  </g>
</svg>
