<svg id="Group_15373" data-name="Group 15373" xmlns="http://www.w3.org/2000/svg" width="59.979" height="46.638" viewBox="0 0 59.979 46.638">
  <g id="Group_15354" data-name="Group 15354" transform="translate(10.444 3.733)">
    <path id="Path_6702" data-name="Path 6702" d="M-1057.766,3436.374h-.009c-.435-.014-.874-.043-1.306-.085a.269.269,0,0,1-.241-.294.269.269,0,0,1,.294-.241c.42.042.847.07,1.27.083a.269.269,0,0,1,.26.277A.268.268,0,0,1-1057.766,3436.374Zm1.291,0a.269.269,0,0,1-.268-.259.269.269,0,0,1,.26-.278c.422-.014.85-.042,1.27-.084a.267.267,0,0,1,.294.24.268.268,0,0,1-.24.294c-.431.043-.871.073-1.305.087Zm-3.857-.253a.251.251,0,0,1-.044,0c-.428-.071-.86-.158-1.283-.258a.268.268,0,0,1-.2-.323.268.268,0,0,1,.323-.2c.411.1.831.182,1.248.251a.268.268,0,0,1,.22.309A.269.269,0,0,1-1060.332,3436.121Zm6.424,0a.268.268,0,0,1-.264-.224.269.269,0,0,1,.22-.309c.416-.07.836-.155,1.247-.253a.269.269,0,0,1,.323.2.268.268,0,0,1-.2.323c-.423.1-.854.188-1.283.26A.306.306,0,0,1-1053.908,3436.116Zm-8.934-.59a.262.262,0,0,1-.079-.012c-.416-.128-.832-.272-1.239-.429a.268.268,0,0,1-.154-.347.267.267,0,0,1,.347-.154c.4.152.8.292,1.2.417a.268.268,0,0,1,.177.336A.269.269,0,0,1-1062.843,3435.526Zm11.444-.007a.269.269,0,0,1-.256-.189.269.269,0,0,1,.177-.336c.4-.125.807-.266,1.2-.418a.268.268,0,0,1,.347.154.268.268,0,0,1-.154.347c-.406.156-.822.3-1.236.429A.267.267,0,0,1-1051.4,3435.519Zm-13.856-.92a.272.272,0,0,1-.113-.025c-.394-.183-.787-.382-1.169-.591a.269.269,0,0,1-.106-.365.268.268,0,0,1,.365-.106c.372.2.754.4,1.137.575a.268.268,0,0,1,.131.356A.269.269,0,0,1-1065.254,3434.6Zm16.261-.008a.269.269,0,0,1-.244-.155.268.268,0,0,1,.13-.356c.382-.178.764-.371,1.134-.574a.269.269,0,0,1,.365.106.269.269,0,0,1-.106.365c-.381.209-.773.408-1.166.591A.268.268,0,0,1-1048.993,3434.591Zm2.259-1.241a.267.267,0,0,1-.226-.124.268.268,0,0,1,.082-.371c.356-.228.708-.47,1.048-.721a.269.269,0,0,1,.376.056.269.269,0,0,1-.057.376c-.349.258-.712.507-1.077.741A.268.268,0,0,1-1046.734,3433.35Zm2.075-1.532a.268.268,0,0,1-.2-.095.269.269,0,0,1,.032-.379c.322-.273.64-.56.943-.854a.269.269,0,0,1,.38.006.269.269,0,0,1-.006.38c-.312.3-.639.6-.97.878A.266.266,0,0,1-1044.659,3431.819Zm-31.749-16.019h-.018a.268.268,0,0,1-.25-.285c.028-.435.071-.873.128-1.3a.269.269,0,0,1,.3-.231.269.269,0,0,1,.231.3c-.055.417-.1.843-.125,1.267A.268.268,0,0,1-1076.408,3415.8Zm38.548-.067a.269.269,0,0,1-.268-.25c-.029-.422-.072-.848-.129-1.266a.268.268,0,0,1,.23-.3.267.267,0,0,1,.3.23c.058.43.1.868.133,1.3a.269.269,0,0,1-.25.286Zm-38.211-2.49a.268.268,0,0,1-.053-.005.269.269,0,0,1-.21-.316c.085-.427.187-.855.3-1.273a.269.269,0,0,1,.329-.189.269.269,0,0,1,.189.329c-.111.407-.209.824-.292,1.239A.268.268,0,0,1-1076.07,3413.242Zm37.864-.067a.268.268,0,0,1-.263-.215c-.085-.414-.185-.831-.3-1.237a.268.268,0,0,1,.188-.33.268.268,0,0,1,.33.187c.115.418.218.846.305,1.273a.268.268,0,0,1-.209.317A.276.276,0,0,1-1038.207,3413.175Zm-37.187-2.422a.272.272,0,0,1-.087-.015.269.269,0,0,1-.166-.342c.142-.411.3-.823.47-1.223a.269.269,0,0,1,.352-.143.268.268,0,0,1,.143.352c-.165.389-.318.79-.456,1.189A.269.269,0,0,1-1075.394,3410.753Zm36.5-.064a.269.269,0,0,1-.254-.18c-.139-.4-.294-.8-.459-1.184a.269.269,0,0,1,.142-.353.268.268,0,0,1,.352.142c.17.4.329.809.473,1.218a.269.269,0,0,1-.165.342A.28.28,0,0,1-1038.892,3410.688Zm-35.5-2.315a.269.269,0,0,1-.121-.029.268.268,0,0,1-.118-.36c.2-.388.407-.775.629-1.149a.269.269,0,0,1,.368-.094.268.268,0,0,1,.094.368c-.215.364-.421.74-.612,1.117A.269.269,0,0,1-1074.388,3408.374Zm34.484-.054a.268.268,0,0,1-.239-.147c-.191-.375-.4-.75-.614-1.113a.268.268,0,0,1,.093-.368.269.269,0,0,1,.368.093c.223.373.435.759.632,1.145a.269.269,0,0,1-.118.361A.269.269,0,0,1-1039.9,3408.319Zm-33.169-2.168a.263.263,0,0,1-.152-.047.268.268,0,0,1-.07-.373c.246-.358.507-.713.776-1.055a.268.268,0,0,1,.377-.044.269.269,0,0,1,.044.377c-.262.332-.516.677-.755,1.025A.269.269,0,0,1-1073.073,3406.151Zm31.849-.047a.267.267,0,0,1-.221-.116c-.24-.348-.5-.692-.757-1.023a.268.268,0,0,1,.043-.377.267.267,0,0,1,.377.043c.27.339.532.693.779,1.051a.268.268,0,0,1-.068.373A.267.267,0,0,1-1041.223,3406.1Zm-30.251-1.979a.268.268,0,0,1-.18-.069.269.269,0,0,1-.019-.379c.291-.322.6-.639.908-.941a.269.269,0,0,1,.38.006.268.268,0,0,1-.006.379c-.3.294-.6.6-.884.916A.269.269,0,0,1-1071.474,3404.125Zm28.647-.042a.266.266,0,0,1-.2-.088c-.284-.312-.582-.62-.886-.913a.268.268,0,0,1-.007-.38.269.269,0,0,1,.38-.007c.313.3.62.618.911.939a.268.268,0,0,1-.018.379A.267.267,0,0,1-1042.827,3404.084Zm-26.795-1.754a.267.267,0,0,1-.2-.095.268.268,0,0,1,.031-.378c.331-.281.676-.554,1.025-.813a.269.269,0,0,1,.375.056.268.268,0,0,1-.056.375c-.339.251-.675.517-1,.791A.268.268,0,0,1-1069.622,3402.329Zm24.937-.036a.269.269,0,0,1-.173-.063c-.323-.272-.66-.538-1-.788a.269.269,0,0,1-.057-.376.269.269,0,0,1,.375-.057c.35.258.7.53,1.028.81a.269.269,0,0,1,.032.379A.268.268,0,0,1-1044.685,3402.293Zm-22.864-1.5a.268.268,0,0,1-.226-.124.269.269,0,0,1,.081-.371c.365-.234.743-.459,1.124-.669a.269.269,0,0,1,.365.105.268.268,0,0,1-.106.365c-.37.2-.738.423-1.093.651A.271.271,0,0,1-1067.548,3400.8Zm20.784-.032a.269.269,0,0,1-.144-.042c-.357-.228-.726-.446-1.1-.648a.269.269,0,0,1-.107-.365.269.269,0,0,1,.364-.107c.381.208.76.433,1.128.667a.268.268,0,0,1,.082.37A.268.268,0,0,1-1046.764,3400.764Zm-18.526-1.212a.269.269,0,0,1-.244-.155.268.268,0,0,1,.13-.357c.394-.184.8-.356,1.2-.512a.268.268,0,0,1,.347.153.268.268,0,0,1-.153.347c-.393.152-.786.32-1.169.5A.269.269,0,0,1-1065.291,3399.552Zm16.261-.027a.265.265,0,0,1-.113-.025c-.384-.177-.779-.344-1.174-.5a.269.269,0,0,1-.155-.347.268.268,0,0,1,.347-.155c.406.156.813.327,1.207.51a.268.268,0,0,1,.131.356A.269.269,0,0,1-1049.03,3399.525Zm-13.857-.9a.269.269,0,0,1-.256-.188.269.269,0,0,1,.176-.336c.415-.129.84-.246,1.262-.347a.268.268,0,0,1,.323.2.269.269,0,0,1-.2.324c-.41.1-.823.212-1.227.337A.263.263,0,0,1-1062.887,3398.621Zm11.445-.02a.26.26,0,0,1-.079-.012c-.4-.125-.818-.236-1.228-.333a.269.269,0,0,1-.2-.323.269.269,0,0,1,.323-.2c.422.1.847.215,1.263.343a.268.268,0,0,1,.178.335A.269.269,0,0,1-1051.442,3398.6Zm-8.936-.581a.269.269,0,0,1-.265-.224.269.269,0,0,1,.22-.309c.427-.073.863-.131,1.3-.175a.269.269,0,0,1,.294.24.269.269,0,0,1-.24.294c-.421.043-.846.1-1.261.17A.234.234,0,0,1-1060.378,3398.021Zm6.425-.011a.273.273,0,0,1-.044,0c-.416-.069-.84-.125-1.262-.166a.268.268,0,0,1-.241-.293.268.268,0,0,1,.293-.241c.433.043.87.1,1.3.171a.268.268,0,0,1,.221.308A.268.268,0,0,1-1053.953,3398.01Zm-3.859-.249a.268.268,0,0,1-.268-.26.268.268,0,0,1,.259-.277c.431-.015.879-.016,1.309,0a.269.269,0,0,1,.26.277.269.269,0,0,1-.268.26h-.009c-.418-.014-.854-.012-1.273,0Z" transform="translate(1076.677 -3397.212)" fill="#1c2533"/>
  </g>
  <g id="Group_15356" data-name="Group 15356">
    <g id="Group_15355" data-name="Group 15355" transform="translate(6.672)">
      <path id="Path_6703" data-name="Path 6703" d="M-1085.908,3409.617c0-.116,0-.233,0-.35a21.2,21.2,0,0,1,21.172-21.172,21.2,21.2,0,0,1,21.172,21.172q0,.793-.058,1.572c.652.2,1.342.38,2.111.537.062-.7.1-1.4.1-2.109a23.166,23.166,0,0,0-6.83-16.489,23.166,23.166,0,0,0-16.489-6.83,23.168,23.168,0,0,0-16.489,6.83,23.164,23.164,0,0,0-6.828,16.3C-1087.273,3409.235-1086.57,3409.419-1085.908,3409.617Z" transform="translate(1088.058 -3385.948)" fill="#1c2533"/>
      <path id="Path_6704" data-name="Path 6704" d="M-1037.348,3497.539a21.132,21.132,0,0,1-16.158,7.507,21.085,21.085,0,0,1-13.838-5.16,22.91,22.91,0,0,1-3.91-.884q.6.7,1.258,1.362a23.167,23.167,0,0,0,16.489,6.83,23.166,23.166,0,0,0,16.489-6.83,23.74,23.74,0,0,0,1.917-2.165C-1035.805,3497.963-1036.536,3497.737-1037.348,3497.539Z" transform="translate(1076.823 -3460.555)" fill="#1c2533"/>
    </g>
    <path id="Path_6705" data-name="Path 6705" d="M-1049.282,3470.114a26.665,26.665,0,0,1-9.986-1.706,24.521,24.521,0,0,0-9.292-1.591,24.52,24.52,0,0,0-9.291,1.591,26.664,26.664,0,0,1-9.986,1.706,26.664,26.664,0,0,1-9.986-1.706,24.519,24.519,0,0,0-9.291-1.591,1.074,1.074,0,0,1-1.073-1.074v-13.65a1.074,1.074,0,0,1,1.073-1.073,26.652,26.652,0,0,1,9.986,1.707,24.523,24.523,0,0,0,9.291,1.591,24.526,24.526,0,0,0,9.292-1.591,26.655,26.655,0,0,1,9.986-1.707,26.653,26.653,0,0,1,9.986,1.707,24.525,24.525,0,0,0,9.291,1.591,1.073,1.073,0,0,1,1.073,1.073v13.651A1.073,1.073,0,0,1-1049.282,3470.114Zm-56.759-5.431a26.22,26.22,0,0,1,8.912,1.692,24.519,24.519,0,0,0,9.291,1.591,24.522,24.522,0,0,0,9.292-1.591,26.656,26.656,0,0,1,9.986-1.707,26.654,26.654,0,0,1,9.986,1.707,24.06,24.06,0,0,0,8.218,1.576v-11.5a26.224,26.224,0,0,1-8.913-1.693,24.521,24.521,0,0,0-9.292-1.591,24.52,24.52,0,0,0-9.291,1.591,26.651,26.651,0,0,1-9.986,1.707,26.651,26.651,0,0,1-9.986-1.707,24.081,24.081,0,0,0-8.217-1.576Z" transform="translate(1108.188 -3429.453)" fill="#1c2533"/>
  </g>
  <g id="Group_15361" data-name="Group 15361" transform="translate(15.031 10.771)">
    <g id="Group_15357" data-name="Group 15357" transform="translate(0 3.127)">
      <path id="Path_6706" data-name="Path 6706" d="M-1057.912,3432.755l1.333-.727.7,1.29-4.275,2.332-.7-1.29,1.324-.722-1.695-3.107-.85,1.384-.76-1.393,1.314-2.12.952-.519Z" transform="translate(1062.835 -3427.883)" fill="#1c2533"/>
    </g>
    <g id="Group_15358" data-name="Group 15358" transform="translate(6.119 0.847)">
      <path id="Path_6707" data-name="Path 6707" d="M-1042.821,3427.651a4.411,4.411,0,0,1-1.339-2.424,4.335,4.335,0,0,1,.016-2.736,2.351,2.351,0,0,1,1.7-1.389,2.351,2.351,0,0,1,2.162.4,4.334,4.334,0,0,1,1.331,2.391,4.411,4.411,0,0,1-.007,2.77,2.342,2.342,0,0,1-1.7,1.393A2.344,2.344,0,0,1-1042.821,3427.651Zm2.349-1.615a5,5,0,0,0-.222-1.7,4.83,4.83,0,0,0-.614-1.562.707.707,0,0,0-.786-.327.706.706,0,0,0-.531.666,4.833,4.833,0,0,0,.213,1.665,5,5,0,0,0,.623,1.6.708.708,0,0,0,.787.332A.708.708,0,0,0-1040.472,3426.037Z" transform="translate(1044.371 -3421.002)" fill="#1c2533"/>
    </g>
    <g id="Group_15359" data-name="Group 15359" transform="translate(12.792)">
      <path id="Path_6708" data-name="Path 6708" d="M-1023.534,3424.7a4.415,4.415,0,0,1-.7-2.679,4.332,4.332,0,0,1,.687-2.649,2.351,2.351,0,0,1,1.993-.928,2.352,2.352,0,0,1,2,.916,4.335,4.335,0,0,1,.7,2.645,4.411,4.411,0,0,1-.687,2.683,2.344,2.344,0,0,1-1.993.933A2.346,2.346,0,0,1-1023.534,3424.7Zm2.674-.989a4.993,4.993,0,0,0,.2-1.7,4.835,4.835,0,0,0-.212-1.665.707.707,0,0,0-.682-.51.707.707,0,0,0-.679.515,4.834,4.834,0,0,0-.2,1.666,5.01,5.01,0,0,0,.212,1.7.708.708,0,0,0,.682.515A.707.707,0,0,0-1020.861,3423.714Z" transform="translate(1024.237 -3418.447)" fill="#1c2533"/>
    </g>
    <g id="Group_15360" data-name="Group 15360" transform="translate(19.929 0.529)">
      <path id="Path_6709" data-name="Path 6709" d="M-1002.557,3423.274a2.311,2.311,0,0,1,.022-1.679,2.261,2.261,0,0,1,.969-1.342,1.773,1.773,0,0,1,1.483-.095,1.766,1.766,0,0,1,1.138.959,2.28,2.28,0,0,1-.015,1.66,2.291,2.291,0,0,1-.975,1.361,1.771,1.771,0,0,1-1.484.095A1.765,1.765,0,0,1-1002.557,3423.274Zm1.534,4.087-1.424-.467,6.064-5.4,1.414.463Zm.336-4.283a2.359,2.359,0,0,0,.35-.751,2.127,2.127,0,0,0,.147-.8.349.349,0,0,0-.234-.332.34.34,0,0,0-.379.13,2.227,2.227,0,0,0-.349.731,2.245,2.245,0,0,0-.156.809.338.338,0,0,0,.231.325A.341.341,0,0,0-1000.688,3423.077Zm2.242,4.615a2.341,2.341,0,0,1,.031-1.675,2.291,2.291,0,0,1,.96-1.345,1.745,1.745,0,0,1,1.474-.1,1.755,1.755,0,0,1,1.139.954,2.307,2.307,0,0,1-.026,1.662,2.323,2.323,0,0,1-.966,1.364,1.754,1.754,0,0,1-1.484.095A1.735,1.735,0,0,1-998.446,3427.692Zm1.857-.206a2.251,2.251,0,0,0,.353-.745,2.129,2.129,0,0,0,.147-.8.348.348,0,0,0-.234-.331.339.339,0,0,0-.379.13,2.223,2.223,0,0,0-.349.731,2.249,2.249,0,0,0-.156.81.338.338,0,0,0,.231.324A.343.343,0,0,0-996.589,3427.486Z" transform="translate(1002.704 -3420.042)" fill="#1c2533"/>
    </g>
  </g>
  <g id="Group_15372" data-name="Group 15372" transform="translate(5.661 27.299)">
    <g id="Group_15362" data-name="Group 15362" transform="translate(0 0.675)">
      <path id="Path_6710" data-name="Path 6710" d="M-1087.016,3472.752l-.493,2.168a3.578,3.578,0,0,1-.829.067,4.6,4.6,0,0,1-.9-.115,2.7,2.7,0,0,1-1.163-.546,1.921,1.921,0,0,1-.624-.949,2.465,2.465,0,0,1-.009-1.251,2.421,2.421,0,0,1,.546-1.105,1.953,1.953,0,0,1,.964-.592,2.575,2.575,0,0,1,1.252,0,3.225,3.225,0,0,1,.856.322,1.96,1.96,0,0,1,.6.489l-.542.726a2.465,2.465,0,0,0-.51-.413,1.979,1.979,0,0,0-.572-.223,1.105,1.105,0,0,0-.933.129,1.52,1.52,0,0,0-.508.928,1.557,1.557,0,0,0,.061,1.093,1.177,1.177,0,0,0,.832.541,2.8,2.8,0,0,0,.585.069l.182-.8-.753-.171.175-.771Z" transform="translate(1091.107 -3470.353)" fill="#1c2533"/>
    </g>
    <g id="Group_15363" data-name="Group 15363" transform="translate(4.723 1.798)">
      <path id="Path_6711" data-name="Path 6711" d="M-1076.858,3477.951l1.387-4.212,1.112.367-1.091,3.312,1.78.586-.3.9Z" transform="translate(1076.858 -3473.739)" fill="#1c2533"/>
    </g>
    <g id="Group_15364" data-name="Group 15364" transform="translate(9.295 2.946)">
      <path id="Path_6712" data-name="Path 6712" d="M-1062.707,3481.236a1.924,1.924,0,0,1-.335-1.482l.287-2.55,1.132.127-.291,2.593a1.112,1.112,0,0,0,.131.754.756.756,0,0,0,.581.322.736.736,0,0,0,.629-.189,1.124,1.124,0,0,0,.292-.7l.291-2.593,1.145.129-.287,2.549a1.907,1.907,0,0,1-.664,1.364,2.006,2.006,0,0,1-1.507.329A2.017,2.017,0,0,1-1062.707,3481.236Z" transform="translate(1063.062 -3477.204)" fill="#1c2533"/>
    </g>
    <g id="Group_15365" data-name="Group 15365" transform="translate(14.318 3.2)">
      <path id="Path_6713" data-name="Path 6713" d="M-1046.379,3482.517l-.163-3.484-1.319.062-.044-.945,3.819-.179.044.946-1.319.062.163,3.483Z" transform="translate(1047.905 -3477.971)" fill="#1c2533"/>
    </g>
    <g id="Group_15366" data-name="Group 15366" transform="translate(18.889 2.3)">
      <path id="Path_6714" data-name="Path 6714" d="M-1033.022,3480.331l-1.093-4.3,3.066-.78.221.869-1.961.5.205.809,1.835-.466.221.869-1.835.467.224.881,1.961-.5.221.87Z" transform="translate(1034.115 -3475.255)" fill="#1c2533"/>
    </g>
    <g id="Group_15367" data-name="Group 15367" transform="translate(23.071 0.666)">
      <path id="Path_6715" data-name="Path 6715" d="M-1018.75,3470.642l1.056-.316,1.27,4.248-.829.248-2.648-1.834.721,2.411-1.044.312-1.27-4.248.817-.244,2.644,1.822Z" transform="translate(1021.495 -3470.326)" fill="#1c2533"/>
    </g>
    <g id="Group_15368" data-name="Group 15368" transform="translate(31.6)">
      <path id="Path_6716" data-name="Path 6716" d="M-995.666,3472.815l-.1-4.433,3.094-.066.02.915-1.942.042.017.809,1.818-.039.02.909-1.818.039.038,1.8Z" transform="translate(995.761 -3468.316)" fill="#1c2533"/>
    </g>
    <g id="Group_15369" data-name="Group 15369" transform="translate(35.814 0.038)">
      <path id="Path_6717" data-name="Path 6717" d="M-979.215,3473.271l-1.231-.14-.4-1.531q-.071-.259-.436-.3l-.421-.048-.195,1.714-1.145-.13.5-4.406,2.048.232a1.821,1.821,0,0,1,1.161.48,1.226,1.226,0,0,1,.291,1.026,1.275,1.275,0,0,1-.325.743,1.289,1.289,0,0,1-.724.385.693.693,0,0,1,.315.211.936.936,0,0,1,.194.392Zm-1.124-2.857a.4.4,0,0,0,.207-.337.413.413,0,0,0-.122-.384,1,1,0,0,0-.529-.172l-.73-.083-.107.947.73.083A.979.979,0,0,0-980.338,3470.414Z" transform="translate(983.045 -3468.431)" fill="#1c2533"/>
    </g>
    <g id="Group_15370" data-name="Group 15370" transform="translate(40.629 0.916)">
      <path id="Path_6718" data-name="Path 6718" d="M-968.517,3475.312l1.323-4.232,3.019.943-.267.856-1.932-.6-.249.8,1.807.565-.267.856-1.807-.565-.271.868,1.932.6-.268.856Z" transform="translate(968.517 -3471.08)" fill="#1c2533"/>
    </g>
    <g id="Group_15371" data-name="Group 15371" transform="translate(44.932 2.308)">
      <path id="Path_6719" data-name="Path 6719" d="M-955.534,3479.568l1.122-4.29,3.06.8-.227.867-1.958-.512-.211.807,1.831.479-.227.868-1.831-.479-.23.88,1.958.512-.227.867Z" transform="translate(955.534 -3475.279)" fill="#1c2533"/>
    </g>
  </g>
</svg>
