<svg xmlns="http://www.w3.org/2000/svg" width="326.534" height="326.029" viewBox="0 0 326.534 326.029">
  <g id="Group_17254" data-name="Group 17254" transform="translate(-1480.258 -3958.596)">
    <g id="Group_17046" data-name="Group 17046" transform="translate(1482.471 3959.455)">
      <g id="Group_17044" data-name="Group 17044" transform="translate(0 0)">
        <path id="Path_8081" data-name="Path 8081" d="M1789.183,4045.094q-3.049-2.021-6.037-4.124c-21.479-15.1-121.989-83.763-164.361-77.465-47.576,7.072-148.514,163.3-122.8,209.591s154.3,126.655,188.375,113.8,125.369-154.3,131.155-189.019C1820.46,4068.231,1796.34,4049.838,1789.183,4045.094Z" transform="translate(-1491.86 -3963.098)" fill="#92e3a9"/>
      </g>
      <g id="Group_17045" data-name="Group 17045" transform="translate(0 0)" opacity="0.7">
        <path id="Path_8082" data-name="Path 8082" d="M1789.183,4045.094q-3.049-2.021-6.037-4.124c-21.479-15.1-121.989-83.763-164.361-77.465-47.576,7.072-148.514,163.3-122.8,209.591s154.3,126.655,188.375,113.8,125.369-154.3,131.155-189.019C1820.46,4068.231,1796.34,4049.838,1789.183,4045.094Z" transform="translate(-1491.86 -3963.098)" fill="#fff"/>
      </g>
    </g>
    <g id="Group_17051" data-name="Group 17051" transform="translate(1506.911 4003.511)">
      <g id="Group_17047" data-name="Group 17047" transform="translate(0 0)">
        <path id="Path_8083" data-name="Path 8083" d="M1654.563,4263.213a34.569,34.569,0,1,1,34.57-34.569A34.608,34.608,0,0,1,1654.563,4263.213Zm0-68.419a33.85,33.85,0,1,0,33.85,33.85A33.888,33.888,0,0,0,1654.563,4194.794Z" transform="translate(-1619.994 -4194.074)" fill="#263238"/>
      </g>
      <g id="Group_17048" data-name="Group 17048" transform="translate(3.948 3.948)">
        <path id="Path_8084" data-name="Path 8084" d="M1671.314,4276.015a30.621,30.621,0,1,1,30.621-30.621A30.656,30.656,0,0,1,1671.314,4276.015Zm0-60.523a29.9,29.9,0,1,0,29.9,29.9A29.936,29.936,0,0,0,1671.314,4215.492Z" transform="translate(-1640.693 -4214.772)" fill="#263238"/>
      </g>
      <g id="Group_17049" data-name="Group 17049" transform="translate(31.319 31.319)">
        <path id="Path_8085" data-name="Path 8085" d="M1791.859,4363.049a2.89,2.89,0,1,0-2.89,2.89A2.89,2.89,0,0,0,1791.859,4363.049Z" transform="translate(-1785.719 -4359.799)" fill="#263238"/>
        <path id="Path_8086" data-name="Path 8086" d="M1787.442,4364.772a3.25,3.25,0,1,1,3.25-3.25A3.253,3.253,0,0,1,1787.442,4364.772Zm0-5.781a2.531,2.531,0,1,0,2.531,2.531A2.533,2.533,0,0,0,1787.442,4358.992Z" transform="translate(-1784.192 -4358.272)" fill="#263238"/>
      </g>
      <g id="Group_17050" data-name="Group 17050" transform="translate(16.65 34.21)">
        <path id="Path_8087" data-name="Path 8087" d="M1707.646,4393.341a.36.36,0,0,1-.265-.6l17.559-19.195a.36.36,0,0,1,.424-.082l10.532,5.15a.36.36,0,1,1-.316.646l-10.291-5.031-17.378,19A.357.357,0,0,1,1707.646,4393.341Z" transform="translate(-1707.286 -4373.426)" fill="#263238"/>
      </g>
    </g>
    <g id="Group_17075" data-name="Group 17075" transform="translate(1480.258 4098.714)">
      <g id="Group_17074" data-name="Group 17074" transform="translate(0 0)">
        <g id="Group_17060" data-name="Group 17060" transform="translate(20.654 54.386)">
          <g id="Group_17052" data-name="Group 17052" transform="translate(19.965)">
            <path id="Path_8088" data-name="Path 8088" d="M1693.309,5036.072c.036.81.094,1.621.148,2.433.122,1.624.22,3.244.367,4.867.19,2,.45,4.013.735,6.02l.639.089c-.011-.4-.024-.795-.033-1.192-.046-1.608-.186-3.223-.164-4.822.007-1.6-.035-3.2-.052-4.8l-.045-2.4.043-2.391.021-4.786.13-4.769.05-2.389c.031-.794.09-1.582.134-2.373l.294-4.743a160.281,160.281,0,0,1,2.71-18.6,99.5,99.5,0,0,1,5.183-17.747l0-.006a.1.1,0,0,0-.045-.114.077.077,0,0,0-.111.029,98.678,98.678,0,0,0-5.855,17.543,159.585,159.585,0,0,0-3.231,18.581l-.458,4.746c-.071.792-.158,1.582-.215,2.377l-.131,2.395c-.07,1.6-.168,3.2-.214,4.8l.044,4.84Z" transform="translate(-1693.212 -4978.327)" fill="#263238"/>
          </g>
          <g id="Group_17053" data-name="Group 17053" transform="translate(24.356 25.15)">
            <path id="Path_8089" data-name="Path 8089" d="M1717.158,5156.645c.323-3.238.559-6.483.786-9.729.3-4.141.337-8.33.609-12.476a106.878,106.878,0,0,1,1.494-12.246,103.711,103.711,0,0,1,2.739-11.893.1.1,0,0,0-.053-.113.075.075,0,0,0-.107.038,101.954,101.954,0,0,0-3.41,11.691,106.307,106.307,0,0,0-2.013,12.222c-.425,4.132-.894,8.263-.951,12.47-.051,3.295-.013,6.605.217,9.94Z" transform="translate(-1716.234 -5110.179)" fill="#263238"/>
          </g>
          <g id="Group_17054" data-name="Group 17054" transform="translate(27.48 35.958)">
            <path id="Path_8090" data-name="Path 8090" d="M1733.767,5202.965l.6-6.9a102.945,102.945,0,0,1,1.547-11.825c.11-.476.252-.936.376-1.406a11.387,11.387,0,0,1,.428-1.379l.5-1.343.638-1.244a29.8,29.8,0,0,1,3.326-4.589,34.15,34.15,0,0,1,8.717-7.276l0,0a.08.08,0,0,0,.022-.111.094.094,0,0,0-.117-.042,34.677,34.677,0,0,0-9.284,6.807,30.4,30.4,0,0,0-3.63,4.544l-.746,1.3-.584,1.382a12.038,12.038,0,0,0-.509,1.412c-.15.478-.318.952-.453,1.435a56,56,0,0,0-1.921,11.981q-.145,3.53.012,7.1Z" transform="translate(-1732.613 -5166.843)" fill="#263238"/>
          </g>
          <g id="Group_17055" data-name="Group 17055" transform="translate(30.262 50.756)">
            <path id="Path_8091" data-name="Path 8091" d="M1747.4,5266l.82.114c.081-.467.154-.933.217-1.4.172-1.051.339-2.1.467-3.147.157-1.042.3-2.085.381-3.146.149-1.038.227-2.109.459-3.123a25.788,25.788,0,0,1,1.81-5.908,11.238,11.238,0,0,1,3.545-4.8l.013-.009a.08.08,0,0,0,.016-.108.091.091,0,0,0-.115-.041,11.045,11.045,0,0,0-4.222,4.49,26.057,26.057,0,0,0-2.366,5.889c-.166.509-.3,1.03-.413,1.555l-.383,1.571a26.215,26.215,0,0,0-.41,3.241c-.014,1.106-.046,2.208.029,3.322Q1747.308,5265.249,1747.4,5266Z" transform="translate(-1747.198 -5244.423)" fill="#263238"/>
          </g>
          <g id="Group_17056" data-name="Group 17056" transform="translate(10.248 10.92)">
            <path id="Path_8092" data-name="Path 8092" d="M1647.085,5068.5c.663,5.47,1.179,10.932,1.853,16.394l1.255,10.392.97.134c-.019-.752-.043-1.5-.056-2.257-.05-2.73-.282-5.471-.486-8.212-.457-5.484-1.351-10.975-2.2-16.456s-1.782-10.959-2.763-16.434c-1.016-5.474-2.078-10.943-3.228-16.407a.1.1,0,0,0-.1-.079.073.073,0,0,0-.068.089c.928,5.472,1.767,10.947,2.56,16.42C1645.641,5057.556,1646.407,5063.029,1647.085,5068.5Z" transform="translate(-1642.267 -5035.574)" fill="#263238"/>
          </g>
          <g id="Group_17057" data-name="Group 17057" transform="translate(1.59 21.786)">
            <path id="Path_8093" data-name="Path 8093" d="M1600.49,5098.491c.471,1.029.969,2.045,1.373,3.1l.636,1.564.565,1.583a98.823,98.823,0,0,1,3.612,12.832c.494,2.154.822,4.324,1.225,6.484l.508,3.247c.184,1.082.41,2.162.558,3.246.339,2.166.728,4.334,1.1,6.506.2,1.318.428,2.638.672,3.96l.639.088c-.023-1.338-.06-2.678-.128-4.021-.126-2.18-.382-4.367-.607-6.554-.29-2.187-.685-4.376-1.095-6.562l-.761-3.27c-.249-1.09-.486-2.18-.795-3.265a101.352,101.352,0,0,0-4.143-12.9l-.65-1.581-.722-1.56c-.459-1.046-1.015-2.059-1.542-3.079a29.317,29.317,0,0,0-3.912-5.73.086.086,0,0,0-.116-.016.085.085,0,0,0,0,.12l.008.01A28.865,28.865,0,0,1,1600.49,5098.491Z" transform="translate(-1596.88 -5092.545)" fill="#263238"/>
          </g>
          <g id="Group_17058" data-name="Group 17058" transform="translate(2.96 42.022)">
            <path id="Path_8094" data-name="Path 8094" d="M1610.678,5216.279c.848,2.973,1.455,5.967,2.215,8.94.106.395.2.789.306,1.185l1.607.222c-.083-.518-.162-1.037-.262-1.554a62.759,62.759,0,0,0-2.579-9.036c-1-2.983-2.166-5.928-3.433-8.834a88.739,88.739,0,0,0-4.317-8.513.1.1,0,0,0-.114-.043.078.078,0,0,0-.03.112,86.678,86.678,0,0,1,3.685,8.673C1608.856,5210.355,1609.848,5213.306,1610.678,5216.279Z" transform="translate(-1604.059 -5198.639)" fill="#263238"/>
          </g>
          <g id="Group_17059" data-name="Group 17059" transform="translate(0 55.276)">
            <path id="Path_8095" data-name="Path 8095" d="M1588.6,5268.285a15.269,15.269,0,0,1,4.157,3.806,23.77,23.77,0,0,1,2.9,4.786c.822,1.671,1.248,3.452,1.963,5.155l.071.192,1.7.235c-.054-.249-.1-.5-.162-.745a22.816,22.816,0,0,0-2.386-5.335,25.423,25.423,0,0,0-3.473-4.8,19.532,19.532,0,0,0-2.209-1.973,10.713,10.713,0,0,0-2.506-1.48.076.076,0,0,0-.1.034.1.1,0,0,0,.043.117Z" transform="translate(-1588.542 -5268.122)" fill="#263238"/>
          </g>
        </g>
        <g id="Group_17061" data-name="Group 17061" transform="translate(15.113 14.026)">
          <path id="Path_8096" data-name="Path 8096" d="M1576.047,4825.933a18.646,18.646,0,0,1-10.932-13.132c-2.05-9.85,4.555-4.834-1.366-20.687s-4.555-19.081-2.505-23.123,3.188-2.519,5.01,3.428,8.427,15.745,10.932,32.718S1576.047,4825.933,1576.047,4825.933Z" transform="translate(-1559.491 -4766.73)" fill="#92e3a9"/>
        </g>
        <g id="Group_17062" data-name="Group 17062" transform="translate(43.049)">
          <path id="Path_8097" data-name="Path 8097" d="M1712.107,4752.686s-5.922-2.872-6.149-14.063,4.327-8.281,5.011-22.08,1.594-23.465,4.1-23.346,9.11,8.1,11.388,23.9-2.961,25.325-7.516,29.248S1712.107,4752.686,1712.107,4752.686Z" transform="translate(-1705.95 -4693.196)" fill="#92e3a9"/>
        </g>
        <g id="Group_17063" data-name="Group 17063" transform="translate(3.875 49.053)">
          <path id="Path_8098" data-name="Path 8098" d="M1525.177,4987.536s-1.367-8.388-4.1-12.64-8.655-8.488-12.526-16.541-8.2-12.3-7.972-1.561,5.011,16.866,10.932,21.331S1525.177,4987.536,1525.177,4987.536Z" transform="translate(-1500.571 -4950.366)" fill="#92e3a9"/>
        </g>
        <g id="Group_17064" data-name="Group 17064" transform="translate(0 68.955)">
          <path id="Path_8099" data-name="Path 8099" d="M1506.233,5085.75a99.326,99.326,0,0,0-13.437-20.083c-7.972-8.85-14.349-13.606-12.071-9.418s5.01,4.339,8.882,11.708,2.733,12.223,8.2,16.852S1506.233,5085.75,1506.233,5085.75Z" transform="translate(-1480.258 -5054.708)" fill="#92e3a9"/>
        </g>
        <g id="Group_17065" data-name="Group 17065" transform="translate(2.895 98.402)">
          <path id="Path_8100" data-name="Path 8100" d="M1517.833,5224.025c-.228-.714-.455-5.757-8.2-10.93s-15.032-4.59-14.121-2.415,5.694,6.256,10.476,8.969A53.833,53.833,0,0,0,1517.833,5224.025Z" transform="translate(-1495.436 -5209.089)" fill="#92e3a9"/>
        </g>
        <g id="Group_17066" data-name="Group 17066" transform="translate(46.621 51.156)">
          <path id="Path_8101" data-name="Path 8101" d="M1726.81,4999.726s-3.416-4.8-1.594-13.658,5.922-6.012,10.477-10.163,3.644-4.961,8.2-9.339,8.654-6.544,10.477-4.241-.911,8.3-3.644,11.565-7.06,4.487-9.11,8.758-1.139,11.686-6.377,14.375S1726.81,4999.726,1726.81,4999.726Z" transform="translate(-1724.681 -4961.391)" fill="#92e3a9"/>
        </g>
        <g id="Group_17067" data-name="Group 17067" transform="translate(60.138 71.214)">
          <path id="Path_8102" data-name="Path 8102" d="M1795.547,5088.911s8.2-8.2,14.121-14.212,8.2-10.934,8.427-6.347,2.05,8.483-2.733,13.741S1795.547,5088.911,1795.547,5088.911Z" transform="translate(-1795.547 -5066.55)" fill="#92e3a9"/>
        </g>
        <g id="Group_17068" data-name="Group 17068" transform="translate(55.811 91.643)">
          <path id="Path_8103" data-name="Path 8103" d="M1772.859,5190.017s-.228-3.676,12.754-10.3,18.448-7.462,17.082-4.236-7.06,5.854-13.21,11.149S1772.859,5190.017,1772.859,5190.017Z" transform="translate(-1772.859 -5173.654)" fill="#92e3a9"/>
        </g>
        <g id="Group_17069" data-name="Group 17069" transform="translate(20.377 23.751)">
          <path id="Path_8104" data-name="Path 8104" d="M1598.922,4866.659a.36.36,0,0,1-.354-.3c-.03-.168-3.081-16.886-6.229-28.791s-5.217-19.325-5.237-19.4a.36.36,0,1,1,.693-.193c.02.073,2.087,7.486,5.24,19.407s6.211,28.679,6.242,28.847a.359.359,0,0,1-.29.418A.325.325,0,0,1,1598.922,4866.659Z" transform="translate(-1587.088 -4817.717)" fill="#263238"/>
        </g>
        <g id="Group_17070" data-name="Group 17070" transform="translate(48.322 8.219)">
          <path id="Path_8105" data-name="Path 8105" d="M1733.955,4788.018a.359.359,0,0,1-.342-.472c.055-.169,5.548-17.037,7.345-27.343,1.626-9.328.148-16.89-.831-21.893-.111-.565-.215-1.1-.307-1.6a.36.36,0,1,1,.708-.132c.092.5.2,1.027.306,1.59.989,5.056,2.483,12.7.833,22.155-1.806,10.356-7.314,27.272-7.37,27.442A.361.361,0,0,1,1733.955,4788.018Z" transform="translate(-1733.595 -4736.288)" fill="#263238"/>
        </g>
        <g id="Group_17071" data-name="Group 17071" transform="translate(7.851 55.949)">
          <path id="Path_8106" data-name="Path 8106" d="M1541.329,5016.715a.359.359,0,0,1-.32-.194,104.518,104.518,0,0,0-8.36-13.069c-1.282-1.693-2.47-3.172-3.618-4.6-3.284-4.089-5.878-7.318-7.591-11.84a.36.36,0,0,1,.673-.255c1.673,4.414,4.235,7.605,7.48,11.645,1.151,1.434,2.342,2.916,3.63,4.617a105.258,105.258,0,0,1,8.424,13.172.36.36,0,0,1-.153.485A.351.351,0,0,1,1541.329,5016.715Z" transform="translate(-1521.417 -4986.522)" fill="#263238"/>
        </g>
        <g id="Group_17072" data-name="Group 17072" transform="translate(48.391 55.361)">
          <path id="Path_8107" data-name="Path 8107" d="M1734.317,5017.928a.37.37,0,0,1-.061,0,.36.36,0,0,1-.294-.415c.075-.44,1.889-10.836,6.23-15.946,1.684-1.983,3.993-4.327,6.437-6.809,3.865-3.925,7.861-7.982,9.934-11.151a.36.36,0,0,1,.6.395c-2.113,3.228-6.135,7.312-10.024,11.261-2.435,2.472-4.734,4.808-6.4,6.77-1.736,2.044-3.335,5.384-4.625,9.659a55.675,55.675,0,0,0-1.444,5.942A.36.36,0,0,1,1734.317,5017.928Z" transform="translate(-1733.957 -4983.439)" fill="#263238"/>
        </g>
        <g id="Group_17073" data-name="Group 17073" transform="translate(11.267 103.113)">
          <path id="Path_8108" data-name="Path 8108" d="M1552.817,5244.051a.361.361,0,0,1-.223-.077c-.077-.061-7.713-6.082-13.1-9.523a.36.36,0,1,1,.387-.606c5.419,3.461,13.083,9.5,13.159,9.565a.359.359,0,0,1-.223.642Z" transform="translate(-1539.327 -5233.788)" fill="#263238"/>
        </g>
      </g>
    </g>
    <g id="Group_17112" data-name="Group 17112" transform="translate(1657.72 3958.596)">
      <g id="Group_17111" data-name="Group 17111" transform="translate(0 0)">
        <g id="Group_17077" data-name="Group 17077" transform="translate(5.522 4.02)">
          <g id="Group_17076" data-name="Group 17076">
            <path id="Path_8109" data-name="Path 8109" d="M2560.015,3992.644v223.029a11.084,11.084,0,0,1-11.084,11.083h-96.368a11.084,11.084,0,0,1-11.084-11.083V3992.638a11.079,11.079,0,0,1,11.079-11.078h41.364l.035.127c1.031,3.709,3.4,6.123,6.037,6.123h1.509c2.632,0,5.006-2.414,6.037-6.123l.04-.127h41.352A11.084,11.084,0,0,1,2560.015,3992.644Z" transform="translate(-2441.119 -3981.2)" fill="#fff"/>
            <path id="Path_8110" data-name="Path 8110" d="M2547.405,4225.59h-96.368a11.457,11.457,0,0,1-11.444-11.444V3991.112a11.451,11.451,0,0,1,11.438-11.438H2492.4a.359.359,0,0,1,.347.265l.035.126c.988,3.558,3.222,5.858,5.689,5.858h1.509c2.467,0,4.7-2.3,5.69-5.859l.044-.14a.36.36,0,0,1,.343-.251h41.352a11.457,11.457,0,0,1,11.444,11.444v223.029A11.457,11.457,0,0,1,2547.405,4225.59Zm-96.374-245.2a10.731,10.731,0,0,0-10.719,10.719v223.034a10.737,10.737,0,0,0,10.724,10.725h96.368a10.736,10.736,0,0,0,10.724-10.724V3991.118a10.737,10.737,0,0,0-10.724-10.724h-41.084c-1.093,3.8-3.575,6.25-6.345,6.25h-1.509c-2.766,0-5.246-2.448-6.345-6.25Z" transform="translate(-2439.593 -3979.674)" fill="#263238"/>
          </g>
        </g>
        <g id="Group_17079" data-name="Group 17079" transform="translate(5.522 4.02)">
          <g id="Group_17078" data-name="Group 17078">
            <path id="Path_8111" data-name="Path 8111" d="M2560.015,3998.738v-6.094a11.084,11.084,0,0,0-11.084-11.084h-41.352l-.04.127c-1.031,3.709-3.4,6.123-6.037,6.123h-1.509c-2.633,0-5.006-2.414-6.037-6.123l-.035-.127h-41.364a11.079,11.079,0,0,0-11.079,11.078v6.1Z" transform="translate(-2441.119 -3981.2)" fill="#92e3a9"/>
            <path id="Path_8112" data-name="Path 8112" d="M2558.489,3997.571H2439.953a.36.36,0,0,1-.36-.36v-6.1a11.451,11.451,0,0,1,11.438-11.438H2492.4a.359.359,0,0,1,.347.265l.035.126c.988,3.558,3.222,5.858,5.689,5.858h1.509c2.467,0,4.7-2.3,5.69-5.859l.044-.14a.36.36,0,0,1,.343-.251h41.352a11.457,11.457,0,0,1,11.444,11.444v6.094A.36.36,0,0,1,2558.489,3997.571Zm-118.177-.72h117.817v-5.734a10.737,10.737,0,0,0-10.724-10.724h-41.084c-1.093,3.8-3.575,6.25-6.345,6.25h-1.509c-2.766,0-5.246-2.448-6.345-6.25h-41.09a10.731,10.731,0,0,0-10.719,10.719Z" transform="translate(-2439.593 -3979.674)" fill="#263238"/>
          </g>
        </g>
        <g id="Group_17110" data-name="Group 17110">
          <g id="Group_17080" data-name="Group 17080">
            <path id="Path_8113" data-name="Path 8113" d="M2544.125,4028.855v-22.276h-2.015v-28.518a17.579,17.579,0,0,0-17.579-17.579h-94.424a17.579,17.579,0,0,0-17.579,17.579v226.615a17.578,17.578,0,0,0,17.579,17.579h94.424a17.579,17.579,0,0,0,17.579-17.579V4047.84h2.015v-13.163h-2.015v-5.822Zm-7.538,170.288a10.555,10.555,0,0,1-10.555,10.555h-97.426a10.555,10.555,0,0,1-10.555-10.555V3982.077a17.575,17.575,0,0,1,17.575-17.575h34.867l.035.127c1.031,3.71,3.4,6.123,6.037,6.123h1.509c2.632,0,5.006-2.413,6.037-6.123l.041-.127h34.862a17.575,17.575,0,0,1,17.574,17.575Z" transform="translate(-2412.169 -3960.122)" fill="#92e3a9"/>
            <path id="Path_8114" data-name="Path 8114" d="M2523,4221.088h-94.424a17.959,17.959,0,0,1-17.938-17.938V3976.535a17.959,17.959,0,0,1,17.938-17.939H2523a17.959,17.959,0,0,1,17.939,17.939v28.158h1.655a.36.36,0,0,1,.36.359v22.276a.361.361,0,0,1-.36.36h-1.655v5.1h1.655a.36.36,0,0,1,.36.36v13.164a.36.36,0,0,1-.36.359h-1.655v156.476A17.959,17.959,0,0,1,2523,4221.088Zm-94.424-261.772a17.238,17.238,0,0,0-17.219,17.219v226.614a17.239,17.239,0,0,0,17.219,17.219H2523a17.239,17.239,0,0,0,17.219-17.219V4046.314a.361.361,0,0,1,.36-.36h1.655v-12.443h-1.655a.361.361,0,0,1-.36-.36v-5.822a.36.36,0,0,1,.36-.359h1.655v-21.556h-1.655a.36.36,0,0,1-.36-.36v-28.518A17.238,17.238,0,0,0,2523,3959.316Zm95.925,249.217H2427.08a10.928,10.928,0,0,1-10.916-10.916V3980.551a17.955,17.955,0,0,1,17.935-17.935h34.867a.359.359,0,0,1,.347.266l.035.126c.989,3.558,3.222,5.858,5.69,5.858h1.509c2.468,0,4.7-2.3,5.69-5.859l.044-.14a.36.36,0,0,1,.343-.251h34.862a17.955,17.955,0,0,1,17.935,17.935v217.066A10.928,10.928,0,0,1,2524.505,4208.533Zm-90.406-245.2a17.235,17.235,0,0,0-17.215,17.215v217.066a10.207,10.207,0,0,0,10.2,10.2h97.426a10.207,10.207,0,0,0,10.2-10.2V3980.551a17.235,17.235,0,0,0-17.215-17.215h-34.594c-1.094,3.8-3.575,6.25-6.345,6.25h-1.509c-2.767,0-5.246-2.448-6.345-6.25Z" transform="translate(-2410.642 -3958.596)" fill="#263238"/>
          </g>
          <g id="Group_17081" data-name="Group 17081" transform="translate(2.035 2.421)">
            <path id="Path_8115" data-name="Path 8115" d="M2531.755,3973.178h-91.6a16.954,16.954,0,0,0-16.954,16.954v223.021a16.954,16.954,0,0,0,16.954,16.954h91.6a16.954,16.954,0,0,0,16.954-16.954V3990.132A16.954,16.954,0,0,0,2531.755,3973.178Zm13.466,236.514a10.281,10.281,0,0,1-10.281,10.28h-97.975a10.28,10.28,0,0,1-10.281-10.28V3991.726a16.949,16.949,0,0,1,16.95-16.949h35.492l.035.126c1.031,3.709,3.4,6.123,6.037,6.123h1.509c2.632,0,5.006-2.414,6.037-6.123l.04-.126h35.481a16.955,16.955,0,0,1,16.955,16.955Z" transform="translate(-2422.838 -3972.818)" fill="#263238"/>
            <path id="Path_8116" data-name="Path 8116" d="M2530.229,4228.94h-91.6a17.333,17.333,0,0,1-17.313-17.313V3988.6a17.333,17.333,0,0,1,17.313-17.313h91.6a17.333,17.333,0,0,1,17.314,17.313v223.022A17.333,17.333,0,0,1,2530.229,4228.94Zm-91.6-256.929a16.612,16.612,0,0,0-16.594,16.594v223.022a16.612,16.612,0,0,0,16.594,16.594h91.6a16.612,16.612,0,0,0,16.594-16.594V3988.6a16.612,16.612,0,0,0-16.594-16.594Zm94.789,246.795h-97.975a10.652,10.652,0,0,1-10.64-10.641V3990.2a17.329,17.329,0,0,1,17.309-17.309H2477.6a.359.359,0,0,1,.347.265l.035.127c.989,3.558,3.222,5.858,5.69,5.858h1.509c2.467,0,4.7-2.3,5.69-5.86l.045-.139a.36.36,0,0,1,.343-.25h35.481a17.335,17.335,0,0,1,17.315,17.315v217.96A10.652,10.652,0,0,1,2533.415,4218.806Zm-91.306-245.2a16.609,16.609,0,0,0-16.59,16.59v217.966a9.932,9.932,0,0,0,9.921,9.921h97.975a9.932,9.932,0,0,0,9.921-9.921v-217.96a16.615,16.615,0,0,0-16.6-16.6h-35.213c-1.093,3.8-3.575,6.25-6.345,6.25h-1.509c-2.767,0-5.246-2.448-6.345-6.25Z" transform="translate(-2421.312 -3971.291)" fill="#263238"/>
          </g>
          <g id="Group_17082" data-name="Group 17082" transform="translate(63.138 3.57)">
            <path id="Path_8117" data-name="Path 8117" d="M2744.958,3978.963a1.65,1.65,0,1,0-1.65,1.65A1.65,1.65,0,0,0,2744.958,3978.963Z" transform="translate(-2741.657 -3977.313)" fill="#fff"/>
          </g>
          <g id="Group_17109" data-name="Group 17109" transform="translate(13.926 9.466)">
            <g id="Group_17088" data-name="Group 17088" transform="translate(0 0.678)">
              <g id="Group_17083" data-name="Group 17083">
                <path id="Path_8118" data-name="Path 8118" d="M2486.144,4013.179c0,1.67-1.875,2.271-1.883,3.545v.087h1.82v.562h-2.428v-.475c0-1.788,1.875-2.136,1.875-3.695,0-.57-.19-.87-.649-.87s-.649.324-.649.815v.49h-.577v-.451c0-.847.388-1.409,1.242-1.409S2486.144,4012.333,2486.144,4013.179Z" transform="translate(-2483.652 -4011.779)" fill="#263238"/>
              </g>
              <g id="Group_17084" data-name="Group 17084" transform="translate(3.031)">
                <path id="Path_8119" data-name="Path 8119" d="M2502.037,4013.172v.142a1.309,1.309,0,0,0,0,2.287v.427c0,.847-.4,1.4-1.25,1.4s-1.242-.553-1.242-1.4v-.38h.577v.419c0,.5.206.8.649.8s.649-.293.649-.854v-.428c0-.546-.229-.807-.7-.823h-.332v-.554h.364a.665.665,0,0,0,.665-.759v-.253c0-.57-.2-.862-.649-.862s-.649.308-.649.807v.284h-.577v-.253c0-.847.4-1.393,1.242-1.393S2502.037,4012.325,2502.037,4013.172Z" transform="translate(-2499.545 -4011.779)" fill="#263238"/>
              </g>
              <g id="Group_17085" data-name="Group 17085" transform="translate(6.126 1.812)">
                <path id="Path_8120" data-name="Path 8120" d="M2516.362,4021.279v.768h-.594v-.768Zm0,3.014v.768h-.594v-.768Z" transform="translate(-2515.768 -4021.279)" fill="#263238"/>
              </g>
              <g id="Group_17086" data-name="Group 17086" transform="translate(7.329 0.055)">
                <path id="Path_8121" data-name="Path 8121" d="M2522.716,4014.325a.891.891,0,0,1,.823-.459c.712,0,1.028.522,1.028,1.313v1.084c0,.847-.4,1.4-1.25,1.4s-1.242-.554-1.242-1.4v-.372h.577v.411c0,.5.206.8.649.8s.649-.3.649-.8v-1.076c0-.5-.206-.8-.649-.8a.6.6,0,0,0-.625.594v.126h-.577l.15-3.078h2.184v.554h-1.63Z" transform="translate(-2522.076 -4012.069)" fill="#263238"/>
              </g>
              <g id="Group_17087" data-name="Group 17087" transform="translate(10.376)">
                <path id="Path_8122" data-name="Path 8122" d="M2540.573,4013.163v.1H2540v-.142c0-.5-.206-.791-.657-.791-.467,0-.673.3-.673.894v1.242a.893.893,0,0,1,.894-.594c.712,0,1.029.515,1.029,1.314v.839c0,.847-.42,1.4-1.267,1.4s-1.274-.553-1.274-1.4V4013.2c0-.878.4-1.425,1.274-1.425C2540.178,4011.779,2540.573,4012.317,2540.573,4013.163Zm-1.907,2.073v.83c0,.5.206.8.657.8s.657-.3.657-.8v-.83c0-.5-.213-.8-.657-.8S2538.666,4014.738,2538.666,4015.237Z" transform="translate(-2538.049 -4011.779)" fill="#263238"/>
              </g>
            </g>
            <g id="Group_17108" data-name="Group 17108" transform="translate(71.804)">
              <g id="Group_17089" data-name="Group 17089" transform="translate(0 2.307)">
                <rect id="Rectangle_11251" data-name="Rectangle 11251" width="1.564" height="3.91" fill="#263238"/>
              </g>
              <g id="Group_17090" data-name="Group 17090" transform="translate(2.085 1.523)">
                <rect id="Rectangle_11252" data-name="Rectangle 11252" width="1.564" height="4.693" fill="#263238"/>
              </g>
              <g id="Group_17091" data-name="Group 17091" transform="translate(4.17 0.967)">
                <rect id="Rectangle_11253" data-name="Rectangle 11253" width="1.564" height="5.249" fill="#263238"/>
              </g>
              <g id="Group_17092" data-name="Group 17092" transform="translate(6.256)">
                <rect id="Rectangle_11254" data-name="Rectangle 11254" width="1.564" height="6.217" fill="#263238"/>
              </g>
              <g id="Group_17099" data-name="Group 17099" transform="translate(17.79 0.375)">
                <g id="Group_17094" data-name="Group 17094">
                  <g id="Group_17093" data-name="Group 17093">
                    <path id="Path_8123" data-name="Path 8123" d="M2962.75,4015.922h-9.384v-5.734h9.384Zm-8.862-.521h8.341v-4.692h-8.341Z" transform="translate(-2953.367 -4010.187)" fill="#263238"/>
                  </g>
                </g>
                <g id="Group_17096" data-name="Group 17096" transform="translate(1.303 1.089)">
                  <g id="Group_17095" data-name="Group 17095">
                    <rect id="Rectangle_11255" data-name="Rectangle 11255" width="4.952" height="3.557" fill="#263238"/>
                  </g>
                </g>
                <g id="Group_17098" data-name="Group 17098" transform="translate(9.058 2.192)">
                  <g id="Group_17097" data-name="Group 17097">
                    <rect id="Rectangle_11256" data-name="Rectangle 11256" width="1.18" height="1.351" fill="#263238"/>
                  </g>
                </g>
              </g>
              <g id="Group_17101" data-name="Group 17101" transform="translate(10.365 3.583)">
                <g id="Group_17100" data-name="Group 17100">
                  <path id="Path_8124" data-name="Path 8124" d="M2918.427,4028.284a.348.348,0,0,1-.179-.049,2.737,2.737,0,0,0-3.225-.037.35.35,0,0,1-.461-.527,3.4,3.4,0,0,1,4.044-.038.35.35,0,0,1-.179.651Z" transform="translate(-2914.444 -4027.006)" fill="#263238"/>
                </g>
              </g>
              <g id="Group_17103" data-name="Group 17103" transform="translate(9.658 2.193)">
                <g id="Group_17102" data-name="Group 17102">
                  <path id="Path_8125" data-name="Path 8125" d="M2916.135,4021.211a.348.348,0,0,1-.179-.049c-2.761-1.642-4.617-.053-4.636-.039a.35.35,0,1,1-.463-.525,4.666,4.666,0,0,1,5.458-.038.351.351,0,0,1-.179.652Z" transform="translate(-2910.737 -4019.721)" fill="#263238"/>
                </g>
              </g>
              <g id="Group_17105" data-name="Group 17105" transform="translate(9.017 0.628)">
                <g id="Group_17104" data-name="Group 17104">
                  <path id="Path_8126" data-name="Path 8126" d="M2914.056,4013.208a.348.348,0,0,1-.18-.05c-3.5-2.079-5.822-.121-5.919-.037a.35.35,0,0,1-.462-.527c.028-.024,2.79-2.387,6.74-.038a.35.35,0,0,1-.179.652Z" transform="translate(-2907.376 -4011.517)" fill="#263238"/>
                </g>
              </g>
              <g id="Group_17107" data-name="Group 17107" transform="translate(11.536 4.57)">
                <g id="Group_17106" data-name="Group 17106">
                  <path id="Path_8127" data-name="Path 8127" d="M2922.339,4033.06a.879.879,0,1,1-.879-.879A.879.879,0,0,1,2922.339,4033.06Z" transform="translate(-2920.58 -4032.181)" fill="#263238"/>
                </g>
              </g>
            </g>
          </g>
        </g>
      </g>
    </g>
    <g id="Group_17116" data-name="Group 17116" transform="translate(1615.573 4243.199)">
      <g id="Group_17113" data-name="Group 17113" transform="translate(0 0.822)">
        <path id="Path_8128" data-name="Path 8128" d="M2223.553,5456.974l-31.365,5.72c-.692.144-.853,1.882-.251,2.253l9.2,5.674a5.364,5.364,0,0,0,4.036.659l30.509-7.125c.96-.224,1.113-2.348.232-2.79l-9.751-4.053A4.02,4.02,0,0,0,2223.553,5456.974Z" transform="translate(-2191.205 -5456.531)" fill="#263238"/>
        <path id="Path_8129" data-name="Path 8129" d="M2202.417,5470.259a5.7,5.7,0,0,1-3-.854l-9.2-5.675a1.721,1.721,0,0,1-.5-1.739,1.307,1.307,0,0,1,.87-1.173l31.37-5.721a4.389,4.389,0,0,1,2.83.364l9.74,4.048.023.01a1.891,1.891,0,0,1,.762,1.935,1.627,1.627,0,0,1-1.073,1.527l-30.509,7.125A5.772,5.772,0,0,1,2202.417,5470.259Zm20.423-14.533a3.618,3.618,0,0,0-.742.076h-.009l-31.366,5.72c-.079.017-.232.213-.3.591a1.16,1.16,0,0,0,.172,1l9.2,5.675a4.976,4.976,0,0,0,3.765.614l30.509-7.125c.255-.06.464-.425.521-.91a1.261,1.261,0,0,0-.36-1.2l-9.737-4.047-.023-.01A3.666,3.666,0,0,0,2222.84,5455.726Zm-.815-.276h0Z" transform="translate(-2189.676 -5455.006)" fill="#263238"/>
      </g>
      <g id="Group_17114" data-name="Group 17114" transform="translate(0.001)">
        <path id="Path_8130" data-name="Path 8130" d="M2223.553,5452.663l-31.365,6.542a.782.782,0,0,0-.251,1.431l9.2,5.675a5.361,5.361,0,0,0,4.036.658l30.509-7.125a1.052,1.052,0,0,0,.232-1.966l-9.751-4.875A4.008,4.008,0,0,0,2223.553,5452.663Z" transform="translate(-2191.205 -5452.219)" fill="#fff"/>
        <path id="Path_8131" data-name="Path 8131" d="M2202.419,5465.946a5.689,5.689,0,0,1-2.995-.854l-9.2-5.674a1.142,1.142,0,0,1,.366-2.09l31.366-6.542a4.38,4.38,0,0,1,2.846.369l9.751,4.875a1.413,1.413,0,0,1-.311,2.64l-30.509,7.125A5.774,5.774,0,0,1,2202.419,5465.946Zm19.682-14.456-31.366,6.542a.422.422,0,0,0-.135.772l9.2,5.674a4.976,4.976,0,0,0,3.765.614l30.509-7.125a.693.693,0,0,0,.153-1.295l-9.751-4.875a3.66,3.66,0,0,0-2.377-.308Zm-.073-.353h0Z" transform="translate(-2189.679 -5450.693)" fill="#263238"/>
      </g>
      <g id="Group_17115" data-name="Group 17115" transform="translate(3.481 1.126)">
        <path id="Path_8132" data-name="Path 8132" d="M2236.847,5458.551l-26.506,5.529a.661.661,0,0,0-.212,1.209l7.777,4.8a4.532,4.532,0,0,0,3.411.556l25.782-6.021a.89.89,0,0,0,.2-1.662l-8.24-4.12A3.388,3.388,0,0,0,2236.847,5458.551Z" transform="translate(-2209.455 -5458.121)" fill="#fff"/>
        <path id="Path_8133" data-name="Path 8133" d="M2218.749,5469.6a4.861,4.861,0,0,1-2.559-.73l-7.777-4.8a1.02,1.02,0,0,1,.327-1.868l26.506-5.529a3.76,3.76,0,0,1,2.441.316l8.24,4.12a1.249,1.249,0,0,1-.275,2.334l-25.781,6.021A4.934,4.934,0,0,1,2218.749,5469.6Zm17.26-12.281a2.969,2.969,0,0,0-.615.063h0l-26.506,5.529a.3.3,0,0,0-.1.55l7.777,4.8a4.148,4.148,0,0,0,3.14.512l25.782-6.021a.53.53,0,0,0,.116-.99l-8.24-4.12A3.038,3.038,0,0,0,2236.009,5457.315Zm-.689-.289h0Z" transform="translate(-2207.928 -5456.596)" fill="#263238"/>
      </g>
    </g>
    <g id="Group_17119" data-name="Group 17119" transform="translate(1657.591 4221.595)">
      <g id="Group_17117" data-name="Group 17117" transform="translate(0 23.921)">
        <circle id="Ellipse_118" data-name="Ellipse 118" cx="3.947" cy="3.947" r="3.947" transform="translate(1.08 1.08)" fill="#92e3a9"/>
        <path id="Path_8134" data-name="Path 8134" d="M2415,5472.891a5.027,5.027,0,1,1,5.027-5.027A5.033,5.033,0,0,1,2415,5472.891Zm0-7.9a2.868,2.868,0,1,0,2.868,2.868A2.871,2.871,0,0,0,2415,5465Z" transform="translate(-2409.968 -5462.836)" fill="#263238"/>
      </g>
      <g id="Group_17118" data-name="Group 17118" transform="translate(8.975)">
        <path id="Path_8135" data-name="Path 8135" d="M2513.627,5367.453H2457.02v-2.16h54.448v-27.869h2.159Z" transform="translate(-2457.02 -5337.425)" fill="#263238"/>
      </g>
    </g>
    <g id="Group_17120" data-name="Group 17120" transform="translate(1487.802 4219.746)">
      <path id="Path_8136" data-name="Path 8136" d="M1734.142,5353.963l-.043,0-213.973-25.512a.36.36,0,0,1,.085-.715l213.974,25.512a.36.36,0,0,1-.042.717Z" transform="translate(-1519.808 -5327.731)" fill="#263238"/>
    </g>
    <g id="Group_17167" data-name="Group 17167" transform="translate(1616.782 3999.233)">
      <g id="Group_17163" data-name="Group 17163" transform="translate(0 0)">
        <g id="Group_17123" data-name="Group 17123" transform="translate(1.306 14.029)">
          <g id="Group_17121" data-name="Group 17121" transform="translate(0.138 0.214)">
            <path id="Path_8137" data-name="Path 8137" d="M2221.619,4304.28s-9.631-2.623-15.7-15.547c-6.9-14.69,3.717-39.485,3.717-39.485l6.246-2.932,23.334,49.7Z" transform="translate(-2203.59 -4246.316)" fill="#455a64"/>
          </g>
          <g id="Group_17122" data-name="Group 17122">
            <path id="Path_8138" data-name="Path 8138" d="M2238.841,4295.189l-17.793,8.353-.055-.015c-.1-.029-9.771-2.786-15.8-15.632-6.849-14.588,3.607-39.365,3.713-39.616l.024-.059,6.443-3.025Zm-17.824,8.009,17.4-8.167-23.195-49.406-6.044,2.837c-.556,1.324-10.329,25.173-3.7,39.3C2211.206,4299.961,2220.228,4302.96,2221.016,4303.2Z" transform="translate(-2202.865 -4245.195)" fill="#263238"/>
          </g>
        </g>
        <g id="Group_17126" data-name="Group 17126">
          <g id="Group_17124" data-name="Group 17124" transform="translate(0.156 0.158)">
            <path id="Path_8139" data-name="Path 8139" d="M2214.376,4177.77a9.2,9.2,0,1,1-12.243-4.42A9.2,9.2,0,0,1,2214.376,4177.77Z" transform="translate(-2196.838 -4172.475)" fill="#455a64"/>
          </g>
          <g id="Group_17125" data-name="Group 17125">
            <path id="Path_8140" data-name="Path 8140" d="M2209.364,4189.491a9.367,9.367,0,1,1,4.493-12.457A9.377,9.377,0,0,1,2209.364,4189.491Zm-7.824-16.665a9.042,9.042,0,1,0,12.028,4.342A9.054,9.054,0,0,0,2201.54,4172.826Z" transform="translate(-2196.019 -4171.646)" fill="#263238"/>
          </g>
        </g>
        <g id="Group_17129" data-name="Group 17129" transform="translate(11.245 12.207)">
          <g id="Group_17127" data-name="Group 17127" transform="translate(0.214 0.173)">
            <path id="Path_8141" data-name="Path 8141" d="M2277.573,4242.981c-4.7,3.467-6.687,11.184-6.687,11.184l-5.148-1.781c-.541-4.376,3.864-10.087,5.79-12.349a86.178,86.178,0,0,0-9.187-3.485l-6.245,2.933,23.334,49.7,17.6-8.261s4.135-9.085-1.932-22.011C2291.87,4252.046,2284.5,4246.714,2277.573,4242.981Z" transform="translate(-2256.095 -4236.55)" fill="#455a64"/>
          </g>
          <g id="Group_17128" data-name="Group 17128">
            <path id="Path_8142" data-name="Path 8142" d="M2296.242,4280.311l-17.8,8.355-23.471-49.995,6.446-3.026.058.021a87.111,87.111,0,0,1,9.209,3.491l.2.087-.141.164c-1.891,2.22-6.223,7.815-5.765,12.122l4.895,1.7c.325-1.154,2.394-7.931,6.7-11.111l.082-.06.088.048c8.95,4.822,14.866,10.2,17.591,16.008,6.028,12.848,1.974,22.048,1.932,22.144Zm-17.646,7.925,17.4-8.169c.32-.758,3.774-9.615-1.951-21.817-2.685-5.719-8.528-11.04-17.367-15.816-4.541,3.429-6.522,10.966-6.546,11.04l-.041.171-.166-.061-5.244-1.817-.011-.1c-.538-4.345,3.69-9.933,5.691-12.3a86.438,86.438,0,0,0-8.915-3.374l-6.045,2.838Z" transform="translate(-2254.975 -4235.645)" fill="#263238"/>
          </g>
        </g>
        <g id="Group_17132" data-name="Group 17132" transform="translate(21.339 54.002)">
          <g id="Group_17130" data-name="Group 17130" transform="translate(0.213 0.215)">
            <path id="Path_8143" data-name="Path 8143" d="M2309.01,4469.51l8.7,18.533,25.947,85.763,53.1-24.928-49.718-74.6-9.009-18.387Z" transform="translate(-2309.01 -4455.887)" fill="#455a64"/>
          </g>
          <g id="Group_17131" data-name="Group 17131">
            <path id="Path_8144" data-name="Path 8144" d="M2396.087,4548.036l-53.433,25.085-.057-.18-25.947-85.765-8.758-18.656,29.3-13.757.072.146,9.008,18.386Zm-53.238,24.635,52.765-24.772L2346,4473.453l-8.947-18.263-28.733,13.489,8.631,18.384Z" transform="translate(-2307.892 -4454.762)" fill="#263238"/>
          </g>
        </g>
        <g id="Group_17138" data-name="Group 17138" transform="translate(18.053 63.26)">
          <g id="Group_17134" data-name="Group 17134" transform="translate(0 0)">
            <g id="Group_17133" data-name="Group 17133">
              <rect id="Rectangle_11257" data-name="Rectangle 11257" width="55.075" height="12.96" rx="6.48" transform="translate(0 23.405) rotate(-25.149)" fill="#455a64"/>
            </g>
          </g>
          <g id="Group_17137" data-name="Group 17137" transform="translate(0.377 0.883)">
            <g id="Group_17136" data-name="Group 17136">
              <g id="Group_17135" data-name="Group 17135">
                <path id="Path_8145" data-name="Path 8145" d="M2342.053,4521.4c-.205-.246,1.737-.973,2.59-3.786,1.018-2.451-1.367-8.214-6.359-7.267l-39.733,19a4.525,4.525,0,0,0-2.571,3.664,4.459,4.459,0,0,0,.362,2.24,5.477,5.477,0,0,0,1.293,2.043,4.589,4.589,0,0,0,4.1,1.154c1.245-.328,3.384-1.484,4.972-2.153l18.206-8.152c10.406-4.552,16.939-7.16,17.135-6.742s-5.984,3.778-16.133,8.875l-17.9,8.8a45.168,45.168,0,0,1-5.57,2.477,7.782,7.782,0,0,1-7.044-1.875,8.848,8.848,0,0,1-2.069-3.082,7.739,7.739,0,0,1-.656-3.886,7.83,7.83,0,0,1,4.457-6.378c15.845-7.314,29.594-13.969,40.731-18.3a7.515,7.515,0,0,1,8,10.009C2344.34,4521.332,2341.985,4521.54,2342.053,4521.4Z" transform="translate(-2292.643 -4507.93)" fill="#263238"/>
              </g>
            </g>
          </g>
        </g>
        <g id="Group_17144" data-name="Group 17144" transform="translate(15.268 53.869)">
          <g id="Group_17140" data-name="Group 17140" transform="translate(0 0)">
            <g id="Group_17139" data-name="Group 17139" transform="translate(0)">
              <rect id="Rectangle_11258" data-name="Rectangle 11258" width="46.562" height="12.959" rx="6.48" transform="translate(0 19.787) rotate(-25.149)" fill="#455a64"/>
            </g>
          </g>
          <g id="Group_17143" data-name="Group 17143" transform="translate(0.374 0.816)">
            <g id="Group_17142" data-name="Group 17142">
              <g id="Group_17141" data-name="Group 17141">
                <path id="Path_8146" data-name="Path 8146" d="M2319.735,4471.876c-.18-.254,1.424-.89,2.368-3.23a6.02,6.02,0,0,0-4.138-7.775,4.91,4.91,0,0,0-3.006.363q-1.812.9-3.7,1.829l-8.272,4.054-19.05,9.087a4.694,4.694,0,0,0-1.7,6.973,4.8,4.8,0,0,0,6.866,1.384l15.756-7c9.011-3.9,14.682-6.1,14.878-5.683s-5.121,3.373-13.876,7.816l-15.452,7.648a8.556,8.556,0,0,1-5.734,1.12,7.77,7.77,0,0,1-5.24-3.611,8.533,8.533,0,0,1-1.188-6.371,7.841,7.841,0,0,1,4.28-5.291l19.161-8.851,8.4-3.775,3.872-1.7a7.273,7.273,0,0,1,4.537-.289c5.975,1.872,6.376,8.245,4.78,10.622C2321.665,4471.876,2319.708,4472.016,2319.735,4471.876Z" transform="translate(-2278.028 -4458.343)" fill="#263238"/>
              </g>
            </g>
          </g>
        </g>
        <g id="Group_17147" data-name="Group 17147" transform="translate(44.462 140.173)">
          <g id="Group_17145" data-name="Group 17145" transform="translate(0.18 0.157)">
            <path id="Path_8147" data-name="Path 8147" d="M2439.573,4932.444l-9.512,14.237,9.24,19.68h0a5.285,5.285,0,0,0-2.7,6.966l4.522,9.633c32.572-7.873,62.661-21.521,89.756-42.138l-4.522-9.633a5.285,5.285,0,0,0-7.083-2.374h0l-9.24-19.682-17.03-1.775" transform="translate(-2430.06 -4907.358)" fill="#455a64"/>
          </g>
          <g id="Group_17146" data-name="Group 17146">
            <path id="Path_8148" data-name="Path 8148" d="M2488.046,4965.791a250.119,250.119,0,0,1-47.642,16.658l-.127.032-4.578-9.752a5.446,5.446,0,0,1,2.63-7.111L2429.119,4946l.049-.078,9.513-14.235.264.18-9.463,14.156,9.271,19.748-.144.068a5.133,5.133,0,0,0-2.622,6.754l4.467,9.514c33.31-8.072,63.416-22.205,89.467-42l-4.467-9.515a5.133,5.133,0,0,0-6.871-2.3l-.144.068-9.271-19.748-16.937-1.762.03-.318,17.12,1.787,9.21,19.617a5.445,5.445,0,0,1,7.15,2.519l4.579,9.752-.1.076A233.014,233.014,0,0,1,2488.046,4965.791Z" transform="translate(-2429.119 -4906.533)" fill="#263238"/>
          </g>
        </g>
        <g id="Group_17150" data-name="Group 17150" transform="translate(50.618 162.906)">
          <g id="Group_17149" data-name="Group 17149">
            <g id="Group_17148" data-name="Group 17148">
              <path id="Path_8149" data-name="Path 8149" d="M2551.086,5025.756c.256.325-3.847,4.173-11.2,9.5a192.828,192.828,0,0,1-64.007,29.807c-8.812,2.2-14.4,2.863-14.481,2.457-.248-1.021,21.653-5.769,46.457-17.429C2532.73,5038.617,2550.464,5024.909,2551.086,5025.756Z" transform="translate(-2461.394 -5025.718)" fill="#263238"/>
            </g>
          </g>
        </g>
        <g id="Group_17153" data-name="Group 17153" transform="translate(52.577 161.522)">
          <g id="Group_17152" data-name="Group 17152">
            <g id="Group_17151" data-name="Group 17151">
              <path id="Path_8150" data-name="Path 8150" d="M2553.524,5018.5c.264.32-3.388,3.95-10.03,8.946a161.093,161.093,0,0,1-58.523,27.232c-8.1,1.863-13.228,2.319-13.3,1.911-.229-1.027,19.891-4.948,42.539-15.588C2536.926,5030.534,2552.887,5017.665,2553.524,5018.5Z" transform="translate(-2471.666 -5018.463)" fill="#263238"/>
            </g>
          </g>
        </g>
        <g id="Group_17156" data-name="Group 17156" transform="translate(44.681 142.431)">
          <g id="Group_17155" data-name="Group 17155">
            <g id="Group_17154" data-name="Group 17154">
              <path id="Path_8151" data-name="Path 8151" d="M2510.375,4918.415c.266.318-3.286,3.9-9.768,8.82a154.407,154.407,0,0,1-57.3,26.658c-7.94,1.788-12.965,2.2-13.038,1.79-.226-1.029,19.5-4.765,41.663-15.178C2494.169,4930.26,2509.733,4917.579,2510.375,4918.415Z" transform="translate(-2430.267 -4918.375)" fill="#263238"/>
            </g>
          </g>
        </g>
        <g id="Group_17159" data-name="Group 17159" transform="translate(54.393 140.173)">
          <g id="Group_17158" data-name="Group 17158">
            <g id="Group_17157" data-name="Group 17157">
              <path id="Path_8152" data-name="Path 8152" d="M2535.023,4906.578c.677.476-8.453,11.44-24.076,18.7-15.56,7.413-29.825,7.458-29.76,6.633-.133-1.015,13.435-2.525,28.341-9.648C2524.512,4915.323,2534.326,4905.83,2535.023,4906.578Z" transform="translate(-2481.186 -4906.537)" fill="#263238"/>
            </g>
          </g>
        </g>
        <g id="Group_17162" data-name="Group 17162" transform="translate(6.848 12.344)">
          <g id="Group_17161" data-name="Group 17161">
            <g id="Group_17160" data-name="Group 17160">
              <path id="Path_8153" data-name="Path 8153" d="M2243.176,4236.389c.856.057.78,4.333-3.748,6.649-4.321,1.729-7.751.041-7.49-.8.153-.9,3.231-1.014,6.151-2.253C2240.727,4238.784,2242.322,4236.083,2243.176,4236.389Z" transform="translate(-2231.924 -4236.365)" fill="#263238"/>
            </g>
          </g>
        </g>
      </g>
      <g id="Group_17166" data-name="Group 17166" transform="translate(32.778 80.414)" opacity="0.3">
        <g id="Group_17165" data-name="Group 17165">
          <g id="Group_17164" data-name="Group 17164">
            <path id="Path_8154" data-name="Path 8154" d="M2367.867,4606.927a27.84,27.84,0,0,0,16.04-2.555c5.247-2.641,10.859-6.8,13.152-11.139-9.4,4.246-19.8,9.448-29.192,13.694" transform="translate(-2367.867 -4593.233)"/>
          </g>
        </g>
      </g>
    </g>
    <g id="Group_17172" data-name="Group 17172" transform="translate(1481.657 4190.155)">
      <g id="Group_17168" data-name="Group 17168" transform="translate(16.699 37.112)">
        <path id="Path_8155" data-name="Path 8155" d="M1629.173,5387.123l40.817-8.928-52.083-9.141-40.875,8.562Z" transform="translate(-1576.671 -5368.694)" fill="#fff"/>
        <path id="Path_8156" data-name="Path 8156" d="M1627.646,5385.956a.408.408,0,0,1-.064-.006l-52.142-9.507a.36.36,0,0,1-.009-.706l40.875-8.562a.374.374,0,0,1,.136,0l52.084,9.142a.359.359,0,0,1,.015.705l-40.816,8.929A.374.374,0,0,1,1627.646,5385.956Zm-50.27-9.891,50.264,9.164,38.962-8.523-50.217-8.813Z" transform="translate(-1575.144 -5367.166)" fill="#263238"/>
      </g>
      <g id="Group_17169" data-name="Group 17169" transform="translate(37.96 38.436)">
        <path id="Path_8157" data-name="Path 8157" d="M1730.139,5388.879l23.246-5.085-44.454-7.8-20.435,4.281Z" transform="translate(-1688.136 -5375.632)" fill="#fff"/>
        <path id="Path_8158" data-name="Path 8158" d="M1728.612,5387.712a.333.333,0,0,1-.073-.007L1686.9,5379.1a.36.36,0,0,1,0-.7l20.435-4.281a.353.353,0,0,1,.136,0l44.454,7.8a.359.359,0,0,1,.015.705l-23.246,5.085A.339.339,0,0,1,1728.612,5387.712Zm-39.877-8.968,39.875,8.241,21.387-4.678-42.587-7.475Z" transform="translate(-1686.609 -5374.105)" fill="#263238"/>
      </g>
      <g id="Group_17170" data-name="Group 17170" transform="translate(0 0)">
        <path id="Path_8159" data-name="Path 8159" d="M1558.32,5229.669l-52.09-9.5a.293.293,0,0,0-.05-.007l-16.7-45.677,50.133,5.01,6.975,18.7Z" transform="translate(-1489.121 -5174.124)" fill="#b8b8b8"/>
        <path id="Path_8160" data-name="Path 8160" d="M1556.794,5228.5a.32.32,0,0,1-.064-.006l-52.089-9.5a.3.3,0,0,1-.325-.238l-16.7-45.677a.361.361,0,0,1,.374-.482l50.133,5.011a.358.358,0,0,1,.3.232l6.975,18.7,11.732,31.476a.36.36,0,0,1-.337.485Zm-51.874-10.187,51.316,9.359-11.511-30.883-6.9-18.489-49.339-4.931Zm-.266.679h0Z" transform="translate(-1487.594 -5172.596)" fill="#263238"/>
      </g>
      <g id="Group_17171" data-name="Group 17171" transform="translate(16.749 23.71)">
        <path id="Path_8161" data-name="Path 8161" d="M1629.383,5330.262l-52.09-9.5c1.1.158,20,2.656,24.631-8.271,3.016-7.133,10.207-11.48,15.727-13.7Z" transform="translate(-1576.933 -5298.426)" fill="#263238"/>
        <path id="Path_8162" data-name="Path 8162" d="M1627.856,5329.1a.319.319,0,0,1-.064-.005l-52.09-9.5a.36.36,0,0,1,.116-.71c.8.114,19.693,2.7,24.248-8.055,3.318-7.847,11.4-12.076,15.924-13.9a.363.363,0,0,1,.28,0,.358.358,0,0,1,.192.2l11.732,31.476a.359.359,0,0,1-.337.485Zm-46.191-9.15,45.632,8.323-11.381-30.535c-10.039,4.144-13.823,10.142-15.188,13.371C1597.575,5318.549,1588.019,5319.911,1581.666,5319.945Z" transform="translate(-1575.406 -5296.901)" fill="#263238"/>
      </g>
    </g>
    <g id="Group_17216" data-name="Group 17216" transform="translate(1549.555 4087.031)">
      <g id="Group_17173" data-name="Group 17173" transform="translate(26.997 0)">
        <path id="Path_8163" data-name="Path 8163" d="M1994.784,4643.353s-7.792,7.671-7.792,14.61,3.531,19.724,4.505,22.524,1.826,9.01-.244,13.758-4.261,10.958,3.044,17.288,13.271,6.94,20.455,2.8,12.54-14.976,16.68-23.742,12.317-15.5,12.317-15.5,2.537-1.908.832-11.405-4.5-18.384-13.027-24.228-21.185-7.062-27.881-4.018S1994.784,4643.353,1994.784,4643.353Z" transform="translate(-1986.632 -4633.466)" fill="#263238"/>
        <path id="Path_8164" data-name="Path 8164" d="M2004.693,4715.8a13.243,13.243,0,0,1-1.7-.109c-3.335-.431-6.757-2.2-10.462-5.412-7.271-6.3-5.432-12.442-3.138-17.7,2-4.581,1.2-10.709.233-13.5-.921-2.648-4.525-15.523-4.525-22.643,0-6.806,7.142-14.11,7.853-14.82.293-.611,2.627-5.117,9.038-8.032,3.365-1.529,8.267-2.022,13.451-1.354a34.342,34.342,0,0,1,14.783,5.4c8.807,6.039,11.538,15.326,13.178,24.462,1.724,9.6-.859,11.672-.97,11.755-.068.057-8.152,6.78-12.208,15.369-4.663,9.875-9.8,19.853-16.826,23.9A17.338,17.338,0,0,1,2004.693,4715.8Zm6.131-83.175a20.774,20.774,0,0,0-8.529,1.614c-6.481,2.946-8.687,7.687-8.709,7.734a.372.372,0,0,1-.076.108c-.077.075-7.685,7.646-7.685,14.354,0,7.029,3.572,19.781,4.485,22.406,1.045,3,1.84,9.217-.254,14.02a18.33,18.33,0,0,0-1.964,7.894c.119,3.28,1.726,6.217,4.913,8.979,7.044,6.1,12.849,6.9,20.039,2.76,6.843-3.943,11.921-13.813,16.535-23.583,4.126-8.738,12.331-15.559,12.414-15.627.031-.025,2.332-2.009.707-11.063-1.612-8.982-4.288-18.106-12.877-24A36,36,0,0,0,2010.823,4632.63Zm-17.566,9.2h0Z" transform="translate(-1985.105 -4631.943)" fill="#263238"/>
      </g>
      <g id="Group_17184" data-name="Group 17184" transform="translate(34.318 11.142)">
        <g id="Group_17174" data-name="Group 17174" transform="translate(0.403)">
          <path id="Path_8165" data-name="Path 8165" d="M2027.481,4704.8s0,9.833.918,11.013,2.753,3.8,3.146,5.375-.393,9.178.393,9.44a34.17,34.17,0,0,0,4.458.394s6.818,7.342,8.129,7.866,5.376-2.229,5.376-2.229.393.787,7.211-1.966a25.834,25.834,0,0,0,10.619-8.26l-5.768-10.1s.131-1.7.131-3.8a9.488,9.488,0,0,0-1.442-4.327l-5.376-1.18s.655,1.967-.524,2.36-3.933.918-9.7-.524-10.62-4.982-12.324-5.506a10.018,10.018,0,0,0-2.622-.524l5.113-9.964s-.262-1.7-1.835.525-4.982,10.226-4.982,10.226Z" transform="translate(-2027.121 -4691.886)" fill="#fff"/>
          <path id="Path_8166" data-name="Path 8166" d="M2043.384,4737.779a1.4,1.4,0,0,1-.519-.087c-1.3-.519-7.1-6.708-8.157-7.846a29.842,29.842,0,0,1-4.409-.406c-.617-.206-.675-1.366-.566-5.539a25.428,25.428,0,0,0-.063-4.155,19.842,19.842,0,0,0-3.081-5.242c-.946-1.216-.994-9.571-.994-11.234a.361.361,0,0,1,.076-.221l.889-1.143c.3-.7,3.466-8.077,5-10.25.7-.995,1.268-1.4,1.784-1.28.566.133.689.829.7.909a.359.359,0,0,1-.036.219l-4.869,9.487a13.134,13.134,0,0,1,2.163.494,17.949,17.949,0,0,1,2.688,1.34,40.638,40.638,0,0,0,9.618,4.161c5.241,1.311,8.059,1.013,9.5.532.812-.27.3-1.889.3-1.9a.36.36,0,0,1,.419-.465l5.375,1.18a.358.358,0,0,1,.225.156,9.747,9.747,0,0,1,1.5,4.522c0,1.784-.1,3.3-.124,3.718l5.715,10a.361.361,0,0,1-.016.383,25.937,25.937,0,0,1-10.781,8.389c-3.949,1.595-6.4,2.278-7.31,2.042C2047.54,4736.115,2044.9,4737.779,2043.384,4737.779Zm-12.8-9a34.7,34.7,0,0,0,4.3.356.363.363,0,0,1,.251.115c2.718,2.928,7.091,7.415,8,7.777.782.315,3.418-1.094,5.04-2.192a.36.36,0,0,1,.293-.05.351.351,0,0,1,.142.074c.159.041,1.341.2,6.843-2.027a25.8,25.8,0,0,0,10.326-7.95l-5.653-9.893a.366.366,0,0,1-.046-.207c0-.017.13-1.716.13-3.774A8.9,8.9,0,0,0,2058.9,4707l-4.666-1.024a3.931,3.931,0,0,1,.057.548c.036,1.174-.58,1.556-.95,1.68-2.2.732-5.621.553-9.9-.517a41.23,41.23,0,0,1-9.792-4.229,18.31,18.31,0,0,0-2.551-1.282,9.9,9.9,0,0,0-2.517-.509.36.36,0,0,1-.319-.524l5.052-9.847c-.036-.111-.095-.208-.13-.216,0,0-.3-.038-1.031.994-1.533,2.172-4.911,10.081-4.945,10.161a.355.355,0,0,1-.047.079l-.842,1.083c0,3.766.235,9.889.842,10.669,1,1.291,2.81,3.9,3.211,5.509a24.227,24.227,0,0,1,.084,4.348A22.975,22.975,0,0,0,2030.587,4728.775Zm18.108,6.192h0Zm0,0h0Zm0,0h0Zm-18.088-6.157h0Z" transform="translate(-2025.595 -4690.355)" fill="#263238"/>
        </g>
        <g id="Group_17175" data-name="Group 17175" transform="translate(14.955 34.58)">
          <path id="Path_8167" data-name="Path 8167" d="M2102.25,4876.173a.36.36,0,0,1-.025-.718,4.026,4.026,0,0,0,3.733-3.483.36.36,0,0,1,.715.08c-.422,3.794-4.357,4.119-4.4,4.121Z" transform="translate(-2101.891 -4871.651)" fill="#263238"/>
        </g>
        <g id="Group_17176" data-name="Group 17176" transform="translate(22.822 38.12)">
          <path id="Path_8168" data-name="Path 8168" d="M2145.019,4898.391l6.031-6.293-1.966,5.506S2146.33,4898.259,2145.019,4898.391Z" transform="translate(-2144.659 -4891.737)" fill="#263238"/>
          <path id="Path_8169" data-name="Path 8169" d="M2143.492,4897.222a.36.36,0,0,1-.26-.609l6.031-6.293a.36.36,0,0,1,.6.37l-1.967,5.507a.36.36,0,0,1-.255.229c-.113.027-2.792.663-4.112.794Zm5.126-5.188-4.141,4.321c1.065-.187,2.333-.475,2.806-.584Z" transform="translate(-2143.132 -4890.209)" fill="#263238"/>
        </g>
        <g id="Group_17177" data-name="Group 17177" transform="translate(32.261 24.092)">
          <path id="Path_8170" data-name="Path 8170" d="M2197.13,4818.55l-2.622,2.884,3.8-.262Z" transform="translate(-2194.149 -4818.19)" fill="#263238"/>
          <path id="Path_8171" data-name="Path 8171" d="M2192.982,4820.267a.36.36,0,0,1-.266-.6l2.622-2.884a.36.36,0,0,1,.595.094l1.18,2.622a.36.36,0,0,1-.3.507l-3.8.262Zm2.52-2.6-1.65,1.815,2.393-.165Z" transform="translate(-2192.623 -4816.662)" fill="#263238"/>
        </g>
        <g id="Group_17178" data-name="Group 17178" transform="translate(9.786 25.29)">
          <path id="Path_8172" data-name="Path 8172" d="M2076.644,4823.943c.487.762.56,1.586.163,1.839s-1.113-.16-1.6-.923-.56-1.586-.163-1.84S2076.157,4823.179,2076.644,4823.943Z" transform="translate(-2074.789 -4822.945)" fill="#263238"/>
        </g>
        <g id="Group_17182" data-name="Group 17182" transform="translate(0 14.783)">
          <g id="Group_17179" data-name="Group 17179" transform="translate(4.729 7.342)">
            <path id="Path_8173" data-name="Path 8173" d="M2054.974,4817.466a6.084,6.084,0,0,1-3.469-1.611,9.89,9.89,0,0,1-3.214-4.717.363.363,0,0,1,.061-.319c.127-.166,3.192-4.067,9.835-4.466a.358.358,0,0,1,.318.154c.1.144,2.428,3.538,2.292,5.863a5.067,5.067,0,0,1-2.1,3.307,9.051,9.051,0,0,1-3.292,1.743A1.9,1.9,0,0,1,2054.974,4817.466Zm-5.936-6.345c1.112,3.539,4.805,5.925,6.205,5.6,1.593-.368,4.716-2.364,4.834-4.39.106-1.809-1.595-4.544-2.053-5.244A13.249,13.249,0,0,0,2049.038,4811.121Z" transform="translate(-2048.278 -4806.352)" fill="#263238"/>
          </g>
          <g id="Group_17180" data-name="Group 17180" transform="translate(14.3)">
            <path id="Path_8174" data-name="Path 8174" d="M2098.814,4775.922a.36.36,0,0,1-.169-.678l13.9-7.342a.36.36,0,0,1,.336.636l-13.9,7.342A.359.359,0,0,1,2098.814,4775.922Z" transform="translate(-2098.454 -4767.86)" fill="#263238"/>
          </g>
          <g id="Group_17181" data-name="Group 17181" transform="translate(0 11.668)">
            <path id="Path_8175" data-name="Path 8175" d="M2028.049,4837.883h-.016a4.331,4.331,0,0,1-3.156-1.635,5.507,5.507,0,0,1-1.382-3.489c.143-1.149,3.8-3.11,4.912-3.684a.36.36,0,1,1,.329.64c-2.4,1.232-4.469,2.667-4.527,3.133a4.944,4.944,0,0,0,1.217,2.936,3.583,3.583,0,0,0,2.637,1.379.36.36,0,0,1-.015.72Z" transform="translate(-2023.484 -4829.035)" fill="#263238"/>
          </g>
        </g>
        <g id="Group_17183" data-name="Group 17183" transform="translate(6.302 21.47)">
          <path id="Path_8176" data-name="Path 8176" d="M2056.885,4806.127a.338.338,0,0,1-.125-.023.359.359,0,0,1-.213-.462c.041-.111,1.047-2.726,4.795-2.726a.36.36,0,1,1,0,.72c-3.251,0-4.111,2.233-4.12,2.256A.361.361,0,0,1,2056.885,4806.127Z" transform="translate(-2056.525 -4802.916)" fill="#263238"/>
        </g>
      </g>
      <g id="Group_17191" data-name="Group 17191" transform="translate(35.633 58.604)">
        <g id="Group_17185" data-name="Group 17185">
          <path id="Path_8177" data-name="Path 8177" d="M2052.5,4950.111s-5.352,2.174-9.031,11.708-11.206,66.066-11.206,66.066l93.161,10.035s-10.2-68.575-18.231-82.958-20.238-13.882-20.238-13.882A69.267,69.267,0,0,1,2052.5,4950.111Z" transform="translate(-2031.906 -4940.718)" fill="#92e3a9"/>
          <path id="Path_8178" data-name="Path 8178" d="M2123.9,5036.751l-.039,0-93.161-10.035a.36.36,0,0,1-.318-.405c.308-2.31,7.574-56.684,11.227-66.148,3.693-9.569,9.008-11.821,9.232-11.912a.394.394,0,0,1,.138-.027c.176,0,.352,0,.527,0a69.516,69.516,0,0,0,33.732-8.979.357.357,0,0,1,.178-.055,18.741,18.741,0,0,1,7.26,1.574c3.754,1.547,9.109,4.972,13.307,12.492,3.349,6,7.442,21.806,12.165,46.982,3.515,18.732,6.082,35.927,6.107,36.1a.361.361,0,0,1-.356.414Zm-92.756-10.714,92.33,9.946c-.913-6.032-10.558-68.829-18.12-82.375-4.1-7.34-9.3-10.673-12.952-12.178a18.781,18.781,0,0,0-6.866-1.521,70.5,70.5,0,0,1-34.03,9.036h-.455a11.682,11.682,0,0,0-3,2.212,25.529,25.529,0,0,0-5.774,9.265C2038.813,4969.405,2031.8,5021.155,2031.145,5026.038Z" transform="translate(-2030.38 -4939.188)" fill="#263238"/>
        </g>
        <g id="Group_17189" data-name="Group 17189" transform="translate(24.485 52.217)">
          <g id="Group_17186" data-name="Group 17186" transform="translate(8.741 12.469)">
            <path id="Path_8179" data-name="Path 8179" d="M2206.416,5281.442a.361.361,0,0,1-.288-.143,23.584,23.584,0,0,1-1.51-2.444.36.36,0,1,1,.628-.351,22.926,22.926,0,0,0,1.458,2.363.359.359,0,0,1-.288.575Z" transform="translate(-2204.571 -5278.32)" fill="#263238"/>
          </g>
          <g id="Group_17187" data-name="Group 17187" transform="translate(2.789 0.465)">
            <path id="Path_8180" data-name="Path 8180" d="M2178.739,5226.369a.361.361,0,0,1-.319-.193c-2.29-4.355-4.993-10.223-5.02-10.282a.36.36,0,1,1,.654-.3c.027.059,2.722,5.911,5,10.249a.36.36,0,0,1-.151.486A.356.356,0,0,1,2178.739,5226.369Z" transform="translate(-2173.367 -5215.383)" fill="#263238"/>
          </g>
          <g id="Group_17188" data-name="Group 17188">
            <path id="Path_8181" data-name="Path 8181" d="M2162.593,5220.64a.36.36,0,0,1-.322-.2l-3.486-6.972a.36.36,0,0,1,.644-.322l3.486,6.971a.36.36,0,0,1-.322.521Z" transform="translate(-2158.746 -5212.948)" fill="#263238"/>
          </g>
        </g>
        <g id="Group_17190" data-name="Group 17190" transform="translate(7.297 26.262)">
          <path id="Path_8182" data-name="Path 8182" d="M2075.412,5139.642a.36.36,0,0,1-.343-.25c-.079-.247-7.866-24.805-6.2-36.955a202.126,202.126,0,0,1,5.531-25.308.36.36,0,1,1,.69.2,201.322,201.322,0,0,0-5.508,25.2c-1.642,11.99,6.1,36.393,6.175,36.638a.361.361,0,0,1-.343.47Z" transform="translate(-2068.634 -5076.87)" fill="#263238"/>
        </g>
      </g>
      <g id="Group_17200" data-name="Group 17200" transform="translate(55.197 41.226)">
        <g id="Group_17192" data-name="Group 17192">
          <path id="Path_8183" data-name="Path 8183" d="M2136.8,4864.294a2.184,2.184,0,0,0,.131,2.752,6.648,6.648,0,0,1,1.312,3.934c.131,1.049-4.72,5.114-3.016,6.687s7.08,3.933,19.141.393,17.175-8.522,17.437-10.357-1.573-3.671-2.753-4.458-2.1-3.147-3.409-7.079,0-6.556-2.229-6.163-6.424,1.311-8.784,4.064C2154.633,4854.067,2148.864,4861.541,2136.8,4864.294Z" transform="translate(-2134.499 -4849.605)" fill="#92e3a9"/>
          <path id="Path_8184" data-name="Path 8184" d="M2141.716,4878.75c-5.173,0-7.511-1.63-8.284-2.343-1.33-1.228.352-3.377,1.7-5.1a6.974,6.974,0,0,0,1.2-1.8c-.017-.134-.032-.276-.047-.424a5.7,5.7,0,0,0-1.185-3.324,2.538,2.538,0,0,1-.134-3.207.361.361,0,0,1,.2-.125,35.35,35.35,0,0,0,13.279-6.065,24.573,24.573,0,0,0,4.347-4.03c2.634-3.075,7.43-3.921,9.006-4.2a1.555,1.555,0,0,1,1.272.2c.524.408.584,1.2.668,2.3a15.281,15.281,0,0,0,.692,3.9c1.341,4.022,2.214,6.192,3.267,6.894,2.592,1.728,3.049,3.835,2.91,4.808-.328,2.3-6.178,7.272-17.692,10.651A40.247,40.247,0,0,1,2141.716,4878.75Zm-6.25-15.662a1.823,1.823,0,0,0,.194,2.207A6.392,6.392,0,0,1,2137,4869c.015.143.029.28.045.411.063.506-.418,1.149-1.347,2.335-1.107,1.416-2.623,3.354-1.781,4.131.8.739,5.466,4.225,18.8.313,12.539-3.68,16.982-8.664,17.182-10.062.227-1.592-1.428-3.329-2.6-4.108-1.234-.822-2.128-3-3.551-7.265a16.115,16.115,0,0,1-.727-4.075c-.067-.879-.12-1.573-.392-1.784a.919.919,0,0,0-.706-.062c-1.513.267-6.118,1.08-8.573,3.944C2153.307,4852.838,2147.422,4860.314,2135.465,4863.089Z" transform="translate(-2132.947 -4848.081)" fill="#263238"/>
        </g>
        <g id="Group_17199" data-name="Group 17199" transform="translate(5.334 2.534)">
          <g id="Group_17193" data-name="Group 17193" transform="translate(0 11.008)">
            <path id="Path_8185" data-name="Path 8185" d="M2161.4,4934.02a.37.37,0,0,1-.288-.138c-.492-.616.188-2.135,1.368-4.564a12.806,12.806,0,0,0,.889-2.046c0-.275-.192-1.219-1.968-4.01a3.857,3.857,0,0,1,.249-4.027.36.36,0,0,1,.592.41,3.2,3.2,0,0,0-.233,3.231c1.381,2.169,2.081,3.649,2.081,4.4a8.433,8.433,0,0,1-.961,2.359c-.534,1.1-1.646,3.391-1.447,3.81a.357.357,0,0,1-.281.579Z" transform="translate(-2160.91 -4919.079)" fill="#263238"/>
          </g>
          <g id="Group_17194" data-name="Group 17194" transform="translate(4.811 10.122)">
            <path id="Path_8186" data-name="Path 8186" d="M2188.186,4929.478a.351.351,0,0,1-.161-.038c-1.457-.728-.394-4.468.131-6.041.266-.8-.766-4.546-1.492-5.417-.883-1.059-.406-3.18-.386-3.27a.36.36,0,0,1,.7.162c-.118.516-.305,2,.237,2.647.832,1,1.991,5,1.622,6.105-.882,2.646-1.094,4.87-.492,5.17a.36.36,0,0,1-.161.682Z" transform="translate(-2186.132 -4914.433)" fill="#263238"/>
          </g>
          <g id="Group_17195" data-name="Group 17195" transform="translate(9.308 8.253)">
            <path id="Path_8187" data-name="Path 8187" d="M2212.563,4911.585a.36.36,0,0,1-.319-.192,38.11,38.11,0,0,1-2.519-6.3.36.36,0,1,1,.692-.2,37.271,37.271,0,0,0,2.464,6.16.361.361,0,0,1-.151.486A.356.356,0,0,1,2212.563,4911.585Z" transform="translate(-2209.711 -4904.636)" fill="#263238"/>
          </g>
          <g id="Group_17196" data-name="Group 17196" transform="translate(11.441 16.331)">
            <path id="Path_8188" data-name="Path 8188" d="M2222.234,4955.356a.36.36,0,0,1-.241-.092c-1.461-1.316-1.21-2.074-.711-3.584.177-.536.4-1.2.6-2.061.225-.944.32-1.474.358-1.77l-.032-.016a.36.36,0,0,1-.133-.49c.243-.424.52-.371.628-.328.349.139.437.428-.121,2.77-.211.888-.437,1.571-.618,2.12-.487,1.473-.6,1.823.509,2.824a.36.36,0,0,1-.241.627Z" transform="translate(-2220.892 -4946.987)" fill="#263238"/>
          </g>
          <g id="Group_17197" data-name="Group 17197" transform="translate(21.455)">
            <path id="Path_8189" data-name="Path 8189" d="M2275.464,4870.341a.373.373,0,0,1-.114-.019c-.946-.315-1.18-4.846-1.18-5.48a6.055,6.055,0,0,0-.724-2.924.36.36,0,0,1,.611-.381,6.658,6.658,0,0,1,.834,3.3,14.108,14.108,0,0,0,.741,4.82.36.36,0,0,1-.167.679Zm.114-.7h0Z" transform="translate(-2273.391 -4861.368)" fill="#263238"/>
          </g>
          <g id="Group_17198" data-name="Group 17198" transform="translate(24.413 9.966)">
            <path id="Path_8190" data-name="Path 8190" d="M2291.44,4916.36a.355.355,0,0,1-.209-.067,15.532,15.532,0,0,1-2.242-2.08.36.36,0,0,1,.542-.474,15.139,15.139,0,0,0,2.119,1.969.36.36,0,0,1-.209.652Z" transform="translate(-2288.9 -4913.616)" fill="#263238"/>
          </g>
        </g>
      </g>
      <g id="Group_17205" data-name="Group 17205" transform="translate(0 122.242)">
        <g id="Group_17201" data-name="Group 17201">
          <path id="Path_8191" data-name="Path 8191" d="M1847.85,5277.668s-2.024,2.8-2.336,4.36.312,6.7,1.09,6.229.467-3.114.934-4.049a4.656,4.656,0,0,0,.467-1.868s2.8,5.139,3.893,6.228,6.54,5.762,8.876,5.451,8.253-5.139,7.942-8.1-5.761-10.277-10.122-11.211l-2.647,1.557-5.606,1.246S1849.563,5276.889,1847.85,5277.668Z" transform="translate(-1845.077 -5274.349)" fill="#fff"/>
          <path id="Path_8192" data-name="Path 8192" d="M1859.038,5292.866c-2.71,0-8.006-4.672-8.9-5.569a38.3,38.3,0,0,1-3.439-5.382,4.781,4.781,0,0,1-.345.929,5.787,5.787,0,0,0-.278,1.666c-.094,1.113-.183,2.165-.793,2.53a.545.545,0,0,1-.611-.026c-.886-.624-1.292-5.205-1.017-6.581.323-1.616,2.312-4.383,2.4-4.5a.366.366,0,0,1,.143-.117,3.033,3.033,0,0,1,2.7-.21l5.408-1.2,2.6-1.528a.359.359,0,0,1,.258-.042c4.683,1,10.089,8.536,10.4,11.525.341,3.239-5.772,8.161-8.252,8.492A1.994,1.994,0,0,1,1859.038,5292.866Zm-12.542-12.413a.361.361,0,0,1,.316.187c.028.052,2.79,5.106,3.831,6.147,1.166,1.166,6.471,5.631,8.574,5.348,1.074-.144,3.078-1.389,4.765-2.962,1.918-1.789,2.99-3.562,2.866-4.741-.279-2.652-5.486-9.835-9.7-10.866l-2.524,1.484a.376.376,0,0,1-.1.041l-5.606,1.246a.36.36,0,0,1-.3-.07c-.02-.014-.637-.441-2.031.164a15.87,15.87,0,0,0-2.219,4.142c-.233,1.165.151,4.993.645,5.755a5.471,5.471,0,0,0,.353-1.88,5.928,5.928,0,0,1,.352-1.927,4.346,4.346,0,0,0,.429-1.708.36.36,0,0,1,.271-.348A.364.364,0,0,1,1846.5,5280.453Zm-1.412,5.972h0Z" transform="translate(-1843.566 -5272.823)" fill="#263238"/>
        </g>
        <g id="Group_17202" data-name="Group 17202" transform="translate(2.065 1.246)">
          <path id="Path_8193" data-name="Path 8193" d="M1861.13,5281.24s-3.893,0-4.516,1.713-.623,6.852,1.713,8.72,2.024-1.558,2.024-3.114A50.258,50.258,0,0,1,1861.13,5281.24Z" transform="translate(-1855.905 -5280.88)" fill="#fff"/>
          <path id="Path_8194" data-name="Path 8194" d="M1857.94,5291.051a2.313,2.313,0,0,1-1.353-.624c-2.479-1.983-2.486-7.311-1.826-9.124.3-.837,1.232-1.418,2.758-1.729a11.728,11.728,0,0,1,2.1-.22.359.359,0,0,1,.346.458,50.408,50.408,0,0,0-.765,7.22c0,.151,0,.32.007.5.023,1.331.052,2.987-.828,3.42A.985.985,0,0,1,1857.94,5291.051Zm1.222-10.964c-1.206.068-3.34.4-3.725,1.461-.588,1.619-.592,6.563,1.6,8.316.463.371.835.532,1.02.44.47-.23.44-1.939.426-2.76,0-.185-.006-.358-.006-.514A56.336,56.336,0,0,1,1859.162,5280.087Z" transform="translate(-1854.391 -5279.354)" fill="#263238"/>
        </g>
        <g id="Group_17203" data-name="Group 17203" transform="translate(6.289 0.018)">
          <path id="Path_8195" data-name="Path 8195" d="M1883.265,5275.1s-3.114-1.09-4.2.935-.623,8.1.156,9.188,2.336.778,2.336-1.4a33.8,33.8,0,0,1,.623-5.294Z" transform="translate(-1878.059 -5274.444)" fill="#fff"/>
          <path id="Path_8196" data-name="Path 8196" d="M1878.747,5284.662a1.69,1.69,0,0,1-1.349-.761c-.881-1.234-1.317-7.456-.18-9.567a2.9,2.9,0,0,1,2.835-1.415,6.454,6.454,0,0,1,1.8.312.36.36,0,0,1,.224.449l-1.084,3.406a33.33,33.33,0,0,0-.612,5.205c0,1.2-.458,2.061-1.225,2.307A1.363,1.363,0,0,1,1878.747,5284.662Zm1.2-11.023a2.215,2.215,0,0,0-2.1,1.035c-1.072,1.991-.533,7.877.131,8.809a.882.882,0,0,0,.958.429c.35-.112.725-.6.725-1.622a33.688,33.688,0,0,1,.63-5.366c0-.013.006-.026.01-.039l.978-3.072A5.715,5.715,0,0,0,1879.948,5273.639Z" transform="translate(-1876.535 -5272.917)" fill="#263238"/>
        </g>
        <g id="Group_17204" data-name="Group 17204" transform="translate(10.158 0.036)">
          <path id="Path_8197" data-name="Path 8197" d="M1903.731,5275.937s-2.958-1.712-4.048-.778-1.557,9.031.156,10.433,2.336-1.4,2.492-2.18,1.09-5.917,1.09-5.917" transform="translate(-1898.346 -5274.523)" fill="#fff"/>
          <path id="Path_8198" data-name="Path 8198" d="M1899.19,5284.826a1.777,1.777,0,0,1-1.107-.469c-1.058-.866-1.245-3.525-1.263-5.034-.027-2.4.349-5.306,1.1-5.95,1.248-1.071,4.138.551,4.463.74a.36.36,0,1,1-.361.623c-1.059-.612-2.982-1.375-3.634-.816-.426.365-.88,2.75-.849,5.4.026,2.284.409,4,1,4.485.321.263.595.355.814.277s.735-.444,1.1-2.25c.153-.767,1.08-5.859,1.089-5.911a.36.36,0,0,1,.708.129c-.038.209-.937,5.15-1.091,5.923-.318,1.592-.843,2.529-1.559,2.786A1.189,1.189,0,0,1,1899.19,5284.826Z" transform="translate(-1896.819 -5273.01)" fill="#263238"/>
        </g>
      </g>
      <g id="Group_17210" data-name="Group 17210" transform="translate(5.087 127.714)">
        <g id="Group_17206" data-name="Group 17206" transform="translate(1.995 1.227)">
          <path id="Path_8199" data-name="Path 8199" d="M1898.84,5309.972a34.535,34.535,0,0,1-7.436,1.771c-4.249.531-8.963.46-8.819,1.823s.852,2.071,5.986,1.894,10.622-.177,12.747-2.125S1900.787,5309.264,1898.84,5309.972Z" transform="translate(-1882.222 -5309.473)" fill="#fff"/>
          <path id="Path_8200" data-name="Path 8200" d="M1885.54,5314.322c-3.529,0-4.663-.582-4.839-2.245a.894.894,0,0,1,.208-.675c.619-.751,2.553-.953,5.657-1.22,1.072-.092,2.181-.188,3.268-.324a34.515,34.515,0,0,0,7.35-1.749l.007,0a3,3,0,0,1,3.451,1.17,2.146,2.146,0,0,1-.606,2.8c-2.045,1.875-6.725,2.021-11.68,2.177q-.651.021-1.3.042Q1886.234,5314.321,1885.54,5314.322Zm11.9-5.54a35.283,35.283,0,0,1-7.517,1.79c-1.1.138-2.216.233-3.295.327-2.313.2-4.7.405-5.163.961a.175.175,0,0,0-.047.142c.112,1.063.564,1.748,5.616,1.572l1.3-.042c4.606-.145,9.369-.294,11.216-1.988a1.442,1.442,0,0,0,.477-1.893A2.308,2.308,0,0,0,1897.44,5308.782Z" transform="translate(-1880.696 -5307.945)" fill="#263238"/>
        </g>
        <g id="Group_17207" data-name="Group 17207">
          <path id="Path_8201" data-name="Path 8201" d="M1961.173,5307.277s-20.554,4.359-29.742,5.605a79.765,79.765,0,0,1-19.464-.312s-13.7-6.54-16.039-7.63-4.36-2.024-4.983-1.246-10.433,6.385-11.99,7.786-5.917,7.786-6.54,9.031-.156,1.713.779,1.4a14.068,14.068,0,0,0,3.737-2.491c1.245-1.09,4.671-4.827,4.671-4.827l3.114-2.024a55.107,55.107,0,0,0-4.516,5.917c-.779,1.557-4.2,5.606-3.893,6.073s2.18.312,3.737-.779a22.659,22.659,0,0,0,4.36-4.671c.311-.623,4.516-3.894,4.516-3.894s-2.336,4.517-3.27,5.918-2.18,3.271-1.4,3.426,2.959-.935,4.049-2.024a30.487,30.487,0,0,0,2.958-4.36l2.8-2.646s-1.246,3.737-2.491,5.139-3.426,3.27-2.18,3.581,3.737-.934,4.671-2.024,3.114-4.049,3.114-4.049,3.529,2.9,5.5,2.928,7.578.031,7.578.031,19.13,4.933,35.48,6.179,31.167-.573,31.79-1.507,1.557-19,1.557-19Z" transform="translate(-1871.77 -5303.046)" fill="#fff"/>
          <path id="Path_8202" data-name="Path 8202" d="M1955.528,5326.56c-3.389,0-7.248-.109-11.357-.422-15.814-1.205-34.452-5.911-35.5-6.178-.538,0-5.68,0-7.539-.031-1.751-.027-4.519-2.065-5.428-2.774-.581.785-2.143,2.876-2.909,3.77-.947,1.1-3.578,2.5-5.032,2.139a.769.769,0,0,1-.616-.526c-.189-.655.559-1.479,1.795-2.768.282-.295.574-.6.82-.875a14.082,14.082,0,0,0,1.889-3.582l-1.646,1.554a29.44,29.44,0,0,1-2.99,4.389c-1.091,1.091-3.407,2.316-4.374,2.123a.631.631,0,0,1-.478-.38c-.267-.644.481-1.842,1.651-3.6.573-.86,1.7-2.942,2.463-4.384a25.279,25.279,0,0,0-3.088,2.721,22.751,22.751,0,0,1-4.475,4.8,5.38,5.38,0,0,1-3.587,1.054.958.958,0,0,1-.656-.371c-.287-.431.144-1.113,1.967-3.62a27.374,27.374,0,0,0,1.9-2.814,32.581,32.581,0,0,1,3.033-4.154l-1.075.7c-.367.4-3.472,3.773-4.669,4.821a14.531,14.531,0,0,1-3.861,2.562c-.79.263-1.17,0-1.326-.18-.316-.364-.278-.944.112-1.724.65-1.3,5.008-7.686,6.622-9.138a77.224,77.224,0,0,1,6.636-4.312c2.25-1.383,5.05-3.1,5.313-3.432.806-1.007,2.84-.057,5.416,1.145,2.24,1.045,15.089,7.177,15.992,7.608a79.768,79.768,0,0,0,19.31.3c9.069-1.229,29.51-5.558,29.716-5.6a.365.365,0,0,1,.065-.007l17.908-.467a.359.359,0,0,1,.369.378c-.157,3.033-.972,18.21-1.617,19.179-.679,1.018-9.292,1.66-10.271,1.73C1963.705,5326.367,1960.033,5326.56,1955.528,5326.56Zm-59.889-10.278a.364.364,0,0,1,.228.081c.955.784,3.765,2.823,5.279,2.847,1.948.03,7.517.03,7.573.03a.35.35,0,0,1,.09.012c.191.05,19.287,4.939,35.417,6.168,16.82,1.281,30.568-.657,31.469-1.361.415-.884,1.112-11.577,1.471-18.415l-17.486.456c-.931.2-20.81,4.394-29.736,5.6-9.133,1.237-19.464-.3-19.567-.312a.364.364,0,0,1-.1-.031c-.137-.065-13.728-6.552-16.036-7.629-1.826-.853-4.1-1.913-4.55-1.348a46.213,46.213,0,0,1-5.5,3.6c-2.7,1.656-5.754,3.535-6.531,4.234-1.554,1.4-5.871,7.748-6.459,8.925-.306.611-.256.879-.212.931s.224.079.555-.032a13.718,13.718,0,0,0,3.614-2.42c1.217-1.064,4.609-4.762,4.643-4.8a.384.384,0,0,1,.069-.058l3.114-2.024a.36.36,0,0,1,.469.536,55.317,55.317,0,0,0-4.467,5.843,27.4,27.4,0,0,1-1.965,2.917,21.752,21.752,0,0,0-1.888,2.834,4.4,4.4,0,0,0,3.169-.912,22.852,22.852,0,0,0,4.245-4.538c.323-.646,3.615-3.237,4.617-4.016a.36.36,0,0,1,.541.45c-.1.185-2.356,4.549-3.29,5.951a11.4,11.4,0,0,0-1.59,2.879,7.2,7.2,0,0,0,3.684-1.932,30.419,30.419,0,0,0,2.9-4.284.347.347,0,0,1,.065-.083l2.8-2.647a.36.36,0,0,1,.589.376c-.052.155-1.283,3.823-2.564,5.264-.255.286-.551.6-.838.9-.58.605-1.655,1.727-1.624,2.06a.361.361,0,0,0,.1.038c1.062.264,3.44-.893,4.311-1.909.915-1.067,3.076-4,3.1-4.028a.361.361,0,0,1,.245-.143Zm80.068,7.767Z" transform="translate(-1870.235 -5301.511)" fill="#263238"/>
        </g>
        <g id="Group_17208" data-name="Group 17208" transform="translate(16.791 7.764)">
          <line id="Line_10" data-name="Line 10" y1="4.049" x2="4.049" transform="translate(0.36 0.36)" fill="#fff"/>
          <path id="Path_8203" data-name="Path 8203" d="M1958.627,5346.981a.36.36,0,0,1-.255-.614l4.049-4.047a.36.36,0,0,1,.509.508l-4.049,4.048A.358.358,0,0,1,1958.627,5346.981Z" transform="translate(-1958.267 -5342.214)" fill="#263238"/>
        </g>
        <g id="Group_17209" data-name="Group 17209" transform="translate(12.587 4.494)">
          <line id="Line_11" data-name="Line 11" y1="4.671" x2="4.516" transform="translate(0.36 0.36)" fill="#fff"/>
          <path id="Path_8204" data-name="Path 8204" d="M1936.585,5330.462a.36.36,0,0,1-.259-.61l4.516-4.671a.36.36,0,0,1,.517.5l-4.516,4.671A.36.36,0,0,1,1936.585,5330.462Z" transform="translate(-1936.225 -5325.07)" fill="#263238"/>
        </g>
      </g>
      <g id="Group_17214" data-name="Group 17214" transform="translate(84.137 65.799)">
        <g id="Group_17211" data-name="Group 17211" transform="translate(26.928 64.006)">
          <path id="Path_8205" data-name="Path 8205" d="M2429.074,5321.1l-1.338-6.021s3.847-1.5,5.185-.167S2433.59,5318.6,2429.074,5321.1Z" transform="translate(-2427.376 -5314.001)" fill="#263238"/>
          <path id="Path_8206" data-name="Path 8206" d="M2427.546,5319.935a.359.359,0,0,1-.352-.282l-1.338-6.021a.36.36,0,0,1,.22-.413,13.115,13.115,0,0,1,2.156-.6c1.622-.3,2.771-.126,3.414.518a2.314,2.314,0,0,1,.694,2.018c-.216,1.542-1.814,3.18-4.621,4.739A.353.353,0,0,1,2427.546,5319.935Zm-.918-6.152,1.164,5.238c3.1-1.811,3.737-3.254,3.837-3.97a1.6,1.6,0,0,0-.49-1.41C2430.258,5312.761,2427.808,5313.371,2426.628,5313.783Z" transform="translate(-2425.848 -5312.472)" fill="#263238"/>
        </g>
        <g id="Group_17212" data-name="Group 17212">
          <path id="Path_8207" data-name="Path 8207" d="M2298.6,4991l-12.042,54.191s32.949-.168,32.28.669-5.018,3.177-4.014,3.68,13.715-1.84,17.227-2.677a29.018,29.018,0,0,0,6.523-2.509s-8.7-31.611-16.726-45.326-11.373-18.565-15.053-20.238" transform="translate(-2286.199 -4978.434)" fill="#92e3a9"/>
          <path id="Path_8208" data-name="Path 8208" d="M2313.885,5048.43a1.98,1.98,0,0,1-.748-.092.583.583,0,0,1-.347-.489c-.042-.59.8-1.24,2.6-2.484.452-.313.914-.632,1.242-.89-3.2-.428-20.167-.506-31.594-.449h0a.359.359,0,0,1-.351-.437l12.042-54.191a.36.36,0,0,1,.7.156l-11.945,53.751c1.8-.008,8.7-.031,15.553.02,16.271.119,16.443.472,16.608.815a.393.393,0,0,1-.049.42,10.656,10.656,0,0,1-1.8,1.4,13.53,13.53,0,0,0-2.236,1.76c1.523.239,12.809-1.758,16.882-2.728a28.9,28.9,0,0,0,6.182-2.34c-.881-3.152-9.1-32.125-16.612-44.962-7.842-13.4-11.271-18.447-14.891-20.092a.36.36,0,0,1,.3-.656c3.827,1.739,7.155,6.615,15.215,20.384,7.96,13.6,16.675,45.1,16.762,45.413a.36.36,0,0,1-.172.41,29.1,29.1,0,0,1-6.614,2.545C2328.228,5046.257,2317.049,5048.43,2313.885,5048.43Z" transform="translate(-2284.673 -4976.907)" fill="#263238"/>
        </g>
        <g id="Group_17213" data-name="Group 17213" transform="translate(26.426 19.234)">
          <line id="Line_12" data-name="Line 12" x1="5.854" y1="47.835" transform="translate(0.36 0.36)" fill="#fff"/>
          <path id="Path_8209" data-name="Path 8209" d="M2429.431,5126.3a.36.36,0,0,1-.357-.316l-5.854-47.835a.36.36,0,1,1,.715-.088l5.854,47.835a.36.36,0,0,1-.314.4Z" transform="translate(-2423.218 -5077.746)" fill="#263238"/>
        </g>
      </g>
      <g id="Group_17215" data-name="Group 17215" transform="translate(20.525 51.167)">
        <path id="Path_8210" data-name="Path 8210" d="M1984.333,4919.006a92.607,92.607,0,0,0-3.166,13.636c-.609,5.479,1.583,12.906-1.339,20.333s-7.427,9.01-11.932,8.036a6.629,6.629,0,0,1-5.113-8.036c.852-2.436,2.922-3.653,3.166-2.922s-1.461,1.218-.122,3.165,3.9-.243,3.044-3.652-5.6-1.218-10.836-4.87-6.453-9.739-3.287-17.9,9.5-14.123,10.349-17.9a15.269,15.269,0,0,0,0-6.818" transform="translate(-1952.664 -4901.722)" fill="#263238"/>
        <path id="Path_8211" data-name="Path 8211" d="M1968.757,4960.109a11.469,11.469,0,0,1-2.427-.273,7,7,0,0,1-4.7-3.45,6.528,6.528,0,0,1-.679-5.056c.494-1.412,1.94-3.374,3.176-3.374h.009a.667.667,0,0,1,.662.457,1.174,1.174,0,0,1-.279,1.051c-.308.466-.628.949.113,2.025a1.016,1.016,0,0,0,1.315.482c.763-.344,1.6-1.764,1.083-3.844-.37-1.479-1.535-1.744-3.734-2.118a15.8,15.8,0,0,1-6.959-2.544c-5.42-3.781-6.6-10.117-3.417-18.323a54.516,54.516,0,0,1,6.627-11.446c1.789-2.549,3.333-4.75,3.706-6.4a15,15,0,0,0,0-6.642.36.36,0,0,1,.693-.194,15.5,15.5,0,0,1,0,6.995c-.4,1.79-1.911,3.938-3.819,6.656a53.98,53.98,0,0,0-6.546,11.293c-1.542,3.975-2.043,7.488-1.488,10.441a10.793,10.793,0,0,0,4.646,7.031,15.183,15.183,0,0,0,6.669,2.424c2.129.363,3.81.65,4.311,2.654.584,2.338-.329,4.153-1.486,4.675a1.732,1.732,0,0,1-2.2-.731,2.151,2.151,0,0,1-.12-2.83,1,1,0,0,0,.2-.394h-.006a4.385,4.385,0,0,0-2.483,2.895,5.786,5.786,0,0,0,.627,4.466,6.208,6.208,0,0,0,4.223,3.1c5.164,1.116,9.041-1.513,11.521-7.815,1.887-4.795,1.607-9.634,1.359-13.9a39.112,39.112,0,0,1-.043-6.337,93.607,93.607,0,0,1,3.18-13.7.36.36,0,1,1,.687.216,92.76,92.76,0,0,0-3.151,13.568,38.6,38.6,0,0,0,.046,6.216c.251,4.343.536,9.267-1.408,14.208C1976.442,4957.25,1973.113,4960.109,1968.757,4960.109Z" transform="translate(-1951.173 -4900.197)" fill="#263238"/>
      </g>
    </g>
    <g id="Group_17253" data-name="Group 17253" transform="translate(1692.181 4056.919)">
      <g id="Group_17252" data-name="Group 17252" transform="translate(0 0)">
        <g id="Group_17222" data-name="Group 17222">
          <g id="Group_17218" data-name="Group 17218" transform="translate(1.088 1.328)">
            <g id="Group_17217" data-name="Group 17217">
              <path id="Path_8212" data-name="Path 8212" d="M2615.8,4604.974a30.238,30.238,0,0,1-5.41-11.675l-13.375.037v-56.852s2.082-30.784,22.861-43.9c0,0,8.809-6.8,19.651-7.925,0,0,.9-3.614,3.162-3.614s2.71,2.71,2.71,2.71l13.552,3.614-2.936,6.776,35.462,30.492v2.429s2.936,4.8,2.936,7.736-4.065,8.357-8.808,9.486-13.327-3.614-13.327-3.614l-10.616-1.129s-2.937,1.581-9.261,2.259-8.357,0-8.357,0,16.262,15.811,20.1,23.49,4.517,19.2,2.484,25.749a99.185,99.185,0,0,1-5.9,13.934Z" transform="translate(-2597.017 -4481.042)" fill="#91e986"/>
            </g>
          </g>
          <g id="Group_17221" data-name="Group 17221">
            <g id="Group_17220" data-name="Group 17220">
              <g id="Group_17219" data-name="Group 17219">
                <path id="Path_8213" data-name="Path 8213" d="M2611.186,4599.339a18.6,18.6,0,0,1,3.131-.215l8.86-.217,32.941-.413-.748.452a92.776,92.776,0,0,0,5.785-14.025c1.36-5.031,1.2-10.908.078-16.7a31.379,31.379,0,0,0-2.938-8.5,52.938,52.938,0,0,0-5.614-7.692c-4.257-5.02-9.041-10.01-14.106-14.978l-2.887-2.832,4.131.784a30.861,30.861,0,0,0,8.2-.126,29.238,29.238,0,0,0,8.427-2.094l.395-.183.349.036,10.617,1.105.246.025.249.13a37.333,37.333,0,0,0,7.808,3.132c2.79.781,5.192.637,7.462-1a12.062,12.062,0,0,0,4.8-6.271c.342-2.052-1.281-5.2-2.663-7.623l-.2-.349v-.36c0-.758,0-1.593,0-2.428l.473,1.03-18.449-15.852-17.012-14.639-.761-.655.4-.919,2.942-6.773.894,1.848-13.547-3.63-.787-.21-.189-.863c-.249-1.137-.946-1.77-1.565-1.57-.542.038-1.416,1.414-1.7,2.575l-.22.892-.927.1a41.586,41.586,0,0,0-19.006,7.62l-.086.061-.013.008c-9.576,6.068-15.276,16.062-18.628,25.707a79.038,79.038,0,0,0-3.522,14.58c-.6,4.664-.208,9.592-.364,14.1-.148,18.136-.274,33.474-.371,45.283l-.66-.659,13.375.161.365,0,.085.349c2.042,8.363,5.209,11.677,4.961,11.783a9.071,9.071,0,0,1-2.017-2.554,32.056,32.056,0,0,1-3.842-9.011l.449.353-13.373.233-.656.011-.006-.671c-.1-11.824-.222-27.18-.371-45.338q-.019-3.433-.038-6.995a45.532,45.532,0,0,1,.271-7.349,80.642,80.642,0,0,1,3.494-15.043c3.381-9.959,9.224-20.521,19.482-27.112l-.1.069a43.918,43.918,0,0,1,20.293-8.229l-1.146.995c.579-1.645,1.079-3.585,3.621-4.515a3.679,3.679,0,0,1,3.4.909,5.239,5.239,0,0,1,1.457,2.8l-.975-1.072,13.554,3.6,1.52.4-.625,1.445-2.93,6.777-.361-1.572,17.023,14.627,18.437,15.866.474.408V4519c0,.835,0,1.669,0,2.428l-.2-.707a31.529,31.529,0,0,1,2.164,4.354,9.329,9.329,0,0,1,.821,5.246,14.462,14.462,0,0,1-5.95,7.929,10.938,10.938,0,0,1-4.741,1.851,14.219,14.219,0,0,1-4.864-.512,39.654,39.654,0,0,1-8.418-3.409l.492.155-10.612-1.153.741-.146a30.84,30.84,0,0,1-9.353,2.334c-3.123.27-5.881.642-9.259-.037l1.244-2.046c5.1,5.069,9.862,10.106,14.164,15.261a54.566,54.566,0,0,1,5.8,8.126,33.367,33.367,0,0,1,3.065,9.13c1.106,6.124,1.233,12.144-.324,17.667a92.41,92.41,0,0,1-6.127,14.26l-.237.459-.513-.006-33.227-.413-8.757-.217A14.685,14.685,0,0,1,2611.186,4599.339Z" transform="translate(-2591.313 -4474.079)" fill="#263238"/>
              </g>
            </g>
          </g>
        </g>
        <g id="Group_17228" data-name="Group 17228" transform="translate(10.367 12.321)">
          <g id="Group_17224" data-name="Group 17224" transform="translate(1.117 0.78)">
            <g id="Group_17223" data-name="Group 17223">
              <path id="Path_8214" data-name="Path 8214" d="M2653.52,4643.286c-3.173-18.961-2-38.359-.395-57.518.915-10.934,2.242-22.562,9.173-31.067a33.538,33.538,0,0,1,17.331-10.762c6.673-1.8,14.065-1.354,20.5.153" transform="translate(-2651.52 -4542.765)" fill="#91e986"/>
            </g>
          </g>
          <g id="Group_17227" data-name="Group 17227">
            <g id="Group_17226" data-name="Group 17226">
              <g id="Group_17225" data-name="Group 17225">
                <path id="Path_8215" data-name="Path 8215" d="M2695.384,4540.783c-.046.2-1.873-.118-5.17-.4a43.908,43.908,0,0,0-13.788.865,33.923,33.923,0,0,0-17.2,10.129c-5.036,5.716-7.542,14.086-8.64,22.97-1.919,18.007-2.951,34.509-2.708,46.366.171,11.888,1.345,19.191.9,19.262-.167.028-.685-1.76-1.27-5.065a118.686,118.686,0,0,1-1.562-14.126c-.738-12.022-.017-28.557,1.928-46.792,1.119-9.083,3.823-18.1,9.464-24.285A34.846,34.846,0,0,1,2676,4539.36a39.1,39.1,0,0,1,14.347-.033C2693.678,4539.944,2695.425,4540.619,2695.384,4540.783Z" transform="translate(-2645.662 -4538.676)" fill="#263238"/>
              </g>
            </g>
          </g>
        </g>
        <g id="Group_17231" data-name="Group 17231" transform="translate(33.042 33.615)">
          <g id="Group_17230" data-name="Group 17230">
            <g id="Group_17229" data-name="Group 17229">
              <path id="Path_8216" data-name="Path 8216" d="M2778.719,4675.421c.135.287-1.834,1.386-5.1.547-3.2-.689-7.215-4.1-8.428-9.015a21.364,21.364,0,0,1,.589-12.191c.976-2.921,1.932-4.552,2.276-4.445.377.116.068,1.984-.393,4.894-.423,2.893-.971,6.926.164,11.006a11.786,11.786,0,0,0,6.428,7.923C2776.762,4675.277,2778.644,4675,2778.719,4675.421Z" transform="translate(-2764.542 -4650.313)" fill="#263238"/>
            </g>
          </g>
        </g>
        <g id="Group_17233" data-name="Group 17233" transform="translate(4.269 125.26)">
          <g id="Group_17232" data-name="Group 17232">
            <path id="Path_8217" data-name="Path 8217" d="M2689.129,5156.338a4.219,4.219,0,0,0-3.563-1.908v-16.81l-11.335-6.837h-45.638l-11.335,6.837v16.81a4.218,4.218,0,0,0-3.563,1.908Z" transform="translate(-2613.695 -5130.783)" fill="#91e986"/>
          </g>
        </g>
        <g id="Group_17237" data-name="Group 17237" transform="translate(6.816 148.582)">
          <g id="Group_17236" data-name="Group 17236">
            <g id="Group_17234" data-name="Group 17234" transform="translate(52.853 0.234)">
              <path id="Path_8218" data-name="Path 8218" d="M2915.967,5256.28c3.324-.89,5.185-1.641,5.125-1.876-.121-.552-6.848.876-16.951,1.876Z" transform="translate(-2904.141 -5254.28)" fill="#263238"/>
            </g>
            <g id="Group_17235" data-name="Group 17235">
              <path id="Path_8219" data-name="Path 8219" d="M2632.911,5255.288h12.266c-10.758-1.074-18-2.687-18.13-2.114C2626.98,5253.425,2629.123,5254.287,2632.911,5255.288Z" transform="translate(-2627.045 -5253.054)" fill="#263238"/>
            </g>
          </g>
        </g>
        <g id="Group_17240" data-name="Group 17240" transform="translate(7.831 132.052)">
          <g id="Group_17239" data-name="Group 17239">
            <g id="Group_17238" data-name="Group 17238">
              <path id="Path_8220" data-name="Path 8220" d="M2700.677,5166.748c.086.331-3.571,1.69-9.725,3.02a118.349,118.349,0,0,1-48.88-.169c-6.145-1.373-9.792-2.756-9.7-3.087.193-.838,15.223,2.991,34.146,2.985C2685.429,5169.634,2700.49,5165.911,2700.677,5166.748Z" transform="translate(-2632.367 -5166.391)" fill="#263238"/>
            </g>
          </g>
        </g>
        <g id="Group_17243" data-name="Group 17243" transform="translate(19.282 125.269)">
          <g id="Group_17242" data-name="Group 17242">
            <g id="Group_17241" data-name="Group 17241">
              <path id="Path_8221" data-name="Path 8221" d="M2738.414,5130.951c.335.6-9.657,5.31-23,5.261-13.343.074-23.342-4.62-23.008-5.216.258-.795,10.249,2.567,23.005,2.479C2728.167,5133.538,2738.154,5130.157,2738.414,5130.951Z" transform="translate(-2692.403 -5130.831)" fill="#263238"/>
            </g>
          </g>
        </g>
        <g id="Group_17245" data-name="Group 17245" transform="translate(42.837 8.877)">
          <g id="Group_17244" data-name="Group 17244">
            <path id="Path_8222" data-name="Path 8222" d="M2815.9,4521.972l.855,7.324,7.906-1.24s-.613-5.674-1-7.437Z" transform="translate(-2815.896 -4520.618)" fill="#91e986"/>
          </g>
        </g>
        <g id="Group_17248" data-name="Group 17248" transform="translate(41.464 3.242)">
          <g id="Group_17247" data-name="Group 17247">
            <g id="Group_17246" data-name="Group 17246">
              <path id="Path_8223" data-name="Path 8223" d="M2813.45,4511.045c-.534.489-4.091-3.417-4.66-9.618-.622-6.2,2.126-10.709,2.743-10.33.735.3-.59,4.677-.019,10.067C2811.98,4506.565,2814.113,4510.607,2813.45,4511.045Z" transform="translate(-2808.698 -4491.076)" fill="#263238"/>
            </g>
          </g>
        </g>
        <g id="Group_17251" data-name="Group 17251" transform="translate(48.639 2.534)">
          <g id="Group_17250" data-name="Group 17250">
            <g id="Group_17249" data-name="Group 17249">
              <path id="Path_8224" data-name="Path 8224" d="M2849.443,4504.737c-.783.011-1.365-3.892-2.114-8.569-.731-4.687-1.442-8.538-.7-8.791.687-.247,2.627,3.4,3.406,8.359S2850.17,4504.738,2849.443,4504.737Z" transform="translate(-2846.314 -4487.365)" fill="#263238"/>
            </g>
          </g>
        </g>
      </g>
    </g>
  </g>
</svg>
