<svg xmlns="http://www.w3.org/2000/svg" width="57.688" height="57.688" viewBox="0 0 57.688 57.688">
  <g id="Group_18024" data-name="Group 18024" transform="translate(1352.239 -3935.965)">
    <circle id="Ellipse_216" data-name="Ellipse 216" cx="28.844" cy="28.844" r="28.844" transform="translate(-1352.239 3935.965)" fill="#edf2f6"/>
    <path id="Path_8829" data-name="Path 8829" d="M135.128,688.953c2.258-3.536,3.007-7.44,3.41-11.515a6.6,6.6,0,0,0,4.416-.019c.45,4.074,1.109,8.022,3.481,11.534Z" transform="translate(-1464.154 3289.635)" fill="#4dc47d"/>
    <path id="Path_8830" data-name="Path 8830" d="M142.115,654.938a4.895,4.895,0,0,1-4.942-4.872,4.945,4.945,0,1,1,4.942,4.872Z" transform="translate(-1465.516 3311.178)" fill="#4dc47d"/>
    <path id="Path_8832" data-name="Path 8832" d="M133.861,716.106c2.395,0,4.789-.007,7.184,0a1.778,1.778,0,0,1,1.758,1.124,1.7,1.7,0,0,1-.592,2.1,2.265,2.265,0,0,1-1.25.407q-7,.042-14,0a2.764,2.764,0,0,1-1.488-.424,1.765,1.765,0,0,1,1.138-3.178q3.1-.022,6.191-.031c.351,0,.7,0,1.053,0Z" transform="translate(-1457.249 3263.88)" fill="#4dc47d"/>
  </g>
</svg>
