<svg id="Component_52_1" data-name="Component 52 – 1" xmlns="http://www.w3.org/2000/svg" width="41.228" height="41.228" viewBox="0 0 41.228 41.228">
  <g id="Group_18098" data-name="Group 18098">
    <g id="Group_17876" data-name="Group 17876" transform="translate(0 0)">
      <circle id="Ellipse_177" data-name="Ellipse 177" cx="20.614" cy="20.614" r="20.614" fill="#ecf2f6"/>
    </g>
  </g>
  <path id="Icon_awesome-print" data-name="Icon awesome-print" d="M18.952,8.122V3.268a1.354,1.354,0,0,0-.4-.957L16.641.4a1.354,1.354,0,0,0-.957-.4H4.061A1.354,1.354,0,0,0,2.707,1.354V8.122A2.707,2.707,0,0,0,0,10.83v4.738a.677.677,0,0,0,.677.677H2.707v4.061a1.354,1.354,0,0,0,1.354,1.354H17.6a1.354,1.354,0,0,0,1.354-1.354V16.244h2.031a.677.677,0,0,0,.677-.677V10.83A2.707,2.707,0,0,0,18.952,8.122Zm-2.707,10.83H5.415V14.891h10.83Zm0-9.476H5.415V2.707h8.122V4.738a.677.677,0,0,0,.677.677h2.031Zm2.031,3.046a1.015,1.015,0,1,1,1.015-1.015A1.016,1.016,0,0,1,18.275,12.522Z" transform="translate(9.216 9.785)" fill="#4f5359"/>
</svg>
