<svg xmlns="http://www.w3.org/2000/svg" width="508.267" height="525.326" viewBox="0 0 508.267 525.326">
  <g id="Group_17029" data-name="Group 17029" transform="translate(-80.59 3113.616) rotate(180)">
    <g id="Group_15317" data-name="Group 15317" transform="translate(-143.776 2588.29)">
      <rect id="Rectangle_10944" data-name="Rectangle 10944" width="21.062" height="21.062" transform="translate(21.062 63.186) rotate(-180)" fill="#e2e9f0"/>
      <rect id="Rectangle_10945" data-name="Rectangle 10945" width="21.062" height="21.062" transform="translate(63.186 63.186) rotate(-180)" fill="#e2e9f0"/>
      <rect id="Rectangle_10946" data-name="Rectangle 10946" width="21.062" height="21.062" transform="translate(21.062 21.062) rotate(-180)" fill="#e2e9f0"/>
      <rect id="Rectangle_10947" data-name="Rectangle 10947" width="21.062" height="21.062" transform="translate(63.186 21.062) rotate(-180)" fill="#e2e9f0"/>
    </g>
    <g id="Group_15318" data-name="Group 15318" transform="translate(-206.961 2609.352)">
      <rect id="Rectangle_10948" data-name="Rectangle 10948" width="21.062" height="21.062" transform="translate(42.124 42.124) rotate(-180)" fill="#e2e9f0"/>
      <rect id="Rectangle_10949" data-name="Rectangle 10949" width="21.062" height="21.062" transform="translate(21.062 63.186) rotate(-180)" fill="#e2e9f0"/>
      <rect id="Rectangle_10950" data-name="Rectangle 10950" width="21.062" height="21.062" transform="translate(21.062 21.062) rotate(-180)" fill="#e2e9f0"/>
      <rect id="Rectangle_10951" data-name="Rectangle 10951" width="21.062" height="21.062" transform="translate(63.186 21.062) rotate(-180)" fill="#e2e9f0"/>
    </g>
    <g id="Group_15319" data-name="Group 15319" transform="translate(-292.599 2651.476)">
      <rect id="Rectangle_10952" data-name="Rectangle 10952" width="21.062" height="21.062" transform="translate(21.062 21.062) rotate(-180)" fill="#e2e9f0"/>
    </g>
    <g id="Group_15320" data-name="Group 15320" transform="translate(-461.095 2651.476)">
      <rect id="Rectangle_10953" data-name="Rectangle 10953" width="21.062" height="21.062" transform="translate(21.062 21.062) rotate(-180)" fill="#e2e9f0"/>
      <rect id="Rectangle_10954" data-name="Rectangle 10954" width="21.062" height="21.062" transform="translate(63.186 21.062) rotate(-180)" fill="#e2e9f0"/>
    </g>
    <g id="Group_15321" data-name="Group 15321" transform="translate(-525.671 2588.29)">
      <rect id="Rectangle_10955" data-name="Rectangle 10955" width="21.062" height="21.062" transform="translate(42.124 42.124) rotate(-180)" fill="#e2e9f0"/>
      <rect id="Rectangle_10956" data-name="Rectangle 10956" width="21.062" height="21.062" transform="translate(21.062 63.186) rotate(-180)" fill="#e2e9f0"/>
      <rect id="Rectangle_10957" data-name="Rectangle 10957" width="21.062" height="21.062" transform="translate(63.186 63.186) rotate(-180)" fill="#e2e9f0"/>
      <rect id="Rectangle_10958" data-name="Rectangle 10958" width="21.062" height="21.062" transform="translate(21.062 21.062) rotate(-180)" fill="#e2e9f0"/>
    </g>
    <g id="Group_15322" data-name="Group 15322" transform="translate(-588.856 2609.352)">
      <rect id="Rectangle_10959" data-name="Rectangle 10959" width="21.062" height="21.062" transform="translate(42.124 42.124) rotate(-180)" fill="#e2e9f0"/>
      <rect id="Rectangle_10960" data-name="Rectangle 10960" width="21.062" height="21.062" transform="translate(21.062 63.186) rotate(-180)" fill="#e2e9f0"/>
      <rect id="Rectangle_10961" data-name="Rectangle 10961" width="21.062" height="21.062" transform="translate(63.186 63.186) rotate(-180)" fill="#e2e9f0"/>
      <rect id="Rectangle_10962" data-name="Rectangle 10962" width="21.062" height="21.062" transform="translate(21.062 21.062) rotate(-180)" fill="#e2e9f0"/>
      <rect id="Rectangle_10963" data-name="Rectangle 10963" width="21.062" height="21.062" transform="translate(63.186 21.062) rotate(-180)" fill="#e2e9f0"/>
    </g>
    <g id="Group_15323" data-name="Group 15323" transform="translate(-122.714 2651.476)">
      <rect id="Rectangle_10964" data-name="Rectangle 10964" width="21.062" height="21.062" transform="translate(21.062 63.186) rotate(-180)" fill="#e2e9f0"/>
      <rect id="Rectangle_10965" data-name="Rectangle 10965" width="21.062" height="21.062" transform="translate(21.062 21.062) rotate(-180)" fill="#e2e9f0"/>
    </g>
    <g id="Group_15324" data-name="Group 15324" transform="translate(-143.776 2672.538)">
      <rect id="Rectangle_10966" data-name="Rectangle 10966" width="21.062" height="21.062" transform="translate(21.062 21.062) rotate(-180)" fill="#e2e9f0"/>
    </g>
    <g id="Group_15325" data-name="Group 15325" transform="translate(-250.475 2651.476)">
      <rect id="Rectangle_10967" data-name="Rectangle 10967" width="21.062" height="21.062" transform="translate(42.124 42.124) rotate(-180)" fill="#e2e9f0"/>
      <rect id="Rectangle_10968" data-name="Rectangle 10968" width="21.062" height="21.062" transform="translate(21.062 63.186) rotate(-180)" fill="#e2e9f0"/>
      <rect id="Rectangle_10969" data-name="Rectangle 10969" width="21.062" height="21.062" transform="translate(21.062 21.062) rotate(-180)" fill="#e2e9f0"/>
      <rect id="Rectangle_10970" data-name="Rectangle 10970" width="21.062" height="21.062" transform="translate(63.186 21.062) rotate(-180)" fill="#e2e9f0"/>
    </g>
    <g id="Group_15326" data-name="Group 15326" transform="translate(-292.599 2672.538)">
      <rect id="Rectangle_10971" data-name="Rectangle 10971" width="21.062" height="21.062" transform="translate(21.062 42.124) rotate(-180)" fill="#e2e9f0"/>
      <rect id="Rectangle_10972" data-name="Rectangle 10972" width="21.062" height="21.062" transform="translate(42.124 63.186) rotate(-180)" fill="#e2e9f0"/>
      <rect id="Rectangle_10973" data-name="Rectangle 10973" width="21.062" height="21.062" transform="translate(42.124 21.062) rotate(-180)" fill="#e2e9f0"/>
    </g>
    <g id="Group_15327" data-name="Group 15327" transform="translate(-440.033 2672.538)">
      <rect id="Rectangle_10974" data-name="Rectangle 10974" width="21.062" height="21.062" transform="translate(42.124 42.124) rotate(-180)" fill="#e2e9f0"/>
      <rect id="Rectangle_10975" data-name="Rectangle 10975" width="21.062" height="21.062" transform="translate(63.186 63.186) rotate(-180)" fill="#e2e9f0"/>
      <rect id="Rectangle_10976" data-name="Rectangle 10976" width="21.062" height="21.062" transform="translate(21.062 21.062) rotate(-180)" fill="#e2e9f0"/>
      <rect id="Rectangle_10977" data-name="Rectangle 10977" width="21.062" height="21.062" transform="translate(63.186 21.062) rotate(-180)" fill="#e2e9f0"/>
    </g>
    <g id="Group_15328" data-name="Group 15328" transform="translate(-504.609 2651.476)">
      <rect id="Rectangle_10978" data-name="Rectangle 10978" width="21.062" height="21.062" transform="translate(42.124 42.124) rotate(-180)" fill="#e2e9f0"/>
      <rect id="Rectangle_10979" data-name="Rectangle 10979" width="21.062" height="21.062" transform="translate(63.186 63.186) rotate(-180)" fill="#e2e9f0"/>
      <rect id="Rectangle_10980" data-name="Rectangle 10980" width="21.062" height="21.062" transform="translate(21.062 21.062) rotate(-180)" fill="#e2e9f0"/>
      <rect id="Rectangle_10981" data-name="Rectangle 10981" width="21.062" height="21.062" transform="translate(63.186 21.062) rotate(-180)" fill="#e2e9f0"/>
    </g>
    <g id="Group_15329" data-name="Group 15329" transform="translate(-567.794 2672.538)">
      <rect id="Rectangle_10982" data-name="Rectangle 10982" width="21.062" height="21.062" transform="translate(42.124 42.124) rotate(-180)" fill="#e2e9f0"/>
      <rect id="Rectangle_10983" data-name="Rectangle 10983" width="21.062" height="21.062" transform="translate(21.062 63.186) rotate(-180)" fill="#e2e9f0"/>
      <rect id="Rectangle_10984" data-name="Rectangle 10984" width="21.062" height="21.062" transform="translate(21.062 21.062) rotate(-180)" fill="#e2e9f0"/>
      <rect id="Rectangle_10985" data-name="Rectangle 10985" width="21.062" height="21.062" transform="translate(63.186 21.062) rotate(-180)" fill="#e2e9f0"/>
    </g>
    <g id="Group_15330" data-name="Group 15330" transform="translate(-271.537 2714.05)">
      <rect id="Rectangle_10986" data-name="Rectangle 10986" width="21.062" height="21.062" transform="translate(21.062 21.062) rotate(-180)" fill="#e2e9f0"/>
    </g>
    <g id="Group_15331" data-name="Group 15331" transform="translate(-292.599 2735.112)">
      <rect id="Rectangle_10987" data-name="Rectangle 10987" width="21.062" height="21.062" transform="translate(21.062 21.062) rotate(-180)" fill="#e2e9f0"/>
    </g>
    <g id="Group_15332" data-name="Group 15332" transform="translate(-397.909 2714.05)">
      <rect id="Rectangle_10988" data-name="Rectangle 10988" width="21.062" height="21.062" transform="translate(42.124 42.124) rotate(-180)" fill="#e2e9f0"/>
      <rect id="Rectangle_10989" data-name="Rectangle 10989" width="21.062" height="21.062" transform="translate(21.062 63.186) rotate(-180)" fill="#e2e9f0"/>
      <rect id="Rectangle_10990" data-name="Rectangle 10990" width="21.062" height="21.062" transform="translate(63.186 63.186) rotate(-180)" fill="#e2e9f0"/>
      <rect id="Rectangle_10991" data-name="Rectangle 10991" width="21.062" height="21.062" transform="translate(21.062 21.062) rotate(-180)" fill="#e2e9f0"/>
    </g>
    <g id="Group_15333" data-name="Group 15333" transform="translate(-418.971 2735.112)">
      <rect id="Rectangle_10992" data-name="Rectangle 10992" width="21.062" height="21.062" transform="translate(21.062 63.186) rotate(-180)" fill="#e2e9f0"/>
      <rect id="Rectangle_10993" data-name="Rectangle 10993" width="21.062" height="21.062" transform="translate(21.062 21.062) rotate(-180)" fill="#e2e9f0"/>
    </g>
    <g id="Group_15334" data-name="Group 15334" transform="translate(-588.856 2735.112)">
      <rect id="Rectangle_10994" data-name="Rectangle 10994" width="21.062" height="21.062" transform="translate(42.124 42.124) rotate(-180)" fill="#e2e9f0"/>
      <rect id="Rectangle_10995" data-name="Rectangle 10995" width="21.062" height="21.062" transform="translate(21.062 63.186) rotate(-180)" fill="#e2e9f0"/>
      <rect id="Rectangle_10996" data-name="Rectangle 10996" width="21.062" height="21.062" transform="translate(63.186 63.186) rotate(-180)" fill="#e2e9f0"/>
      <rect id="Rectangle_10997" data-name="Rectangle 10997" width="21.062" height="21.062" transform="translate(21.062 21.062) rotate(-180)" fill="#e2e9f0"/>
      <rect id="Rectangle_10998" data-name="Rectangle 10998" width="21.062" height="21.062" transform="translate(63.186 21.062) rotate(-180)" fill="#e2e9f0"/>
    </g>
    <g id="Group_15335" data-name="Group 15335" transform="translate(-376.847 2777.236)">
      <rect id="Rectangle_10999" data-name="Rectangle 10999" width="21.062" height="21.062" transform="translate(21.062 21.062) rotate(-180)" fill="#e2e9f0"/>
    </g>
    <g id="Group_15336" data-name="Group 15336" transform="translate(-440.033 2798.298)">
      <rect id="Rectangle_11000" data-name="Rectangle 11000" width="21.062" height="21.062" transform="translate(21.062 63.186) rotate(-180)" fill="#e2e9f0"/>
      <rect id="Rectangle_11001" data-name="Rectangle 11001" width="21.062" height="21.062" transform="translate(21.062 21.062) rotate(-180)" fill="#e2e9f0"/>
    </g>
    <g id="Group_15337" data-name="Group 15337" transform="translate(-504.609 2798.298)">
      <rect id="Rectangle_11002" data-name="Rectangle 11002" width="21.062" height="21.062" transform="translate(42.124 21.062) rotate(-180)" fill="#e2e9f0"/>
      <rect id="Rectangle_11003" data-name="Rectangle 11003" width="21.062" height="21.062" transform="translate(21.062 42.124) rotate(-180)" fill="#e2e9f0"/>
      <rect id="Rectangle_11004" data-name="Rectangle 11004" width="21.062" height="21.062" transform="translate(63.186 42.124) rotate(-180)" fill="#e2e9f0"/>
    </g>
    <g id="Group_15338" data-name="Group 15338" transform="translate(-567.794 2798.298)">
      <rect id="Rectangle_11005" data-name="Rectangle 11005" width="21.062" height="21.062" transform="translate(42.124 42.124) rotate(-180)" fill="#e2e9f0"/>
      <rect id="Rectangle_11006" data-name="Rectangle 11006" width="21.062" height="21.062" transform="translate(21.062 63.186) rotate(-180)" fill="#e2e9f0"/>
      <rect id="Rectangle_11007" data-name="Rectangle 11007" width="21.062" height="21.062" transform="translate(63.186 63.186) rotate(-180)" fill="#e2e9f0"/>
      <rect id="Rectangle_11008" data-name="Rectangle 11008" width="21.062" height="21.062" transform="translate(21.062 21.062) rotate(-180)" fill="#e2e9f0"/>
      <rect id="Rectangle_11009" data-name="Rectangle 11009" width="21.062" height="21.062" transform="translate(63.186 21.062) rotate(-180)" fill="#e2e9f0"/>
    </g>
    <g id="Group_15339" data-name="Group 15339" transform="translate(-376.847 2861.484)">
      <rect id="Rectangle_11010" data-name="Rectangle 11010" width="21.062" height="21.062" transform="translate(21.062 21.062) rotate(-180)" fill="#e2e9f0"/>
    </g>
    <g id="Group_15340" data-name="Group 15340" transform="translate(-525.671 2840.422)">
      <rect id="Rectangle_11011" data-name="Rectangle 11011" width="21.062" height="21.062" transform="translate(42.124 42.124) rotate(-180)" fill="#e2e9f0"/>
      <rect id="Rectangle_11012" data-name="Rectangle 11012" width="21.062" height="21.062" transform="translate(21.062 63.186) rotate(-180)" fill="#e2e9f0"/>
      <rect id="Rectangle_11013" data-name="Rectangle 11013" width="21.062" height="21.062" transform="translate(21.062 21.062) rotate(-180)" fill="#e2e9f0"/>
      <rect id="Rectangle_11014" data-name="Rectangle 11014" width="21.062" height="21.062" transform="translate(63.186 21.062) rotate(-180)" fill="#e2e9f0"/>
    </g>
    <g id="Group_15341" data-name="Group 15341" transform="translate(-546.732 2861.484)">
      <rect id="Rectangle_11015" data-name="Rectangle 11015" width="21.062" height="21.062" transform="translate(21.062 63.186) rotate(-180)" fill="#e2e9f0"/>
      <rect id="Rectangle_11016" data-name="Rectangle 11016" width="21.062" height="21.062" transform="translate(21.062 21.062) rotate(-180)" fill="#e2e9f0"/>
    </g>
    <g id="Group_15342" data-name="Group 15342" transform="translate(-440.033 2966.794)">
      <rect id="Rectangle_11017" data-name="Rectangle 11017" width="21.062" height="21.062" transform="translate(21.062 21.062) rotate(-180)" fill="#e2e9f0"/>
    </g>
    <g id="Group_15343" data-name="Group 15343" transform="translate(-504.609 2903.608)">
      <rect id="Rectangle_11018" data-name="Rectangle 11018" width="21.062" height="21.062" transform="translate(42.124 42.124) rotate(-180)" fill="#e2e9f0"/>
      <rect id="Rectangle_11019" data-name="Rectangle 11019" width="21.062" height="21.062" transform="translate(21.062 63.186) rotate(-180)" fill="#e2e9f0"/>
      <rect id="Rectangle_11020" data-name="Rectangle 11020" width="21.062" height="21.062" transform="translate(63.186 63.186) rotate(-180)" fill="#e2e9f0"/>
      <rect id="Rectangle_11021" data-name="Rectangle 11021" width="21.062" height="21.062" transform="translate(21.062 21.062) rotate(-180)" fill="#e2e9f0"/>
    </g>
    <g id="Group_15344" data-name="Group 15344" transform="translate(-546.732 2924.67)">
      <rect id="Rectangle_11022" data-name="Rectangle 11022" width="21.062" height="21.062" transform="translate(21.062 42.124) rotate(-180)" fill="#e2e9f0"/>
      <rect id="Rectangle_11023" data-name="Rectangle 11023" width="21.062" height="21.062" transform="translate(42.124 63.186) rotate(-180)" fill="#e2e9f0"/>
      <rect id="Rectangle_11024" data-name="Rectangle 11024" width="21.062" height="21.062" transform="translate(42.124 21.062) rotate(-180)" fill="#e2e9f0"/>
    </g>
    <g id="Group_15345" data-name="Group 15345" transform="translate(-461.095 2987.244)">
      <rect id="Rectangle_11025" data-name="Rectangle 11025" width="21.062" height="21.062" transform="translate(21.062 63.186) rotate(-180)" fill="#e2e9f0"/>
      <rect id="Rectangle_11026" data-name="Rectangle 11026" width="21.062" height="21.062" transform="translate(21.062 21.062) rotate(-180)" fill="#e2e9f0"/>
    </g>
    <g id="Group_15346" data-name="Group 15346" transform="translate(-525.671 2966.182)">
      <rect id="Rectangle_11027" data-name="Rectangle 11027" width="21.062" height="21.062" transform="translate(42.124 42.124) rotate(-180)" fill="#e2e9f0"/>
      <rect id="Rectangle_11028" data-name="Rectangle 11028" width="21.062" height="21.062" transform="translate(21.062 63.186) rotate(-180)" fill="#e2e9f0"/>
      <rect id="Rectangle_11029" data-name="Rectangle 11029" width="21.062" height="21.062" transform="translate(63.186 63.186) rotate(-180)" fill="#e2e9f0"/>
      <rect id="Rectangle_11030" data-name="Rectangle 11030" width="21.062" height="21.062" transform="translate(21.062 21.062) rotate(-180)" fill="#e2e9f0"/>
      <rect id="Rectangle_11031" data-name="Rectangle 11031" width="21.062" height="21.062" transform="translate(63.186 21.062) rotate(-180)" fill="#e2e9f0"/>
    </g>
    <g id="Group_15347" data-name="Group 15347" transform="translate(-546.732 2987.244)">
      <rect id="Rectangle_11032" data-name="Rectangle 11032" width="21.062" height="21.062" transform="translate(21.062 63.186) rotate(-180)" fill="#e2e9f0"/>
      <rect id="Rectangle_11033" data-name="Rectangle 11033" width="21.062" height="21.062" transform="translate(21.062 21.062) rotate(-180)" fill="#e2e9f0"/>
    </g>
    <g id="Group_15348" data-name="Group 15348" transform="translate(-504.609 3029.368)">
      <rect id="Rectangle_11034" data-name="Rectangle 11034" width="21.062" height="21.062" transform="translate(42.124 42.124) rotate(-180)" fill="#e2e9f0"/>
      <rect id="Rectangle_11035" data-name="Rectangle 11035" width="21.062" height="21.062" transform="translate(21.062 63.186) rotate(-180)" fill="#e2e9f0"/>
      <rect id="Rectangle_11036" data-name="Rectangle 11036" width="21.062" height="21.062" transform="translate(21.062 21.062) rotate(-180)" fill="#e2e9f0"/>
      <rect id="Rectangle_11037" data-name="Rectangle 11037" width="21.062" height="21.062" transform="translate(63.186 21.062) rotate(-180)" fill="#e2e9f0"/>
    </g>
    <g id="Group_15349" data-name="Group 15349" transform="translate(-567.794 3050.43)">
      <rect id="Rectangle_11038" data-name="Rectangle 11038" width="21.062" height="21.062" transform="translate(42.124 42.124) rotate(-180)" fill="#e2e9f0"/>
      <rect id="Rectangle_11039" data-name="Rectangle 11039" width="21.062" height="21.062" transform="translate(21.062 63.186) rotate(-180)" fill="#e2e9f0"/>
      <rect id="Rectangle_11040" data-name="Rectangle 11040" width="21.062" height="21.062" transform="translate(63.186 63.186) rotate(-180)" fill="#e2e9f0"/>
      <rect id="Rectangle_11041" data-name="Rectangle 11041" width="21.062" height="21.062" transform="translate(63.186 21.062) rotate(-180)" fill="#e2e9f0"/>
    </g>
  </g>
</svg>
