<svg xmlns="http://www.w3.org/2000/svg" width="348" height="341.425" viewBox="0 0 348 341.425">
  <g id="Group_17597" data-name="Group 17597" transform="translate(-5266.139 -4528.138)">
    <g id="Group_17433" data-name="Group 17433" transform="translate(5266.139 4528.938)">
      <g id="Group_17431" data-name="Group 17431">
        <path id="Path_8362" data-name="Path 8362" d="M5603.846,4661.28c-38.634-66.158-143.417-42.6-164.82-74.777-10.958-16.479-23.218-35.578-41-45.512-16.952-9.469-36.608-12.848-53.745-11.593-61.192,4.479-87.139,59.229-75.38,119.354,15.688,80.2,86.784,162.128,171.247,162.7,44.175.3,86.349-15.491,119.433-37.814l.74-.5C5593.368,4750.642,5633.341,4711.792,5603.846,4661.28Z" transform="translate(-5266.139 -4529.147)" fill="#92e3a9"/>
      </g>
      <g id="Group_17432" data-name="Group 17432" opacity="0.7">
        <path id="Path_8363" data-name="Path 8363" d="M5603.846,4661.28c-38.634-66.158-143.417-42.6-164.82-74.777-10.958-16.479-23.218-35.578-41-45.512-16.952-9.469-36.608-12.848-53.745-11.593-61.192,4.479-87.139,59.229-75.38,119.354,15.688,80.2,86.784,162.128,171.247,162.7,44.175.3,86.349-15.491,119.433-37.814l.74-.5C5593.368,4750.642,5633.341,4711.792,5603.846,4661.28Z" transform="translate(-5266.139 -4529.147)" fill="#fff"/>
      </g>
    </g>
    <g id="Group_17436" data-name="Group 17436" transform="translate(5281.851 4545.964)">
      <g id="Group_17434" data-name="Group 17434" transform="translate(0 119.483)">
        <path id="Path_8364" data-name="Path 8364" d="M5362.8,4832.4h-3.5a.437.437,0,1,1,0-.874h3.5a.437.437,0,0,1,0,.874Zm-7,0h-3.5a.437.437,0,0,1,0-.874h3.5a.437.437,0,1,1,0,.874Zm-6.994,0h-3.5a.437.437,0,1,1,0-.874h3.5a.437.437,0,1,1,0,.874Zm-6.994,0h-3.5a.437.437,0,1,1,0-.874h3.5a.437.437,0,1,1,0,.874Zm-6.993,0h-3.5a.437.437,0,1,1,0-.874h3.5a.437.437,0,0,1,0,.874Zm-7,0h-3.5a.437.437,0,0,1,0-.874h3.5a.437.437,0,0,1,0,.874Zm-7,0h-3.5a.437.437,0,0,1,0-.874h3.5a.437.437,0,1,1,0,.874Zm-6.993,0h-3.5a.437.437,0,1,1,0-.874h3.5a.437.437,0,0,1,0,.874Zm-7,0-3.507-.005a.437.437,0,0,1,.009-.874h.01l3.488.005a.437.437,0,1,1,0,.874Zm59.425-.363a.437.437,0,0,1-.089-.865,16.9,16.9,0,0,0,3.244-1.025.437.437,0,1,1,.348.8,17.73,17.73,0,0,1-3.413,1.081A.518.518,0,0,1,5366.274,4832.039Zm-66.383-.072a.419.419,0,0,1-.1-.012,17.785,17.785,0,0,1-3.391-1.147.437.437,0,0,1,.362-.8,16.984,16.984,0,0,0,3.224,1.092.437.437,0,0,1-.1.863Zm72.761-2.68a.438.438,0,0,1-.25-.8,17.041,17.041,0,0,0,2.583-2.217.437.437,0,1,1,.633.6,18.007,18.007,0,0,1-2.716,2.33A.438.438,0,0,1,5372.652,4829.287Zm-79.083-.2a.428.428,0,0,1-.257-.084,17.84,17.84,0,0,1-2.668-2.383.435.435,0,0,1,.025-.617.44.44,0,0,1,.618.025,17.035,17.035,0,0,0,2.538,2.268.437.437,0,0,1-.257.791Zm83.876-4.828a.438.438,0,0,1-.37-.671,16.753,16.753,0,0,0,1.513-3.047.437.437,0,1,1,.818.307,17.648,17.648,0,0,1-1.59,3.207A.439.439,0,0,1,5377.445,4824.259Zm-88.568-.294a.436.436,0,0,1-.375-.213,17.83,17.83,0,0,1-1.526-3.236.437.437,0,1,1,.824-.291,16.972,16.972,0,0,0,1.451,3.078.438.438,0,0,1-.15.6A.433.433,0,0,1,5288.877,4823.965Zm91.011-6.208a.431.431,0,0,1-.069-.005.439.439,0,0,1-.363-.5,17.174,17.174,0,0,0,.209-2.669.438.438,0,0,1,.875,0,18.073,18.073,0,0,1-.22,2.805A.438.438,0,0,1,5379.888,4817.757Zm-93.324-.341a.439.439,0,0,1-.434-.377,18.4,18.4,0,0,1-.167-2.456v-1.093a.438.438,0,0,1,.875,0v1.093a17.1,17.1,0,0,0,.159,2.336.437.437,0,0,1-.374.493A.475.475,0,0,1,5286.563,4817.416Zm-.163-6.985a.438.438,0,0,1-.437-.438v-3.5a.438.438,0,0,1,.875,0v3.5A.437.437,0,0,1,5286.4,4810.431Zm0-7a.438.438,0,0,1-.437-.437v-3.5a.438.438,0,0,1,.875,0v3.5A.437.437,0,0,1,5286.4,4803.436Zm0-6.994a.438.438,0,0,1-.437-.437v-3.5a.438.438,0,0,1,.875,0v3.5A.437.437,0,0,1,5286.4,4796.442Zm0-6.995a.437.437,0,0,1-.437-.437v-3.5a.438.438,0,0,1,.875,0v3.5A.437.437,0,0,1,5286.4,4789.447Zm0-6.994a.438.438,0,0,1-.437-.437v-3.5a.438.438,0,0,1,.875,0v3.5A.437.437,0,0,1,5286.4,4782.453Zm0-6.994a.438.438,0,0,1-.437-.438v-3.5a.438.438,0,0,1,.875,0v3.5A.437.437,0,0,1,5286.4,4775.459Zm0-7a.437.437,0,0,1-.437-.437v-3.5a.438.438,0,1,1,.875,0v3.5A.437.437,0,0,1,5286.4,4768.464Zm0-6.994a.437.437,0,0,1-.437-.437v-3.5a.438.438,0,0,1,.875,0v3.5A.437.437,0,0,1,5286.4,4761.47Zm0-6.994a.438.438,0,0,1-.437-.438v-3.5a.438.438,0,0,1,.875,0v3.5A.437.437,0,0,1,5286.4,4754.476Zm0-6.995a.438.438,0,0,1-.437-.437v-3.5a.438.438,0,0,1,.875,0v3.5A.437.437,0,0,1,5286.4,4747.481Zm0-6.993a.438.438,0,0,1-.437-.438v-3.5a.438.438,0,0,1,.875,0v3.5A.438.438,0,0,1,5286.4,4740.488Zm0-7a.438.438,0,0,1-.437-.437v-3.5a.438.438,0,0,1,.875,0v3.5A.437.437,0,0,1,5286.4,4733.493Zm0-6.995a.437.437,0,0,1-.437-.437v-3.5a.438.438,0,0,1,.875,0v3.5A.437.437,0,0,1,5286.4,4726.5Zm0-7h0a.439.439,0,0,1-.435-.44,17.987,17.987,0,0,1,.384-3.556.437.437,0,1,1,.855.18,17.134,17.134,0,0,0-.364,3.382A.437.437,0,0,1,5286.4,4719.5Zm1.438-6.793a.43.43,0,0,1-.175-.037.438.438,0,0,1-.227-.576,17.682,17.682,0,0,1,1.751-3.12.437.437,0,1,1,.715.5,16.814,16.814,0,0,0-1.664,2.965A.437.437,0,0,1,5287.839,4712.71Zm3.987-5.686a.437.437,0,0,1-.3-.754,17.921,17.921,0,0,1,2.829-2.19.437.437,0,1,1,.463.742,16.813,16.813,0,0,0-2.689,2.084A.44.44,0,0,1,5291.826,4707.024Zm5.893-3.68a.437.437,0,0,1-.152-.847,17.741,17.741,0,0,1,3.462-.9.437.437,0,0,1,.135.864,16.9,16.9,0,0,0-3.292.858A.441.441,0,0,1,5297.719,4703.345Zm10.359-1.088h-3.5a.437.437,0,1,1,0-.874h3.5a.437.437,0,1,1,0,.874Z" transform="translate(-5285.963 -4701.383)" fill="#263238"/>
      </g>
      <g id="Group_17435" data-name="Group 17435" transform="translate(88.868 0)">
        <path id="Path_8365" data-name="Path 8365" d="M5398.527,4580.991a.438.438,0,0,1-.437-.437v-3.5a.438.438,0,1,1,.875,0v3.5A.437.437,0,0,1,5398.527,4580.991Zm0-6.995a.438.438,0,0,1-.437-.437v-3.5a.438.438,0,0,1,.875,0v3.5A.437.437,0,0,1,5398.527,4574Zm0-6.994a.438.438,0,0,1-.437-.437v-3.5a.438.438,0,0,1,.875,0v3.5A.437.437,0,0,1,5398.527,4567Zm97.935-4.852a.438.438,0,0,1-.437-.438,10.2,10.2,0,0,0-.413-2.879.438.438,0,0,1,.84-.246,11.1,11.1,0,0,1,.447,3.125A.437.437,0,0,1,5496.462,4562.15Zm-97.721-2.128a.593.593,0,0,1-.088-.007.439.439,0,0,1-.342-.517,11.01,11.01,0,0,1,1.295-3.385.437.437,0,0,1,.755.442,10.1,10.1,0,0,0-1.192,3.117A.438.438,0,0,1,5398.741,4560.022Zm95.776-4.007a.436.436,0,0,1-.356-.185,10.248,10.248,0,0,0-2.344-2.377.437.437,0,1,1,.514-.707,11.127,11.127,0,0,1,2.544,2.58.437.437,0,0,1-.358.689Zm-92.306-1.918a.437.437,0,0,1-.286-.768,11.037,11.037,0,0,1,3.089-1.892.437.437,0,0,1,.328.81,10.18,10.18,0,0,0-2.846,1.743A.433.433,0,0,1,5402.21,4554.1Zm86.75-2.12a.468.468,0,0,1-.129-.019,10.2,10.2,0,0,0-3.016-.454h-.3a.437.437,0,1,1,0-.875h.3a11.1,11.1,0,0,1,3.274.492.438.438,0,0,1-.129.855Zm-80.386-.456a.437.437,0,0,1-.023-.874c.205-.01.411-.017.62-.018h2.9a.437.437,0,1,1,0,.875h-2.9c-.191,0-.384.006-.574.017Zm73.44-.017h-3.5a.437.437,0,1,1,0-.875h3.5a.437.437,0,1,1,0,.875Zm-6.995,0h-3.5a.437.437,0,1,1,0-.875h3.5a.437.437,0,1,1,0,.875Zm-6.993,0h-3.5a.437.437,0,1,1,0-.875h3.5a.437.437,0,0,1,0,.875Zm-7,0h-3.5a.437.437,0,0,1,0-.875h3.5a.437.437,0,1,1,0,.875Zm-6.994,0h-3.5a.437.437,0,1,1,0-.875h3.5a.437.437,0,1,1,0,.875Zm-6.994,0h-3.5a.437.437,0,0,1,0-.875h3.5a.437.437,0,1,1,0,.875Zm-6.995,0h-3.5a.437.437,0,1,1,0-.875h3.5a.437.437,0,1,1,0,.875Zm-6.994,0h-3.5a.437.437,0,1,1,0-.875h3.5a.437.437,0,0,1,0,.875Zm-6.995,0h-3.5a.437.437,0,0,1,0-.875h3.5a.437.437,0,1,1,0,.875Zm-6.995,0h-3.5a.437.437,0,1,1,0-.875h3.5a.437.437,0,1,1,0,.875Z" transform="translate(-5398.089 -4550.63)" fill="#263238"/>
      </g>
    </g>
    <g id="Group_17439" data-name="Group 17439" transform="translate(5288.344 4827.138)">
      <g id="Group_17437" data-name="Group 17437">
        <ellipse id="Ellipse_123" data-name="Ellipse 123" cx="151.795" cy="21.212" rx="151.795" ry="21.212" fill="#92e3a9"/>
      </g>
      <g id="Group_17438" data-name="Group 17438" opacity="0.5">
        <ellipse id="Ellipse_124" data-name="Ellipse 124" cx="151.795" cy="21.212" rx="151.795" ry="21.212" fill="#fff"/>
      </g>
    </g>
    <g id="Group_17505" data-name="Group 17505" transform="translate(5296.611 4528.138)">
      <g id="Group_17440" data-name="Group 17440" transform="translate(0 54.992)">
        <path id="Path_8366" data-name="Path 8366" d="M5591.319,4615.674v142.711a17.593,17.593,0,0,1-17.591,17.591h-251a17.593,17.593,0,0,1-17.591-17.591V4615.674c0-.419.018-.83.052-1.241a17.589,17.589,0,0,1,17.539-16.358h251a17.588,17.588,0,0,1,17.539,16.358C5591.3,4614.844,5591.319,4615.255,5591.319,4615.674Z" transform="translate(-5304.7 -4597.637)" fill="#fff"/>
        <path id="Path_8367" data-name="Path 8367" d="M5573.614,4776.3h-251a18.049,18.049,0,0,1-18.028-18.029V4615.559c0-.439.017-.857.054-1.279a18.064,18.064,0,0,1,17.974-16.758h251a18.067,18.067,0,0,1,17.975,16.766c.036.417.053.835.053,1.271V4758.27A18.049,18.049,0,0,1,5573.614,4776.3Zm-251-177.9a17.188,17.188,0,0,0-17.1,15.951c-.034.4-.051.8-.051,1.211V4758.27a17.173,17.173,0,0,0,17.154,17.154h251a17.173,17.173,0,0,0,17.154-17.154V4615.559c0-.406-.017-.8-.051-1.2a17.19,17.19,0,0,0-17.1-15.959Z" transform="translate(-5304.586 -4597.522)" fill="#263238"/>
      </g>
      <g id="Group_17441" data-name="Group 17441" transform="translate(8.997 78.381)">
        <path id="Rectangle_11265" data-name="Rectangle 11265" d="M0,0H269.959a0,0,0,0,1,0,0V127.515a20.8,20.8,0,0,1-20.8,20.8H20.8A20.8,20.8,0,0,1,0,127.515V0A0,0,0,0,1,0,0Z" fill="#263238"/>
      </g>
      <g id="Group_17442" data-name="Group 17442" transform="translate(8.997 78.38)" opacity="0.2">
        <path id="Path_8368" data-name="Path 8368" d="M5585.9,4627.031v131.834a16.4,16.4,0,0,1-16.3,16.481H5332.24a16.4,16.4,0,0,1-16.3-16.481V4627.031Z" transform="translate(-5315.937 -4627.031)" fill="#fff"/>
      </g>
      <g id="Group_17443" data-name="Group 17443" transform="translate(0.021 54.992)">
        <path id="Path_8369" data-name="Path 8369" d="M5591.281,4614.433H5305.2a17.589,17.589,0,0,1,17.539-16.358h251A17.588,17.588,0,0,1,5591.281,4614.433Z" transform="translate(-5304.735 -4597.637)" fill="#92e3a9"/>
        <path id="Path_8370" data-name="Path 8370" d="M5591.627,4614.756H5304.613l.033-.468a18.064,18.064,0,0,1,17.974-16.766h251a18.067,18.067,0,0,1,17.975,16.766Zm-286.072-.875h285.128a17.191,17.191,0,0,0-17.064-15.484h-251A17.191,17.191,0,0,0,5305.555,4613.881Z" transform="translate(-5304.613 -4597.522)" fill="#263238"/>
      </g>
      <g id="Group_17444" data-name="Group 17444" transform="translate(29.412 60.493)">
        <path id="Path_8371" data-name="Path 8371" d="M5347.928,4607.579a3.116,3.116,0,1,1-3.116-3.116A3.116,3.116,0,0,1,5347.928,4607.579Z" transform="translate(-5341.696 -4604.463)" fill="#263238"/>
      </g>
      <g id="Group_17445" data-name="Group 17445" transform="translate(42.586 60.493)">
        <path id="Path_8372" data-name="Path 8372" d="M5364.55,4607.579a3.116,3.116,0,1,1-3.116-3.116A3.117,3.117,0,0,1,5364.55,4607.579Z" transform="translate(-5358.318 -4604.463)" fill="#263238"/>
      </g>
      <g id="Group_17446" data-name="Group 17446" transform="translate(55.761 60.493)">
        <circle id="Ellipse_125" data-name="Ellipse 125" cx="3.116" cy="3.116" r="3.116" fill="#263238"/>
      </g>
      <g id="Group_17447" data-name="Group 17447" transform="translate(8.563 77.948)">
        <path id="Path_8373" data-name="Path 8373" d="M5569.294,4775.676H5332.309a16.94,16.94,0,0,1-16.565-13.5l-.037-.034-.01-.2a16.659,16.659,0,0,1-.306-3.192V4626.486h270.83v132.263A16.946,16.946,0,0,1,5569.294,4775.676Zm-252.726-13.828,0,.016a16.065,16.065,0,0,0,15.737,12.937h236.985a16.07,16.07,0,0,0,16.053-16.052V4627.361H5316.266v131.388a16.023,16.023,0,0,0,.3,3.072Z" transform="translate(-5315.391 -4626.486)" fill="#263238"/>
      </g>
      <g id="Group_17448" data-name="Group 17448" transform="translate(68.457 78.38)">
        <path id="Path_8374" data-name="Path 8374" d="M5487.787,4653.8V4640.53l-13.954-3.095a36.042,36.042,0,0,0-3.191-7.746l1.688-2.658h-65.861l1.627,2.587a34.339,34.339,0,0,0-3.183,7.738l-13.954,3.1v13.272l13.954,3.112a34.794,34.794,0,0,0,3.183,7.8l-7.668,12.057,9.39,9.381,12.048-7.667a35.475,35.475,0,0,0,7.746,3.208l3.095,13.937h13.272l3.121-13.937a35.76,35.76,0,0,0,7.721-3.208l12.057,7.667,9.381-9.381-7.615-12.057a36.356,36.356,0,0,0,3.191-7.729Zm-48.349,10.51a17.145,17.145,0,1,1,17.145-17.145A17.146,17.146,0,0,1,5439.438,4664.312Z" transform="translate(-5390.959 -4627.031)" fill="#263238"/>
      </g>
      <g id="Group_17449" data-name="Group 17449" transform="translate(9 150.279)">
        <path id="Path_8375" data-name="Path 8375" d="M5384.2,4763.751l.559-10.526-10.911-3.077a29.535,29.535,0,0,0-2.238-6.26l6.592-9.259-7.064-7.842-9.879,5.587a29.249,29.249,0,0,0-6.015-2.876l-1.889-11.191-10.526-.56-3.042,10.946a27.519,27.519,0,0,0-6.26,2.221l-9.25-6.593-7.851,7.064,5.6,9.889a27.318,27.318,0,0,0-2.886,6.006l-3.191.524v14.26l2.317.656A27.561,27.561,0,0,0,5320.5,4769l-4.555,6.374.306,5.464v.035l.009.008,4.7,5.211,9.9-5.587a27.426,27.426,0,0,0,6.032,2.911l1.8,10.745v.009l.087.445,10.527.56.28-1v-.009l2.762-9.932a28.2,28.2,0,0,0,6.3-2.221l9.232,6.584,7.851-7.056-5.577-9.9a27.319,27.319,0,0,0,2.85-6Zm-27.96-16.445a13.632,13.632,0,1,0-1.014,19.243A13.633,13.633,0,0,0,5356.238,4747.306Z" transform="translate(-5315.942 -4717.746)" fill="#263238"/>
      </g>
      <g id="Group_17450" data-name="Group 17450" transform="translate(111.599 146.312)">
        <path id="Path_8376" data-name="Path 8376" d="M5495.234,4746.983a21.444,21.444,0,0,0,.639-4.985l7.567-3.979-2.091-7.679-8.542.4a21.263,21.263,0,0,0-3.068-3.966l2.53-8.171-6.9-3.952-5.771,6.3a22.385,22.385,0,0,0-4.969-.632l-4-7.575-7.667,2.087.4,8.553a21.725,21.725,0,0,0-3.974,3.066l-8.174-2.523-3.957,6.887,6.331,5.755a20.739,20.739,0,0,0-.625,4.972l-7.582,3.992,2.09,7.678,8.554-.4a20.34,20.34,0,0,0,3.058,3.971l-2.543,8.13,6.9,3.952,5.741-6.243a20.92,20.92,0,0,0,4.981.628l3.984,7.579,7.667-2.086-.337-7.307-.057-1.252a21.064,21.064,0,0,0,4.013-3.07l8.169,2.54,3.375-5.9.576-1Zm-18.128,4.665a10.27,10.27,0,1,1,7.21-12.608A10.27,10.27,0,0,1,5477.105,4751.648Z" transform="translate(-5445.393 -4712.741)" fill="#263238"/>
      </g>
      <g id="Group_17451" data-name="Group 17451" transform="translate(172.314 143.13)">
        <path id="Path_8377" data-name="Path 8377" d="M5598.874,4759.655l1.749-10.535-10.667-4.293a28.362,28.362,0,0,0-1.53-6.574l7.676-8.55-6.216-8.69L5579.3,4725.5a28.142,28.142,0,0,0-5.718-3.55l-.621-11.488-10.544-1.74-4.319,10.623a29.527,29.527,0,0,0-6.548,1.539l-8.578-7.676-8.682,6.216,4.5,10.58a28.841,28.841,0,0,0-3.208,4.982c-.122.245-.245.49-.358.735l-11.479.638L5522,4746.89l1.731.7,8.936,3.6a27.7,27.7,0,0,0,1.529,6.548l-7.676,8.578,6.216,8.681,10.587-4.511a27.452,27.452,0,0,0,5.71,3.576l.594,11.436,10.535,1.74,4.311-10.544a27.717,27.717,0,0,0,6.566-1.539l8.559,7.685,8.69-6.225-4.5-10.587a27.572,27.572,0,0,0,3.61-5.745Zm-29.56-.472a13.8,13.8,0,1,1,3.182-19.252A13.8,13.8,0,0,1,5569.313,4759.183Z" transform="translate(-5521.997 -4708.727)" fill="#263238"/>
      </g>
      <g id="Group_17477" data-name="Group 17477" transform="translate(202.43 71.433)">
        <g id="Group_17476" data-name="Group 17476">
          <g id="Group_17455" data-name="Group 17455">
            <g id="Group_17452" data-name="Group 17452" transform="translate(1.1 1.344)">
              <path id="Path_8378" data-name="Path 8378" d="M5580.382,4745.3a30.588,30.588,0,0,1-5.472-11.807l-13.527.037v-57.5s2.1-31.133,23.121-44.4c0,0,8.908-6.872,19.874-8.014,0,0,.914-3.656,3.2-3.656s2.741,2.741,2.741,2.741l13.706,3.655-2.97,6.854,35.864,30.838v2.456s2.97,4.854,2.97,7.824-4.111,8.452-8.909,9.594-13.478-3.656-13.478-3.656l-10.737-1.142s-2.969,1.6-9.365,2.285-8.452,0-8.452,0,16.447,15.99,20.33,23.756,4.568,19.417,2.512,26.042a100.271,100.271,0,0,1-5.965,14.092Z" transform="translate(-5561.383 -4619.961)" fill="#91e986"/>
            </g>
            <g id="Group_17454" data-name="Group 17454">
              <g id="Group_17453" data-name="Group 17453">
                <path id="Path_8379" data-name="Path 8379" d="M5580.094,4744.949a18.6,18.6,0,0,1,3.166-.218l8.96-.219,33.315-.417-.756.458a93.863,93.863,0,0,0,5.851-14.185c1.375-5.088,1.217-11.032.078-16.893a31.731,31.731,0,0,0-2.972-8.6,53.647,53.647,0,0,0-5.678-7.779c-4.305-5.076-9.143-10.123-14.267-15.146l-2.919-2.864,4.179.792a31.172,31.172,0,0,0,8.289-.127,29.617,29.617,0,0,0,8.522-2.118l.4-.185.353.036,10.738,1.118.249.026.251.132a37.749,37.749,0,0,0,7.9,3.167c2.822.791,5.252.645,7.547-1.007a12.19,12.19,0,0,0,4.858-6.342c.346-2.074-1.3-5.261-2.694-7.709l-.2-.353v-.365c0-.767,0-1.61,0-2.455l.478,1.042-18.659-16.032-17.206-14.8-.769-.662.4-.929q1.495-3.445,2.974-6.85l.9,1.869-13.7-3.671-.8-.213-.191-.872c-.252-1.151-.957-1.791-1.583-1.588-.548.037-1.432,1.43-1.721,2.6l-.223.9-.937.1a42.051,42.051,0,0,0-19.222,7.707l-.086.062-.014.008c-9.684,6.138-15.45,16.246-18.839,26a79.839,79.839,0,0,0-3.562,14.746c-.608,4.717-.211,9.7-.368,14.263-.15,18.343-.277,33.854-.376,45.8l-.667-.666,13.526.162.369,0,.086.354c2.064,8.457,5.268,11.809,5.018,11.917a9.2,9.2,0,0,1-2.04-2.584,32.435,32.435,0,0,1-3.886-9.113l.455.356-13.525.236-.664.012-.005-.679c-.1-11.958-.225-27.489-.376-45.854q-.019-3.47-.039-7.074a46,46,0,0,1,.274-7.431,81.493,81.493,0,0,1,3.534-15.215c3.419-10.072,9.329-20.754,19.7-27.419l-.1.069a44.4,44.4,0,0,1,20.523-8.322l-1.159,1.006c.585-1.664,1.091-3.626,3.662-4.566a3.725,3.725,0,0,1,3.437.92,5.306,5.306,0,0,1,1.474,2.835l-.986-1.084,13.708,3.639,1.537.408-.632,1.461-2.963,6.854-.366-1.59q8.477,7.282,17.216,14.793l18.646,16.046.479.413v.63c0,.845,0,1.688,0,2.455l-.2-.715a31.856,31.856,0,0,1,2.188,4.4,9.425,9.425,0,0,1,.831,5.306,14.621,14.621,0,0,1-6.016,8.019,11.064,11.064,0,0,1-4.8,1.872,14.372,14.372,0,0,1-4.919-.518,40.111,40.111,0,0,1-8.514-3.448l.5.156c-3.714-.4-7.383-.8-10.732-1.166l.75-.147a31.18,31.18,0,0,1-9.459,2.36c-3.158.274-5.948.649-9.364-.037l1.259-2.07c5.161,5.127,9.974,10.22,14.325,15.434a55.294,55.294,0,0,1,5.867,8.217,33.784,33.784,0,0,1,3.1,9.234c1.118,6.194,1.247,12.282-.328,17.868a93.383,93.383,0,0,1-6.2,14.423l-.239.464-.519-.006-33.6-.418-8.857-.218A15.05,15.05,0,0,1,5580.094,4744.949Z" transform="translate(-5559.995 -4618.266)" fill="#263238"/>
              </g>
            </g>
          </g>
          <g id="Group_17459" data-name="Group 17459" transform="translate(10.484 12.461)">
            <g id="Group_17456" data-name="Group 17456" transform="translate(1.13 0.789)">
              <path id="Path_8380" data-name="Path 8380" d="M5576.671,4736.646c-3.208-19.176-2.02-38.794-.4-58.17.925-11.058,2.268-22.818,9.277-31.42a33.918,33.918,0,0,1,17.528-10.884c6.749-1.822,14.224-1.37,20.728.155" transform="translate(-5574.648 -4634.983)" fill="#91e986"/>
            </g>
            <g id="Group_17458" data-name="Group 17458">
              <g id="Group_17457" data-name="Group 17457">
                <path id="Path_8381" data-name="Path 8381" d="M5623.509,4636.119c-.047.207-1.894-.119-5.229-.4a44.446,44.446,0,0,0-13.944.875,34.314,34.314,0,0,0-17.394,10.244c-5.093,5.782-7.627,14.247-8.738,23.231-1.941,18.212-2.984,34.9-2.739,46.893.173,12.022,1.361,19.409.908,19.481-.17.029-.693-1.78-1.286-5.123a120.353,120.353,0,0,1-1.58-14.286c-.747-12.159-.017-28.881,1.951-47.324,1.132-9.187,3.867-18.3,9.572-24.561a35.244,35.244,0,0,1,18.877-10.466,39.545,39.545,0,0,1,14.51-.033C5621.784,4635.271,5623.551,4635.954,5623.509,4636.119Z" transform="translate(-5573.223 -4633.988)" fill="#263238"/>
              </g>
            </g>
          </g>
          <g id="Group_17461" data-name="Group 17461" transform="translate(33.417 33.997)">
            <g id="Group_17460" data-name="Group 17460">
              <path id="Path_8382" data-name="Path 8382" d="M5616.494,4686.554c.137.291-1.855,1.4-5.162.554-3.241-.7-7.3-4.15-8.524-9.118a21.614,21.614,0,0,1,.6-12.33c.987-2.954,1.954-4.6,2.3-4.5.382.117.07,2.007-.4,4.95-.428,2.925-.982,7,.167,11.131a11.917,11.917,0,0,0,6.5,8.013C5614.516,4686.408,5616.419,4686.13,5616.494,4686.554Z" transform="translate(-5602.158 -4661.16)" fill="#263238"/>
            </g>
          </g>
          <g id="Group_17462" data-name="Group 17462" transform="translate(3.698 126.683)">
            <path id="Path_8383" data-name="Path 8383" d="M5638.618,4802.081a4.316,4.316,0,0,0-.65-.063v-17L5626.5,4778.1h-46.155l-11.464,6.914v17a4.132,4.132,0,0,0-4.224,4.035v.318h73.958Z" transform="translate(-5564.66 -4778.104)" fill="#91e986"/>
          </g>
          <g id="Group_17464" data-name="Group 17464" transform="translate(3.825 153.2)">
            <g id="Group_17463" data-name="Group 17463">
              <path id="Path_8384" data-name="Path 8384" d="M5655.309,4812.2c-2.384.289-5.872.769-10.182,1.242h9.982l.2-.056Z" transform="translate(-5581.479 -4811.693)" fill="#263238"/>
              <path id="Path_8385" data-name="Path 8385" d="M5569.339,4813.311h10.554c-9.109-1.012-14.969-2.125-15.071-1.63C5564.771,4811.892,5566.4,4812.525,5569.339,4813.311Z" transform="translate(-5564.821 -4811.56)" fill="#263238"/>
            </g>
          </g>
          <g id="Group_17466" data-name="Group 17466" transform="translate(6.892 150.269)">
            <g id="Group_17465" data-name="Group 17465">
              <path id="Path_8386" data-name="Path 8386" d="M5578.733,4811.108c2.366.519,5.094,1.015,8.1,1.436h35.124c2.676-.375,5.124-.809,7.267-1.265,6.362-1.345,10.148-2.72,10.063-3.056-.186-.848-15.76,2.92-35.306,2.78-19.554.006-35.1-3.867-35.29-3.021C5568.6,4808.318,5572.382,4809.72,5578.733,4811.108Z" transform="translate(-5568.691 -4807.862)" fill="#263238"/>
            </g>
          </g>
          <g id="Group_17468" data-name="Group 17468" transform="translate(7.92 133.551)">
            <g id="Group_17467" data-name="Group 17467">
              <path id="Path_8387" data-name="Path 8387" d="M5639.073,4787.13c.087.335-3.612,1.709-9.836,3.055a119.679,119.679,0,0,1-49.435-.172c-6.214-1.388-9.9-2.788-9.813-3.123.195-.846,15.4,3.024,34.533,3.02C5623.652,4790.049,5638.883,4786.283,5639.073,4787.13Z" transform="translate(-5569.987 -4786.769)" fill="#263238"/>
            </g>
          </g>
          <g id="Group_17470" data-name="Group 17470" transform="translate(19.501 126.691)">
            <g id="Group_17469" data-name="Group 17469">
              <path id="Path_8388" data-name="Path 8388" d="M5631.133,4778.236c.339.6-9.767,5.37-23.257,5.32-13.493.076-23.605-4.672-23.268-5.275.26-.8,10.365,2.6,23.266,2.506C5620.77,4780.853,5630.871,4777.433,5631.133,4778.236Z" transform="translate(-5584.6 -4778.114)" fill="#263238"/>
            </g>
          </g>
          <g id="Group_17471" data-name="Group 17471" transform="translate(43.323 8.978)">
            <path id="Path_8389" data-name="Path 8389" d="M5614.656,4630.962l.865,7.407,8-1.253s-.619-5.739-1.008-7.523Z" transform="translate(-5614.656 -4629.593)" fill="#91e986"/>
          </g>
          <g id="Group_17473" data-name="Group 17473" transform="translate(41.935 3.279)">
            <g id="Group_17472" data-name="Group 17472">
              <path id="Path_8390" data-name="Path 8390" d="M5617.71,4642.6c-.54.5-4.138-3.455-4.713-9.727-.629-6.268,2.15-10.831,2.774-10.446.744.306-.6,4.73-.018,10.182C5616.224,4638.068,5618.381,4642.156,5617.71,4642.6Z" transform="translate(-5612.905 -4622.403)" fill="#263238"/>
            </g>
          </g>
          <g id="Group_17475" data-name="Group 17475" transform="translate(49.191 2.563)">
            <g id="Group_17474" data-name="Group 17474">
              <path id="Path_8391" data-name="Path 8391" d="M5625.224,4639.069c-.792.01-1.38-3.936-2.138-8.667-.739-4.74-1.458-8.634-.711-8.89.7-.25,2.658,3.435,3.445,8.455S5625.959,4639.07,5625.224,4639.069Z" transform="translate(-5622.06 -4621.5)" fill="#263238"/>
            </g>
          </g>
        </g>
      </g>
      <g id="Group_17504" data-name="Group 17504" transform="translate(12.044)">
        <g id="Group_17501" data-name="Group 17501">
          <g id="Group_17478" data-name="Group 17478" transform="translate(16.995 12.723)">
            <path id="Path_8392" data-name="Path 8392" d="M5347.476,4589.323s-6.25-5.314-6.25-17.051c0-13.34,16.558-28.081,16.558-28.081h5.672v45.132Z" transform="translate(-5341.226 -4544.191)" fill="#91e986"/>
          </g>
          <g id="Group_17479" data-name="Group 17479" transform="translate(30.109)">
            <circle id="Ellipse_126" data-name="Ellipse 126" cx="7.565" cy="7.565" r="7.565" fill="#91e986"/>
          </g>
          <g id="Group_17480" data-name="Group 17480" transform="translate(37.157 12.723)">
            <path id="Path_8393" data-name="Path 8393" d="M5381.423,4554.3c-4.711.938-8.884,5.986-8.884,5.986l-3.208-3.124c1.126-3.446,6.4-6.155,8.622-7.166a70.941,70.941,0,0,0-5.618-5.8h-5.671v45.132h15.978s6.25-5.314,6.252-17.051C5388.894,4566.037,5385.275,4559.5,5381.423,4554.3Z" transform="translate(-5366.664 -4544.191)" fill="#91e986"/>
          </g>
          <g id="Group_17481" data-name="Group 17481" transform="translate(15.665 55.333)">
            <path id="Path_8394" data-name="Path 8394" d="M5350.2,4597.952v16.829l-10.653,72.876h48.217l-10.933-72.876-.281-16.829Z" transform="translate(-5339.547 -4597.952)" fill="#91e986"/>
          </g>
          <g id="Group_17485" data-name="Group 17485" transform="translate(15.695 66.664)">
            <g id="Group_17482" data-name="Group 17482" transform="translate(1.443 1.455)">
              <rect id="Rectangle_11266" data-name="Rectangle 11266" width="45.271" height="10.652" rx="5.326" fill="#91e986"/>
            </g>
            <g id="Group_17484" data-name="Group 17484">
              <g id="Group_17483" data-name="Group 17483">
                <path id="Path_8395" data-name="Path 8395" d="M5381.236,4624.355c-.065-.265,1.629-.145,3.225-1.935,1.6-1.469,1.8-6.542-2.184-7.547l-36.185.285a3.634,3.634,0,0,0-3.119,1.785,3.587,3.587,0,0,0-.5,1.752,4.421,4.421,0,0,0,.243,1.939,3.687,3.687,0,0,0,2.59,2.243c1.006.188,3.027.079,4.435.136l16.394.312c9.332.263,15.1.627,15.1,1.029s-5.772.766-15.1,1.029l-16.394.312a36.658,36.658,0,0,1-5.026-.1,6.474,6.474,0,0,1-4.647-3.9,7.338,7.338,0,0,1-.47-3.048,6.427,6.427,0,0,1,.881-3.161,6.52,6.52,0,0,1,5.617-3.232c14.352.095,26.883-.048,36.715.637a6.218,6.218,0,0,1,2.467,10.324C5382.963,4625.134,5381.134,4624.45,5381.236,4624.355Z" transform="translate(-5339.584 -4612.248)" fill="#263238"/>
              </g>
            </g>
          </g>
          <g id="Group_17489" data-name="Group 17489" transform="translate(18.164 56.011)">
            <g id="Group_17486" data-name="Group 17486" transform="translate(1.446 1.454)">
              <path id="Rectangle_11267" data-name="Rectangle 11267" d="M5.326,0h27.62a5.326,5.326,0,0,1,5.326,5.326v0a5.326,5.326,0,0,1-5.326,5.326H5.326A5.326,5.326,0,0,1,0,5.326v0A5.326,5.326,0,0,1,5.326,0Z" fill="#91e986"/>
            </g>
            <g id="Group_17488" data-name="Group 17488">
              <g id="Group_17487" data-name="Group 17487">
                <path id="Path_8396" data-name="Path 8396" d="M5377.357,4610.916c-.044-.263,1.367-.191,2.869-1.6a4.518,4.518,0,0,0,1.365-3.179,4.45,4.45,0,0,0-1.745-3.978,3.958,3.958,0,0,0-2.329-.762l-3.386.074-7.571.135-17.349.113a3.773,3.773,0,0,0-3.62,4.5,3.867,3.867,0,0,0,4.542,3.358l14.169.312c8.066.264,13.055.627,13.055,1.029s-4.989.765-13.055,1.029l-14.169.312a7.114,7.114,0,0,1-4.706-1.182,6.471,6.471,0,0,1-2.673-4.577,7.1,7.1,0,0,1,1.358-5.216,6.525,6.525,0,0,1,5.1-2.473l17.349.114,7.571.134,3.477.1a6.029,6.029,0,0,1,3.51,1.389c3.826,3.521,1.865,8.433-.17,9.646C5378.795,4611.615,5377.287,4611.021,5377.357,4610.916Z" transform="translate(-5342.701 -4598.808)" fill="#263238"/>
              </g>
            </g>
          </g>
          <g id="Group_17490" data-name="Group 17490" transform="translate(0 139.324)">
            <path id="Path_8397" data-name="Path 8397" d="M5336.273,4703.925l-12.051,7.269v17.872h0a4.344,4.344,0,0,0-4.439,4.24v8.748c26.986,5.519,54.141,5.874,81.5,0v-8.748a4.345,4.345,0,0,0-4.44-4.24h0v-17.872l-12.051-7.269" transform="translate(-5319.782 -4703.925)" fill="#91e986"/>
          </g>
          <g id="Group_17492" data-name="Group 17492" transform="translate(0.134 167.199)">
            <g id="Group_17491" data-name="Group 17491">
              <path id="Path_8398" data-name="Path 8398" d="M5401.276,4739.476c.083.354-4.311,1.805-11.644,3.217a157.078,157.078,0,0,1-58.057-.18c-7.325-1.458-11.708-2.937-11.624-3.29.185-.893,18.138,3.185,40.654,3.174C5383.115,4742.548,5401.1,4738.583,5401.276,4739.476Z" transform="translate(-5319.952 -4739.096)" fill="#263238"/>
            </g>
          </g>
          <g id="Group_17494" data-name="Group 17494" transform="translate(3.36 164.119)">
            <g id="Group_17493" data-name="Group 17493">
              <path id="Path_8399" data-name="Path 8399" d="M5398.233,4735.589c.09.353-3.891,1.8-10.578,3.212a131.3,131.3,0,0,1-53.078-.181c-6.677-1.459-10.647-2.931-10.555-3.284.2-.89,16.542,3.181,37.1,3.175C5381.667,4738.657,5398.038,4734.7,5398.233,4735.589Z" transform="translate(-5324.021 -4735.208)" fill="#263238"/>
            </g>
          </g>
          <g id="Group_17496" data-name="Group 17496" transform="translate(4.438 146.545)">
            <g id="Group_17495" data-name="Group 17495">
              <path id="Path_8400" data-name="Path 8400" d="M5398.006,4713.416c.091.353-3.8,1.8-10.339,3.21a125.8,125.8,0,0,1-51.967-.181c-6.532-1.459-10.41-2.93-10.316-3.282.206-.89,16.186,3.18,36.3,3.174C5381.8,4716.482,5397.808,4712.524,5398.006,4713.416Z" transform="translate(-5325.382 -4713.036)" fill="#263238"/>
            </g>
          </g>
          <g id="Group_17498" data-name="Group 17498" transform="translate(16.613 139.334)">
            <g id="Group_17497" data-name="Group 17497">
              <path id="Path_8401" data-name="Path 8401" d="M5389.66,4704.065c.356.634-10.267,5.645-24.448,5.593-14.186.079-24.815-4.911-24.46-5.546.274-.844,10.9,2.729,24.457,2.635C5378.766,4706.815,5389.384,4703.222,5389.66,4704.065Z" transform="translate(-5340.743 -4703.937)" fill="#263238"/>
            </g>
          </g>
          <g id="Group_17500" data-name="Group 17500" transform="translate(32.639 12.725)">
            <g id="Group_17499" data-name="Group 17499">
              <path id="Path_8402" data-name="Path 8402" d="M5371.452,4544.322c.653.368-.88,3.577-5.114,3.723-3.857-.226-5.809-2.726-5.292-3.3.458-.656,2.8.292,5.366.386C5368.739,4545.167,5370.886,4543.768,5371.452,4544.322Z" transform="translate(-5360.964 -4544.192)" fill="#263238"/>
            </g>
          </g>
        </g>
        <g id="Group_17503" data-name="Group 17503" transform="translate(25.495 78.771)" opacity="0.3">
          <g id="Group_17502" data-name="Group 17502">
            <path id="Path_8403" data-name="Path 8403" d="M5351.949,4627.553a22.886,22.886,0,0,0,12.827,3.7c4.827-.132,10.455-1.263,13.678-3.693-8.475-.123-18.029.115-26.5-.008" transform="translate(-5351.949 -4627.524)"/>
          </g>
        </g>
      </g>
    </g>
    <g id="Group_17540" data-name="Group 17540" transform="translate(5309.235 4561.995)">
      <g id="Group_17527" data-name="Group 17527" transform="translate(0 81.729)">
        <g id="Group_17506" data-name="Group 17506">
          <rect id="Rectangle_11268" data-name="Rectangle 11268" width="103.666" height="135.541" rx="13.11" transform="translate(0.437 0.437)" fill="#92e3a9"/>
          <path id="Path_8404" data-name="Path 8404" d="M5414.227,4810.39h-82.886a10.84,10.84,0,0,1-10.827-10.827V4684.8a10.84,10.84,0,0,1,10.827-10.828h82.886a10.84,10.84,0,0,1,10.828,10.828v114.76A10.84,10.84,0,0,1,5414.227,4810.39Zm-82.886-135.541a9.963,9.963,0,0,0-9.952,9.953v114.76a9.963,9.963,0,0,0,9.952,9.952h82.886a9.964,9.964,0,0,0,9.953-9.952V4684.8a9.964,9.964,0,0,0-9.953-9.953Z" transform="translate(-5320.514 -4673.975)" fill="#263238"/>
        </g>
        <g id="Group_17507" data-name="Group 17507" transform="translate(0.437 0.437)" opacity="0.2">
          <rect id="Rectangle_11269" data-name="Rectangle 11269" width="103.666" height="135.541" rx="13.11"/>
        </g>
        <g id="Group_17526" data-name="Group 17526" transform="translate(9.652 10.24)">
          <g id="Group_17508" data-name="Group 17508">
            <path id="Path_8405" data-name="Path 8405" d="M5436.909,4697.835v114.759a10.392,10.392,0,0,1-10.4,10.4H5343.63a10.39,10.39,0,0,1-10.387-10.4V4697.835a10.387,10.387,0,0,1,10.387-10.387h82.883A10.389,10.389,0,0,1,5436.909,4697.835Z" transform="translate(-5332.807 -4687.01)" fill="#fff"/>
            <path id="Path_8406" data-name="Path 8406" d="M5426.4,4823.312h-82.883a10.839,10.839,0,0,1-10.823-10.832V4697.72a10.836,10.836,0,0,1,10.823-10.825H5426.4a10.84,10.84,0,0,1,10.832,10.825v114.76A10.844,10.844,0,0,1,5426.4,4823.312Zm-82.883-135.542a9.961,9.961,0,0,0-9.949,9.95v114.76a9.965,9.965,0,0,0,9.949,9.957H5426.4a9.97,9.97,0,0,0,9.958-9.957V4697.72a9.966,9.966,0,0,0-9.958-9.95Z" transform="translate(-5332.692 -4686.895)" fill="#263238"/>
          </g>
          <g id="Group_17509" data-name="Group 17509">
            <path id="Path_8407" data-name="Path 8407" d="M5436.909,4697.835v6.146H5333.244v-6.146a10.387,10.387,0,0,1,10.387-10.387h82.883A10.389,10.389,0,0,1,5436.909,4697.835Z" transform="translate(-5332.807 -4687.01)" fill="#92e3a9"/>
            <path id="Path_8408" data-name="Path 8408" d="M5437.23,4704.3H5332.692v-6.583a10.836,10.836,0,0,1,10.823-10.825H5426.4a10.84,10.84,0,0,1,10.832,10.825Zm-103.664-.875h102.79v-5.708a9.966,9.966,0,0,0-9.958-9.95h-82.883a9.961,9.961,0,0,0-9.949,9.95Z" transform="translate(-5332.692 -4686.895)" fill="#263238"/>
          </g>
          <g id="Group_17510" data-name="Group 17510" transform="translate(10.186 24.09)">
            <rect id="Rectangle_11270" data-name="Rectangle 11270" width="25.504" height="4.278" fill="#92e3a9"/>
          </g>
          <g id="Group_17511" data-name="Group 17511" transform="translate(10.186 62.441)">
            <rect id="Rectangle_11271" data-name="Rectangle 11271" width="25.504" height="4.278" fill="#92e3a9"/>
          </g>
          <g id="Group_17512" data-name="Group 17512" transform="translate(10.186 97.219)">
            <rect id="Rectangle_11272" data-name="Rectangle 11272" width="25.504" height="4.278" fill="#92e3a9"/>
          </g>
          <g id="Group_17517" data-name="Group 17517" transform="translate(10.186 34.68)">
            <g id="Group_17513" data-name="Group 17513">
              <rect id="Rectangle_11273" data-name="Rectangle 11273" width="72.435" height="3.137" fill="#263238"/>
            </g>
            <g id="Group_17514" data-name="Group 17514" transform="translate(0 6.005)">
              <rect id="Rectangle_11274" data-name="Rectangle 11274" width="59.374" height="3.057" fill="#263238"/>
            </g>
            <g id="Group_17515" data-name="Group 17515" transform="translate(0 11.909)">
              <rect id="Rectangle_11275" data-name="Rectangle 11275" width="67.149" height="3.057" fill="#263238"/>
            </g>
            <g id="Group_17516" data-name="Group 17516" transform="translate(0 17.807)">
              <rect id="Rectangle_11276" data-name="Rectangle 11276" width="67.149" height="3.057" fill="#263238"/>
            </g>
          </g>
          <g id="Group_17521" data-name="Group 17521" transform="translate(10.186 69.459)">
            <g id="Group_17518" data-name="Group 17518">
              <rect id="Rectangle_11277" data-name="Rectangle 11277" width="72.435" height="3.137" fill="#263238"/>
            </g>
            <g id="Group_17519" data-name="Group 17519" transform="translate(0 6.005)">
              <rect id="Rectangle_11278" data-name="Rectangle 11278" width="59.374" height="3.057" fill="#263238"/>
            </g>
            <g id="Group_17520" data-name="Group 17520" transform="translate(0 11.909)">
              <rect id="Rectangle_11279" data-name="Rectangle 11279" width="67.149" height="3.057" fill="#263238"/>
            </g>
          </g>
          <g id="Group_17525" data-name="Group 17525" transform="translate(10.186 107.65)">
            <g id="Group_17522" data-name="Group 17522">
              <rect id="Rectangle_11280" data-name="Rectangle 11280" width="72.435" height="3.137" fill="#263238"/>
            </g>
            <g id="Group_17523" data-name="Group 17523" transform="translate(0 6.005)">
              <rect id="Rectangle_11281" data-name="Rectangle 11281" width="59.374" height="3.057" fill="#263238"/>
            </g>
            <g id="Group_17524" data-name="Group 17524" transform="translate(0 11.909)">
              <rect id="Rectangle_11282" data-name="Rectangle 11282" width="67.149" height="3.058" fill="#263238"/>
            </g>
          </g>
        </g>
      </g>
      <g id="Group_17539" data-name="Group 17539" transform="translate(64.117)">
        <g id="Group_17528" data-name="Group 17528">
          <path id="Path_8409" data-name="Path 8409" d="M5533.57,4583.806v46.381a12.385,12.385,0,0,1-12.39,12.39H5414.352a12.39,12.39,0,0,1-12.389-12.39v-46.381a12.4,12.4,0,0,1,12.389-12.4h106.829A12.392,12.392,0,0,1,5533.57,4583.806Z" transform="translate(-5401.525 -4570.971)" fill="#fff"/>
          <path id="Path_8410" data-name="Path 8410" d="M5521.066,4642.9h-106.83a12.841,12.841,0,0,1-12.825-12.826v-46.381a12.845,12.845,0,0,1,12.825-12.835h106.83a12.846,12.846,0,0,1,12.827,12.835v46.381A12.841,12.841,0,0,1,5521.066,4642.9Zm-106.83-71.167a11.969,11.969,0,0,0-11.951,11.96v46.381a11.964,11.964,0,0,0,11.951,11.951h106.83a11.965,11.965,0,0,0,11.952-11.951v-46.381a11.97,11.97,0,0,0-11.952-11.96Z" transform="translate(-5401.411 -4570.856)" fill="#222221"/>
        </g>
        <g id="Group_17529" data-name="Group 17529">
          <path id="Path_8411" data-name="Path 8411" d="M5533.57,4583.806v1.058H5401.963v-1.058a12.4,12.4,0,0,1,12.389-12.4h106.829A12.392,12.392,0,0,1,5533.57,4583.806Z" transform="translate(-5401.525 -4570.971)" fill="#92e3a9"/>
          <path id="Path_8412" data-name="Path 8412" d="M5533.893,4585.186H5401.411v-1.5a12.845,12.845,0,0,1,12.825-12.835h106.83a12.846,12.846,0,0,1,12.827,12.835Zm-131.607-.875h130.733v-.621a11.97,11.97,0,0,0-11.952-11.96h-106.83a11.969,11.969,0,0,0-11.951,11.96Z" transform="translate(-5401.411 -4570.856)" fill="#263238"/>
        </g>
        <g id="Group_17530" data-name="Group 17530" transform="translate(16.532 6.142)">
          <path id="Path_8413" data-name="Path 8413" d="M5425.509,4581.845a1.9,1.9,0,1,1,0-2.683A1.9,1.9,0,0,1,5425.509,4581.845Z" transform="translate(-5422.27 -4578.606)" fill="#263238"/>
        </g>
        <g id="Group_17531" data-name="Group 17531" transform="translate(25.345 6.142)">
          <path id="Path_8414" data-name="Path 8414" d="M5436.629,4581.845a1.9,1.9,0,1,1,0-2.683A1.9,1.9,0,0,1,5436.629,4581.845Z" transform="translate(-5433.39 -4578.606)" fill="#263238"/>
        </g>
        <g id="Group_17532" data-name="Group 17532" transform="translate(34.159 6.142)">
          <path id="Path_8415" data-name="Path 8415" d="M5447.75,4581.845a1.9,1.9,0,1,1,0-2.683A1.9,1.9,0,0,1,5447.75,4581.845Z" transform="translate(-5444.51 -4578.606)" fill="#263238"/>
        </g>
        <g id="Group_17533" data-name="Group 17533" transform="translate(8.392 21.985)">
          <path id="Path_8416" data-name="Path 8416" d="M5455.457,4636.654h-3.5a.437.437,0,1,1,0-.874h3.5a.437.437,0,0,1,0,.874Zm-7,0h-3.5a.437.437,0,0,1,0-.874h3.5a.437.437,0,1,1,0,.874Zm-6.994,0h-3.5a.437.437,0,1,1,0-.874h3.5a.437.437,0,1,1,0,.874Zm-6.995,0h-3.5a.437.437,0,1,1,0-.874h3.5a.437.437,0,1,1,0,.874Zm-6.994,0h-3.5a.437.437,0,1,1,0-.874h3.5a.437.437,0,1,1,0,.874Zm-6.994,0h-3.5a.437.437,0,1,1,0-.874h3.5a.437.437,0,0,1,0,.874Zm-7,0h-1.053a.437.437,0,0,1-.437-.437v-2.443a.437.437,0,0,1,.874,0v2.007h.616a.437.437,0,1,1,0,.874Zm41.967-3.039a.437.437,0,0,1-.438-.437v-3.5a.437.437,0,0,1,.875,0v3.5A.437.437,0,0,1,5455.457,4633.615Zm-43.021-2.9a.437.437,0,0,1-.437-.437v-3.5a.437.437,0,1,1,.874,0v3.5A.437.437,0,0,1,5412.437,4630.714Zm43.021-4.092a.438.438,0,0,1-.438-.438v-3.5a.437.437,0,1,1,.875,0v3.5A.437.437,0,0,1,5455.457,4626.622Zm-43.021-2.9a.437.437,0,0,1-.437-.437v-3.5a.437.437,0,1,1,.874,0v3.5A.437.437,0,0,1,5412.437,4623.719Zm43.021-4.092a.438.438,0,0,1-.438-.437v-3.5a.437.437,0,0,1,.875,0v3.5A.437.437,0,0,1,5455.457,4619.627Zm-43.021-2.9a.437.437,0,0,1-.437-.437v-3.5a.437.437,0,1,1,.874,0v3.5A.437.437,0,0,1,5412.437,4616.725Zm43.021-4.092a.438.438,0,0,1-.438-.438v-3.5a.437.437,0,0,1,.875,0v3.5A.438.438,0,0,1,5455.457,4612.633Zm-43.021-2.9a.437.437,0,0,1-.437-.437v-3.5a.437.437,0,1,1,.874,0v3.5A.437.437,0,0,1,5412.437,4609.73Zm43.021-4.092a.437.437,0,0,1-.438-.437v-3.5a.437.437,0,0,1,.875,0v3.5A.437.437,0,0,1,5455.457,4605.639Zm-43.021-2.9a.437.437,0,0,1-.437-.437v-3.268a.437.437,0,0,1,.437-.437h.229a.437.437,0,0,1,.208.822v2.883A.437.437,0,0,1,5412.437,4602.736Zm42.2-3.268h-3.5a.437.437,0,1,1,0-.874h3.5a.437.437,0,0,1,0,.874Zm-7,0h-3.5a.437.437,0,0,1,0-.874h3.5a.437.437,0,1,1,0,.874Zm-6.994,0h-3.5a.437.437,0,1,1,0-.874h3.5a.437.437,0,1,1,0,.874Zm-6.995,0h-3.5a.437.437,0,1,1,0-.874h3.5a.437.437,0,1,1,0,.874Zm-6.993,0h-3.5a.437.437,0,1,1,0-.874h3.5a.437.437,0,1,1,0,.874Zm-6.995,0h-3.5a.437.437,0,1,1,0-.874h3.5a.437.437,0,0,1,0,.874Z" transform="translate(-5412 -4598.594)" fill="#263238"/>
        </g>
        <g id="Group_17538" data-name="Group 17538" transform="translate(58.486 22.422)">
          <g id="Group_17534" data-name="Group 17534">
            <rect id="Rectangle_11283" data-name="Rectangle 11283" width="49.51" height="2.612" fill="#263238"/>
          </g>
          <g id="Group_17535" data-name="Group 17535" transform="translate(0 5.416)">
            <rect id="Rectangle_11284" data-name="Rectangle 11284" width="37.977" height="2.611" fill="#263238"/>
          </g>
          <g id="Group_17536" data-name="Group 17536" transform="translate(0 10.801)">
            <rect id="Rectangle_11285" data-name="Rectangle 11285" width="56.552" height="2.642" fill="#263238"/>
          </g>
          <g id="Group_17537" data-name="Group 17537" transform="translate(0 16.062)">
            <rect id="Rectangle_11286" data-name="Rectangle 11286" width="48.155" height="2.642" fill="#263238"/>
          </g>
        </g>
      </g>
    </g>
    <g id="Group_17596" data-name="Group 17596" transform="translate(5422.678 4660.108)">
      <g id="Group_17541" data-name="Group 17541" transform="translate(0.312 175.396)">
        <path id="Path_8417" data-name="Path 8417" d="M5518.331,4924.883s-22.984,6.592-26.193,7.729c-2.92,1.031-10.832,3.8-16.769,2.946a12.927,12.927,0,0,1-1.7-.367c-6.016-1.793-8.717-3.463-9.5-7.248s2.2-6.566,5.088-8.35,18.535-3.646,18.535-3.646l3.777,1.111h.009Z" transform="translate(-5464.04 -4915.947)" fill="#92e3a9"/>
      </g>
      <g id="Group_17542" data-name="Group 17542" transform="translate(0.312 175.396)">
        <path id="Path_8418" data-name="Path 8418" d="M5475.369,4935.558a12.927,12.927,0,0,1-1.7-.367c-6.016-1.793-8.717-3.463-9.5-7.248s2.2-6.566,5.088-8.35,18.535-3.646,18.535-3.646l3.777,1.111c-3.418,1.574-16.166,2.448-18.946,4.048s-4.127,4.616-2.483,8.69C5471.015,4931.964,5473.357,4934.063,5475.369,4935.558Z" transform="translate(-5464.04 -4915.947)" fill="#fff"/>
      </g>
      <g id="Group_17543" data-name="Group 17543" transform="translate(0 175.904)">
        <path id="Path_8419" data-name="Path 8419" d="M5478.075,4936.127c-5.03,0-9.808-1.208-12.291-4.357-2.527-3.208-2.36-5.9-1.776-7.591a8.615,8.615,0,0,1,6.132-5.216c4.771-1.158,14.214-2.926,19.358-2.21a.437.437,0,0,1-.121.866c-5.007-.694-14.319,1.052-19.031,2.194a7.723,7.723,0,0,0-5.512,4.651c-.737,2.131-.17,4.47,1.637,6.763,4.3,5.46,16.9,4.644,24.043,1.657,6.8-2.842,23.994-7.31,24.167-7.355a.437.437,0,1,1,.22.847c-.173.044-17.312,4.5-24.048,7.315A34.959,34.959,0,0,1,5478.075,4936.127Z" transform="translate(-5463.646 -4916.588)" fill="#263238"/>
      </g>
      <g id="Group_17544" data-name="Group 17544" transform="translate(5.093 176.066)">
        <path id="Path_8420" data-name="Path 8420" d="M5476.965,4935.857a.443.443,0,0,1-.21-.055c-.091-.049-9.1-5.088-6.056-12.123,1.42-3.285,6.576-4.089,11.561-4.866,3.023-.471,6.149-.959,8.326-1.979a.437.437,0,1,1,.371.791c-2.289,1.074-5.479,1.572-8.562,2.053-4.751.74-9.665,1.506-10.894,4.349-2.723,6.3,5.591,10.963,5.676,11.009a.438.438,0,0,1-.211.821Z" transform="translate(-5470.072 -4916.792)" fill="#263238"/>
      </g>
      <g id="Group_17545" data-name="Group 17545" transform="translate(76.697 174.951)">
        <path id="Path_8421" data-name="Path 8421" d="M5608.327,4936.508a7.287,7.287,0,0,1-3.444,6.006,13.479,13.479,0,0,1-7.064,1.46c-8.061-.1-23.213-5.866-23.213-5.866l-14.189-7.843,7.379-11.681,2.02-3.2,5.22,1.171s4.319,2.449,8.665,4.4,14.889,2.36,18.6,5.368S5608.729,4932.591,5608.327,4936.508Z" transform="translate(-5560.416 -4915.385)" fill="#92e3a9"/>
      </g>
      <g id="Group_17546" data-name="Group 17546" transform="translate(84.076 174.951)">
        <path id="Path_8422" data-name="Path 8422" d="M5610.258,4936.508a7.287,7.287,0,0,1-3.444,6.006,10.629,10.629,0,0,0-.4-7.082c-1.574-3.559-6.741-6.7-13.526-7.222s-11.977-3.7-14.7-5.115c-2.124-1.1-6.6-3.505-8.463-4.511l2.02-3.2,5.22,1.171s4.319,2.449,8.665,4.4,14.889,2.36,18.6,5.368S5610.66,4932.591,5610.258,4936.508Z" transform="translate(-5569.726 -4915.385)" fill="#fff"/>
      </g>
      <g id="Group_17547" data-name="Group 17547" transform="translate(77.935 179.231)">
        <path id="Path_8423" data-name="Path 8423" d="M5599.474,4945.529a20.476,20.476,0,0,1-2.43-.166,89.557,89.557,0,0,1-33.377-11.4.437.437,0,1,1,.436-.758,88.7,88.7,0,0,0,33.047,11.29c2.375.287,5.308.382,6.935-1.442a4.948,4.948,0,0,0,1.081-3.725c-.316-3.7-3.551-6.356-6.471-7.611a34.516,34.516,0,0,0-7.39-1.937c-1.04-.192-2.117-.392-3.169-.627a42.4,42.4,0,0,1-10.334-3.78c-.553-.289-1.1-.591-1.651-.893a22.97,22.97,0,0,0-6.115-2.629c-2.467-.526-5.784.006-7.246,2.4a.438.438,0,0,1-.747-.457c1.693-2.767,5.33-3.4,8.175-2.795a23.656,23.656,0,0,1,6.354,2.72c.544.3,1.087.6,1.635.884a41.6,41.6,0,0,0,10.121,3.7c1.035.231,2.1.429,3.138.619a35.241,35.241,0,0,1,7.574,1.993c3.153,1.355,6.647,4.257,7,8.339a5.821,5.821,0,0,1-1.3,4.382A6.758,6.758,0,0,1,5599.474,4945.529Z" transform="translate(-5561.978 -4920.786)" fill="#263238"/>
      </g>
      <g id="Group_17548" data-name="Group 17548" transform="translate(85.235 175.685)">
        <path id="Path_8424" data-name="Path 8424" d="M5605.373,4943.842a.437.437,0,0,1-.2-.826,9.038,9.038,0,0,0,4.959-6.382c.448-2.995-1.134-6.364-4.031-8.585-2.793-2.141-6.329-3.087-9.42-3.729-.772-.161-1.55-.31-2.328-.458a44.365,44.365,0,0,1-7.852-2.006c-1.338-.523-2.684-1.188-3.987-1.831-3.676-1.816-7.147-3.53-10.777-2.565a.437.437,0,0,1-.224-.846c3.949-1.047,7.73.82,11.388,2.626,1.286.635,2.616,1.292,3.919,1.8a43.617,43.617,0,0,0,7.7,1.962c.782.149,1.564.3,2.342.461,3.187.662,6.841,1.643,9.774,3.892,3.144,2.411,4.858,6.1,4.363,9.409a9.924,9.924,0,0,1-5.425,7.028A.431.431,0,0,1,5605.373,4943.842Z" transform="translate(-5571.188 -4916.312)" fill="#263238"/>
      </g>
      <g id="Group_17549" data-name="Group 17549" transform="translate(9.946 49.875)">
        <path id="Path_8425" data-name="Path 8425" d="M5562.1,4776.949l-24.009-9.136-.3-.114s.088-.638.158-1.564c.148-1.915.227-5.036-.673-6.094-1.338-1.565-5.133-.253-8.831-1.95s-10.543,1.338-10.543,1.338-4.94-.909-7.118,2.658c-1.109,2.876-.725,7.16-.725,7.16s-.158.062-.455.167c-2.859,1.066-18.421,6.924-21.717,9.276-3.638,2.58-7.659,29.026-8.953,36.79s-3.593,14.768-2.421,17.442,17.888,15.545,27.5,18.867,43.741,2.353,43.741,2.353.56-.149,1.547-.464c5.771-1.854,26.247-9.486,37.105-27.488C5586.416,4826.189,5575.9,4791.69,5562.1,4776.949Zm-64.864,44.484c-1.766,1.251-.822,6.1-.822,6.1l-3.007-2.649,7.545-18.552,3.217,14.241S5499,4820.191,5497.238,4821.433Zm60.361,11.786c-.831.429,2.386-8.489.856-10.509s-6.111-1.828-6.111-1.828l.393-2.439c.053-.271,2.72-13.945,2.72-13.945l.9-1.075s9.338,16.008,11.007,21.647C5567.365,4825.07,5557.188,4833.218,5557.6,4833.218Z" transform="translate(-5476.195 -4757.575)" fill="#92e3a9"/>
      </g>
      <g id="Group_17550" data-name="Group 17550" transform="translate(36.943 11.384)">
        <path id="Path_8426" data-name="Path 8426" d="M5523.838,4709.01l-12.391,13.156s-1.709,1.51-1.03,5.326,2.26,7.095,3.455,7.35a17.084,17.084,0,0,0,2.87.256s2.655,5.754,4.536,8.016c0,0,.655,8.882.306,11.348,0,0,4.452,3.889,8.645,4.383s10.672-5.931,10.672-5.931l1.606-7.864s3.8-5.77,4.061-7.307,2-1.142,2.851-1.9a14.466,14.466,0,0,0,3.156-7.349c.327-3.2.35-6.88-3.37-5.8-3.223-.866-1.206-7.68-1.206-7.68l-5.664-5Z" transform="translate(-5510.258 -4709.01)" fill="#fff"/>
      </g>
      <g id="Group_17551" data-name="Group 17551" transform="translate(43.36 49.875)" opacity="0.5">
        <path id="Path_8427" data-name="Path 8427" d="M5546.838,4767.813a12.462,12.462,0,0,1-.638,1.433c-2.045,3.856-10.955,11.2-10.955,11.2l-2.692-8.28-1.478,8.28c-2.973-1.294-12.039-9.154-12.039-9.154s-.306-.734-.682-1.879c.3-.105.455-.167.455-.167s-.385-4.284.725-7.16c2.177-3.567,7.117-2.658,7.117-2.658s6.846-3.034,10.544-1.338,7.493.385,8.831,1.95.515,7.659.515,7.659Z" transform="translate(-5518.354 -4757.575)" fill="#fff"/>
      </g>
      <g id="Group_17552" data-name="Group 17552" transform="translate(67.657 58.434)" opacity="0.2">
        <path id="Path_8428" data-name="Path 8428" d="M5577.206,4779.188l-24.009-9.136-.3-.114s.088-.638.157-1.564l-.5,3.112-3.55,4.826a97.3,97.3,0,0,1,11.078,4.883,9.729,9.729,0,0,1,5.089,9.705l-4.425,37.843-1.811,21.491,5.473,5.683c5.771-1.854,26.247-9.486,37.105-27.488C5601.52,4828.429,5591,4793.93,5577.206,4779.188Zm-4.5,56.27c-.83.429,2.387-8.489.856-10.509s-6.111-1.827-6.111-1.827l.394-2.439,2.72-13.945.9-1.076s9.339,16.009,11.008,21.647C5582.469,4827.31,5572.292,4835.458,5572.7,4835.458Z" transform="translate(-5549.01 -4768.374)"/>
      </g>
      <g id="Group_17553" data-name="Group 17553" transform="translate(15.118 74.074)" opacity="0.2">
        <path id="Path_8429" data-name="Path 8429" d="M5507.151,4829.042l-3.734-12.476s-6.693-22.83-11.283-28.46l1.207,16.055s-3.938,19.18-7.583,24.88-4.433,7.117,0,7.117,15.213,8.595,15.213,8.595l-.831-7.169Zm-9.382,4.826-3.007-2.649,7.545-18.552,3.217,14.242s-5.167-.384-6.933.857S5497.77,4833.869,5497.77,4833.869Z" transform="translate(-5482.721 -4788.107)"/>
      </g>
      <g id="Group_17554" data-name="Group 17554" transform="translate(47.526 45.05)">
        <path id="Path_8430" data-name="Path 8430" d="M5524.048,4762.164a.44.44,0,0,1-.427-.534c.665-2.969,0-9.593-.009-9.66a.437.437,0,1,1,.87-.09c.029.278.689,6.833-.008,9.942A.438.438,0,0,1,5524.048,4762.164Z" transform="translate(-5523.61 -4751.487)" fill="#263238"/>
      </g>
      <g id="Group_17555" data-name="Group 17555" transform="translate(67.834 47.523)">
        <path id="Path_8431" data-name="Path 8431" d="M5549.67,4761.909a.437.437,0,0,1-.437-.432,28.991,28.991,0,0,1,.762-6.539.437.437,0,0,1,.849.212,28.482,28.482,0,0,0-.736,6.316.438.438,0,0,1-.432.442Z" transform="translate(-5549.232 -4754.608)" fill="#263238"/>
      </g>
      <g id="Group_17556" data-name="Group 17556" transform="translate(42.32 15.961)">
        <path id="Path_8432" data-name="Path 8432" d="M5532.956,4752.869a7.151,7.151,0,0,1-5.377-2.062,82.9,82.9,0,0,1-7.415-9.3l-.56-.767c-3.189-4.36-2.513-13.574-2.483-13.964a.447.447,0,0,1,.47-.4.438.438,0,0,1,.4.47c-.007.092-.682,9.281,2.317,13.38l.561.767a82.206,82.206,0,0,0,7.327,9.2c2.2,2.2,5.184,2.084,8.99,1.239,3.467-.771,10.717-9.865,10.614-14.278-.09-3.911.134-7.893.332-11.407l.087-1.568c.2-3.649-3.728-8.629-3.766-8.678a.437.437,0,1,1,.684-.545c.17.215,4.17,5.29,3.956,9.271l-.087,1.57c-.2,3.5-.42,7.461-.33,11.337.111,4.808-7.51,14.31-11.3,15.153A20.837,20.837,0,0,1,5532.956,4752.869Z" transform="translate(-5517.042 -4714.786)" fill="#263238"/>
      </g>
      <g id="Group_17557" data-name="Group 17557" transform="translate(59.452 31.124)">
        <path id="Path_8433" data-name="Path 8433" d="M5539.095,4746.1a.437.437,0,0,1-.287-.768,4.713,4.713,0,0,1,.975-.608c.185-.095.37-.19.542-.3.326-.208.688-.584.639-.959-.041-.307-.329-.556-.663-.844-.14-.122-.28-.243-.4-.37a5.257,5.257,0,0,1-1.169-3.627,21.607,21.607,0,0,1,.325-4.342.428.428,0,0,1,.506-.354.437.437,0,0,1,.354.506,20.645,20.645,0,0,0-.312,4.166,4.493,4.493,0,0,0,.918,3.037c.109.112.231.216.354.321a2.313,2.313,0,0,1,.957,1.39,1.928,1.928,0,0,1-1.034,1.813c-.2.126-.406.233-.615.34a4.1,4.1,0,0,0-.8.492A.434.434,0,0,1,5539.095,4746.1Z" transform="translate(-5538.657 -4733.917)" fill="#263238"/>
      </g>
      <g id="Group_17558" data-name="Group 17558" transform="translate(53.377 42.924)">
        <path id="Path_8434" data-name="Path 8434" d="M5535.969,4753.351a.4.4,0,0,1-.068-.005c-4.334-.677-4.882-3.9-4.9-4.034a.437.437,0,0,1,.364-.5.427.427,0,0,1,.5.363h0c.019.111.494,2.731,4.175,3.306a.437.437,0,0,1-.066.87Z" transform="translate(-5530.993 -4748.805)" fill="#263238"/>
      </g>
      <g id="Group_17559" data-name="Group 17559" transform="translate(52.544 32.288)">
        <path id="Path_8435" data-name="Path 8435" d="M5531.634,4736.973c0,.876-.379,1.587-.847,1.587s-.847-.711-.847-1.587.379-1.588.847-1.588S5531.634,4736.1,5531.634,4736.973Z" transform="translate(-5529.941 -4735.385)" fill="#263238"/>
      </g>
      <g id="Group_17560" data-name="Group 17560" transform="translate(64.677 32.67)">
        <path id="Path_8436" data-name="Path 8436" d="M5546.943,4737.454c0,.876-.379,1.587-.847,1.587s-.846-.711-.846-1.587.379-1.587.846-1.587S5546.943,4736.578,5546.943,4737.454Z" transform="translate(-5545.25 -4735.867)" fill="#263238"/>
      </g>
      <g id="Group_17561" data-name="Group 17561" transform="translate(63.049 27.913)">
        <path id="Path_8437" data-name="Path 8437" d="M5551.354,4733.7a.876.876,0,0,1-.7-.345,3.81,3.81,0,0,0-2.7-1.728,4.9,4.9,0,0,0-3.267,1.364.875.875,0,0,1-1.235-1.239,6.6,6.6,0,0,1,4.612-1.871,5.467,5.467,0,0,1,3.986,2.416.874.874,0,0,1-.7,1.4Z" transform="translate(-5543.195 -4729.866)" fill="#263238"/>
      </g>
      <g id="Group_17562" data-name="Group 17562" transform="translate(48.254 28.37)">
        <path id="Path_8438" data-name="Path 8438" d="M5525.4,4733.437a.874.874,0,0,1-.507-1.587c3.625-2.581,6.562-1.043,7.607.13a.874.874,0,0,1-1.3,1.168c-.212-.228-2.125-2.129-5.295.126A.871.871,0,0,1,5525.4,4733.437Z" transform="translate(-5524.528 -4730.442)" fill="#263238"/>
      </g>
      <g id="Group_17563" data-name="Group 17563" transform="translate(47.963 45.488)">
        <path id="Path_8439" data-name="Path 8439" d="M5524.468,4755.737s2.417,6.661,7.813,8.55,12.563-7.915,12.563-7.915l-.374-1.274s-4.7,6.1-9.919,5.06-10.389-8.117-10.389-8.117Z" transform="translate(-5524.162 -4752.04)" fill="#263238"/>
      </g>
      <g id="Group_17564" data-name="Group 17564" transform="translate(36.663 23.55)">
        <path id="Path_8440" data-name="Path 8440" d="M5515.088,4738.719a3.517,3.517,0,0,1-1.534-.318,2.652,2.652,0,0,1-1.373-1.605c-.108-.316-.249-.7-.408-1.127-1.18-3.191-3.154-8.532-.685-10.651a2.29,2.29,0,0,1,2.094-.594c1.912.466,3.172,3.537,3.225,3.667a.437.437,0,1,1-.811.328c-.314-.773-1.4-2.847-2.623-3.145a1.431,1.431,0,0,0-1.315.409c-2.009,1.722-.094,6.9.935,9.684.162.438.306.827.416,1.148a1.788,1.788,0,0,0,.926,1.1,3.877,3.877,0,0,0,2.587,0,.438.438,0,1,1,.292.825A5.735,5.735,0,0,1,5515.088,4738.719Z" transform="translate(-5509.905 -4724.361)" fill="#263238"/>
      </g>
      <g id="Group_17565" data-name="Group 17565" transform="translate(73.075 24.383)">
        <path id="Path_8441" data-name="Path 8441" d="M5557.049,4740.119a4.364,4.364,0,0,1-.852-.08.437.437,0,0,1,.17-.857c.106.02,2.627.49,3.347-1.618.11-.322.253-.711.416-1.148,1.028-2.783,2.943-7.962.935-9.684a1.446,1.446,0,0,0-1.315-.41c-1.227.3-2.31,2.373-2.624,3.146a.437.437,0,0,1-.811-.328c.053-.13,1.313-3.2,3.226-3.667a2.289,2.289,0,0,1,2.093.594c2.47,2.119.495,7.459-.685,10.65-.16.431-.3.812-.408,1.128A3.462,3.462,0,0,1,5557.049,4740.119Z" transform="translate(-5555.846 -4725.412)" fill="#263238"/>
      </g>
      <g id="Group_17566" data-name="Group 17566" transform="translate(33.596 0)">
        <path id="Path_8442" data-name="Path 8442" d="M5515.2,4728.522a4.461,4.461,0,0,0,2.823-1.667,7.031,7.031,0,0,0,.82-2.53,30.524,30.524,0,0,0,.448-5.1,6.891,6.891,0,0,1,.179-1.988,5.1,5.1,0,0,1,1.076-1.769c1.123-1.315,2.474-2.428,3.542-3.788a6.323,6.323,0,0,0,1.564-4.79,21.759,21.759,0,0,0,17.812,4.606c5.661-1.11,11.1-6.079,10.434-12.324a5.053,5.053,0,0,0-3.989-4.347c-2.8-.7-5.314.8-7.85,1.752-4.623,1.743-9.146-1.25-13.816-1.753-3.995-.429-8.9.066-10.978,4.037,0,0-7.175.843-10.317,6.735s2.832,14.051,2.832,14.051,2.4-2.911,5.494,2.982Z" transform="translate(-5506.035 -4694.647)" fill="#263238"/>
      </g>
      <g id="Group_17567" data-name="Group 17567" transform="translate(70.176 12.392)">
        <path id="Path_8443" data-name="Path 8443" d="M5552.538,4712.783s-1.855,9.667,2.987,14.35c0,0,1.06-2.907,2.133-3.616a11.21,11.21,0,0,0-.848-10.734C5553.268,4707.156,5552.538,4712.783,5552.538,4712.783Z" transform="translate(-5552.188 -4710.282)" fill="#263238"/>
      </g>
      <g id="Group_17568" data-name="Group 17568" transform="translate(41.508 3.452)" opacity="0.2">
        <path id="Path_8444" data-name="Path 8444" d="M5516.456,4714.866h-.03a.436.436,0,0,1-.407-.465,11.223,11.223,0,0,1,4.1-7.571,11.543,11.543,0,0,1,8.32-2.951,56.868,56.868,0,0,1,6.044.978c4.7.933,9.141,1.816,13.73-.053a8.652,8.652,0,0,0,5.269-5.476.437.437,0,1,1,.843.228,9.524,9.524,0,0,1-5.782,6.058c-4.832,1.966-9.611,1.017-14.231.1a55.938,55.938,0,0,0-5.951-.963,10.756,10.756,0,0,0-7.673,2.743,10.358,10.358,0,0,0-3.8,6.965A.437.437,0,0,1,5516.456,4714.866Z" transform="translate(-5516.018 -4699.002)" fill="#fff"/>
      </g>
      <g id="Group_17569" data-name="Group 17569" transform="translate(37.335 6.582)" opacity="0.2">
        <path id="Path_8445" data-name="Path 8445" d="M5511.189,4714.2h-.01a.438.438,0,0,1-.427-.448,12.213,12.213,0,0,1,7.431-10.763.437.437,0,0,1,.328.81,11.314,11.314,0,0,0-6.885,9.974A.439.439,0,0,1,5511.189,4714.2Z" transform="translate(-5510.752 -4702.953)" fill="#fff"/>
      </g>
      <g id="Group_17570" data-name="Group 17570" transform="translate(45.976 53.167)">
        <path id="Path_8446" data-name="Path 8446" d="M5532.559,4770.546a.426.426,0,0,1-.155-.028,30.778,30.778,0,0,1-10.635-7.274.438.438,0,0,1,.647-.589,30.554,30.554,0,0,0,10.158,6.993c1.07-.338,8.1-2.713,11.773-7.739a.437.437,0,1,1,.705.515c-4.135,5.666-12.038,8.008-12.372,8.1A.427.427,0,0,1,5532.559,4770.546Z" transform="translate(-5521.655 -4761.729)" fill="#263238"/>
      </g>
      <g id="Group_17571" data-name="Group 17571" transform="translate(44.102 26.318)">
        <path id="Path_8447" data-name="Path 8447" d="M5526.847,4742.967a7.557,7.557,0,1,1,7.557-7.557A7.566,7.566,0,0,1,5526.847,4742.967Zm0-14.239a6.682,6.682,0,1,0,6.682,6.683A6.69,6.69,0,0,0,5526.847,4728.728Z" transform="translate(-5519.29 -4727.853)" fill="#263238"/>
      </g>
      <g id="Group_17572" data-name="Group 17572" transform="translate(60.007 26.318)">
        <path id="Path_8448" data-name="Path 8448" d="M5546.915,4742.967a7.557,7.557,0,1,1,7.556-7.557A7.566,7.566,0,0,1,5546.915,4742.967Zm0-14.239a6.682,6.682,0,1,0,6.683,6.683A6.69,6.69,0,0,0,5546.915,4728.728Z" transform="translate(-5539.358 -4727.853)" fill="#263238"/>
      </g>
      <g id="Group_17573" data-name="Group 17573" transform="translate(43.375 51.293)">
        <path id="Path_8449" data-name="Path 8449" d="M5535.252,4781.25a.44.44,0,0,1-.147-.025.435.435,0,0,1-.274-.3l-2.023-7.328-1.3,7.288a.436.436,0,0,1-.623.316c-5.54-2.715-11.891-8.97-12.159-9.236a.432.432,0,0,1-.127-.263c-.032-.291-.761-7.15.554-9.464a5.991,5.991,0,0,1,3.717-2.869.437.437,0,0,1,.175.857,5.2,5.2,0,0,0-3.132,2.443c-.951,1.673-.668,6.761-.462,8.783.849.823,6.4,6.121,11.3,8.7l1.53-8.61a.437.437,0,0,1,.411-.359.419.419,0,0,1,.442.32l2.368,8.58c1.854-1.379,8.271-6.352,10.275-10.592.213-1.687.611-6.155.018-7.659a2.323,2.323,0,0,0-2.131-1.6.42.42,0,0,1-.459-.415.436.436,0,0,1,.414-.458,3.148,3.148,0,0,1,2.99,2.149c.807,2.045.06,7.91.027,8.16a.414.414,0,0,1-.038.127c-2.4,5.174-10.742,11.117-11.1,11.368A.443.443,0,0,1,5535.252,4781.25Z" transform="translate(-5518.373 -4759.365)" fill="#263238"/>
      </g>
      <g id="Group_17574" data-name="Group 17574" transform="translate(31.411 88.76)">
        <path id="Path_8450" data-name="Path 8450" d="M5509.638,4831.5a.439.439,0,0,1-.432-.373c-.024-.17-2.568-17.05-5.884-23.86a.437.437,0,1,1,.786-.383c3.375,6.931,5.858,23.416,5.963,24.114a.438.438,0,0,1-.369.5A.473.473,0,0,1,5509.638,4831.5Z" transform="translate(-5503.277 -4806.637)" fill="#263238"/>
      </g>
      <g id="Group_17575" data-name="Group 17575" transform="translate(24.095 73.635)">
        <path id="Path_8451" data-name="Path 8451" d="M5499.745,4797.235a.438.438,0,0,1-.395-.249,69.076,69.076,0,0,0-5.223-8.741.437.437,0,1,1,.712-.507,70.011,70.011,0,0,1,5.3,8.872.438.438,0,0,1-.207.583A.448.448,0,0,1,5499.745,4797.235Z" transform="translate(-5494.046 -4787.554)" fill="#263238"/>
      </g>
      <g id="Group_17576" data-name="Group 17576" transform="translate(90.914 78.041)">
        <path id="Path_8452" data-name="Path 8452" d="M5578.791,4802.3a.421.421,0,0,1-.111-.015.436.436,0,0,1-.311-.533,48.98,48.98,0,0,1,2.827-8.4.437.437,0,0,1,.785.384,48.143,48.143,0,0,0-2.766,8.235A.438.438,0,0,1,5578.791,4802.3Z" transform="translate(-5578.354 -4793.112)" fill="#263238"/>
      </g>
      <g id="Group_17577" data-name="Group 17577" transform="translate(85.658 91.444)">
        <path id="Path_8453" data-name="Path 8453" d="M5572.159,4832.2a.411.411,0,0,1-.068-.005.437.437,0,0,1-.364-.5c.02-.117,1.862-11.8,4.023-21.333a.442.442,0,0,1,.522-.33.436.436,0,0,1,.33.523c-2.155,9.5-3.994,21.16-4.012,21.277A.438.438,0,0,1,5572.159,4832.2Z" transform="translate(-5571.721 -4810.022)" fill="#263238"/>
      </g>
      <g id="Group_17578" data-name="Group 17578" transform="translate(88.769 91.51)">
        <path id="Path_8454" data-name="Path 8454" d="M5576.084,4815.828a.438.438,0,0,1-.351-.7,13.826,13.826,0,0,1,7.32-5,.437.437,0,0,1,.235.841,12.95,12.95,0,0,0-6.855,4.688A.436.436,0,0,1,5576.084,4815.828Z" transform="translate(-5575.646 -4810.107)" fill="#263238"/>
      </g>
      <g id="Group_17579" data-name="Group 17579" transform="translate(71.113 59.561)">
        <path id="Path_8455" data-name="Path 8455" d="M5568.974,4854.764a.437.437,0,0,1-.119-.857c20.415-5.789,31.891-23.332,33.086-25.238-6.447-19.543-12.653-31.778-16.729-38.606s-6.884-9.748-7.334-10.2c-9.437-3.323-24.084-9.168-24.232-9.228a.437.437,0,1,1,.326-.811c.146.059,14.873,5.936,24.288,9.246a.412.412,0,0,1,.154.094c.122.114,3.029,2.886,7.513,10.386,4.122,6.892,10.4,19.259,16.91,39.035a.434.434,0,0,1-.04.361c-.116.194-11.87,19.607-33.7,25.8A.422.422,0,0,1,5568.974,4854.764Z" transform="translate(-5553.371 -4769.796)" fill="#263238"/>
      </g>
      <g id="Group_17580" data-name="Group 17580" transform="translate(90.087 114.557)">
        <path id="Path_8456" data-name="Path 8456" d="M5577.747,4851.277a.437.437,0,0,1-.281-.773l10.592-8.843c.253-.193,5.9-4.4,11.9-1.4a.437.437,0,1,1-.392.781c-5.518-2.76-10.915,1.261-10.969,1.3l-10.575,8.83A.434.434,0,0,1,5577.747,4851.277Z" transform="translate(-5577.31 -4839.185)" fill="#263238"/>
      </g>
      <g id="Group_17581" data-name="Group 17581" transform="translate(89.676 95.288)">
        <path id="Path_8457" data-name="Path 8457" d="M5588.229,4837.392a.438.438,0,0,1-.423-.329c-2.2-8.565-10.853-21.379-10.939-21.507a.437.437,0,0,1,.722-.491c.089.129,8.83,13.067,11.063,21.782a.438.438,0,0,1-.423.545Z" transform="translate(-5576.791 -4814.874)" fill="#263238"/>
      </g>
      <g id="Group_17582" data-name="Group 17582" transform="translate(16.915 116.848)">
        <path id="Path_8458" data-name="Path 8458" d="M5498.336,4845.991a.436.436,0,0,1-.3-.122l-3-2.858a14.47,14.47,0,0,0-9.368,2.637.437.437,0,1,1-.485-.726c5.294-3.548,9.934-2.79,10.128-2.756a.437.437,0,0,1,.227.114l3.1,2.955a.438.438,0,0,1-.3.755Z" transform="translate(-5484.988 -4842.076)" fill="#263238"/>
      </g>
      <g id="Group_17583" data-name="Group 17583" transform="translate(26.725 97.76)">
        <path id="Path_8459" data-name="Path 8459" d="M5497.8,4838.039a.476.476,0,0,1-.129-.019.437.437,0,0,1-.29-.545c.039-.128,3.908-12.769,7.688-19.265a.437.437,0,1,1,.756.439c-3.729,6.409-7.568,18.954-7.607,19.081A.436.436,0,0,1,5497.8,4838.039Z" transform="translate(-5497.366 -4817.992)" fill="#263238"/>
      </g>
      <g id="Group_17584" data-name="Group 17584" transform="translate(9.829 61.111)">
        <path id="Path_8460" data-name="Path 8460" d="M5501.028,4854.076a.44.44,0,0,1-.2-.051c-6.493-3.432-24.984-14.387-24.774-19.538.183-4.482,8-49.708,10.323-52.3,2.13-2.374,22.632-10.085,23.5-10.412a.437.437,0,0,1,.307.818c-5.883,2.207-21.511,8.339-23.162,10.178-1.953,2.175-9.906,47.012-10.1,51.748-.16,3.929,14.411,13.5,24.31,18.729a.437.437,0,0,1-.2.824Z" transform="translate(-5476.047 -4771.752)" fill="#263238"/>
      </g>
      <g id="Group_17585" data-name="Group 17585" transform="translate(56.907 75.216)">
        <path id="Path_8461" data-name="Path 8461" d="M5538.241,4790.946a1.4,1.4,0,1,1-1.4-1.4A1.4,1.4,0,0,1,5538.241,4790.946Z" transform="translate(-5535.446 -4789.548)" fill="#263238"/>
      </g>
      <g id="Group_17591" data-name="Group 17591" transform="translate(29.117 112.747)">
        <g id="Group_17586" data-name="Group 17586" transform="translate(5.679 36.276)">
          <path id="Path_8462" data-name="Path 8462" d="M5557.044,4884.939h-48.361a1.134,1.134,0,0,1-1.134-1.134h0a1.134,1.134,0,0,1,1.134-1.134h48.361a1.133,1.133,0,0,1,1.133,1.134h0A1.134,1.134,0,0,1,5557.044,4884.939Z" transform="translate(-5507.549 -4882.671)" fill="#263238"/>
        </g>
        <g id="Group_17587" data-name="Group 17587">
          <path id="Path_8463" data-name="Path 8463" d="M5557.364,4871.8l6.481-30.434a3.24,3.24,0,0,0-3.168-3.914h-56.5a3.238,3.238,0,0,0-3.177,3.866l5.811,29.422a3.238,3.238,0,0,0,3.1,2.61l44.212,1.013A3.239,3.239,0,0,0,5557.364,4871.8Z" transform="translate(-5500.498 -4837.016)" fill="#fff"/>
          <path id="Path_8464" data-name="Path 8464" d="M5554.083,4874.687H5554l-44.212-1.013a3.656,3.656,0,0,1-3.523-2.963l-5.809-29.422a3.676,3.676,0,0,1,3.605-4.388h56.5a3.676,3.676,0,0,1,3.595,4.442l-6.481,30.434h0A3.678,3.678,0,0,1,5554.083,4874.687Zm-50.023-36.911a2.8,2.8,0,0,0-2.748,3.345l5.81,29.421a2.787,2.787,0,0,0,2.685,2.257l44.213,1.013h.064a2.8,2.8,0,0,0,2.739-2.218l6.481-30.435a2.8,2.8,0,0,0-2.74-3.384Zm53.189,33.911h0Z" transform="translate(-5500.384 -4836.901)" fill="#263238"/>
        </g>
        <g id="Group_17588" data-name="Group 17588" transform="translate(27.225 13.466)">
          <path id="Path_8465" data-name="Path 8465" d="M5543.755,4858.4a4.511,4.511,0,1,1-4.512-4.51A4.511,4.511,0,0,1,5543.755,4858.4Z" transform="translate(-5534.733 -4853.891)" fill="#263238"/>
        </g>
        <g id="Group_17589" data-name="Group 17589" transform="translate(44.676 2.889)">
          <path id="Path_8466" data-name="Path 8466" d="M5563.9,4841.42h-6.713a.437.437,0,0,1,0-.875h6.713a.437.437,0,1,1,0,.875Z" transform="translate(-5556.751 -4840.546)" fill="#263238"/>
        </g>
        <g id="Group_17590" data-name="Group 17590" transform="translate(12.616 2.889)">
          <path id="Path_8467" data-name="Path 8467" d="M5542.222,4841.42h-25.483a.437.437,0,1,1,0-.875h25.483a.437.437,0,1,1,0,.875Z" transform="translate(-5516.301 -4840.546)" fill="#263238"/>
        </g>
      </g>
      <g id="Group_17592" data-name="Group 17592" transform="translate(3.895 138.963)">
        <path id="Path_8468" data-name="Path 8468" d="M5550.76,4910.833l-5.152,13.521s-13.133-3.311-29.965-6.76c-17.6-3.606-35.979-8.275-45.513-25a9.475,9.475,0,0,1-1.392-6.732c1.376-5.778,8.892-7.346,13.846-7.925a92.238,92.238,0,0,1,9.376-.527c1.6-.022,6.857-.858,8.131.079a37.248,37.248,0,0,0,6.115,3.624c2.813,1.195,43.882-1.073,43.882-1.073a14.663,14.663,0,0,0,1.292-4.931c6.456-3.281,21.4-6.061,27.721-4.833,9.933,1.932,15.727,7.726,14.624,13.8S5570.7,4906.419,5550.76,4910.833Z" transform="translate(-5468.561 -4869.978)" fill="#263238"/>
      </g>
      <g id="Group_17593" data-name="Group 17593" transform="translate(30.549 155.71)">
        <path id="Path_8469" data-name="Path 8469" d="M5557.736,4915.654a.428.428,0,0,1-.112-.015c-.125-.033-12.681-3.409-22.833-10.27-1.645-1.112-3.246-2.261-4.794-3.372-8-5.744-15.545-11.168-27.318-9.8a.43.43,0,0,1-.484-.383.437.437,0,0,1,.384-.484c12.1-1.409,19.791,4.112,27.929,9.957,1.543,1.108,3.139,2.254,4.773,3.358,10.027,6.774,22.444,10.116,22.569,10.149a.437.437,0,0,1-.113.86Z" transform="translate(-5502.19 -4891.108)" fill="#fff"/>
      </g>
      <g id="Group_17594" data-name="Group 17594" transform="translate(60.608 146.008)">
        <path id="Path_8470" data-name="Path 8470" d="M5540.554,4901.279a.437.437,0,0,1-.122-.857c5.574-1.6,9.822-4.942,14.318-8.478q.94-.739,1.89-1.479a112.235,112.235,0,0,1,17.581-11.55.437.437,0,1,1,.395.78,111.3,111.3,0,0,0-17.439,11.462q-.951.736-1.886,1.475c-4.564,3.59-8.877,6.979-14.616,8.631A.414.414,0,0,1,5540.554,4901.279Z" transform="translate(-5540.116 -4878.868)" fill="#fff"/>
      </g>
      <g id="Group_17595" data-name="Group 17595" transform="translate(58.34 34.565)">
        <path id="Path_8471" data-name="Path 8471" d="M5539.584,4739.132h-1.892a.437.437,0,1,1,0-.875h1.892a.437.437,0,1,1,0,.875Z" transform="translate(-5537.255 -4738.258)" fill="#263238"/>
      </g>
    </g>
  </g>
</svg>
