<svg xmlns="http://www.w3.org/2000/svg" width="60.003" height="60.003" viewBox="0 0 60.003 60.003">
  <g id="Group_18025" data-name="Group 18025" transform="translate(555.015 -3935.965)">
    <circle id="Ellipse_219" data-name="Ellipse 219" cx="30.001" cy="30.001" r="30.001" transform="translate(-555.015 3935.965)" fill="#edf2f6"/>
    <path id="Path_8826" data-name="Path 8826" d="M765,675.5c1.937,0,3.8.01,5.669-.007.445,0,.463.251.488.575a31.781,31.781,0,0,0,1.606,8.439c.451,1.257,1.121,2.435,1.7,3.663H761.54C764.125,684.355,764.641,679.986,765,675.5Z" transform="translate(-1293.057 3292.138)" fill="#4dc47d"/>
    <path id="Path_8831" data-name="Path 8831" d="M769.841,644.568c-1.29,0-2.581-.017-3.87.01-.4.008-.615-.133-.653-.512-.119-1.171-.179-2.349-.349-3.512a20.047,20.047,0,0,0-.616-2.746c-.272-.926-.1-1.237.8-.991a4.905,4.905,0,0,1,1.7.926c.677.541.856.538,1.344-.163,1.337-1.924,2.119-1.533,3.266,0,.517.692.713.754,1.31.11a2.9,2.9,0,0,1,1.98-.948c.621-.045.889.269.642.818a11.786,11.786,0,0,0-.782,4.781c0,.043,0,.086,0,.129-.034,1.941-.184,2.094-2.072,2.094Z" transform="translate(-1294.815 3317.722)" fill="#4dc47d"/>
    <path id="Path_8836" data-name="Path 8836" d="M762.493,719.891c-2.471,0-4.943.009-7.414,0a2.041,2.041,0,0,1-2.017-1.847,1.941,1.941,0,0,1,2.056-1.929q7.414-.011,14.828,0a1.877,1.877,0,0,1,1.215,3.409,2.467,2.467,0,0,1-1.319.37c-2.449.034-4.9.017-7.35.017Z" transform="translate(-1287.526 3265.645)" fill="#4dc47d"/>
    <path id="Path_8838" data-name="Path 8838" d="M772.564,619.111c1.623.463,3.065,1.145,3.478,3.005l-2.595,1.015a3.256,3.256,0,0,0-2.283-1.374,3.09,3.09,0,0,0-2.324,1.384l-2.586-1.03c.413-1.83,1.805-2.56,3.464-2.979-.514-1.321-.4-2.138.349-2.676a1.918,1.918,0,0,1,2.329.155C773.051,617.155,773.111,617.961,772.564,619.111Z" transform="translate(-1296.133 3330.866)" fill="#4dc47d"/>
    <path id="Path_8839" data-name="Path 8839" d="M769.461,666.57c-1.5,0-3.006,0-4.51,0a1.24,1.24,0,0,1-1.218-.964,1.183,1.183,0,0,1,.434-1.381,1.811,1.811,0,0,1,1-.349c2.876-.027,5.753-.023,8.629-.01a1.516,1.516,0,0,1,1.47,1.344,1.453,1.453,0,0,1-1.484,1.374c-1.439.016-2.879,0-4.318,0Z" transform="translate(-1294.442 3299.733)" fill="#4dc47d"/>
  </g>
</svg>
