<svg xmlns="http://www.w3.org/2000/svg" width="269.637" height="264.543" viewBox="0 0 269.637 264.543">
  <g id="Group_18099" data-name="Group 18099" transform="translate(-5266.139 -4528.138)">
    <g id="Group_17433" data-name="Group 17433" transform="translate(5266.139 4528.757)">
      <g id="Group_17431" data-name="Group 17431">
        <path id="Path_8362" data-name="Path 8362" d="M5527.8,4631.526c-29.935-51.261-111.122-33-127.706-57.939-8.491-12.767-17.99-27.567-31.769-35.263a75.668,75.668,0,0,0-41.643-8.982c-47.413,3.471-67.517,45.893-58.406,92.478,12.155,62.143,67.242,125.62,132.686,126.065,34.227.231,66.9-12,92.538-29.3q.289-.193.574-.388C5519.682,4700.765,5550.654,4670.664,5527.8,4631.526Z" transform="translate(-5266.139 -4529.147)" fill="#92e3a9"/>
      </g>
      <g id="Group_17432" data-name="Group 17432" opacity="0.7">
        <path id="Path_8363" data-name="Path 8363" d="M5527.8,4631.526c-29.935-51.261-111.122-33-127.706-57.939-8.491-12.767-17.99-27.567-31.769-35.263a75.668,75.668,0,0,0-41.643-8.982c-47.413,3.471-67.517,45.893-58.406,92.478,12.155,62.143,67.242,125.62,132.686,126.065,34.227.231,66.9-12,92.538-29.3q.289-.193.574-.388C5519.682,4700.765,5550.654,4670.664,5527.8,4631.526Z" transform="translate(-5266.139 -4529.147)" fill="#fff"/>
      </g>
    </g>
    <g id="Group_17436" data-name="Group 17436" transform="translate(5278.313 4541.95)">
      <g id="Group_17434" data-name="Group 17434" transform="translate(0 92.577)">
        <path id="Path_8364" data-name="Path 8364" d="M5345.5,4802.9h-2.709a.339.339,0,1,1,0-.677h2.709a.339.339,0,0,1,0,.677Zm-5.42,0h-2.709a.339.339,0,0,1,0-.677h2.709a.339.339,0,1,1,0,.677Zm-5.419,0h-2.709a.339.339,0,1,1,0-.677h2.709a.339.339,0,0,1,0,.677Zm-5.42,0h-2.709a.339.339,0,0,1,0-.677h2.709a.339.339,0,1,1,0,.677Zm-5.418,0h-2.71a.339.339,0,1,1,0-.677h2.71a.339.339,0,0,1,0,.677Zm-5.42,0h-2.709a.339.339,0,0,1,0-.677h2.709a.339.339,0,0,1,0,.677Zm-5.42,0h-2.709a.339.339,0,0,1,0-.677h2.709a.339.339,0,1,1,0,.677Zm-5.418,0h-2.71a.339.339,0,1,1,0-.677h2.71a.339.339,0,0,1,0,.677Zm-5.42,0-2.717,0a.339.339,0,0,1,.007-.677h.007l2.7,0a.339.339,0,1,1,0,.677Zm46.044-.282a.338.338,0,0,1-.069-.67,13.126,13.126,0,0,0,2.514-.795.339.339,0,0,1,.269.622,13.768,13.768,0,0,1-2.645.836A.379.379,0,0,1,5348.189,4802.617Zm-51.435-.056a.336.336,0,0,1-.077-.009,13.755,13.755,0,0,1-2.627-.889.339.339,0,0,1,.281-.617,13.143,13.143,0,0,0,2.5.846.339.339,0,0,1-.075.668Zm56.376-2.076a.34.34,0,0,1-.194-.617,13.108,13.108,0,0,0,2-1.717.339.339,0,0,1,.491.468,13.994,13.994,0,0,1-2.1,1.805A.341.341,0,0,1,5353.131,4800.485Zm-61.274-.155a.328.328,0,0,1-.2-.065,13.875,13.875,0,0,1-2.067-1.846.339.339,0,1,1,.5-.458,13.255,13.255,0,0,0,1.967,1.757.339.339,0,0,1-.2.612Zm64.988-3.741a.334.334,0,0,1-.18-.052.341.341,0,0,1-.107-.468,12.965,12.965,0,0,0,1.173-2.36.338.338,0,1,1,.633.238,13.638,13.638,0,0,1-1.231,2.485A.34.34,0,0,1,5356.845,4796.589Zm-68.624-.228a.337.337,0,0,1-.291-.165,13.812,13.812,0,0,1-1.183-2.508.339.339,0,0,1,.639-.226,13.1,13.1,0,0,0,1.125,2.384.339.339,0,0,1-.29.514Zm70.516-4.81a.29.29,0,0,1-.053,0,.34.34,0,0,1-.282-.387,13.312,13.312,0,0,0,.162-2.068.339.339,0,1,1,.678,0,14,14,0,0,1-.17,2.174A.339.339,0,0,1,5358.737,4791.552Zm-72.309-.265a.34.34,0,0,1-.336-.292,14.226,14.226,0,0,1-.129-1.9v-.846a.339.339,0,1,1,.678,0v.846a13.17,13.17,0,0,0,.124,1.81.338.338,0,0,1-.29.381A.357.357,0,0,1,5286.428,4791.287Zm-.126-5.412a.339.339,0,0,1-.339-.339v-2.709a.339.339,0,0,1,.678,0v2.709A.338.338,0,0,1,5286.3,4785.875Zm0-5.42a.339.339,0,0,1-.339-.338v-2.71a.339.339,0,1,1,.678,0v2.71A.338.338,0,0,1,5286.3,4780.455Zm0-5.419a.339.339,0,0,1-.339-.339v-2.71a.339.339,0,0,1,.678,0v2.71A.338.338,0,0,1,5286.3,4775.036Zm0-5.419a.34.34,0,0,1-.339-.34v-2.709a.339.339,0,1,1,.678,0v2.709A.339.339,0,0,1,5286.3,4769.617Zm0-5.42a.339.339,0,0,1-.339-.339v-2.71a.339.339,0,0,1,.678,0v2.71A.338.338,0,0,1,5286.3,4764.2Zm0-5.418a.339.339,0,0,1-.339-.34v-2.709a.339.339,0,0,1,.678,0v2.709A.338.338,0,0,1,5286.3,4758.779Zm0-5.42a.339.339,0,0,1-.339-.338v-2.709a.339.339,0,1,1,.678,0v2.709A.338.338,0,0,1,5286.3,4753.358Zm0-5.419a.339.339,0,0,1-.339-.339v-2.709a.339.339,0,1,1,.678,0v2.709A.338.338,0,0,1,5286.3,4747.939Zm0-5.419a.339.339,0,0,1-.339-.339v-2.709a.339.339,0,1,1,.678,0v2.709A.338.338,0,0,1,5286.3,4742.52Zm0-5.419a.339.339,0,0,1-.339-.338v-2.71a.339.339,0,1,1,.678,0v2.71A.338.338,0,0,1,5286.3,4737.1Zm0-5.418a.34.34,0,0,1-.339-.339v-2.71a.339.339,0,1,1,.678,0v2.71A.339.339,0,0,1,5286.3,4731.682Zm0-5.42a.339.339,0,0,1-.339-.338v-2.709a.339.339,0,1,1,.678,0v2.709A.338.338,0,0,1,5286.3,4726.262Zm0-5.419a.34.34,0,0,1-.339-.339v-2.709a.339.339,0,0,1,.678,0v2.709A.338.338,0,0,1,5286.3,4720.843Zm0-5.42h0a.34.34,0,0,1-.336-.341,13.906,13.906,0,0,1,.3-2.754.339.339,0,1,1,.663.139,13.264,13.264,0,0,0-.283,2.62A.338.338,0,0,1,5286.3,4715.422Zm1.114-5.263a.336.336,0,0,1-.135-.028.34.34,0,0,1-.176-.446,13.754,13.754,0,0,1,1.356-2.417.339.339,0,0,1,.554.39,13.01,13.01,0,0,0-1.289,2.3A.339.339,0,0,1,5287.416,4710.159Zm3.09-4.405a.339.339,0,0,1-.233-.584,13.929,13.929,0,0,1,2.192-1.7.339.339,0,1,1,.358.575,13.05,13.05,0,0,0-2.083,1.615A.34.34,0,0,1,5290.506,4705.754Zm4.565-2.852a.338.338,0,0,1-.118-.655,13.729,13.729,0,0,1,2.683-.7.339.339,0,0,1,.1.67,13.025,13.025,0,0,0-2.551.665A.341.341,0,0,1,5295.071,4702.9Zm8.026-.842h-2.709a.339.339,0,0,1,0-.678h2.709a.339.339,0,0,1,0,.678Z" transform="translate(-5285.962 -4701.382)" fill="#263238"/>
      </g>
      <g id="Group_17435" data-name="Group 17435" transform="translate(68.857 0)">
        <path id="Path_8365" data-name="Path 8365" d="M5398.428,4574.154a.339.339,0,0,1-.339-.338v-2.709a.339.339,0,1,1,.678,0v2.709A.338.338,0,0,1,5398.428,4574.154Zm0-5.419a.339.339,0,0,1-.339-.339v-2.709a.339.339,0,0,1,.678,0v2.709A.338.338,0,0,1,5398.428,4568.734Zm0-5.418a.34.34,0,0,1-.339-.34v-2.71a.339.339,0,0,1,.678,0v2.71A.339.339,0,0,1,5398.428,4563.316Zm75.882-3.76a.339.339,0,0,1-.339-.339,7.919,7.919,0,0,0-.319-2.231.339.339,0,0,1,.65-.19,8.6,8.6,0,0,1,.347,2.421A.339.339,0,0,1,5474.31,4559.556Zm-75.716-1.649a.394.394,0,0,1-.068-.006.34.34,0,0,1-.265-.4,8.526,8.526,0,0,1,1-2.623.339.339,0,1,1,.584.342,7.842,7.842,0,0,0-.923,2.415A.339.339,0,0,1,5398.594,4557.907Zm74.209-3.105a.34.34,0,0,1-.276-.143,7.951,7.951,0,0,0-1.816-1.842.339.339,0,1,1,.4-.547,8.617,8.617,0,0,1,1.971,2,.338.338,0,0,1-.082.472A.334.334,0,0,1,5472.8,4554.8Zm-71.521-1.485a.339.339,0,0,1-.222-.6,8.563,8.563,0,0,1,2.394-1.466.339.339,0,0,1,.254.628,7.9,7.9,0,0,0-2.206,1.351A.336.336,0,0,1,5401.282,4553.316Zm67.216-1.643a.371.371,0,0,1-.1-.015,7.873,7.873,0,0,0-2.337-.352h-.235a.339.339,0,1,1,0-.677h.235a8.6,8.6,0,0,1,2.537.381.339.339,0,0,1-.1.663Zm-62.285-.354a.339.339,0,0,1-.018-.677c.159-.008.318-.012.48-.013h2.248a.339.339,0,1,1,0,.677h-2.246c-.148,0-.3,0-.445.013Zm56.9-.013h-2.709a.339.339,0,1,1,0-.677h2.709a.339.339,0,1,1,0,.677Zm-5.419,0h-2.709a.339.339,0,1,1,0-.677h2.709a.339.339,0,1,1,0,.677Zm-5.418,0h-2.709a.339.339,0,1,1,0-.677h2.709a.339.339,0,0,1,0,.677Zm-5.42,0h-2.709a.339.339,0,0,1,0-.677h2.709a.339.339,0,1,1,0,.677Zm-5.419,0h-2.709a.339.339,0,1,1,0-.677h2.709a.339.339,0,1,1,0,.677Zm-5.419,0h-2.71a.339.339,0,0,1,0-.677h2.71a.339.339,0,1,1,0,.677Zm-5.419,0h-2.709a.339.339,0,1,1,0-.677h2.709a.339.339,0,1,1,0,.677Zm-5.419,0h-2.709a.339.339,0,1,1,0-.677h2.709a.339.339,0,0,1,0,.677Zm-5.42,0h-2.71a.339.339,0,0,1,0-.677h2.71a.339.339,0,1,1,0,.677Zm-5.419,0h-2.709a.339.339,0,1,1,0-.677h2.709a.339.339,0,1,1,0,.677Z" transform="translate(-5398.089 -4550.63)" fill="#263238"/>
      </g>
    </g>
    <g id="Group_17439" data-name="Group 17439" transform="translate(5283.344 4759.809)">
      <g id="Group_17437" data-name="Group 17437">
        <ellipse id="Ellipse_123" data-name="Ellipse 123" cx="117.614" cy="16.436" rx="117.614" ry="16.436" fill="#92e3a9"/>
      </g>
      <g id="Group_17438" data-name="Group 17438" opacity="0.5">
        <ellipse id="Ellipse_124" data-name="Ellipse 124" cx="117.614" cy="16.436" rx="117.614" ry="16.436" fill="#fff"/>
      </g>
    </g>
    <g id="Group_17505" data-name="Group 17505" transform="translate(5289.749 4528.138)">
      <g id="Group_17440" data-name="Group 17440" transform="translate(0 42.609)">
        <path id="Path_8366" data-name="Path 8366" d="M5526.876,4611.711v110.575a13.632,13.632,0,0,1-13.629,13.631H5318.767a13.632,13.632,0,0,1-13.63-13.631V4611.711c0-.325.013-.643.041-.961a13.628,13.628,0,0,1,13.589-12.675h194.479a13.628,13.628,0,0,1,13.59,12.675C5526.863,4611.068,5526.876,4611.386,5526.876,4611.711Z" transform="translate(-5304.798 -4597.735)" fill="#fff"/>
        <path id="Path_8367" data-name="Path 8367" d="M5513.034,4736.042H5318.555a13.985,13.985,0,0,1-13.968-13.969V4611.5c0-.34.013-.664.042-.991a14,14,0,0,1,13.927-12.985h194.479a14,14,0,0,1,13.927,12.991c.027.323.041.647.041.985v110.575A13.985,13.985,0,0,1,5513.034,4736.042ZM5318.555,4598.2a13.318,13.318,0,0,0-13.251,12.36c-.027.313-.04.618-.04.938v110.575a13.306,13.306,0,0,0,13.291,13.291h194.479a13.306,13.306,0,0,0,13.291-13.291V4611.5c0-.314-.013-.623-.039-.932a13.32,13.32,0,0,0-13.252-12.366Z" transform="translate(-5304.586 -4597.521)" fill="#263238"/>
      </g>
      <g id="Group_17441" data-name="Group 17441" transform="translate(6.971 60.731)">
        <path id="Rectangle_11265" data-name="Rectangle 11265" d="M0,0H209.17a0,0,0,0,1,0,0V94.117a20.8,20.8,0,0,1-20.8,20.8H20.8A20.8,20.8,0,0,1,0,94.117V0A0,0,0,0,1,0,0Z" fill="#263238"/>
      </g>
      <g id="Group_17442" data-name="Group 17442" transform="translate(6.971 60.73)" opacity="0.2">
        <path id="Path_8368" data-name="Path 8368" d="M5525.11,4627.031v102.148a12.7,12.7,0,0,1-12.631,12.77h-183.91a12.7,12.7,0,0,1-12.631-12.77V4627.031Z" transform="translate(-5315.937 -4627.031)" fill="#fff"/>
      </g>
      <g id="Group_17443" data-name="Group 17443" transform="translate(0.016 42.609)">
        <path id="Path_8369" data-name="Path 8369" d="M5526.861,4610.75H5305.2a13.628,13.628,0,0,1,13.59-12.675h194.48A13.627,13.627,0,0,1,5526.861,4610.75Z" transform="translate(-5304.84 -4597.735)" fill="#92e3a9"/>
        <path id="Path_8370" data-name="Path 8370" d="M5527,4610.875H5304.613l.025-.363a14,14,0,0,1,13.927-12.991h194.479a14,14,0,0,1,13.927,12.991Zm-221.654-.678h220.922a13.32,13.32,0,0,0-13.221-12H5318.564A13.32,13.32,0,0,0,5305.343,4610.2Z" transform="translate(-5304.613 -4597.521)" fill="#263238"/>
      </g>
      <g id="Group_17444" data-name="Group 17444" transform="translate(22.789 46.871)">
        <path id="Path_8371" data-name="Path 8371" d="M5346.524,4606.877a2.414,2.414,0,1,1-2.414-2.415A2.414,2.414,0,0,1,5346.524,4606.877Z" transform="translate(-5341.696 -4604.463)" fill="#263238"/>
      </g>
      <g id="Group_17445" data-name="Group 17445" transform="translate(32.997 46.871)">
        <path id="Path_8372" data-name="Path 8372" d="M5363.147,4606.877a2.414,2.414,0,1,1-2.414-2.415A2.414,2.414,0,0,1,5363.147,4606.877Z" transform="translate(-5358.318 -4604.463)" fill="#263238"/>
      </g>
      <g id="Group_17446" data-name="Group 17446" transform="translate(43.205 46.871)">
        <circle id="Ellipse_125" data-name="Ellipse 125" cx="2.414" cy="2.414" r="2.414" fill="#263238"/>
      </g>
      <g id="Group_17447" data-name="Group 17447" transform="translate(6.635 60.396)">
        <path id="Path_8373" data-name="Path 8373" d="M5512.12,4742.082H5328.5a13.127,13.127,0,0,1-12.835-10.461l-.028-.026-.008-.155a12.934,12.934,0,0,1-.237-2.474V4626.486h209.844v102.479A13.13,13.13,0,0,1,5512.12,4742.082ZM5316.3,4731.367l0,.013A12.446,12.446,0,0,0,5328.5,4741.4H5512.12a12.452,12.452,0,0,0,12.438-12.438v-101.8H5316.069v101.8a12.424,12.424,0,0,0,.229,2.381Z" transform="translate(-5315.391 -4626.486)" fill="#263238"/>
      </g>
      <g id="Group_17448" data-name="Group 17448" transform="translate(53.042 60.73)">
        <path id="Path_8374" data-name="Path 8374" d="M5465.983,4647.773V4637.49l-10.812-2.4a27.9,27.9,0,0,0-2.472-6l1.308-2.06h-51.03l1.261,2.005a26.61,26.61,0,0,0-2.466,6l-10.812,2.405v10.283l10.812,2.411a26.974,26.974,0,0,0,2.466,6.043l-5.942,9.341,7.276,7.269,9.335-5.941a27.521,27.521,0,0,0,6,2.486l2.4,10.8h10.283l2.418-10.8a27.736,27.736,0,0,0,5.982-2.486l9.341,5.941,7.269-7.269-5.9-9.341a28.12,28.12,0,0,0,2.472-5.989Zm-37.462,8.143a13.284,13.284,0,1,1,13.284-13.284A13.285,13.285,0,0,1,5428.521,4655.917Z" transform="translate(-5390.959 -4627.031)" fill="#263238"/>
      </g>
      <g id="Group_17449" data-name="Group 17449" transform="translate(6.974 116.439)">
        <path id="Path_8375" data-name="Path 8375" d="M5368.829,4753.391l.433-8.155-8.454-2.384a22.888,22.888,0,0,0-1.734-4.851l5.108-7.174-5.474-6.077-7.655,4.33a22.636,22.636,0,0,0-4.661-2.229l-1.463-8.671-8.156-.434-2.357,8.482a21.309,21.309,0,0,0-4.851,1.721l-7.167-5.108-6.083,5.474,4.335,7.662a21.157,21.157,0,0,0-2.236,4.653l-2.473.406v11.049l1.8.508a21.355,21.355,0,0,0,1.734,4.863l-3.53,4.938.237,4.234v.027l.007.006,3.638,4.038,7.669-4.329a21.256,21.256,0,0,0,4.673,2.256l1.4,8.325v.007l.067.345,8.157.434.216-.778v-.007l2.141-7.7a21.849,21.849,0,0,0,4.877-1.721l7.153,5.1,6.083-5.467-4.321-7.669a21.19,21.19,0,0,0,2.208-4.646Zm-21.664-12.741a10.562,10.562,0,1,0-.786,14.91A10.564,10.564,0,0,0,5347.165,4740.65Z" transform="translate(-5315.942 -4717.746)" fill="#263238"/>
      </g>
      <g id="Group_17450" data-name="Group 17450" transform="translate(86.469 113.365)">
        <path id="Path_8376" data-name="Path 8376" d="M5484.01,4739.272a16.606,16.606,0,0,0,.5-3.862l5.864-3.083-1.62-5.95-6.619.31a16.5,16.5,0,0,0-2.377-3.073l1.96-6.331-5.344-3.062-4.472,4.879a17.341,17.341,0,0,0-3.85-.49l-3.1-5.869-5.939,1.617.313,6.626a16.864,16.864,0,0,0-3.079,2.376l-6.333-1.955-3.066,5.336,4.9,4.459a16.052,16.052,0,0,0-.483,3.853l-5.875,3.093,1.62,5.949,6.627-.313a15.764,15.764,0,0,0,2.37,3.076l-1.971,6.3,5.346,3.062,4.447-4.837a16.209,16.209,0,0,0,3.86.487l3.086,5.873,5.94-1.617-.261-5.661-.044-.97a16.306,16.306,0,0,0,3.109-2.378l6.33,1.967,2.615-4.571.446-.774Zm-14.046,3.615a7.958,7.958,0,1,1,5.587-9.77A7.957,7.957,0,0,1,5469.964,4742.887Z" transform="translate(-5445.393 -4712.741)" fill="#263238"/>
      </g>
      <g id="Group_17451" data-name="Group 17451" transform="translate(133.512 110.9)">
        <path id="Path_8377" data-name="Path 8377" d="M5581.563,4748.187l1.354-8.163-8.265-3.327a21.971,21.971,0,0,0-1.186-5.094l5.948-6.625-4.816-6.733-8.2,3.481a21.821,21.821,0,0,0-4.431-2.75l-.48-8.9-8.17-1.348-3.346,8.231a22.885,22.885,0,0,0-5.074,1.191l-6.646-5.947-6.727,4.816,3.489,8.2a22.325,22.325,0,0,0-2.486,3.86c-.095.19-.19.38-.278.569l-8.895.495L5522,4738.3l1.341.542,6.923,2.792a21.458,21.458,0,0,0,1.185,5.073l-5.947,6.646,4.816,6.726,8.2-3.495a21.291,21.291,0,0,0,4.424,2.77l.461,8.86,8.163,1.349,3.34-8.17a21.482,21.482,0,0,0,5.087-1.192l6.631,5.954,6.733-4.823-3.488-8.2a21.341,21.341,0,0,0,2.8-4.451Zm-22.9-.366a10.691,10.691,0,1,1,2.466-14.917A10.693,10.693,0,0,1,5558.658,4747.821Z" transform="translate(-5521.997 -4708.727)" fill="#263238"/>
      </g>
      <g id="Group_17477" data-name="Group 17477" transform="translate(156.847 55.348)">
        <g id="Group_17476" data-name="Group 17476">
          <g id="Group_17455" data-name="Group 17455">
            <g id="Group_17452" data-name="Group 17452" transform="translate(0.852 1.041)">
              <path id="Path_8378" data-name="Path 8378" d="M5576.1,4717.076a23.7,23.7,0,0,1-4.239-9.148l-10.481.028v-44.55s1.631-24.123,17.915-34.4c0,0,6.9-5.324,15.4-6.209,0,0,.708-2.833,2.479-2.833s2.124,2.124,2.124,2.124l10.62,2.832-2.3,5.311,27.788,23.894v1.9s2.3,3.761,2.3,6.062-3.186,6.549-6.9,7.434-10.443-2.833-10.443-2.833l-8.318-.885a21.478,21.478,0,0,1-7.256,1.771c-4.957.53-6.549,0-6.549,0s12.743,12.389,15.752,18.407,3.54,15.045,1.947,20.178a77.714,77.714,0,0,1-4.622,10.918Z" transform="translate(-5561.383 -4619.961)" fill="#91e986"/>
            </g>
            <g id="Group_17454" data-name="Group 17454">
              <g id="Group_17453" data-name="Group 17453">
                <path id="Path_8379" data-name="Path 8379" d="M5575.568,4716.422a14.436,14.436,0,0,1,2.453-.169l6.943-.169,25.813-.324-.585.354a72.734,72.734,0,0,0,4.534-10.99,29.619,29.619,0,0,0,.061-13.089,24.582,24.582,0,0,0-2.3-6.662,41.508,41.508,0,0,0-4.4-6.028c-3.336-3.933-7.084-7.843-11.054-11.736l-2.262-2.219L5598,4666a24.157,24.157,0,0,0,6.422-.1,22.964,22.964,0,0,0,6.6-1.641l.309-.143.273.028,8.32.866.192.02.195.1a29.256,29.256,0,0,0,6.118,2.454,6.372,6.372,0,0,0,5.848-.78,9.447,9.447,0,0,0,3.764-4.914c.268-1.607-1-4.076-2.087-5.974l-.156-.273v-.283c0-.594,0-1.248,0-1.9l.371.808-14.458-12.422-13.332-11.471-.6-.513.313-.72q1.158-2.67,2.3-5.308l.7,1.448-10.616-2.844-.616-.166-.148-.676c-.2-.891-.741-1.387-1.227-1.23-.425.029-1.109,1.108-1.333,2.018l-.173.7-.726.081a32.583,32.583,0,0,0-14.894,5.971l-.066.048-.011.006c-7.5,4.755-11.971,12.587-14.6,20.145a61.855,61.855,0,0,0-2.759,11.426c-.471,3.655-.163,7.517-.285,11.051-.117,14.212-.215,26.23-.292,35.484l-.517-.515,10.48.125.286,0,.066.274a29.619,29.619,0,0,0,3.888,9.233,7.134,7.134,0,0,1-1.581-2,25.114,25.114,0,0,1-3.011-7.061l.353.275-10.48.184-.514.009,0-.526c-.077-9.266-.175-21.3-.292-35.528q-.015-2.689-.03-5.481a35.694,35.694,0,0,1,.213-5.757,63.115,63.115,0,0,1,2.738-11.789c2.649-7.8,7.228-16.081,15.266-21.245l-.076.054a34.4,34.4,0,0,1,15.9-6.449l-.9.78c.454-1.29.846-2.81,2.838-3.539a2.886,2.886,0,0,1,2.663.713,4.106,4.106,0,0,1,1.142,2.2l-.764-.84,10.621,2.819,1.191.316-.491,1.132q-1.14,2.64-2.3,5.311l-.283-1.232,13.339,11.462,14.447,12.433.372.32v.488c0,.655,0,1.308,0,1.9l-.157-.554a24.732,24.732,0,0,1,1.7,3.412,7.3,7.3,0,0,1,.644,4.111,11.33,11.33,0,0,1-4.661,6.213,8.575,8.575,0,0,1-3.716,1.451,11.151,11.151,0,0,1-3.811-.4,31.107,31.107,0,0,1-6.6-2.672l.386.121-8.315-.9.581-.114a24.159,24.159,0,0,1-7.33,1.829,23.719,23.719,0,0,1-7.255-.029l.975-1.6c4,3.973,7.728,7.918,11.1,11.958a42.844,42.844,0,0,1,4.546,6.367,26.168,26.168,0,0,1,2.4,7.155,30.893,30.893,0,0,1-.254,13.844,72.322,72.322,0,0,1-4.8,11.174l-.185.36-.4,0-26.036-.324-6.863-.169A11.662,11.662,0,0,1,5575.568,4716.422Z" transform="translate(-5559.995 -4618.266)" fill="#263238"/>
              </g>
            </g>
          </g>
          <g id="Group_17459" data-name="Group 17459" transform="translate(8.123 9.655)">
            <g id="Group_17456" data-name="Group 17456" transform="translate(0.876 0.611)">
              <path id="Path_8380" data-name="Path 8380" d="M5576.215,4713.753c-2.486-14.858-1.565-30.059-.309-45.072.717-8.568,1.757-17.68,7.188-24.345a26.278,26.278,0,0,1,13.581-8.433,33.624,33.624,0,0,1,16.061.12" transform="translate(-5574.648 -4634.983)" fill="#91e986"/>
            </g>
            <g id="Group_17458" data-name="Group 17458">
              <g id="Group_17457" data-name="Group 17457">
                <path id="Path_8381" data-name="Path 8381" d="M5612.186,4635.639c-.036.16-1.467-.092-4.051-.312a34.447,34.447,0,0,0-10.8.678,26.588,26.588,0,0,0-13.477,7.938c-3.946,4.48-5.909,11.039-6.77,18-1.5,14.11-2.312,27.042-2.122,36.333.134,9.315,1.054,15.038.7,15.094-.131.023-.537-1.379-1-3.969a93.209,93.209,0,0,1-1.224-11.069c-.579-9.421-.013-22.378,1.511-36.667.876-7.118,3-14.182,7.416-19.03a27.31,27.31,0,0,1,14.626-8.109,30.647,30.647,0,0,1,11.243-.025C5610.849,4634.981,5612.218,4635.511,5612.186,4635.639Z" transform="translate(-5573.223 -4633.988)" fill="#263238"/>
              </g>
            </g>
          </g>
          <g id="Group_17461" data-name="Group 17461" transform="translate(25.892 26.341)">
            <g id="Group_17460" data-name="Group 17460">
              <path id="Path_8382" data-name="Path 8382" d="M5613.266,4680.836c.106.225-1.437,1.085-4,.429-2.511-.54-5.653-3.215-6.6-7.064a16.754,16.754,0,0,1,.461-9.554c.765-2.289,1.515-3.567,1.784-3.483.3.091.054,1.556-.308,3.835a20.618,20.618,0,0,0,.129,8.625,9.23,9.23,0,0,0,5.036,6.208C5611.733,4680.723,5613.208,4680.507,5613.266,4680.836Z" transform="translate(-5602.158 -4661.16)" fill="#263238"/>
            </g>
          </g>
          <g id="Group_17462" data-name="Group 17462" transform="translate(2.865 98.156)">
            <path id="Path_8383" data-name="Path 8383" d="M5621.964,4796.681a3.349,3.349,0,0,0-.5-.049V4783.46l-8.883-5.357h-35.762l-8.883,5.357v13.172a3.2,3.2,0,0,0-3.272,3.126v.248h57.3Z" transform="translate(-5564.66 -4778.103)" fill="#91e986"/>
          </g>
          <g id="Group_17464" data-name="Group 17464" transform="translate(2.963 118.702)">
            <g id="Group_17463" data-name="Group 17463">
              <path id="Path_8384" data-name="Path 8384" d="M5653.016,4812.2c-1.848.224-4.549.6-7.89.962h7.734l.155-.044Z" transform="translate(-5595.811 -4811.807)" fill="#263238"/>
              <path id="Path_8385" data-name="Path 8385" d="M5568.322,4812.917h8.177c-7.058-.784-11.6-1.646-11.677-1.263C5564.782,4811.817,5566.043,4812.308,5568.322,4812.917Z" transform="translate(-5564.821 -4811.56)" fill="#263238"/>
            </g>
          </g>
          <g id="Group_17466" data-name="Group 17466" transform="translate(5.34 116.431)">
            <g id="Group_17465" data-name="Group 17465">
              <path id="Path_8386" data-name="Path 8386" d="M5576.472,4810.377c1.833.4,3.947.787,6.276,1.113h27.214c2.074-.291,3.971-.627,5.631-.98,4.929-1.042,7.863-2.107,7.8-2.368-.145-.657-12.211,2.262-27.356,2.154-15.15,0-27.194-3-27.343-2.34C5568.624,4808.215,5571.551,4809.3,5576.472,4810.377Z" transform="translate(-5568.691 -4807.862)" fill="#263238"/>
            </g>
          </g>
          <g id="Group_17468" data-name="Group 17468" transform="translate(6.136 103.478)">
            <g id="Group_17467" data-name="Group 17467">
              <path id="Path_8387" data-name="Path 8387" d="M5623.516,4787.049c.067.26-2.8,1.325-7.621,2.367a92.73,92.73,0,0,1-38.3-.134c-4.815-1.075-7.673-2.16-7.6-2.419.151-.656,11.93,2.343,26.758,2.339C5611.568,4789.31,5623.369,4786.393,5623.516,4787.049Z" transform="translate(-5569.987 -4786.769)" fill="#263238"/>
            </g>
          </g>
          <g id="Group_17470" data-name="Group 17470" transform="translate(15.11 98.163)">
            <g id="Group_17469" data-name="Group 17469">
              <path id="Path_8388" data-name="Path 8388" d="M5620.655,4778.208c.262.468-7.568,4.161-18.021,4.123-10.455.059-18.29-3.62-18.028-4.087.2-.623,8.031,2.011,18.026,1.942C5612.625,4780.235,5620.452,4777.586,5620.655,4778.208Z" transform="translate(-5584.6 -4778.114)" fill="#263238"/>
            </g>
          </g>
          <g id="Group_17471" data-name="Group 17471" transform="translate(33.567 6.956)">
            <path id="Path_8389" data-name="Path 8389" d="M5614.656,4630.653l.671,5.739,6.194-.971s-.479-4.447-.781-5.83Z" transform="translate(-5614.656 -4629.592)" fill="#91e986"/>
          </g>
          <g id="Group_17473" data-name="Group 17473" transform="translate(32.492 2.541)">
            <g id="Group_17472" data-name="Group 17472">
              <path id="Path_8390" data-name="Path 8390" d="M5616.628,4638.051c-.418.384-3.206-2.677-3.652-7.537-.488-4.856,1.666-8.391,2.149-8.094.576.237-.462,3.666-.014,7.889C5615.476,4634.541,5617.148,4637.708,5616.628,4638.051Z" transform="translate(-5612.905 -4622.403)" fill="#263238"/>
            </g>
          </g>
          <g id="Group_17475" data-name="Group 17475" transform="translate(38.114 1.986)">
            <g id="Group_17474" data-name="Group 17474">
              <path id="Path_8391" data-name="Path 8391" d="M5624.511,4635.113c-.613.008-1.069-3.049-1.656-6.716s-1.129-6.689-.55-6.888c.539-.194,2.059,2.662,2.669,6.551S5625.082,4635.113,5624.511,4635.113Z" transform="translate(-5622.06 -4621.5)" fill="#263238"/>
            </g>
          </g>
        </g>
      </g>
      <g id="Group_17504" data-name="Group 17504" transform="translate(9.332)">
        <g id="Group_17501" data-name="Group 17501">
          <g id="Group_17478" data-name="Group 17478" transform="translate(13.168 9.858)">
            <path id="Path_8392" data-name="Path 8392" d="M5346.068,4579.16s-4.843-4.118-4.843-13.212c0-10.335,12.829-21.758,12.829-21.758h4.4v34.97Z" transform="translate(-5341.225 -4544.19)" fill="#91e986"/>
          </g>
          <g id="Group_17479" data-name="Group 17479" transform="translate(23.329)">
            <circle id="Ellipse_126" data-name="Ellipse 126" cx="5.862" cy="5.862" r="5.862" fill="#91e986"/>
          </g>
          <g id="Group_17480" data-name="Group 17480" transform="translate(28.79 9.858)">
            <path id="Path_8393" data-name="Path 8393" d="M5378.1,4552.021c-3.65.727-6.884,4.638-6.884,4.638l-2.485-2.42c.873-2.67,4.958-4.77,6.681-5.552a54.98,54.98,0,0,0-4.354-4.5h-4.394v34.97h12.38s4.842-4.118,4.844-13.212C5383.888,4561.117,5381.084,4556.049,5378.1,4552.021Z" transform="translate(-5366.664 -4544.19)" fill="#91e986"/>
          </g>
          <g id="Group_17481" data-name="Group 17481" transform="translate(12.137 42.873)">
            <path id="Path_8394" data-name="Path 8394" d="M5347.8,4597.952v13.04l-8.254,56.466h37.36l-8.472-56.466-.218-13.04Z" transform="translate(-5339.547 -4597.952)" fill="#91e986"/>
          </g>
          <g id="Group_17485" data-name="Group 17485" transform="translate(12.161 51.652)">
            <g id="Group_17482" data-name="Group 17482" transform="translate(1.118 1.127)">
              <rect id="Rectangle_11266" data-name="Rectangle 11266" width="35.077" height="8.254" rx="4.127" fill="#91e986"/>
            </g>
            <g id="Group_17484" data-name="Group 17484">
              <g id="Group_17483" data-name="Group 17483">
                <path id="Path_8395" data-name="Path 8395" d="M5371.857,4621.629c-.051-.206,1.262-.112,2.5-1.5,1.237-1.139,1.4-5.069-1.692-5.848l-28.036.221a2.816,2.816,0,0,0-2.417,1.383,2.779,2.779,0,0,0-.39,1.358,3.425,3.425,0,0,0,.188,1.5,2.856,2.856,0,0,0,2.007,1.738c.779.146,2.346.061,3.436.106l12.7.241c7.23.2,11.7.486,11.7.8s-4.473.593-11.7.8l-12.7.242a28.458,28.458,0,0,1-3.894-.08,5.017,5.017,0,0,1-3.6-3.025,5.7,5.7,0,0,1-.364-2.362,4.984,4.984,0,0,1,.683-2.449,5.052,5.052,0,0,1,4.353-2.5c11.12.074,20.829-.038,28.447.494a4.819,4.819,0,0,1,1.912,8C5373.2,4622.231,5371.778,4621.7,5371.857,4621.629Z" transform="translate(-5339.584 -4612.248)" fill="#263238"/>
              </g>
            </g>
          </g>
          <g id="Group_17489" data-name="Group 17489" transform="translate(14.074 43.399)">
            <g id="Group_17486" data-name="Group 17486" transform="translate(1.121 1.127)">
              <path id="Rectangle_11267" data-name="Rectangle 11267" d="M4.127,0h21.4a4.127,4.127,0,0,1,4.127,4.127v0a4.127,4.127,0,0,1-4.127,4.127H4.127A4.127,4.127,0,0,1,0,4.127v0A4.127,4.127,0,0,1,4.127,0Z" fill="#91e986"/>
            </g>
            <g id="Group_17488" data-name="Group 17488">
              <g id="Group_17487" data-name="Group 17487">
                <path id="Path_8396" data-name="Path 8396" d="M5369.553,4608.189c-.034-.2,1.06-.148,2.224-1.241a3.5,3.5,0,0,0,1.057-2.463,3.451,3.451,0,0,0-1.352-3.083,3.07,3.07,0,0,0-1.8-.59l-2.624.057-5.866.1-13.443.088a2.923,2.923,0,0,0-2.8,3.485,3,3,0,0,0,3.519,2.6l10.979.242c6.25.2,10.115.486,10.115.8s-3.866.592-10.115.8l-10.979.241a5.51,5.51,0,0,1-3.646-.916,5.015,5.015,0,0,1-2.072-3.546,5.5,5.5,0,0,1,1.053-4.042,5.056,5.056,0,0,1,3.951-1.917l13.443.088,5.866.1,2.694.074a4.675,4.675,0,0,1,2.72,1.076,4.855,4.855,0,0,1-.132,7.474C5370.667,4608.731,5369.5,4608.271,5369.553,4608.189Z" transform="translate(-5342.7 -4598.808)" fill="#263238"/>
              </g>
            </g>
          </g>
          <g id="Group_17490" data-name="Group 17490" transform="translate(0 107.951)">
            <path id="Path_8397" data-name="Path 8397" d="M5332.56,4703.925l-9.338,5.632V4723.4h0a3.365,3.365,0,0,0-3.44,3.285v6.778a152.246,152.246,0,0,0,63.15,0v-6.778a3.366,3.366,0,0,0-3.44-3.285h0v-13.848l-9.337-5.632" transform="translate(-5319.782 -4703.925)" fill="#91e986"/>
          </g>
          <g id="Group_17492" data-name="Group 17492" transform="translate(0.104 129.549)">
            <g id="Group_17491" data-name="Group 17491">
              <path id="Path_8398" data-name="Path 8398" d="M5382.963,4739.391c.063.274-3.34,1.4-9.022,2.492a121.7,121.7,0,0,1-44.983-.139c-5.675-1.13-9.071-2.275-9.006-2.549.143-.692,14.054,2.467,31.5,2.459C5368.892,4741.77,5382.825,4738.7,5382.963,4739.391Z" transform="translate(-5319.951 -4739.096)" fill="#263238"/>
            </g>
          </g>
          <g id="Group_17494" data-name="Group 17494" transform="translate(2.603 127.162)">
            <g id="Group_17493" data-name="Group 17493">
              <path id="Path_8399" data-name="Path 8399" d="M5381.521,4735.5c.07.273-3.015,1.395-8.2,2.489a101.71,101.71,0,0,1-41.126-.14c-5.174-1.13-8.25-2.271-8.178-2.544.155-.689,12.816,2.464,28.743,2.46C5368.687,4737.881,5381.371,4734.813,5381.521,4735.5Z" transform="translate(-5324.021 -4735.208)" fill="#263238"/>
            </g>
          </g>
          <g id="Group_17496" data-name="Group 17496" transform="translate(3.439 113.546)">
            <g id="Group_17495" data-name="Group 17495">
              <path id="Path_8400" data-name="Path 8400" d="M5381.652,4713.33c.071.273-2.941,1.393-8.011,2.487a97.451,97.451,0,0,1-40.265-.14c-5.061-1.13-8.065-2.27-7.994-2.543.16-.688,12.541,2.464,28.128,2.46C5369.092,4715.706,5381.5,4712.64,5381.652,4713.33Z" transform="translate(-5325.381 -4713.035)" fill="#263238"/>
            </g>
          </g>
          <g id="Group_17498" data-name="Group 17498" transform="translate(12.872 107.958)">
            <g id="Group_17497" data-name="Group 17497">
              <path id="Path_8401" data-name="Path 8401" d="M5378.645,4704.037c.276.491-7.955,4.374-18.943,4.333-10.991.062-19.228-3.8-18.953-4.3.213-.654,8.443,2.115,18.95,2.042C5370.2,4706.167,5378.431,4703.382,5378.645,4704.037Z" transform="translate(-5340.743 -4703.937)" fill="#263238"/>
            </g>
          </g>
          <g id="Group_17500" data-name="Group 17500" transform="translate(25.29 9.859)">
            <g id="Group_17499" data-name="Group 17499">
              <path id="Path_8402" data-name="Path 8402" d="M5369.09,4544.293c.506.285-.682,2.771-3.962,2.884-2.989-.175-4.5-2.112-4.1-2.553.354-.509,2.167.227,4.158.3C5366.988,4544.947,5368.652,4543.864,5369.09,4544.293Z" transform="translate(-5360.964 -4544.192)" fill="#263238"/>
            </g>
          </g>
        </g>
        <g id="Group_17503" data-name="Group 17503" transform="translate(19.754 61.033)" opacity="0.3">
          <g id="Group_17502" data-name="Group 17502">
            <path id="Path_8403" data-name="Path 8403" d="M5351.949,4627.546a17.735,17.735,0,0,0,9.938,2.868c3.74-.1,8.1-.978,10.6-2.862-6.567-.1-13.969.089-20.536-.006" transform="translate(-5351.949 -4627.524)"/>
          </g>
        </g>
      </g>
    </g>
    <g id="Group_17540" data-name="Group 17540" transform="translate(5299.531 4554.371)">
      <g id="Group_17527" data-name="Group 17527" transform="translate(0 63.326)">
        <g id="Group_17506" data-name="Group 17506">
          <rect id="Rectangle_11268" data-name="Rectangle 11268" width="80.322" height="105.02" rx="13.11" transform="translate(0.339 0.339)" fill="#92e3a9"/>
          <path id="Path_8404" data-name="Path 8404" d="M5393.125,4779.672H5328.9a8.4,8.4,0,0,1-8.389-8.389v-88.918a8.4,8.4,0,0,1,8.389-8.389h64.222a8.4,8.4,0,0,1,8.389,8.389v88.918A8.4,8.4,0,0,1,5393.125,4779.672ZM5328.9,4674.653a7.72,7.72,0,0,0-7.711,7.711v88.918a7.72,7.72,0,0,0,7.711,7.711h64.222a7.72,7.72,0,0,0,7.712-7.711v-88.918a7.72,7.72,0,0,0-7.712-7.711Z" transform="translate(-5320.515 -4673.975)" fill="#263238"/>
        </g>
        <g id="Group_17507" data-name="Group 17507" transform="translate(0.339 0.339)" opacity="0.2">
          <rect id="Rectangle_11269" data-name="Rectangle 11269" width="80.322" height="105.02" rx="13.11"/>
        </g>
        <g id="Group_17526" data-name="Group 17526" transform="translate(7.478 7.934)">
          <g id="Group_17508" data-name="Group 17508">
            <path id="Path_8405" data-name="Path 8405" d="M5413.565,4695.5v88.917a8.052,8.052,0,0,1-8.055,8.055h-64.219a8.051,8.051,0,0,1-8.048-8.055V4695.5a8.049,8.049,0,0,1,8.048-8.048h64.219A8.05,8.05,0,0,1,5413.565,4695.5Z" transform="translate(-5332.904 -4687.108)" fill="#fff"/>
            <path id="Path_8406" data-name="Path 8406" d="M5405.3,4792.593h-64.219a8.4,8.4,0,0,1-8.386-8.393v-88.918a8.4,8.4,0,0,1,8.386-8.388H5405.3a8.4,8.4,0,0,1,8.393,8.388V4784.2A8.4,8.4,0,0,1,5405.3,4792.593Zm-64.219-105.021a7.718,7.718,0,0,0-7.708,7.71V4784.2a7.72,7.72,0,0,0,7.708,7.715H5405.3a7.725,7.725,0,0,0,7.716-7.715v-88.918a7.722,7.722,0,0,0-7.716-7.71Z" transform="translate(-5332.692 -4686.895)" fill="#263238"/>
          </g>
          <g id="Group_17509" data-name="Group 17509">
            <path id="Path_8407" data-name="Path 8407" d="M5413.565,4695.5v4.762h-80.322V4695.5a8.049,8.049,0,0,1,8.048-8.048h64.219A8.05,8.05,0,0,1,5413.565,4695.5Z" transform="translate(-5332.904 -4687.108)" fill="#92e3a9"/>
            <path id="Path_8408" data-name="Path 8408" d="M5413.69,4700.383h-81v-5.1a8.4,8.4,0,0,1,8.386-8.388H5405.3a8.4,8.4,0,0,1,8.393,8.388Zm-80.321-.678h79.644v-4.423a7.722,7.722,0,0,0-7.716-7.71h-64.219a7.718,7.718,0,0,0-7.708,7.71Z" transform="translate(-5332.692 -4686.895)" fill="#263238"/>
          </g>
          <g id="Group_17510" data-name="Group 17510" transform="translate(7.892 18.665)">
            <rect id="Rectangle_11270" data-name="Rectangle 11270" width="19.761" height="3.314" fill="#92e3a9"/>
          </g>
          <g id="Group_17511" data-name="Group 17511" transform="translate(7.892 48.381)">
            <rect id="Rectangle_11271" data-name="Rectangle 11271" width="19.761" height="3.314" fill="#92e3a9"/>
          </g>
          <g id="Group_17512" data-name="Group 17512" transform="translate(7.892 75.327)">
            <rect id="Rectangle_11272" data-name="Rectangle 11272" width="19.761" height="3.314" fill="#92e3a9"/>
          </g>
          <g id="Group_17517" data-name="Group 17517" transform="translate(7.892 26.871)">
            <g id="Group_17513" data-name="Group 17513">
              <rect id="Rectangle_11273" data-name="Rectangle 11273" width="56.124" height="2.431" fill="#263238"/>
            </g>
            <g id="Group_17514" data-name="Group 17514" transform="translate(0 4.653)">
              <rect id="Rectangle_11274" data-name="Rectangle 11274" width="46.004" height="2.369" fill="#263238"/>
            </g>
            <g id="Group_17515" data-name="Group 17515" transform="translate(0 9.227)">
              <rect id="Rectangle_11275" data-name="Rectangle 11275" width="52.028" height="2.369" fill="#263238"/>
            </g>
            <g id="Group_17516" data-name="Group 17516" transform="translate(0 13.797)">
              <rect id="Rectangle_11276" data-name="Rectangle 11276" width="52.028" height="2.369" fill="#263238"/>
            </g>
          </g>
          <g id="Group_17521" data-name="Group 17521" transform="translate(7.892 53.818)">
            <g id="Group_17518" data-name="Group 17518">
              <rect id="Rectangle_11277" data-name="Rectangle 11277" width="56.124" height="2.431" fill="#263238"/>
            </g>
            <g id="Group_17519" data-name="Group 17519" transform="translate(0 4.653)">
              <rect id="Rectangle_11278" data-name="Rectangle 11278" width="46.004" height="2.369" fill="#263238"/>
            </g>
            <g id="Group_17520" data-name="Group 17520" transform="translate(0 9.227)">
              <rect id="Rectangle_11279" data-name="Rectangle 11279" width="52.028" height="2.369" fill="#263238"/>
            </g>
          </g>
          <g id="Group_17525" data-name="Group 17525" transform="translate(7.892 83.409)">
            <g id="Group_17522" data-name="Group 17522">
              <rect id="Rectangle_11280" data-name="Rectangle 11280" width="56.124" height="2.431" fill="#263238"/>
            </g>
            <g id="Group_17523" data-name="Group 17523" transform="translate(0 4.653)">
              <rect id="Rectangle_11281" data-name="Rectangle 11281" width="46.004" height="2.369" fill="#263238"/>
            </g>
            <g id="Group_17524" data-name="Group 17524" transform="translate(0 9.227)">
              <rect id="Rectangle_11282" data-name="Rectangle 11282" width="52.028" height="2.369" fill="#263238"/>
            </g>
          </g>
        </g>
      </g>
      <g id="Group_17539" data-name="Group 17539" transform="translate(49.679)">
        <g id="Group_17528" data-name="Group 17528">
          <path id="Path_8409" data-name="Path 8409" d="M5503.935,4581.014v35.937a9.6,9.6,0,0,1-9.6,9.6h-82.773a9.6,9.6,0,0,1-9.6-9.6v-35.937a9.606,9.606,0,0,1,9.6-9.606h82.773A9.6,9.6,0,0,1,5503.935,4581.014Z" transform="translate(-5401.624 -4571.069)" fill="#fff"/>
          <path id="Path_8410" data-name="Path 8410" d="M5494.123,4626.676h-82.774a9.949,9.949,0,0,1-9.937-9.938V4580.8a9.953,9.953,0,0,1,9.937-9.945h82.774a9.953,9.953,0,0,1,9.938,9.945v35.937A9.95,9.95,0,0,1,5494.123,4626.676Zm-82.774-55.142a9.274,9.274,0,0,0-9.259,9.267v35.937a9.27,9.27,0,0,0,9.259,9.26h82.774a9.27,9.27,0,0,0,9.26-9.26V4580.8a9.274,9.274,0,0,0-9.26-9.267Z" transform="translate(-5401.411 -4570.856)" fill="#222221"/>
        </g>
        <g id="Group_17529" data-name="Group 17529">
          <path id="Path_8411" data-name="Path 8411" d="M5503.935,4581.014v.82H5401.963v-.82a9.606,9.606,0,0,1,9.6-9.606h82.773A9.6,9.6,0,0,1,5503.935,4581.014Z" transform="translate(-5401.624 -4571.069)" fill="#92e3a9"/>
          <path id="Path_8412" data-name="Path 8412" d="M5504.061,4581.959h-102.65V4580.8a9.953,9.953,0,0,1,9.937-9.945h82.774a9.953,9.953,0,0,1,9.938,9.945Zm-101.972-.678h101.294v-.48a9.274,9.274,0,0,0-9.26-9.267h-82.774a9.274,9.274,0,0,0-9.259,9.267Z" transform="translate(-5401.411 -4570.856)" fill="#263238"/>
        </g>
        <g id="Group_17530" data-name="Group 17530" transform="translate(12.809 4.759)">
          <path id="Path_8413" data-name="Path 8413" d="M5424.78,4581.115a1.47,1.47,0,1,1,0-2.079A1.471,1.471,0,0,1,5424.78,4581.115Z" transform="translate(-5422.271 -4578.606)" fill="#263238"/>
        </g>
        <g id="Group_17531" data-name="Group 17531" transform="translate(19.638 4.759)">
          <path id="Path_8414" data-name="Path 8414" d="M5435.9,4581.115a1.47,1.47,0,1,1,0-2.079A1.471,1.471,0,0,1,5435.9,4581.115Z" transform="translate(-5433.39 -4578.606)" fill="#263238"/>
        </g>
        <g id="Group_17532" data-name="Group 17532" transform="translate(26.467 4.759)">
          <path id="Path_8415" data-name="Path 8415" d="M5447.02,4581.115a1.47,1.47,0,1,1,0-2.079A1.471,1.471,0,0,1,5447.02,4581.115Z" transform="translate(-5444.509 -4578.606)" fill="#263238"/>
        </g>
        <g id="Group_17533" data-name="Group 17533" transform="translate(6.503 17.034)">
          <path id="Path_8416" data-name="Path 8416" d="M5445.671,4628.084h-2.709a.339.339,0,1,1,0-.678h2.709a.339.339,0,0,1,0,.678Zm-5.42,0h-2.71a.339.339,0,0,1,0-.678h2.71a.339.339,0,1,1,0,.678Zm-5.419,0h-2.71a.339.339,0,1,1,0-.678h2.71a.339.339,0,1,1,0,.678Zm-5.42,0H5426.7a.339.339,0,1,1,0-.678h2.708a.339.339,0,1,1,0,.678Zm-5.419,0h-2.709a.339.339,0,1,1,0-.678h2.709a.339.339,0,1,1,0,.678Zm-5.418,0h-2.71a.339.339,0,0,1,0-.678h2.71a.339.339,0,0,1,0,.678Zm-5.421,0h-.815a.339.339,0,0,1-.339-.339v-1.893a.339.339,0,0,1,.678,0v1.555h.477a.339.339,0,1,1,0,.678Zm32.518-2.355a.339.339,0,0,1-.34-.338v-2.71a.339.339,0,0,1,.678,0v2.71A.338.338,0,0,1,5445.671,4625.729Zm-33.333-2.248a.339.339,0,0,1-.339-.339v-2.71a.339.339,0,1,1,.678,0v2.71A.339.339,0,0,1,5412.338,4623.481Zm33.333-3.17a.339.339,0,0,1-.34-.339v-2.71a.339.339,0,1,1,.678,0v2.71A.339.339,0,0,1,5445.671,4620.311Zm-33.333-2.249a.339.339,0,0,1-.339-.339v-2.709a.339.339,0,0,1,.678,0v2.709A.339.339,0,0,1,5412.338,4618.062Zm33.333-3.17a.339.339,0,0,1-.34-.339v-2.709a.339.339,0,1,1,.678,0v2.709A.339.339,0,0,1,5445.671,4614.891Zm-33.333-2.249a.339.339,0,0,1-.339-.339v-2.709a.339.339,0,0,1,.678,0v2.709A.339.339,0,0,1,5412.338,4612.642Zm33.333-3.17a.34.34,0,0,1-.34-.34v-2.709a.339.339,0,1,1,.678,0v2.709A.339.339,0,0,1,5445.671,4609.472Zm-33.333-2.25a.339.339,0,0,1-.339-.338v-2.71a.339.339,0,0,1,.678,0v2.71A.339.339,0,0,1,5412.338,4607.223Zm33.333-3.17a.339.339,0,0,1-.34-.338V4601a.339.339,0,1,1,.678,0v2.71A.338.338,0,0,1,5445.671,4604.052Zm-33.333-2.249a.339.339,0,0,1-.339-.339v-2.532a.339.339,0,0,1,.339-.338h.177a.339.339,0,0,1,.162.637v2.233A.339.339,0,0,1,5412.338,4601.8Zm32.694-2.532h-2.709a.339.339,0,1,1,0-.678h2.709a.339.339,0,0,1,0,.678Zm-5.42,0H5436.9a.339.339,0,1,1,0-.678h2.709a.339.339,0,1,1,0,.678Zm-5.419,0h-2.709a.339.339,0,1,1,0-.678h2.709a.339.339,0,1,1,0,.678Zm-5.419,0h-2.71a.339.339,0,0,1,0-.678h2.71a.339.339,0,0,1,0,.678Zm-5.419,0h-2.71a.339.339,0,1,1,0-.678h2.71a.339.339,0,1,1,0,.678Zm-5.419,0h-2.709a.339.339,0,1,1,0-.678h2.709a.339.339,0,0,1,0,.678Z" transform="translate(-5412 -4598.594)" fill="#263238"/>
        </g>
        <g id="Group_17538" data-name="Group 17538" transform="translate(45.316 17.373)">
          <g id="Group_17534" data-name="Group 17534">
            <rect id="Rectangle_11283" data-name="Rectangle 11283" width="38.361" height="2.023" fill="#263238"/>
          </g>
          <g id="Group_17535" data-name="Group 17535" transform="translate(0 4.196)">
            <rect id="Rectangle_11284" data-name="Rectangle 11284" width="29.425" height="2.023" fill="#263238"/>
          </g>
          <g id="Group_17536" data-name="Group 17536" transform="translate(0 8.369)">
            <rect id="Rectangle_11285" data-name="Rectangle 11285" width="43.818" height="2.047" fill="#263238"/>
          </g>
          <g id="Group_17537" data-name="Group 17537" transform="translate(0 12.445)">
            <rect id="Rectangle_11286" data-name="Rectangle 11286" width="37.312" height="2.047" fill="#263238"/>
          </g>
        </g>
      </g>
    </g>
    <g id="Group_17596" data-name="Group 17596" transform="translate(5387.428 4630.391)">
      <g id="Group_17541" data-name="Group 17541" transform="translate(0.241 135.9)">
        <path id="Path_8417" data-name="Path 8417" d="M5506.106,4922.871s-17.81,5.108-20.3,5.988c-2.263.8-8.393,2.946-12.993,2.282a10.1,10.1,0,0,1-1.314-.283c-4.661-1.39-6.754-2.684-7.363-5.617s1.707-5.087,3.942-6.469,14.361-2.825,14.361-2.825l2.926.86h.007Z" transform="translate(-5464.039 -4915.947)" fill="#92e3a9"/>
      </g>
      <g id="Group_17542" data-name="Group 17542" transform="translate(0.241 135.9)">
        <path id="Path_8418" data-name="Path 8418" d="M5472.817,4931.141a10.1,10.1,0,0,1-1.314-.283c-4.661-1.39-6.754-2.684-7.363-5.617s1.707-5.087,3.942-6.469,14.361-2.825,14.361-2.825l2.926.86c-2.648,1.22-12.525,1.9-14.679,3.137s-3.2,3.577-1.924,6.734C5469.444,4928.357,5471.259,4929.983,5472.817,4931.141Z" transform="translate(-5464.039 -4915.947)" fill="#fff"/>
      </g>
      <g id="Group_17543" data-name="Group 17543" transform="translate(0 136.294)">
        <path id="Path_8419" data-name="Path 8419" d="M5474.826,4931.727c-3.9,0-7.6-.936-9.522-3.375-1.958-2.486-1.83-4.57-1.377-5.882a6.674,6.674,0,0,1,4.751-4.041c3.7-.9,11.014-2.268,15-1.713a.339.339,0,1,1-.093.671c-3.88-.538-11.095.815-14.746,1.7a5.982,5.982,0,0,0-4.271,3.6c-.571,1.651-.132,3.463,1.269,5.24,3.333,4.23,13.1,3.6,18.629,1.284,5.265-2.2,18.591-5.664,18.725-5.7a.339.339,0,1,1,.17.656c-.134.034-13.414,3.484-18.633,5.667A27.078,27.078,0,0,1,5474.826,4931.727Z" transform="translate(-5463.646 -4916.587)" fill="#263238"/>
      </g>
      <g id="Group_17544" data-name="Group 17544" transform="translate(3.946 136.419)">
        <path id="Path_8420" data-name="Path 8420" d="M5475.413,4931.563a.349.349,0,0,1-.163-.042c-.07-.039-7.047-3.943-4.692-9.393,1.1-2.545,5.095-3.169,8.958-3.77a25.921,25.921,0,0,0,6.451-1.534.338.338,0,1,1,.288.612,26.309,26.309,0,0,1-6.634,1.591c-3.682.573-7.489,1.167-8.441,3.37-2.109,4.884,4.333,8.494,4.4,8.53a.339.339,0,0,1-.164.636Z" transform="translate(-5470.072 -4916.792)" fill="#263238"/>
      </g>
      <g id="Group_17545" data-name="Group 17545" transform="translate(59.427 135.555)">
        <path id="Path_8421" data-name="Path 8421" d="M5597.538,4931.752a5.645,5.645,0,0,1-2.668,4.653,10.456,10.456,0,0,1-5.474,1.131c-6.246-.081-17.986-4.545-17.986-4.545l-10.994-6.077,5.717-9.05,1.565-2.479,4.044.907s3.346,1.9,6.713,3.408,11.536,1.829,14.416,4.159S5597.85,4928.717,5597.538,4931.752Z" transform="translate(-5560.416 -4915.385)" fill="#92e3a9"/>
      </g>
      <g id="Group_17546" data-name="Group 17546" transform="translate(65.144 135.555)">
        <path id="Path_8422" data-name="Path 8422" d="M5601.131,4931.752a5.647,5.647,0,0,1-2.668,4.653,8.24,8.24,0,0,0-.312-5.487c-1.22-2.757-5.224-5.188-10.48-5.6s-9.28-2.865-11.388-3.963c-1.645-.854-5.113-2.716-6.557-3.5l1.565-2.479,4.044.907s3.346,1.9,6.713,3.408,11.536,1.829,14.416,4.159S5601.442,4928.717,5601.131,4931.752Z" transform="translate(-5569.726 -4915.385)" fill="#fff"/>
      </g>
      <g id="Group_17547" data-name="Group 17547" transform="translate(60.386 138.872)">
        <path id="Path_8423" data-name="Path 8423" d="M5591.03,4939.957a15.9,15.9,0,0,1-1.883-.128,69.408,69.408,0,0,1-25.861-8.833.339.339,0,0,1,.338-.588,68.729,68.729,0,0,0,25.605,8.748c1.84.222,4.112.3,5.373-1.118a3.827,3.827,0,0,0,.837-2.886c-.245-2.864-2.751-4.925-5.014-5.9a26.71,26.71,0,0,0-5.726-1.5c-.806-.148-1.64-.3-2.455-.486a32.8,32.8,0,0,1-8.007-2.929c-.429-.224-.854-.458-1.279-.692a17.789,17.789,0,0,0-4.738-2.037c-1.911-.408-4.481,0-5.614,1.855a.339.339,0,0,1-.579-.354c1.312-2.144,4.13-2.631,6.334-2.166a18.346,18.346,0,0,1,4.924,2.107c.422.231.842.463,1.267.685a32.2,32.2,0,0,0,7.842,2.869c.8.18,1.63.333,2.431.48a27.327,27.327,0,0,1,5.869,1.544c2.443,1.05,5.15,3.3,5.423,6.461a4.511,4.511,0,0,1-1.009,3.4A5.234,5.234,0,0,1,5591.03,4939.957Z" transform="translate(-5561.978 -4920.785)" fill="#263238"/>
      </g>
      <g id="Group_17548" data-name="Group 17548" transform="translate(66.042 136.124)">
        <path id="Path_8424" data-name="Path 8424" d="M5597.675,4937.642a.339.339,0,0,1-.155-.64,7,7,0,0,0,3.843-4.944,7.39,7.39,0,0,0-3.123-6.652,17.846,17.846,0,0,0-7.3-2.889c-.6-.125-1.2-.24-1.8-.355a34.336,34.336,0,0,1-6.083-1.554c-1.036-.406-2.08-.92-3.089-1.419-2.848-1.407-5.538-2.735-8.351-1.988a.335.335,0,0,1-.414-.24.339.339,0,0,1,.24-.415c3.061-.812,5.99.635,8.824,2.035,1,.493,2.027,1,3.037,1.4a33.79,33.79,0,0,0,5.964,1.521c.606.116,1.212.232,1.815.358a18.449,18.449,0,0,1,7.573,3.015,8.07,8.07,0,0,1,3.38,7.29,7.689,7.689,0,0,1-4.2,5.446A.34.34,0,0,1,5597.675,4937.642Z" transform="translate(-5571.188 -4916.311)" fill="#263238"/>
      </g>
      <g id="Group_17549" data-name="Group 17549" transform="translate(7.706 38.644)">
        <path id="Path_8425" data-name="Path 8425" d="M5542.757,4772.586l-18.6-7.079-.23-.088s.068-.495.122-1.213c.115-1.483.176-3.9-.522-4.722-1.036-1.212-3.977-.2-6.842-1.511s-8.169,1.037-8.169,1.037-3.828-.7-5.515,2.06a14.981,14.981,0,0,0-.562,5.547s-.123.048-.352.129c-2.215.826-14.273,5.364-16.827,7.187-2.818,2-5.934,22.49-6.937,28.506s-2.783,11.441-1.875,13.514,13.86,12.044,21.311,14.619,33.892,1.823,33.892,1.823.433-.115,1.2-.359c4.471-1.437,20.336-7.35,28.75-21.3C5561.6,4810.738,5553.447,4784.008,5542.757,4772.586Zm-50.258,34.467c-1.369.969-.637,4.729-.637,4.729l-2.33-2.053,5.846-14.375,2.493,11.034S5493.868,4806.091,5492.5,4807.053Zm46.769,9.132c-.644.332,1.849-6.577.663-8.143s-4.735-1.416-4.735-1.416l.305-1.89c.041-.21,2.107-10.805,2.107-10.805l.7-.833s7.236,12.4,8.529,16.773C5546.834,4809.871,5538.95,4816.185,5539.269,4816.185Z" transform="translate(-5476.195 -4757.575)" fill="#92e3a9"/>
      </g>
      <g id="Group_17550" data-name="Group 17550" transform="translate(28.624 8.82)">
        <path id="Path_8426" data-name="Path 8426" d="M5520.78,4709.01l-9.6,10.194s-1.324,1.17-.8,4.126,1.751,5.5,2.677,5.695a13.247,13.247,0,0,0,2.223.2,39.63,39.63,0,0,0,3.515,6.211,78.053,78.053,0,0,1,.237,8.792s3.449,3.014,6.7,3.4,8.269-4.6,8.269-4.6l1.245-6.093s2.945-4.471,3.146-5.661,1.547-.885,2.209-1.472a11.208,11.208,0,0,0,2.445-5.694c.253-2.481.271-5.332-2.611-4.495-2.5-.671-.934-5.95-.934-5.95l-4.389-3.872Z" transform="translate(-5510.258 -4709.01)" fill="#fff"/>
      </g>
      <g id="Group_17551" data-name="Group 17551" transform="translate(33.596 38.644)" opacity="0.5">
        <path id="Path_8427" data-name="Path 8427" d="M5540.424,4765.507a9.6,9.6,0,0,1-.495,1.111c-1.584,2.988-8.488,8.678-8.488,8.678l-2.086-6.416-1.145,6.416c-2.3-1-9.328-7.093-9.328-7.093s-.237-.569-.528-1.456c.23-.082.353-.129.353-.129a15,15,0,0,1,.562-5.547c1.687-2.764,5.515-2.06,5.515-2.06s5.3-2.351,8.169-1.037,5.806.3,6.842,1.511.4,5.935.4,5.935Z" transform="translate(-5518.354 -4757.575)" fill="#fff"/>
      </g>
      <g id="Group_17552" data-name="Group 17552" transform="translate(52.422 45.276)" opacity="0.2">
        <path id="Path_8428" data-name="Path 8428" d="M5570.857,4776.753l-18.6-7.079-.23-.088s.068-.495.122-1.212l-.386,2.411-2.75,3.74a75.374,75.374,0,0,1,8.583,3.783,7.538,7.538,0,0,1,3.943,7.52l-3.429,29.322-1.4,16.652,4.24,4.4c4.472-1.437,20.337-7.351,28.75-21.3C5589.7,4814.905,5581.546,4788.175,5570.857,4776.753Zm-3.489,43.6c-.643.333,1.849-6.577.663-8.143s-4.735-1.415-4.735-1.415l.305-1.89,2.107-10.805.7-.834s7.236,12.4,8.529,16.773C5574.935,4814.039,5567.05,4820.352,5567.368,4820.352Z" transform="translate(-5549.01 -4768.374)"/>
      </g>
      <g id="Group_17553" data-name="Group 17553" transform="translate(11.714 57.394)" opacity="0.2">
        <path id="Path_8429" data-name="Path 8429" d="M5501.649,4819.824l-2.893-9.666s-5.186-17.689-8.742-22.052l.935,12.44s-3.051,14.861-5.875,19.277-3.435,5.514,0,5.514,11.787,6.66,11.787,6.66l-.644-5.555Zm-7.269,3.74-2.33-2.053,5.846-14.375,2.493,11.035s-4-.3-5.372.664S5494.381,4823.564,5494.381,4823.564Z" transform="translate(-5482.721 -4788.106)"/>
      </g>
      <g id="Group_17554" data-name="Group 17554" transform="translate(36.824 34.906)">
        <path id="Path_8430" data-name="Path 8430" d="M5523.949,4759.759a.327.327,0,0,1-.075-.008.339.339,0,0,1-.256-.405c.515-2.3,0-7.433-.007-7.484a.339.339,0,1,1,.674-.069c.022.215.534,5.294-.006,7.7A.339.339,0,0,1,5523.949,4759.759Z" transform="translate(-5523.609 -4751.487)" fill="#263238"/>
      </g>
      <g id="Group_17555" data-name="Group 17555" transform="translate(52.559 36.822)">
        <path id="Path_8431" data-name="Path 8431" d="M5549.572,4760.265a.339.339,0,0,1-.339-.334,22.467,22.467,0,0,1,.591-5.067.339.339,0,0,1,.657.165,22.046,22.046,0,0,0-.57,4.894.339.339,0,0,1-.334.342Z" transform="translate(-5549.232 -4754.608)" fill="#263238"/>
      </g>
      <g id="Group_17556" data-name="Group 17556" transform="translate(32.79 12.367)">
        <path id="Path_8432" data-name="Path 8432" d="M5529.372,4744.293a5.538,5.538,0,0,1-4.166-1.6,64.225,64.225,0,0,1-5.746-7.208l-.434-.593c-2.471-3.378-1.947-10.518-1.923-10.82a.346.346,0,0,1,.363-.312.34.34,0,0,1,.312.364c-.006.071-.528,7.191,1.795,10.367l.435.594a63.607,63.607,0,0,0,5.677,7.128c1.7,1.7,4.016,1.615,6.965.96,2.686-.6,8.3-7.644,8.224-11.063-.07-3.03.1-6.116.256-8.838l.068-1.215c.153-2.827-2.888-6.686-2.918-6.724a.339.339,0,1,1,.53-.423c.132.167,3.231,4.1,3.065,7.184l-.068,1.217c-.152,2.71-.325,5.781-.255,8.784.086,3.725-5.819,11.088-8.755,11.741A16.119,16.119,0,0,1,5529.372,4744.293Z" transform="translate(-5517.042 -4714.786)" fill="#263238"/>
      </g>
      <g id="Group_17557" data-name="Group 17557" transform="translate(46.064 24.115)">
        <path id="Path_8433" data-name="Path 8433" d="M5539,4743.354a.339.339,0,0,1-.223-.595,3.676,3.676,0,0,1,.756-.471c.144-.074.286-.147.421-.233.252-.162.533-.453.5-.743-.032-.238-.256-.431-.514-.654-.109-.094-.217-.188-.314-.286a4.08,4.08,0,0,1-.905-2.811,16.67,16.67,0,0,1,.252-3.364.331.331,0,0,1,.392-.274.338.338,0,0,1,.275.392,15.9,15.9,0,0,0-.241,3.228,3.48,3.48,0,0,0,.711,2.353c.085.087.179.168.274.25a1.788,1.788,0,0,1,.741,1.076,1.493,1.493,0,0,1-.8,1.4c-.152.1-.314.18-.477.264a3.228,3.228,0,0,0-.621.38A.337.337,0,0,1,5539,4743.354Z" transform="translate(-5538.657 -4733.916)" fill="#263238"/>
      </g>
      <g id="Group_17558" data-name="Group 17558" transform="translate(41.357 33.259)">
        <path id="Path_8434" data-name="Path 8434" d="M5534.849,4752.327a.318.318,0,0,1-.053,0c-3.358-.524-3.783-3.02-3.8-3.125a.339.339,0,0,1,.282-.387.332.332,0,0,1,.386.282h0c.014.085.382,2.116,3.234,2.561a.339.339,0,0,1-.051.674Z" transform="translate(-5530.993 -4748.805)" fill="#263238"/>
      </g>
      <g id="Group_17559" data-name="Group 17559" transform="translate(40.712 25.017)">
        <path id="Path_8435" data-name="Path 8435" d="M5531.252,4736.615c0,.679-.293,1.23-.656,1.23s-.656-.551-.656-1.23.293-1.23.656-1.23S5531.252,4735.936,5531.252,4736.615Z" transform="translate(-5529.94 -4735.384)" fill="#263238"/>
      </g>
      <g id="Group_17560" data-name="Group 17560" transform="translate(50.113 25.313)">
        <path id="Path_8436" data-name="Path 8436" d="M5546.562,4737.1c0,.679-.293,1.23-.656,1.23s-.656-.551-.656-1.23.294-1.23.656-1.23S5546.562,4736.417,5546.562,4737.1Z" transform="translate(-5545.25 -4735.867)" fill="#263238"/>
      </g>
      <g id="Group_17561" data-name="Group 17561" transform="translate(48.851 21.628)">
        <path id="Path_8437" data-name="Path 8437" d="M5549.517,4732.833a.679.679,0,0,1-.541-.268,2.95,2.95,0,0,0-2.094-1.338,3.794,3.794,0,0,0-2.532,1.057.678.678,0,0,1-.957-.96,5.112,5.112,0,0,1,3.574-1.45,4.238,4.238,0,0,1,3.089,1.873.677.677,0,0,1-.54,1.086Z" transform="translate(-5543.195 -4729.865)" fill="#263238"/>
      </g>
      <g id="Group_17562" data-name="Group 17562" transform="translate(37.388 21.982)">
        <path id="Path_8438" data-name="Path 8438" d="M5525.207,4732.762a.677.677,0,0,1-.393-1.229c2.809-2,5.084-.808,5.895.1a.677.677,0,0,1-1.007.906c-.164-.177-1.646-1.65-4.1.1A.675.675,0,0,1,5525.207,4732.762Z" transform="translate(-5524.528 -4730.443)" fill="#263238"/>
      </g>
      <g id="Group_17563" data-name="Group 17563" transform="translate(37.163 35.245)">
        <path id="Path_8439" data-name="Path 8439" d="M5524.4,4754.9s1.873,5.161,6.054,6.625,9.734-6.133,9.734-6.133l-.29-.987s-3.639,4.727-7.686,3.92-8.05-6.29-8.05-6.29Z" transform="translate(-5524.162 -4752.04)" fill="#263238"/>
      </g>
      <g id="Group_17564" data-name="Group 17564" transform="translate(28.408 18.247)">
        <path id="Path_8440" data-name="Path 8440" d="M5513.921,4735.485a2.729,2.729,0,0,1-1.188-.246,2.056,2.056,0,0,1-1.063-1.244c-.084-.245-.193-.541-.316-.874-.914-2.473-2.444-6.61-.531-8.252a1.777,1.777,0,0,1,1.623-.46c1.481.361,2.458,2.74,2.5,2.841a.339.339,0,1,1-.628.254c-.243-.6-1.082-2.206-2.032-2.437a1.108,1.108,0,0,0-1.019.317c-1.557,1.334-.073,5.347.725,7.5.125.339.237.64.322.89a1.387,1.387,0,0,0,.718.853,3.007,3.007,0,0,0,2,0,.339.339,0,1,1,.226.639A4.435,4.435,0,0,1,5513.921,4735.485Z" transform="translate(-5509.904 -4724.361)" fill="#263238"/>
      </g>
      <g id="Group_17565" data-name="Group 17565" transform="translate(56.62 18.893)">
        <path id="Path_8441" data-name="Path 8441" d="M5556.778,4736.808a3.328,3.328,0,0,1-.66-.062.339.339,0,0,1,.132-.665c.083.016,2.036.38,2.593-1.253.086-.249.2-.55.323-.89.8-2.156,2.28-6.169.724-7.5a1.119,1.119,0,0,0-1.019-.317c-.95.231-1.79,1.838-2.033,2.438a.339.339,0,0,1-.628-.255c.041-.1,1.018-2.479,2.5-2.84a1.769,1.769,0,0,1,1.622.46c1.914,1.642.383,5.779-.53,8.252-.124.334-.232.629-.316.874A2.682,2.682,0,0,1,5556.778,4736.808Z" transform="translate(-5555.846 -4725.412)" fill="#263238"/>
      </g>
      <g id="Group_17566" data-name="Group 17566" transform="translate(26.031 0)">
        <path id="Path_8442" data-name="Path 8442" d="M5513.136,4720.894a3.457,3.457,0,0,0,2.188-1.292,5.441,5.441,0,0,0,.635-1.96,23.652,23.652,0,0,0,.347-3.951,5.333,5.333,0,0,1,.139-1.541,3.956,3.956,0,0,1,.834-1.371c.87-1.02,1.917-1.881,2.744-2.935a4.9,4.9,0,0,0,1.212-3.711,16.857,16.857,0,0,0,13.8,3.568c4.386-.86,8.6-4.71,8.083-9.549a3.915,3.915,0,0,0-3.09-3.368c-2.169-.539-4.118.617-6.083,1.358-3.581,1.351-7.085-.969-10.7-1.358-3.1-.332-6.894.052-8.505,3.128,0,0-5.56.653-7.994,5.219s2.194,10.887,2.194,10.887,1.862-2.255,4.257,2.311Z" transform="translate(-5506.035 -4694.646)" fill="#263238"/>
      </g>
      <g id="Group_17567" data-name="Group 17567" transform="translate(54.374 9.601)">
        <path id="Path_8443" data-name="Path 8443" d="M5552.459,4712.219s-1.437,7.491,2.314,11.119c0,0,.821-2.252,1.653-2.8a8.687,8.687,0,0,0-.657-8.317C5553.024,4707.86,5552.459,4712.219,5552.459,4712.219Z" transform="translate(-5552.188 -4710.282)" fill="#263238"/>
      </g>
      <g id="Group_17568" data-name="Group 17568" transform="translate(32.161 2.674)" opacity="0.2">
        <path id="Path_8444" data-name="Path 8444" d="M5516.357,4711.293h-.023a.338.338,0,0,1-.315-.36,8.7,8.7,0,0,1,3.178-5.867,8.942,8.942,0,0,1,6.446-2.285,43.845,43.845,0,0,1,4.683.758c3.643.722,7.083,1.406,10.639-.042a6.7,6.7,0,0,0,4.082-4.242.338.338,0,1,1,.653.176,7.379,7.379,0,0,1-4.48,4.694c-3.744,1.523-7.446.787-11.026.077a43.782,43.782,0,0,0-4.611-.746,8.338,8.338,0,0,0-5.946,2.126,8.023,8.023,0,0,0-2.943,5.4A.337.337,0,0,1,5516.357,4711.293Z" transform="translate(-5516.018 -4699.001)" fill="#fff"/>
      </g>
      <g id="Group_17569" data-name="Group 17569" transform="translate(28.928 5.1)" opacity="0.2">
        <path id="Path_8445" data-name="Path 8445" d="M5511.09,4711.665h-.007a.34.34,0,0,1-.332-.347,9.463,9.463,0,0,1,5.758-8.34.339.339,0,0,1,.254.627,8.766,8.766,0,0,0-5.334,7.729A.341.341,0,0,1,5511.09,4711.665Z" transform="translate(-5510.751 -4702.953)" fill="#fff"/>
      </g>
      <g id="Group_17570" data-name="Group 17570" transform="translate(35.623 41.195)">
        <path id="Path_8446" data-name="Path 8446" d="M5530.1,4768.561a.33.33,0,0,1-.12-.021,23.858,23.858,0,0,1-8.24-5.636.339.339,0,0,1,.5-.457,23.68,23.68,0,0,0,7.87,5.418c.829-.262,6.279-2.1,9.122-6a.338.338,0,0,1,.546.4c-3.2,4.39-9.327,6.206-9.586,6.28A.337.337,0,0,1,5530.1,4768.561Z" transform="translate(-5521.655 -4761.729)" fill="#263238"/>
      </g>
      <g id="Group_17571" data-name="Group 17571" transform="translate(34.171 20.392)">
        <path id="Path_8447" data-name="Path 8447" d="M5525.145,4739.563a5.855,5.855,0,1,1,5.855-5.855A5.862,5.862,0,0,1,5525.145,4739.563Zm0-11.033a5.177,5.177,0,1,0,5.177,5.178A5.184,5.184,0,0,0,5525.145,4728.53Z" transform="translate(-5519.29 -4727.853)" fill="#263238"/>
      </g>
      <g id="Group_17572" data-name="Group 17572" transform="translate(46.495 20.392)">
        <path id="Path_8448" data-name="Path 8448" d="M5545.213,4739.563a5.855,5.855,0,1,1,5.855-5.855A5.862,5.862,0,0,1,5545.213,4739.563Zm0-11.033a5.177,5.177,0,1,0,5.178,5.178A5.184,5.184,0,0,0,5545.213,4728.53Z" transform="translate(-5539.358 -4727.853)" fill="#263238"/>
      </g>
      <g id="Group_17573" data-name="Group 17573" transform="translate(33.608 39.743)">
        <path id="Path_8449" data-name="Path 8449" d="M5531.451,4776.322a.337.337,0,0,1-.327-.249l-1.567-5.677-1,5.647a.339.339,0,0,1-.483.245c-4.292-2.1-9.212-6.951-9.42-7.156a.337.337,0,0,1-.1-.2c-.024-.226-.589-5.54.43-7.333a4.641,4.641,0,0,1,2.88-2.222.339.339,0,0,1,.136.664,4.028,4.028,0,0,0-2.427,1.893c-.736,1.3-.518,5.238-.358,6.8a46.331,46.331,0,0,0,8.755,6.742l1.186-6.672a.34.34,0,0,1,.318-.279.325.325,0,0,1,.342.249l1.835,6.648c1.437-1.069,6.409-4.922,7.962-8.208.165-1.307.473-4.769.014-5.934a1.8,1.8,0,0,0-1.651-1.237.325.325,0,0,1-.355-.322.337.337,0,0,1,.32-.355,2.439,2.439,0,0,1,2.317,1.665c.625,1.584.046,6.129.021,6.322a.311.311,0,0,1-.029.1c-1.857,4.009-8.323,8.613-8.6,8.808A.343.343,0,0,1,5531.451,4776.322Z" transform="translate(-5518.373 -4759.365)" fill="#263238"/>
      </g>
      <g id="Group_17574" data-name="Group 17574" transform="translate(24.338 68.773)">
        <path id="Path_8450" data-name="Path 8450" d="M5508.205,4825.9a.34.34,0,0,1-.334-.29c-.02-.131-1.99-13.21-4.56-18.487a.339.339,0,0,1,.609-.3c2.615,5.371,4.539,18.143,4.62,18.685a.338.338,0,0,1-.285.385A.345.345,0,0,1,5508.205,4825.9Z" transform="translate(-5503.277 -4806.637)" fill="#263238"/>
      </g>
      <g id="Group_17575" data-name="Group 17575" transform="translate(18.669 57.054)">
        <path id="Path_8451" data-name="Path 8451" d="M5498.462,4795.056a.339.339,0,0,1-.306-.193,53.5,53.5,0,0,0-4.047-6.772.339.339,0,1,1,.552-.393,54.194,54.194,0,0,1,4.107,6.874.34.34,0,0,1-.307.485Z" transform="translate(-5494.046 -4787.554)" fill="#263238"/>
      </g>
      <g id="Group_17576" data-name="Group 17576" transform="translate(70.442 60.467)">
        <path id="Path_8452" data-name="Path 8452" d="M5578.692,4800.232a.33.33,0,0,1-.086-.011.338.338,0,0,1-.241-.414,37.973,37.973,0,0,1,2.19-6.506.339.339,0,0,1,.608.3,37.312,37.312,0,0,0-2.144,6.381A.338.338,0,0,1,5578.692,4800.232Z" transform="translate(-5578.354 -4793.112)" fill="#263238"/>
      </g>
      <g id="Group_17577" data-name="Group 17577" transform="translate(66.369 70.852)">
        <path id="Path_8453" data-name="Path 8453" d="M5572.061,4827.207a.331.331,0,0,1-.053,0,.338.338,0,0,1-.282-.387c.015-.09,1.443-9.145,3.118-16.53a.343.343,0,0,1,.4-.256.339.339,0,0,1,.255.405c-1.67,7.363-3.094,16.4-3.108,16.486A.339.339,0,0,1,5572.061,4827.207Z" transform="translate(-5571.721 -4810.022)" fill="#263238"/>
      </g>
      <g id="Group_17578" data-name="Group 17578" transform="translate(68.78 70.904)">
        <path id="Path_8454" data-name="Path 8454" d="M5575.985,4814.54a.339.339,0,0,1-.271-.542,10.716,10.716,0,0,1,5.672-3.877.338.338,0,0,1,.182.652,10.037,10.037,0,0,0-5.312,3.632A.337.337,0,0,1,5575.985,4814.54Z" transform="translate(-5575.646 -4810.107)" fill="#263238"/>
      </g>
      <g id="Group_17579" data-name="Group 17579" transform="translate(55.1 46.149)">
        <path id="Path_8455" data-name="Path 8455" d="M5565.46,4835.63a.338.338,0,0,1-.092-.664c15.818-4.485,24.709-18.078,25.636-19.555-5-15.143-9.8-24.623-12.962-29.914a42.467,42.467,0,0,0-5.683-7.9c-7.312-2.575-18.662-7.1-18.776-7.15a.338.338,0,1,1,.253-.627c.113.045,11.523,4.6,18.818,7.163a.318.318,0,0,1,.119.073c.095.089,2.348,2.236,5.821,8.047,3.194,5.34,8.059,14.922,13.1,30.246a.337.337,0,0,1-.03.279c-.09.15-9.2,15.192-26.113,19.988A.344.344,0,0,1,5565.46,4835.63Z" transform="translate(-5553.371 -4769.796)" fill="#263238"/>
      </g>
      <g id="Group_17580" data-name="Group 17580" transform="translate(69.801 88.761)">
        <path id="Path_8456" data-name="Path 8456" d="M5577.648,4848.554a.336.336,0,0,1-.26-.122.339.339,0,0,1,.042-.477l8.207-6.852c.2-.15,4.573-3.41,9.224-1.084a.338.338,0,1,1-.3.6c-4.275-2.138-8.457.978-8.5,1.009l-8.194,6.842A.336.336,0,0,1,5577.648,4848.554Z" transform="translate(-5577.31 -4839.185)" fill="#263238"/>
      </g>
      <g id="Group_17581" data-name="Group 17581" transform="translate(69.482 73.831)">
        <path id="Path_8457" data-name="Path 8457" d="M5585.654,4832.321a.34.34,0,0,1-.329-.255c-1.7-6.636-8.408-16.565-8.476-16.664a.338.338,0,0,1,.56-.38c.07.1,6.841,10.125,8.572,16.877a.336.336,0,0,1-.244.411A.327.327,0,0,1,5585.654,4832.321Z" transform="translate(-5576.791 -4814.874)" fill="#263238"/>
      </g>
      <g id="Group_17582" data-name="Group 17582" transform="translate(13.106 90.536)">
        <path id="Path_8458" data-name="Path 8458" d="M5495.33,4845.109a.341.341,0,0,1-.233-.094l-2.323-2.215a11.215,11.215,0,0,0-7.258,2.043.338.338,0,0,1-.376-.562,11.518,11.518,0,0,1,7.848-2.136.347.347,0,0,1,.176.089l2.4,2.29a.339.339,0,0,1-.234.585Z" transform="translate(-5484.988 -4842.076)" fill="#263238"/>
      </g>
      <g id="Group_17583" data-name="Group 17583" transform="translate(20.707 75.746)">
        <path id="Path_8459" data-name="Path 8459" d="M5497.705,4833.524a.357.357,0,0,1-.1-.015.338.338,0,0,1-.224-.422c.03-.1,3.028-9.894,5.956-14.927a.339.339,0,1,1,.586.34c-2.889,4.966-5.864,14.686-5.895,14.784A.338.338,0,0,1,5497.705,4833.524Z" transform="translate(-5497.366 -4817.992)" fill="#263238"/>
      </g>
      <g id="Group_17584" data-name="Group 17584" transform="translate(7.616 47.35)">
        <path id="Path_8460" data-name="Path 8460" d="M5495.4,4835.539a.35.35,0,0,1-.158-.04c-5.031-2.659-19.358-11.147-19.2-15.139.142-3.473,6.2-38.515,8-40.52,1.65-1.84,17.536-7.814,18.212-8.068a.339.339,0,0,1,.238.634c-4.558,1.71-16.667,6.461-17.946,7.885-1.514,1.687-7.676,36.426-7.825,40.1-.124,3.044,11.166,10.458,18.836,14.511a.339.339,0,0,1-.159.639Z" transform="translate(-5476.047 -4771.752)" fill="#263238"/>
      </g>
      <g id="Group_17585" data-name="Group 17585" transform="translate(44.092 58.279)">
        <path id="Path_8461" data-name="Path 8461" d="M5537.611,4790.631a1.083,1.083,0,1,1-1.082-1.083A1.081,1.081,0,0,1,5537.611,4790.631Z" transform="translate(-5535.446 -4789.548)" fill="#263238"/>
      </g>
      <g id="Group_17591" data-name="Group 17591" transform="translate(22.56 87.358)">
        <g id="Group_17586" data-name="Group 17586" transform="translate(4.4 28.107)">
          <path id="Path_8462" data-name="Path 8462" d="M5545.9,4884.428h-37.471a.88.88,0,0,1-.879-.878h0a.879.879,0,0,1,.879-.879H5545.9a.878.878,0,0,1,.878.879h0A.878.878,0,0,1,5545.9,4884.428Z" transform="translate(-5507.548 -4882.671)" fill="#263238"/>
        </g>
        <g id="Group_17587" data-name="Group 17587">
          <path id="Path_8463" data-name="Path 8463" d="M5544.657,4864.066l5.022-23.58a2.51,2.51,0,0,0-2.455-3.033h-43.78a2.51,2.51,0,0,0-2.461,3l4.5,22.8a2.509,2.509,0,0,0,2.4,2.022l34.257.785A2.508,2.508,0,0,0,5544.657,4864.066Z" transform="translate(-5500.596 -4837.114)" fill="#fff"/>
          <path id="Path_8464" data-name="Path 8464" d="M5541.991,4866.178h-.066l-34.256-.785a2.834,2.834,0,0,1-2.73-2.3l-4.5-22.8a2.848,2.848,0,0,1,2.794-3.4h43.78a2.849,2.849,0,0,1,2.785,3.442l-5.022,23.581h0A2.85,2.85,0,0,1,5541.991,4866.178Zm-38.759-28.6a2.17,2.17,0,0,0-2.129,2.592l4.5,22.8a2.159,2.159,0,0,0,2.08,1.749l34.257.785h.05a2.172,2.172,0,0,0,2.123-1.719l5.022-23.582a2.172,2.172,0,0,0-2.123-2.622Zm41.212,26.275h0Z" transform="translate(-5500.383 -4836.901)" fill="#263238"/>
        </g>
        <g id="Group_17588" data-name="Group 17588" transform="translate(21.094 10.434)">
          <path id="Path_8465" data-name="Path 8465" d="M5541.723,4857.386a3.495,3.495,0,1,1-3.5-3.494A3.495,3.495,0,0,1,5541.723,4857.386Z" transform="translate(-5534.733 -4853.892)" fill="#263238"/>
        </g>
        <g id="Group_17589" data-name="Group 17589" transform="translate(34.615 2.238)">
          <path id="Path_8466" data-name="Path 8466" d="M5562.291,4841.224h-5.2a.339.339,0,0,1,0-.678h5.2a.339.339,0,1,1,0,.678Z" transform="translate(-5556.75 -4840.545)" fill="#263238"/>
        </g>
        <g id="Group_17590" data-name="Group 17590" transform="translate(9.775 2.238)">
          <path id="Path_8467" data-name="Path 8467" d="M5536.384,4841.224H5516.64a.339.339,0,1,1,0-.678h19.745a.339.339,0,1,1,0,.678Z" transform="translate(-5516.3 -4840.545)" fill="#263238"/>
        </g>
      </g>
      <g id="Group_17592" data-name="Group 17592" transform="translate(3.018 107.671)">
        <path id="Path_8468" data-name="Path 8468" d="M5532.25,4901.633l-3.992,10.477s-10.176-2.566-23.217-5.238c-13.635-2.793-27.877-6.411-35.264-19.371a7.342,7.342,0,0,1-1.078-5.217c1.066-4.477,6.889-5.691,10.728-6.14a71.8,71.8,0,0,1,7.265-.409c1.236-.017,5.313-.665,6.3.062a28.871,28.871,0,0,0,4.738,2.808c2.18.926,34-.832,34-.832a11.357,11.357,0,0,0,1-3.82c5-2.542,16.585-4.7,21.479-3.744,7.7,1.5,12.186,5.985,11.331,10.688S5547.7,4898.213,5532.25,4901.633Z" transform="translate(-5468.561 -4869.978)" fill="#263238"/>
      </g>
      <g id="Group_17593" data-name="Group 17593" transform="translate(23.67 120.647)">
        <path id="Path_8469" data-name="Path 8469" d="M5545.228,4910.127a.332.332,0,0,1-.086-.012,67.208,67.208,0,0,1-17.692-7.957c-1.275-.861-2.515-1.752-3.715-2.613-6.2-4.45-12.044-8.653-21.167-7.593a.333.333,0,0,1-.375-.3.338.338,0,0,1,.3-.375c9.375-1.092,15.334,3.186,21.64,7.715,1.2.858,2.432,1.746,3.7,2.6a66.52,66.52,0,0,0,17.487,7.864.339.339,0,0,1-.087.666Z" transform="translate(-5502.19 -4891.108)" fill="#fff"/>
      </g>
      <g id="Group_17594" data-name="Group 17594" transform="translate(46.96 113.13)">
        <path id="Path_8470" data-name="Path 8470" d="M5540.455,4896.232a.339.339,0,0,1-.094-.665c4.319-1.243,7.61-3.83,11.094-6.568q.728-.573,1.465-1.147a87,87,0,0,1,13.622-8.949.339.339,0,0,1,.306.6,86.216,86.216,0,0,0-13.513,8.881c-.492.379-.978.762-1.461,1.142-3.537,2.782-6.878,5.408-11.325,6.688A.315.315,0,0,1,5540.455,4896.232Z" transform="translate(-5540.116 -4878.867)" fill="#fff"/>
      </g>
      <g id="Group_17595" data-name="Group 17595" transform="translate(45.203 26.781)">
        <path id="Path_8471" data-name="Path 8471" d="M5539.06,4738.935h-1.465a.339.339,0,1,1,0-.677h1.465a.339.339,0,1,1,0,.677Z" transform="translate(-5537.255 -4738.258)" fill="#263238"/>
      </g>
    </g>
  </g>
</svg>
