<svg xmlns="http://www.w3.org/2000/svg" width="279.979" height="279.546" viewBox="0 0 279.979 279.546">
  <g id="Group_17867" data-name="Group 17867" transform="translate(-1480.258 -3958.596)">
    <g id="Group_17046" data-name="Group 17046" transform="translate(1482.155 3959.332)">
      <g id="Group_17044" data-name="Group 17044" transform="translate(0 0)">
        <path id="Path_8081" data-name="Path 8081" d="M1746.793,4033.4q-2.614-1.733-5.176-3.536c-18.417-12.944-104.6-71.821-140.927-66.42-40.793,6.064-127.34,140.02-105.29,179.709s132.3,108.6,161.518,97.572,107.495-132.3,112.456-162.069C1773.61,4053.242,1752.929,4037.471,1746.793,4033.4Z" transform="translate(-1491.86 -3963.098)" fill="#92e3a9"/>
      </g>
      <g id="Group_17045" data-name="Group 17045" transform="translate(0 0)" opacity="0.7">
        <path id="Path_8082" data-name="Path 8082" d="M1746.793,4033.4q-2.614-1.733-5.176-3.536c-18.417-12.944-104.6-71.821-140.927-66.42-40.793,6.064-127.34,140.02-105.29,179.709s132.3,108.6,161.518,97.572,107.495-132.3,112.456-162.069C1773.61,4053.242,1752.929,4037.471,1746.793,4033.4Z" transform="translate(-1491.86 -3963.098)" fill="#fff"/>
      </g>
    </g>
    <g id="Group_17051" data-name="Group 17051" transform="translate(1503.111 3997.107)">
      <g id="Group_17047" data-name="Group 17047" transform="translate(0 0)">
        <path id="Path_8083" data-name="Path 8083" d="M1649.635,4253.355a29.641,29.641,0,1,1,29.641-29.641A29.674,29.674,0,0,1,1649.635,4253.355Zm0-58.664a29.024,29.024,0,1,0,29.024,29.023A29.057,29.057,0,0,0,1649.635,4194.691Z" transform="translate(-1619.994 -4194.074)" fill="#263238"/>
      </g>
      <g id="Group_17048" data-name="Group 17048" transform="translate(3.385 3.385)">
        <path id="Path_8084" data-name="Path 8084" d="M1666.948,4267.283a26.256,26.256,0,1,1,26.255-26.255A26.285,26.285,0,0,1,1666.948,4267.283Zm0-51.894a25.638,25.638,0,1,0,25.639,25.639A25.668,25.668,0,0,0,1666.948,4215.389Z" transform="translate(-1640.693 -4214.772)" fill="#263238"/>
      </g>
      <g id="Group_17049" data-name="Group 17049" transform="translate(26.854 26.854)">
        <path id="Path_8085" data-name="Path 8085" d="M1791.035,4362.637a2.478,2.478,0,1,0-2.478,2.478A2.478,2.478,0,0,0,1791.035,4362.637Z" transform="translate(-1785.77 -4359.851)" fill="#263238"/>
        <path id="Path_8086" data-name="Path 8086" d="M1786.979,4363.846a2.787,2.787,0,1,1,2.787-2.787A2.789,2.789,0,0,1,1786.979,4363.846Zm0-4.957a2.17,2.17,0,1,0,2.17,2.17A2.172,2.172,0,0,0,1786.979,4358.889Z" transform="translate(-1784.192 -4358.272)" fill="#263238"/>
      </g>
      <g id="Group_17050" data-name="Group 17050" transform="translate(14.276 29.332)">
        <path id="Path_8087" data-name="Path 8087" d="M1707.594,4390.5a.308.308,0,0,1-.227-.517l15.056-16.458a.309.309,0,0,1,.363-.07l9.031,4.416a.308.308,0,1,1-.271.554l-8.823-4.314-14.9,16.289A.3.3,0,0,1,1707.594,4390.5Z" transform="translate(-1707.286 -4373.426)" fill="#263238"/>
      </g>
    </g>
    <g id="Group_17075" data-name="Group 17075" transform="translate(1480.258 4078.737)">
      <g id="Group_17074" data-name="Group 17074" transform="translate(0 0)">
        <g id="Group_17060" data-name="Group 17060" transform="translate(17.709 46.632)">
          <g id="Group_17052" data-name="Group 17052" transform="translate(17.118)">
            <path id="Path_8088" data-name="Path 8088" d="M1693.3,5027.84c.031.693.08,1.39.127,2.085.1,1.393.188,2.782.315,4.174.163,1.719.386,3.44.63,5.161l.548.076c-.01-.341-.021-.682-.028-1.022-.04-1.379-.16-2.763-.14-4.135s-.03-2.747-.045-4.119l-.038-2.06.037-2.05.018-4.1.111-4.089.043-2.048c.026-.681.078-1.356.115-2.035l.252-4.066a137.413,137.413,0,0,1,2.323-15.951,85.282,85.282,0,0,1,4.444-15.217l0,0a.082.082,0,0,0-.039-.1.067.067,0,0,0-.1.025,84.606,84.606,0,0,0-5.021,15.042,136.848,136.848,0,0,0-2.77,15.932l-.392,4.069c-.061.68-.135,1.356-.185,2.038l-.113,2.054c-.06,1.371-.144,2.739-.183,4.115l.038,4.149Z" transform="translate(-1693.212 -4978.327)" fill="#263238"/>
          </g>
          <g id="Group_17053" data-name="Group 17053" transform="translate(20.883 21.564)">
            <path id="Path_8089" data-name="Path 8089" d="M1717.027,5150.02c.277-2.777.479-5.559.674-8.342.255-3.55.289-7.142.523-10.7a91.656,91.656,0,0,1,1.281-10.5,88.933,88.933,0,0,1,2.349-10.2.086.086,0,0,0-.045-.1.064.064,0,0,0-.092.032,87.4,87.4,0,0,0-2.923,10.024,91.176,91.176,0,0,0-1.726,10.479c-.365,3.543-.766,7.085-.816,10.692-.043,2.825-.011,5.664.186,8.522Z" transform="translate(-1716.234 -5110.179)" fill="#263238"/>
          </g>
          <g id="Group_17054" data-name="Group 17054" transform="translate(23.562 30.831)">
            <path id="Path_8090" data-name="Path 8090" d="M1733.6,5197.815l.519-5.914a88.3,88.3,0,0,1,1.326-10.139c.094-.408.216-.8.322-1.205a9.774,9.774,0,0,1,.367-1.183l.425-1.151.547-1.066a25.545,25.545,0,0,1,2.852-3.935,29.284,29.284,0,0,1,7.474-6.239l0,0a.069.069,0,0,0,.019-.1.08.08,0,0,0-.1-.036,29.725,29.725,0,0,0-7.96,5.836,26.054,26.054,0,0,0-3.113,3.9l-.64,1.119-.5,1.185a10.327,10.327,0,0,0-.437,1.211c-.129.41-.273.816-.388,1.23a48.035,48.035,0,0,0-1.647,10.272c-.083,2.018-.083,4.049.011,6.09Z" transform="translate(-1732.613 -5166.843)" fill="#263238"/>
          </g>
          <g id="Group_17055" data-name="Group 17055" transform="translate(25.948 43.519)">
            <path id="Path_8091" data-name="Path 8091" d="M1747.37,5262.925l.7.1c.069-.4.132-.8.186-1.2.147-.9.291-1.8.4-2.7.135-.894.255-1.788.326-2.7.128-.89.195-1.809.394-2.678a22.121,22.121,0,0,1,1.552-5.066,9.635,9.635,0,0,1,3.039-4.117l.011-.008a.068.068,0,0,0,.014-.092.078.078,0,0,0-.1-.035,9.471,9.471,0,0,0-3.62,3.85,22.346,22.346,0,0,0-2.028,5.049c-.143.437-.255.883-.354,1.333l-.328,1.347a22.5,22.5,0,0,0-.352,2.779c-.012.948-.039,1.893.025,2.848Q1747.292,5262.28,1747.37,5262.925Z" transform="translate(-1747.198 -5244.424)" fill="#263238"/>
          </g>
          <g id="Group_17056" data-name="Group 17056" transform="translate(8.787 9.363)">
            <path id="Path_8092" data-name="Path 8092" d="M1646.4,5063.8c.568,4.69,1.011,9.374,1.589,14.057l1.076,8.91.832.115c-.016-.645-.036-1.29-.048-1.936-.043-2.341-.242-4.691-.417-7.042-.392-4.7-1.158-9.41-1.883-14.109s-1.528-9.4-2.369-14.091c-.871-4.693-1.782-9.383-2.768-14.067a.087.087,0,0,0-.084-.067.062.062,0,0,0-.058.077c.8,4.691,1.515,9.386,2.195,14.079C1645.16,5054.422,1645.817,5059.115,1646.4,5063.8Z" transform="translate(-1642.267 -5035.574)" fill="#263238"/>
          </g>
          <g id="Group_17057" data-name="Group 17057" transform="translate(1.364 18.68)">
            <path id="Path_8093" data-name="Path 8093" d="M1599.976,5097.644c.4.882.831,1.754,1.177,2.656l.546,1.341.484,1.357a84.749,84.749,0,0,1,3.1,11c.424,1.847.7,3.708,1.051,5.559l.435,2.784c.157.928.352,1.854.479,2.783.29,1.857.624,3.716.942,5.578.171,1.13.367,2.262.576,3.4l.548.076c-.019-1.147-.051-2.3-.109-3.448-.108-1.869-.328-3.745-.52-5.619-.249-1.876-.587-3.752-.938-5.626l-.652-2.8c-.214-.934-.416-1.869-.681-2.8a86.88,86.88,0,0,0-3.552-11.062l-.557-1.356-.619-1.337c-.394-.9-.87-1.766-1.322-2.64a25.137,25.137,0,0,0-3.355-4.913.074.074,0,0,0-.1-.014.073.073,0,0,0,0,.1l.007.008A24.744,24.744,0,0,1,1599.976,5097.644Z" transform="translate(-1596.88 -5092.545)" fill="#263238"/>
          </g>
          <g id="Group_17058" data-name="Group 17058" transform="translate(2.538 36.031)">
            <path id="Path_8094" data-name="Path 8094" d="M1609.735,5213.764c.727,2.549,1.248,5.117,1.9,7.666.091.338.175.676.262,1.016l1.378.19c-.071-.444-.139-.889-.225-1.333a53.793,53.793,0,0,0-2.211-7.748c-.861-2.558-1.858-5.083-2.943-7.574a76.053,76.053,0,0,0-3.7-7.3.083.083,0,0,0-.1-.037.066.066,0,0,0-.026.1,74.312,74.312,0,0,1,3.16,7.437C1608.172,5208.685,1609.022,5211.214,1609.735,5213.764Z" transform="translate(-1604.059 -5198.639)" fill="#263238"/>
          </g>
          <g id="Group_17059" data-name="Group 17059" transform="translate(0 47.395)">
            <path id="Path_8095" data-name="Path 8095" d="M1588.594,5268.262a13.086,13.086,0,0,1,3.564,3.263,20.375,20.375,0,0,1,2.483,4.1c.7,1.433,1.07,2.959,1.683,4.42.02.054.041.11.061.165l1.454.2c-.046-.213-.089-.426-.139-.639a19.552,19.552,0,0,0-2.046-4.575,21.81,21.81,0,0,0-2.978-4.113,16.756,16.756,0,0,0-1.894-1.691,9.175,9.175,0,0,0-2.148-1.269.064.064,0,0,0-.084.029.081.081,0,0,0,.037.1Z" transform="translate(-1588.542 -5268.123)" fill="#263238"/>
          </g>
        </g>
        <g id="Group_17061" data-name="Group 17061" transform="translate(12.958 12.026)">
          <path id="Path_8096" data-name="Path 8096" d="M1573.687,4817.492a15.988,15.988,0,0,1-9.374-11.259c-1.758-8.446,3.906-4.145-1.172-17.738s-3.906-16.36-2.148-19.827,2.734-2.159,4.3,2.939,7.225,13.5,9.373,28.054S1573.687,4817.492,1573.687,4817.492Z" transform="translate(-1559.491 -4766.731)" fill="#92e3a9"/>
        </g>
        <g id="Group_17062" data-name="Group 17062" transform="translate(36.911)">
          <path id="Path_8097" data-name="Path 8097" d="M1711.229,4744.2s-5.077-2.462-5.273-12.058,3.71-7.1,4.3-18.932,1.367-20.12,3.515-20.017,7.811,6.942,9.764,20.492-2.539,21.715-6.444,25.078S1711.229,4744.2,1711.229,4744.2Z" transform="translate(-1705.95 -4693.196)" fill="#92e3a9"/>
        </g>
        <g id="Group_17063" data-name="Group 17063" transform="translate(3.322 42.059)">
          <path id="Path_8098" data-name="Path 8098" d="M1521.669,4982.237s-1.172-7.192-3.515-10.838-7.421-7.277-10.74-14.182-7.03-10.544-6.835-1.338,4.3,14.461,9.374,18.289S1521.669,4982.237,1521.669,4982.237Z" transform="translate(-1500.571 -4950.366)" fill="#92e3a9"/>
        </g>
        <g id="Group_17064" data-name="Group 17064" transform="translate(0 59.124)">
          <path id="Path_8099" data-name="Path 8099" d="M1502.529,5081.324a85.175,85.175,0,0,0-11.521-17.22c-6.835-7.588-12.3-11.666-10.35-8.075s4.3,3.721,7.616,10.039,2.344,10.48,7.031,14.449S1502.529,5081.324,1502.529,5081.324Z" transform="translate(-1480.258 -5054.708)" fill="#92e3a9"/>
        </g>
        <g id="Group_17065" data-name="Group 17065" transform="translate(2.482 84.372)">
          <path id="Path_8100" data-name="Path 8100" d="M1514.64,5221.9c-.2-.612-.391-4.936-7.03-9.371s-12.889-3.936-12.107-2.07,4.882,5.364,8.983,7.69A46.172,46.172,0,0,0,1514.64,5221.9Z" transform="translate(-1495.436 -5209.089)" fill="#92e3a9"/>
        </g>
        <g id="Group_17066" data-name="Group 17066" transform="translate(39.974 43.862)">
          <path id="Path_8101" data-name="Path 8101" d="M1726.507,4994.26s-2.929-4.116-1.367-11.711,5.077-5.154,8.983-8.713,3.124-4.254,7.03-8.008,7.421-5.611,8.983-3.637-.781,7.117-3.125,9.916-6.054,3.848-7.811,7.51-.976,10.02-5.468,12.325S1726.507,4994.26,1726.507,4994.26Z" transform="translate(-1724.681 -4961.391)" fill="#92e3a9"/>
        </g>
        <g id="Group_17067" data-name="Group 17067" transform="translate(51.564 61.061)">
          <path id="Path_8102" data-name="Path 8102" d="M1795.547,5085.723s7.03-7.031,12.107-12.186,7.03-9.375,7.226-5.442,1.758,7.274-2.344,11.782S1795.547,5085.723,1795.547,5085.723Z" transform="translate(-1795.547 -5066.55)" fill="#92e3a9"/>
        </g>
        <g id="Group_17068" data-name="Group 17068" transform="translate(47.854 78.577)">
          <path id="Path_8103" data-name="Path 8103" d="M1772.859,5187.684s-.2-3.151,10.936-8.833,15.818-6.4,14.646-3.632-6.054,5.019-11.326,9.56S1772.859,5187.684,1772.859,5187.684Z" transform="translate(-1772.859 -5173.654)" fill="#92e3a9"/>
        </g>
        <g id="Group_17069" data-name="Group 17069" transform="translate(17.472 20.365)">
          <path id="Path_8104" data-name="Path 8104" d="M1597.235,4859.681a.309.309,0,0,1-.3-.253c-.026-.144-2.642-14.479-5.341-24.686s-4.473-16.57-4.49-16.633a.309.309,0,1,1,.594-.166c.017.063,1.79,6.418,4.493,16.64s5.326,24.59,5.352,24.734a.308.308,0,0,1-.249.358A.269.269,0,0,1,1597.235,4859.681Z" transform="translate(-1587.088 -4817.717)" fill="#263238"/>
        </g>
        <g id="Group_17070" data-name="Group 17070" transform="translate(41.432 7.047)">
          <path id="Path_8105" data-name="Path 8105" d="M1733.9,4780.643a.3.3,0,0,1-.1-.015.309.309,0,0,1-.2-.389c.047-.145,4.757-14.608,6.3-23.445a49,49,0,0,0-.712-18.771c-.095-.485-.184-.942-.263-1.369a.309.309,0,1,1,.607-.113c.079.426.168.881.262,1.363a49.56,49.56,0,0,1,.715,19c-1.548,8.88-6.271,23.384-6.319,23.53A.309.309,0,0,1,1733.9,4780.643Z" transform="translate(-1733.595 -4736.288)" fill="#263238"/>
        </g>
        <g id="Group_17071" data-name="Group 17071" transform="translate(6.731 47.972)">
          <path id="Path_8106" data-name="Path 8106" d="M1538.49,5012.411a.308.308,0,0,1-.274-.167,89.6,89.6,0,0,0-7.168-11.206c-1.1-1.452-2.117-2.72-3.1-3.946-2.816-3.506-5.04-6.275-6.509-10.152a.308.308,0,0,1,.577-.218c1.435,3.785,3.632,6.521,6.414,9.984.987,1.229,2.008,2.5,3.113,3.958a90.294,90.294,0,0,1,7.223,11.294.309.309,0,0,1-.131.417A.3.3,0,0,1,1538.49,5012.411Z" transform="translate(-1521.417 -4986.523)" fill="#263238"/>
        </g>
        <g id="Group_17072" data-name="Group 17072" transform="translate(41.492 47.468)">
          <path id="Path_8107" data-name="Path 8107" d="M1734.266,5013.011a.317.317,0,0,1-.052,0,.308.308,0,0,1-.252-.356c.064-.377,1.619-9.292,5.342-13.672,1.444-1.7,3.424-3.71,5.519-5.838,3.314-3.365,6.74-6.844,8.518-9.561a.309.309,0,0,1,.516.338c-1.812,2.768-5.26,6.27-8.594,9.656-2.088,2.119-4.059,4.122-5.489,5.8a23.821,23.821,0,0,0-3.965,8.282,47.719,47.719,0,0,0-1.238,5.095A.308.308,0,0,1,1734.266,5013.011Z" transform="translate(-1733.957 -4983.439)" fill="#263238"/>
        </g>
        <g id="Group_17073" data-name="Group 17073" transform="translate(9.661 88.412)">
          <path id="Path_8108" data-name="Path 8108" d="M1550.893,5242.588a.312.312,0,0,1-.191-.066c-.066-.052-6.613-5.215-11.233-8.166a.308.308,0,1,1,.332-.52c4.646,2.968,11.217,8.148,11.283,8.2a.309.309,0,0,1-.192.551Z" transform="translate(-1539.327 -5233.787)" fill="#263238"/>
        </g>
      </g>
    </g>
    <g id="Group_17112" data-name="Group 17112" transform="translate(1632.418 3958.596)">
      <g id="Group_17111" data-name="Group 17111" transform="translate(0 0)">
        <g id="Group_17077" data-name="Group 17077" transform="translate(4.735 3.447)">
          <g id="Group_17076" data-name="Group 17076">
            <path id="Path_8109" data-name="Path 8109" d="M2543.115,3991.064v191.231a9.5,9.5,0,0,1-9.5,9.5h-82.628a9.5,9.5,0,0,1-9.5-9.5V3991.059a9.5,9.5,0,0,1,9.5-9.5h35.466l.03.108c.884,3.181,2.919,5.25,5.176,5.25h1.294c2.257,0,4.292-2.07,5.176-5.25l.034-.108h35.457A9.5,9.5,0,0,1,2543.115,3991.064Z" transform="translate(-2441.171 -3981.252)" fill="#fff"/>
            <path id="Path_8110" data-name="Path 8110" d="M2532.034,4190.529h-82.628a9.824,9.824,0,0,1-9.812-9.813V3989.481a9.818,9.818,0,0,1,9.807-9.808h35.466a.308.308,0,0,1,.3.228l.03.108c.847,3.051,2.763,5.023,4.878,5.023h1.294c2.116,0,4.031-1.972,4.879-5.024l.038-.12a.308.308,0,0,1,.294-.215h35.457a9.823,9.823,0,0,1,9.812,9.813v191.231A9.823,9.823,0,0,1,2532.034,4190.529ZM2449.4,3980.291a9.2,9.2,0,0,0-9.19,9.19v191.235a9.206,9.206,0,0,0,9.2,9.2h82.628a9.206,9.206,0,0,0,9.2-9.195V3989.486a9.206,9.206,0,0,0-9.2-9.2h-35.227c-.937,3.255-3.065,5.359-5.44,5.359h-1.294c-2.372,0-4.5-2.1-5.44-5.359Z" transform="translate(-2439.593 -3979.674)" fill="#263238"/>
          </g>
        </g>
        <g id="Group_17079" data-name="Group 17079" transform="translate(4.735 3.447)">
          <g id="Group_17078" data-name="Group 17078">
            <path id="Path_8111" data-name="Path 8111" d="M2543.115,3996.289v-5.225a9.5,9.5,0,0,0-9.5-9.5h-35.457l-.034.108c-.884,3.181-2.919,5.25-5.176,5.25h-1.294c-2.257,0-4.292-2.07-5.176-5.25l-.03-.108h-35.466a9.5,9.5,0,0,0-9.5,9.5v5.23Z" transform="translate(-2441.171 -3981.252)" fill="#92e3a9"/>
            <path id="Path_8112" data-name="Path 8112" d="M2541.538,3995.02H2439.9a.308.308,0,0,1-.308-.308v-5.23a9.818,9.818,0,0,1,9.807-9.808h35.466a.308.308,0,0,1,.3.228l.03.108c.847,3.051,2.763,5.023,4.878,5.023h1.294c2.116,0,4.031-1.972,4.879-5.024l.038-.12a.308.308,0,0,1,.294-.215h35.457a9.823,9.823,0,0,1,9.812,9.813v5.225A.308.308,0,0,1,2541.538,3995.02Zm-101.328-.617h101.02v-4.916a9.206,9.206,0,0,0-9.2-9.2h-35.227c-.937,3.255-3.065,5.359-5.44,5.359h-1.294c-2.372,0-4.5-2.1-5.44-5.359H2449.4a9.2,9.2,0,0,0-9.19,9.19Z" transform="translate(-2439.593 -3979.674)" fill="#263238"/>
          </g>
        </g>
        <g id="Group_17110" data-name="Group 17110">
          <g id="Group_17080" data-name="Group 17080">
            <path id="Path_8113" data-name="Path 8113" d="M2525.362,4019.107v-19.1h-1.728v-24.452a15.073,15.073,0,0,0-15.073-15.073H2427.6a15.073,15.073,0,0,0-15.072,15.073V4169.86a15.072,15.072,0,0,0,15.072,15.072h80.961a15.072,15.072,0,0,0,15.073-15.072V4035.385h1.728V4024.1h-1.728v-4.992Zm-6.463,146.01a9.051,9.051,0,0,1-9.05,9.05h-83.536a9.051,9.051,0,0,1-9.051-9.05V3979a15.069,15.069,0,0,1,15.07-15.069h29.9l.03.108c.884,3.181,2.919,5.25,5.176,5.25h1.294c2.257,0,4.292-2.069,5.176-5.25l.035-.108h29.891A15.069,15.069,0,0,1,2518.9,3979Z" transform="translate(-2412.22 -3960.174)" fill="#92e3a9"/>
            <path id="Path_8114" data-name="Path 8114" d="M2506.985,4183.664h-80.961a15.4,15.4,0,0,1-15.381-15.381V3973.978a15.4,15.4,0,0,1,15.381-15.381h80.961a15.4,15.4,0,0,1,15.381,15.381v24.144h1.419a.308.308,0,0,1,.309.308v19.1a.309.309,0,0,1-.309.309h-1.419v4.375h1.419a.309.309,0,0,1,.309.309v11.287a.308.308,0,0,1-.309.308h-1.419v134.167A15.4,15.4,0,0,1,2506.985,4183.664Zm-80.961-224.45a14.78,14.78,0,0,0-14.764,14.764v194.305a14.781,14.781,0,0,0,14.764,14.764h80.961a14.781,14.781,0,0,0,14.764-14.764V4033.808a.309.309,0,0,1,.309-.309h1.419V4022.83h-1.419a.309.309,0,0,1-.309-.309v-4.992a.308.308,0,0,1,.309-.308h1.419v-18.483h-1.419a.309.309,0,0,1-.309-.309v-24.452a14.781,14.781,0,0,0-14.764-14.764Zm82.248,213.685h-83.535a9.37,9.37,0,0,1-9.359-9.359V3977.421a15.4,15.4,0,0,1,15.378-15.378h29.9a.309.309,0,0,1,.3.228l.03.108c.848,3.051,2.763,5.023,4.879,5.023h1.294c2.116,0,4.031-1.972,4.879-5.024l.038-.12a.308.308,0,0,1,.294-.215h29.892a15.4,15.4,0,0,1,15.377,15.378v186.118A9.37,9.37,0,0,1,2508.271,4172.9Zm-77.517-210.238a14.778,14.778,0,0,0-14.76,14.76v186.118a8.752,8.752,0,0,0,8.742,8.742h83.535a8.752,8.752,0,0,0,8.742-8.742V3977.421a14.778,14.778,0,0,0-14.76-14.76h-29.662c-.937,3.255-3.065,5.359-5.44,5.359h-1.294c-2.373,0-4.5-2.1-5.44-5.359Z" transform="translate(-2410.642 -3958.596)" fill="#263238"/>
          </g>
          <g id="Group_17081" data-name="Group 17081" transform="translate(1.745 2.076)">
            <path id="Path_8115" data-name="Path 8115" d="M2516.278,3973.178h-78.543a14.537,14.537,0,0,0-14.537,14.537v191.225a14.537,14.537,0,0,0,14.537,14.537h78.543a14.536,14.536,0,0,0,14.536-14.537V3987.715A14.536,14.536,0,0,0,2516.278,3973.178Zm11.546,202.793a8.815,8.815,0,0,1-8.815,8.815H2435a8.815,8.815,0,0,1-8.815-8.815v-186.89a14.533,14.533,0,0,1,14.533-14.533h30.432l.03.108c.884,3.181,2.919,5.25,5.176,5.25h1.294c2.257,0,4.292-2.07,5.176-5.25l.034-.108h30.422a14.538,14.538,0,0,1,14.538,14.538Z" transform="translate(-2422.89 -3972.87)" fill="#263238"/>
            <path id="Path_8116" data-name="Path 8116" d="M2514.7,4192.206h-78.543a14.862,14.862,0,0,1-14.845-14.845V3986.136a14.862,14.862,0,0,1,14.845-14.845H2514.7a14.862,14.862,0,0,1,14.845,14.845v191.225A14.862,14.862,0,0,1,2514.7,4192.206Zm-78.543-220.3a14.244,14.244,0,0,0-14.228,14.228v191.225a14.244,14.244,0,0,0,14.228,14.228H2514.7a14.244,14.244,0,0,0,14.228-14.228V3986.136a14.244,14.244,0,0,0-14.228-14.228Zm81.275,211.608h-84.007a9.133,9.133,0,0,1-9.123-9.124V3987.5a14.858,14.858,0,0,1,14.842-14.841h30.432a.308.308,0,0,1,.3.227l.03.109c.848,3.05,2.763,5.023,4.878,5.023h1.294c2.115,0,4.031-1.972,4.878-5.024l.038-.119a.308.308,0,0,1,.294-.215h30.422a14.863,14.863,0,0,1,14.847,14.846v186.885A9.133,9.133,0,0,1,2517.432,4183.517Zm-78.288-210.238a14.241,14.241,0,0,0-14.225,14.224v186.89a8.516,8.516,0,0,0,8.506,8.506h84.007a8.516,8.516,0,0,0,8.506-8.506V3987.509a14.246,14.246,0,0,0-14.23-14.229h-30.193c-.937,3.255-3.065,5.359-5.44,5.359h-1.294c-2.372,0-4.5-2.1-5.44-5.359Z" transform="translate(-2421.312 -3971.291)" fill="#263238"/>
          </g>
          <g id="Group_17082" data-name="Group 17082" transform="translate(54.136 3.061)">
            <path id="Path_8117" data-name="Path 8117" d="M2744.487,3978.728a1.415,1.415,0,1,0-1.415,1.415A1.415,1.415,0,0,0,2744.487,3978.728Z" transform="translate(-2741.657 -3977.313)" fill="#fff"/>
          </g>
          <g id="Group_17109" data-name="Group 17109" transform="translate(11.941 8.116)">
            <g id="Group_17088" data-name="Group 17088" transform="translate(0 0.582)">
              <g id="Group_17083" data-name="Group 17083">
                <path id="Path_8118" data-name="Path 8118" d="M2485.789,4012.979c0,1.432-1.608,1.947-1.615,3.04v.075h1.56v.482h-2.082v-.407c0-1.533,1.608-1.832,1.608-3.168,0-.489-.163-.746-.556-.746s-.556.278-.556.7v.421h-.5v-.387c0-.726.333-1.208,1.065-1.208S2485.789,4012.254,2485.789,4012.979Z" transform="translate(-2483.652 -4011.779)" fill="#263238"/>
              </g>
              <g id="Group_17084" data-name="Group 17084" transform="translate(2.599)">
                <path id="Path_8119" data-name="Path 8119" d="M2501.681,4012.973v.122a1.122,1.122,0,0,0,0,1.961v.366c0,.726-.339,1.2-1.072,1.2s-1.065-.474-1.065-1.2v-.326h.5v.359c0,.428.176.685.557.685s.556-.251.556-.732v-.367c0-.468-.2-.692-.6-.705h-.285v-.475h.312a.57.57,0,0,0,.57-.651v-.217c0-.489-.17-.739-.556-.739s-.557.264-.557.692v.244h-.5v-.217c0-.726.339-1.194,1.065-1.194S2501.681,4012.247,2501.681,4012.973Z" transform="translate(-2499.545 -4011.779)" fill="#263238"/>
              </g>
              <g id="Group_17085" data-name="Group 17085" transform="translate(5.252 1.554)">
                <path id="Path_8120" data-name="Path 8120" d="M2516.277,4021.279v.658h-.509v-.658Zm0,2.584v.659h-.509v-.659Z" transform="translate(-2515.768 -4021.279)" fill="#263238"/>
              </g>
              <g id="Group_17086" data-name="Group 17086" transform="translate(6.284 0.047)">
                <path id="Path_8121" data-name="Path 8121" d="M2522.625,4014a.765.765,0,0,1,.706-.394c.611,0,.882.447.882,1.126v.93c0,.726-.346,1.2-1.071,1.2s-1.065-.475-1.065-1.2v-.319h.495v.353c0,.428.177.686.556.686s.556-.258.556-.686v-.923c0-.427-.176-.685-.556-.685a.512.512,0,0,0-.536.509v.108h-.495l.129-2.639h1.872v.475h-1.4Z" transform="translate(-2522.076 -4012.069)" fill="#263238"/>
              </g>
              <g id="Group_17087" data-name="Group 17087" transform="translate(8.896)">
                <path id="Path_8122" data-name="Path 8122" d="M2540.213,4012.966v.088h-.495v-.122c0-.428-.177-.678-.563-.678s-.577.258-.577.767v1.065a.765.765,0,0,1,.767-.509c.611,0,.882.441.882,1.127v.719c0,.726-.36,1.2-1.086,1.2s-1.092-.474-1.092-1.2V4013c0-.753.339-1.221,1.092-1.221C2539.874,4011.779,2540.213,4012.24,2540.213,4012.966Zm-1.635,1.778v.712c0,.428.177.685.563.685s.563-.258.563-.685v-.712c0-.428-.183-.685-.563-.685S2538.578,4014.316,2538.578,4014.744Z" transform="translate(-2538.049 -4011.779)" fill="#263238"/>
              </g>
            </g>
            <g id="Group_17108" data-name="Group 17108" transform="translate(61.567)">
              <g id="Group_17089" data-name="Group 17089" transform="translate(0 1.978)">
                <rect id="Rectangle_11251" data-name="Rectangle 11251" width="1.341" height="3.352" fill="#263238"/>
              </g>
              <g id="Group_17090" data-name="Group 17090" transform="translate(1.788 1.306)">
                <rect id="Rectangle_11252" data-name="Rectangle 11252" width="1.341" height="4.024" fill="#263238"/>
              </g>
              <g id="Group_17091" data-name="Group 17091" transform="translate(3.576 0.829)">
                <rect id="Rectangle_11253" data-name="Rectangle 11253" width="1.341" height="4.501" fill="#263238"/>
              </g>
              <g id="Group_17092" data-name="Group 17092" transform="translate(5.364)">
                <rect id="Rectangle_11254" data-name="Rectangle 11254" width="1.341" height="5.33" fill="#263238"/>
              </g>
              <g id="Group_17099" data-name="Group 17099" transform="translate(15.253 0.321)">
                <g id="Group_17094" data-name="Group 17094">
                  <g id="Group_17093" data-name="Group 17093">
                    <path id="Path_8123" data-name="Path 8123" d="M2961.413,4015.1h-8.046v-4.917h8.046Zm-7.6-.447h7.152v-4.023h-7.152Z" transform="translate(-2953.367 -4010.187)" fill="#263238"/>
                  </g>
                </g>
                <g id="Group_17096" data-name="Group 17096" transform="translate(1.118 0.933)">
                  <g id="Group_17095" data-name="Group 17095">
                    <rect id="Rectangle_11255" data-name="Rectangle 11255" width="4.246" height="3.05" fill="#263238"/>
                  </g>
                </g>
                <g id="Group_17098" data-name="Group 17098" transform="translate(7.766 1.879)">
                  <g id="Group_17097" data-name="Group 17097">
                    <rect id="Rectangle_11256" data-name="Rectangle 11256" width="1.012" height="1.158" fill="#263238"/>
                  </g>
                </g>
              </g>
              <g id="Group_17101" data-name="Group 17101" transform="translate(8.887 3.072)">
                <g id="Group_17100" data-name="Group 17100">
                  <path id="Path_8124" data-name="Path 8124" d="M2917.859,4028.1a.3.3,0,0,1-.154-.042,2.346,2.346,0,0,0-2.765-.031.3.3,0,0,1-.4-.452,2.917,2.917,0,0,1,3.468-.033.3.3,0,0,1-.154.558Z" transform="translate(-2914.444 -4027.006)" fill="#263238"/>
                </g>
              </g>
              <g id="Group_17103" data-name="Group 17103" transform="translate(8.281 1.881)">
                <g id="Group_17102" data-name="Group 17102">
                  <path id="Path_8125" data-name="Path 8125" d="M2915.365,4021a.3.3,0,0,1-.154-.042,3.393,3.393,0,0,0-3.975-.033.3.3,0,1,1-.4-.451,4,4,0,0,1,4.679-.033.3.3,0,0,1-.154.559Z" transform="translate(-2910.738 -4019.721)" fill="#263238"/>
                </g>
              </g>
              <g id="Group_17105" data-name="Group 17105" transform="translate(7.732 0.539)">
                <g id="Group_17104" data-name="Group 17104">
                  <path id="Path_8126" data-name="Path 8126" d="M2913.1,4012.967a.3.3,0,0,1-.154-.043c-3-1.783-4.992-.1-5.075-.032a.3.3,0,0,1-.4-.452c.024-.021,2.392-2.047,5.779-.033a.3.3,0,0,1-.154.559Z" transform="translate(-2907.376 -4011.517)" fill="#263238"/>
                </g>
              </g>
              <g id="Group_17107" data-name="Group 17107" transform="translate(9.891 3.918)">
                <g id="Group_17106" data-name="Group 17106">
                  <path id="Path_8127" data-name="Path 8127" d="M2922.088,4032.935a.754.754,0,1,1-.754-.753A.754.754,0,0,1,2922.088,4032.935Z" transform="translate(-2920.58 -4032.181)" fill="#263238"/>
                </g>
              </g>
            </g>
          </g>
        </g>
      </g>
    </g>
    <g id="Group_17116" data-name="Group 17116" transform="translate(1596.28 4202.623)">
      <g id="Group_17113" data-name="Group 17113" transform="translate(0 0.705)">
        <path id="Path_8128" data-name="Path 8128" d="M2218.993,5456.962l-26.894,4.9c-.593.124-.731,1.614-.215,1.932l7.891,4.866a4.6,4.6,0,0,0,3.46.564l26.159-6.109c.823-.192.954-2.014.2-2.392l-8.36-3.475A3.443,3.443,0,0,0,2218.993,5456.962Z" transform="translate(-2191.256 -5456.582)" fill="#263238"/>
        <path id="Path_8129" data-name="Path 8129" d="M2200.6,5468.084a4.891,4.891,0,0,1-2.568-.732l-7.89-4.866a1.475,1.475,0,0,1-.432-1.491,1.121,1.121,0,0,1,.746-1.006l26.9-4.905a3.764,3.764,0,0,1,2.427.312l8.351,3.471.019.009a1.621,1.621,0,0,1,.654,1.659,1.4,1.4,0,0,1-.92,1.31l-26.159,6.109A4.961,4.961,0,0,1,2200.6,5468.084Zm17.511-12.461a3.1,3.1,0,0,0-.636.065h-.007l-26.894,4.9c-.068.015-.2.183-.256.507a1,1,0,0,0,.147.859l7.89,4.866a4.269,4.269,0,0,0,3.229.526l26.159-6.109c.218-.051.4-.364.447-.78a1.081,1.081,0,0,0-.309-1.031l-8.349-3.47-.02-.009A3.143,3.143,0,0,0,2218.112,5455.624Zm-.7-.237h0Z" transform="translate(-2189.676 -5455.006)" fill="#263238"/>
      </g>
      <g id="Group_17114" data-name="Group 17114" transform="translate(0)">
        <path id="Path_8130" data-name="Path 8130" d="M2218.993,5452.65l-26.894,5.609a.67.67,0,0,0-.215,1.227l7.891,4.866a4.6,4.6,0,0,0,3.46.564l26.159-6.109a.9.9,0,0,0,.2-1.686l-8.36-4.181A3.437,3.437,0,0,0,2218.993,5452.65Z" transform="translate(-2191.257 -5452.27)" fill="#fff"/>
        <path id="Path_8131" data-name="Path 8131" d="M2200.6,5463.771a4.875,4.875,0,0,1-2.568-.732l-7.89-4.865a.979.979,0,0,1,.314-1.792l26.894-5.609a3.754,3.754,0,0,1,2.44.316l8.361,4.18a1.212,1.212,0,0,1-.266,2.264l-26.159,6.109A4.934,4.934,0,0,1,2200.6,5463.771Zm16.875-12.4-26.894,5.61a.362.362,0,0,0-.116.662l7.89,4.865a4.267,4.267,0,0,0,3.229.527l26.159-6.109a.594.594,0,0,0,.131-1.11l-8.361-4.18a3.138,3.138,0,0,0-2.038-.264Zm-.063-.3h0Z" transform="translate(-2189.679 -5450.693)" fill="#263238"/>
      </g>
      <g id="Group_17115" data-name="Group 17115" transform="translate(2.985 0.965)">
        <path id="Path_8132" data-name="Path 8132" d="M2232.993,5458.541l-22.727,4.741a.566.566,0,0,0-.181,1.037l6.668,4.112a3.886,3.886,0,0,0,2.925.477l22.106-5.163a.763.763,0,0,0,.167-1.425l-7.065-3.533A2.9,2.9,0,0,0,2232.993,5458.541Z" transform="translate(-2209.506 -5458.171)" fill="#fff"/>
        <path id="Path_8133" data-name="Path 8133" d="M2217.207,5467.743a4.169,4.169,0,0,1-2.195-.626l-6.668-4.112a.875.875,0,0,1,.281-1.6l22.727-4.741a3.221,3.221,0,0,1,2.093.271l7.065,3.533a1.071,1.071,0,0,1-.235,2l-22.106,5.163A4.219,4.219,0,0,1,2217.207,5467.743Zm14.8-10.53a2.559,2.559,0,0,0-.527.054h0l-22.727,4.741a.258.258,0,0,0-.083.472l6.668,4.112a3.557,3.557,0,0,0,2.692.439l22.106-5.162a.455.455,0,0,0,.1-.849l-7.065-3.532A2.6,2.6,0,0,0,2232.005,5457.213Zm-.591-.248h0Z" transform="translate(-2207.928 -5456.596)" fill="#263238"/>
      </g>
    </g>
    <g id="Group_17119" data-name="Group 17119" transform="translate(1632.308 4184.098)">
      <g id="Group_17117" data-name="Group 17117" transform="translate(0 20.511)">
        <circle id="Ellipse_118" data-name="Ellipse 118" cx="3.385" cy="3.385" r="3.385" transform="translate(0.926 0.926)" fill="#92e3a9"/>
        <path id="Path_8134" data-name="Path 8134" d="M2414.278,5471.457a4.311,4.311,0,1,1,4.311-4.311A4.316,4.316,0,0,1,2414.278,5471.457Zm0-6.77a2.459,2.459,0,1,0,2.459,2.459A2.462,2.462,0,0,0,2414.278,5464.687Z" transform="translate(-2409.968 -5462.836)" fill="#263238"/>
      </g>
      <g id="Group_17118" data-name="Group 17118" transform="translate(7.695)">
        <path id="Path_8135" data-name="Path 8135" d="M2505.556,5363.172H2457.02v-1.852H2503.7v-23.9h1.852Z" transform="translate(-2457.02 -5337.425)" fill="#263238"/>
      </g>
    </g>
    <g id="Group_17120" data-name="Group 17120" transform="translate(1486.726 4182.513)">
      <path id="Path_8136" data-name="Path 8136" d="M1703.584,5350.223l-.037,0-183.467-21.874a.309.309,0,0,1,.073-.613l183.467,21.875a.309.309,0,0,1-.036.615Z" transform="translate(-1519.808 -5327.731)" fill="#263238"/>
    </g>
    <g id="Group_17167" data-name="Group 17167" transform="translate(1597.318 3993.44)">
      <g id="Group_17163" data-name="Group 17163" transform="translate(0 0)">
        <g id="Group_17123" data-name="Group 17123" transform="translate(1.12 12.029)">
          <g id="Group_17121" data-name="Group 17121" transform="translate(0.119 0.183)">
            <path id="Path_8137" data-name="Path 8137" d="M2219.049,4296.016s-8.258-2.249-13.461-13.33c-5.914-12.6,3.187-33.856,3.187-33.856l5.356-2.514,20.007,42.616Z" transform="translate(-2203.59 -4246.316)" fill="#455a64"/>
          </g>
          <g id="Group_17122" data-name="Group 17122">
            <path id="Path_8138" data-name="Path 8138" d="M2233.711,4288.062l-15.257,7.162-.048-.013c-.085-.025-8.378-2.389-13.549-13.4-5.873-12.508,3.093-33.752,3.184-33.968l.021-.05,5.524-2.594Zm-15.283,6.867,14.917-7-19.888-42.361-5.182,2.433c-.476,1.136-8.856,21.584-3.17,33.7C2210.017,4292.153,2217.752,4294.725,2218.428,4294.928Z" transform="translate(-2202.865 -4245.195)" fill="#263238"/>
          </g>
        </g>
        <g id="Group_17126" data-name="Group 17126">
          <g id="Group_17124" data-name="Group 17124" transform="translate(0.134 0.136)">
            <path id="Path_8139" data-name="Path 8139" d="M2211.875,4177.015a7.892,7.892,0,1,1-10.5-3.79A7.891,7.891,0,0,1,2211.875,4177.015Z" transform="translate(-2196.838 -4172.476)" fill="#455a64"/>
          </g>
          <g id="Group_17125" data-name="Group 17125">
            <path id="Path_8140" data-name="Path 8140" d="M2207.461,4186.947a8.032,8.032,0,1,1,3.852-10.681A8.04,8.04,0,0,1,2207.461,4186.947Zm-6.708-14.289a7.753,7.753,0,1,0,10.313,3.723A7.763,7.763,0,0,0,2200.753,4172.658Z" transform="translate(-2196.019 -4171.646)" fill="#263238"/>
          </g>
        </g>
        <g id="Group_17129" data-name="Group 17129" transform="translate(9.642 10.467)">
          <g id="Group_17127" data-name="Group 17127" transform="translate(0.183 0.148)">
            <path id="Path_8141" data-name="Path 8141" d="M2274.51,4242.064c-4.031,2.973-5.734,9.59-5.734,9.59l-4.415-1.527c-.464-3.752,3.313-8.649,4.965-10.588a73.9,73.9,0,0,0-7.877-2.988l-5.355,2.515,20.007,42.616,15.088-7.083s3.546-7.79-1.657-18.873C2286.769,4249.837,2280.454,4245.265,2274.51,4242.064Z" transform="translate(-2256.095 -4236.55)" fill="#455a64"/>
          </g>
          <g id="Group_17128" data-name="Group 17128">
            <path id="Path_8142" data-name="Path 8142" d="M2290.359,4273.942l-15.259,7.164-20.125-42.867,5.527-2.594.05.018a74.664,74.664,0,0,1,7.9,2.993l.169.075-.121.141c-1.622,1.9-5.336,6.7-4.943,10.394l4.2,1.457c.279-.989,2.053-6.8,5.744-9.527l.071-.051.075.041c7.674,4.134,12.747,8.749,15.083,13.726,5.168,11.016,1.692,18.9,1.656,18.986Zm-15.13,6.8,14.919-7c.275-.65,3.236-8.244-1.673-18.706-2.3-4.9-7.312-9.466-14.891-13.562-3.894,2.94-5.593,9.4-5.613,9.466l-.035.147-.142-.053-4.5-1.559-.01-.084c-.461-3.726,3.164-8.517,4.88-10.548a74.22,74.22,0,0,0-7.644-2.894l-5.183,2.434Z" transform="translate(-2254.975 -4235.645)" fill="#263238"/>
          </g>
        </g>
        <g id="Group_17132" data-name="Group 17132" transform="translate(18.296 46.302)">
          <g id="Group_17130" data-name="Group 17130" transform="translate(0.183 0.184)">
            <path id="Path_8143" data-name="Path 8143" d="M2309.01,4467.568l7.46,15.89,22.248,73.536,45.528-21.374-42.629-63.968-7.725-15.765Z" transform="translate(-2309.01 -4455.887)" fill="#455a64"/>
          </g>
          <g id="Group_17131" data-name="Group 17131">
            <path id="Path_8144" data-name="Path 8144" d="M2383.513,4534.737l-45.815,21.509-.049-.154-22.247-73.537-7.51-16,25.126-11.8.062.125,7.724,15.765Zm-45.647,21.123,45.242-21.24-42.542-63.832-7.671-15.659-24.636,11.565,7.4,15.763Z" transform="translate(-2307.892 -4454.762)" fill="#263238"/>
          </g>
        </g>
        <g id="Group_17138" data-name="Group 17138" transform="translate(15.479 54.241)">
          <g id="Group_17134" data-name="Group 17134" transform="translate(0 0)">
            <g id="Group_17133" data-name="Group 17133">
              <rect id="Rectangle_11257" data-name="Rectangle 11257" width="47.223" height="11.112" rx="5.556" transform="translate(0 20.068) rotate(-25.149)" fill="#455a64"/>
            </g>
          </g>
          <g id="Group_17137" data-name="Group 17137" transform="translate(0.323 0.757)">
            <g id="Group_17136" data-name="Group 17136">
              <g id="Group_17135" data-name="Group 17135">
                <path id="Path_8145" data-name="Path 8145" d="M2335.008,4519.476c-.176-.21,1.489-.834,2.221-3.247.873-2.1-1.172-7.043-5.453-6.23l-34.068,16.291a3.879,3.879,0,0,0-2.2,3.141,3.824,3.824,0,0,0,.31,1.921,4.7,4.7,0,0,0,1.109,1.752,3.934,3.934,0,0,0,3.519.989c1.067-.281,2.9-1.272,4.263-1.846l15.61-6.99c8.922-3.9,14.524-6.139,14.691-5.781s-5.131,3.239-13.833,7.61l-15.35,7.544a38.712,38.712,0,0,1-4.775,2.124,6.672,6.672,0,0,1-6.04-1.607,7.591,7.591,0,0,1-1.774-2.643,6.637,6.637,0,0,1-.562-3.332,6.714,6.714,0,0,1,3.821-5.469c13.586-6.271,25.375-11.977,34.924-15.693a6.443,6.443,0,0,1,6.863,8.582C2336.969,4519.421,2334.95,4519.6,2335.008,4519.476Z" transform="translate(-2292.643 -4507.93)" fill="#263238"/>
              </g>
            </g>
          </g>
        </g>
        <g id="Group_17144" data-name="Group 17144" transform="translate(13.091 46.189)">
          <g id="Group_17140" data-name="Group 17140" transform="translate(0 0)">
            <g id="Group_17139" data-name="Group 17139">
              <rect id="Rectangle_11258" data-name="Rectangle 11258" width="39.924" height="11.112" rx="5.556" transform="translate(0 16.966) rotate(-25.149)" fill="#455a64"/>
            </g>
          </g>
          <g id="Group_17143" data-name="Group 17143" transform="translate(0.321 0.699)">
            <g id="Group_17142" data-name="Group 17142">
              <g id="Group_17141" data-name="Group 17141">
                <path id="Path_8146" data-name="Path 8146" d="M2313.789,4469.947c-.154-.218,1.221-.763,2.03-2.77a5.162,5.162,0,0,0-3.548-6.667,4.209,4.209,0,0,0-2.577.312l-3.169,1.568-7.093,3.476-16.334,7.792a4.025,4.025,0,0,0-1.462,5.979,4.118,4.118,0,0,0,5.887,1.187l13.51-6c7.726-3.342,12.589-5.23,12.757-4.873s-4.391,2.892-11.9,6.7l-13.249,6.558a7.334,7.334,0,0,1-4.917.96,6.662,6.662,0,0,1-4.493-3.1,7.316,7.316,0,0,1-1.019-5.463,6.722,6.722,0,0,1,3.67-4.536l16.429-7.589,7.205-3.237,3.32-1.455a6.237,6.237,0,0,1,3.891-.248c5.123,1.6,5.467,7.07,4.1,9.108C2315.443,4469.947,2313.766,4470.067,2313.789,4469.947Z" transform="translate(-2278.029 -4458.343)" fill="#263238"/>
              </g>
            </g>
          </g>
        </g>
        <g id="Group_17147" data-name="Group 17147" transform="translate(38.123 120.188)">
          <g id="Group_17145" data-name="Group 17145" transform="translate(0.154 0.135)">
            <path id="Path_8147" data-name="Path 8147" d="M2438.216,4928.868l-8.156,12.207,7.922,16.874h0a4.532,4.532,0,0,0-2.313,5.973l3.877,8.26c27.928-6.751,53.728-18.453,76.959-36.13l-3.877-8.26a4.532,4.532,0,0,0-6.073-2.036h0l-7.922-16.875-14.6-1.522" transform="translate(-2430.06 -4907.358)" fill="#455a64"/>
          </g>
          <g id="Group_17146" data-name="Group 17146">
            <path id="Path_8148" data-name="Path 8148" d="M2479.644,4957.342a214.416,214.416,0,0,1-40.85,14.283l-.109.027-3.926-8.361a4.668,4.668,0,0,1,2.255-6.1l-7.9-16.82.042-.067,8.156-12.205.226.154-8.114,12.138,7.949,16.932-.124.059a4.4,4.4,0,0,0-2.248,5.791l3.83,8.157a205.983,205.983,0,0,0,76.711-36.014l-3.83-8.158a4.4,4.4,0,0,0-5.891-1.97l-.124.059-7.949-16.933-14.522-1.511.026-.272,14.679,1.532,7.9,16.82a4.669,4.669,0,0,1,6.131,2.159l3.926,8.361-.089.065A199.757,199.757,0,0,1,2479.644,4957.342Z" transform="translate(-2429.119 -4906.533)" fill="#263238"/>
          </g>
        </g>
        <g id="Group_17150" data-name="Group 17150" transform="translate(43.401 139.68)">
          <g id="Group_17149" data-name="Group 17149">
            <g id="Group_17148" data-name="Group 17148">
              <path id="Path_8149" data-name="Path 8149" d="M2538.3,5025.75c.22.279-3.3,3.578-9.6,8.148a165.342,165.342,0,0,1-54.882,25.557c-7.556,1.886-12.344,2.455-12.417,2.106-.213-.875,18.566-4.946,39.833-14.944C2522.56,5036.778,2537.765,5025.024,2538.3,5025.75Z" transform="translate(-2461.394 -5025.718)" fill="#263238"/>
            </g>
          </g>
        </g>
        <g id="Group_17153" data-name="Group 17153" transform="translate(45.081 138.494)">
          <g id="Group_17152" data-name="Group 17152">
            <g id="Group_17151" data-name="Group 17151">
              <path id="Path_8150" data-name="Path 8150" d="M2541.853,5018.5c.226.274-2.905,3.387-8.6,7.671a138.117,138.117,0,0,1-50.179,23.349c-6.945,1.6-11.342,1.988-11.406,1.639-.2-.88,17.055-4.242,36.474-13.366C2527.622,5028.813,2541.307,5017.778,2541.853,5018.5Z" transform="translate(-2471.666 -5018.463)" fill="#263238"/>
            </g>
          </g>
        </g>
        <g id="Group_17156" data-name="Group 17156" transform="translate(38.31 122.125)">
          <g id="Group_17155" data-name="Group 17155">
            <g id="Group_17154" data-name="Group 17154">
              <path id="Path_8151" data-name="Path 8151" d="M2498.954,4918.409c.228.273-2.817,3.343-8.375,7.563a132.4,132.4,0,0,1-49.13,22.857c-6.808,1.533-11.117,1.884-11.179,1.535-.194-.882,16.716-4.085,35.723-13.014C2485.058,4928.566,2498.4,4917.692,2498.954,4918.409Z" transform="translate(-2430.267 -4918.375)" fill="#263238"/>
            </g>
          </g>
        </g>
        <g id="Group_17159" data-name="Group 17159" transform="translate(46.638 120.188)">
          <g id="Group_17158" data-name="Group 17158">
            <g id="Group_17157" data-name="Group 17157">
              <path id="Path_8152" data-name="Path 8152" d="M2527.347,4906.572c.581.408-7.248,9.809-20.644,16.037-13.342,6.356-25.573,6.395-25.517,5.688-.114-.87,11.52-2.165,24.3-8.272C2518.335,4914.07,2526.75,4905.931,2527.347,4906.572Z" transform="translate(-2481.186 -4906.537)" fill="#263238"/>
            </g>
          </g>
        </g>
        <g id="Group_17162" data-name="Group 17162" transform="translate(5.872 10.584)">
          <g id="Group_17161" data-name="Group 17161">
            <g id="Group_17160" data-name="Group 17160">
              <path id="Path_8153" data-name="Path 8153" d="M2241.572,4236.385c.734.049.669,3.715-3.214,5.7-3.7,1.482-6.646.035-6.422-.685.131-.775,2.77-.869,5.274-1.932C2239.471,4238.439,2240.839,4236.123,2241.572,4236.385Z" transform="translate(-2231.924 -4236.365)" fill="#263238"/>
            </g>
          </g>
        </g>
      </g>
      <g id="Group_17166" data-name="Group 17166" transform="translate(28.105 68.949)" opacity="0.3">
        <g id="Group_17165" data-name="Group 17165">
          <g id="Group_17164" data-name="Group 17164">
            <path id="Path_8154" data-name="Path 8154" d="M2367.867,4604.975a23.878,23.878,0,0,0,13.753-2.19c4.5-2.265,9.311-5.827,11.277-9.551-8.057,3.64-16.973,8.1-25.03,11.742" transform="translate(-2367.867 -4593.233)"/>
          </g>
        </g>
      </g>
    </g>
    <g id="Group_17172" data-name="Group 17172" transform="translate(1481.458 4157.141)">
      <g id="Group_17168" data-name="Group 17168" transform="translate(14.318 31.821)">
        <path id="Path_8155" data-name="Path 8155" d="M1621.739,5384.546l35-7.655-44.658-7.837-35.048,7.341Z" transform="translate(-1576.722 -5368.745)" fill="#fff"/>
        <path id="Path_8156" data-name="Path 8156" d="M1620.161,5383.277a.35.35,0,0,1-.055,0l-44.708-8.152a.309.309,0,0,1-.008-.605l35.048-7.342a.322.322,0,0,1,.117,0l44.658,7.839a.308.308,0,0,1,.013.6l-35,7.656A.336.336,0,0,1,1620.161,5383.277Zm-43.1-8.481,43.1,7.857,33.407-7.308-43.057-7.557Z" transform="translate(-1575.144 -5367.166)" fill="#263238"/>
      </g>
      <g id="Group_17169" data-name="Group 17169" transform="translate(32.548 32.956)">
        <path id="Path_8157" data-name="Path 8157" d="M1724.2,5387.042l19.932-4.36-38.116-6.689-17.522,3.67Z" transform="translate(-1688.187 -5375.684)" fill="#fff"/>
        <path id="Path_8158" data-name="Path 8158" d="M1722.624,5385.772a.3.3,0,0,1-.062-.006l-35.706-7.379a.308.308,0,0,1,0-.6l17.522-3.67a.3.3,0,0,1,.116,0l38.116,6.69a.308.308,0,0,1,.013.6l-19.932,4.36A.3.3,0,0,1,1722.624,5385.772Zm-34.191-7.689,34.189,7.066,18.338-4.011-36.515-6.409Z" transform="translate(-1686.609 -5374.105)" fill="#263238"/>
      </g>
      <g id="Group_17170" data-name="Group 17170" transform="translate(0 0)">
        <path id="Path_8159" data-name="Path 8159" d="M1548.506,5221.8l-44.664-8.146a.248.248,0,0,0-.043-.006l-14.318-39.165,42.985,4.3,5.98,16.034Z" transform="translate(-1489.172 -5174.175)" fill="#b8b8b8"/>
        <path id="Path_8160" data-name="Path 8160" d="M1546.928,5220.53a.264.264,0,0,1-.055,0l-44.663-8.146a.26.26,0,0,1-.279-.2l-14.318-39.165a.309.309,0,0,1,.321-.413l42.985,4.3a.306.306,0,0,1,.258.2l5.98,16.034,10.06,26.988a.309.309,0,0,1-.289.416Zm-44.478-8.734,44,8.025-9.87-26.48-5.913-15.853-42.3-4.228Zm-.229.582h0Z" transform="translate(-1487.594 -5172.596)" fill="#263238"/>
      </g>
      <g id="Group_17171" data-name="Group 17171" transform="translate(14.361 20.329)">
        <path id="Path_8161" data-name="Path 8161" d="M1621.957,5325.774l-44.663-8.146c.944.135,17.151,2.277,21.119-7.092,2.586-6.116,8.751-9.843,13.485-11.75Z" transform="translate(-1576.984 -5298.478)" fill="#263238"/>
        <path id="Path_8162" data-name="Path 8162" d="M1620.378,5324.506a.264.264,0,0,1-.055,0l-44.664-8.146a.309.309,0,0,1,.1-.609c.688.1,16.885,2.314,20.791-6.907,2.845-6.729,9.776-10.354,13.654-11.916a.308.308,0,0,1,.4.178l10.06,26.988a.309.309,0,0,1-.289.416Zm-39.605-7.846,39.126,7.136-9.759-26.181c-8.608,3.553-11.852,8.7-13.023,11.465C1594.415,5315.462,1586.221,5316.63,1580.773,5316.66Z" transform="translate(-1575.406 -5296.901)" fill="#263238"/>
      </g>
    </g>
    <g id="Group_17216" data-name="Group 17216" transform="translate(1539.675 4068.719)">
      <g id="Group_17173" data-name="Group 17173" transform="translate(23.148 0)">
        <path id="Path_8163" data-name="Path 8163" d="M1993.673,4641.994s-6.681,6.577-6.681,12.527,3.027,16.912,3.863,19.313,1.566,7.725-.209,11.8-3.654,9.4,2.61,14.823,11.379,5.951,17.538,2.4,10.752-12.841,14.3-20.357,10.561-13.292,10.561-13.292,2.175-1.636.713-9.779-3.862-15.763-11.17-20.773-18.165-6.056-23.906-3.445S1993.673,4641.994,1993.673,4641.994Z" transform="translate(-1986.683 -4633.517)" fill="#263238"/>
        <path id="Path_8164" data-name="Path 8164" d="M2001.9,4703.849a11.422,11.422,0,0,1-1.454-.094c-2.859-.37-5.794-1.887-8.971-4.641-6.234-5.4-4.658-10.668-2.691-15.18,1.712-3.927,1.031-9.182.2-11.572-.79-2.271-3.88-13.311-3.88-19.415,0-5.835,6.123-12.1,6.734-12.708a15.782,15.782,0,0,1,7.75-6.887c2.885-1.311,7.088-1.734,11.533-1.16a29.449,29.449,0,0,1,12.675,4.632c7.551,5.178,9.893,13.141,11.3,20.975,1.478,8.234-.737,10.008-.832,10.08-.059.049-6.99,5.813-10.467,13.177-4,8.466-8.405,17.022-14.427,20.493A14.866,14.866,0,0,1,2001.9,4703.849Zm5.257-71.316a17.81,17.81,0,0,0-7.313,1.384,15.311,15.311,0,0,0-7.467,6.632.32.32,0,0,1-.065.093c-.066.064-6.589,6.556-6.589,12.307,0,6.027,3.063,16.961,3.846,19.211.9,2.577,1.577,7.9-.217,12.021a15.716,15.716,0,0,0-1.684,6.769c.1,2.812,1.48,5.331,4.213,7.7,6.04,5.233,11.017,5.92,17.182,2.366,5.868-3.381,10.221-11.844,14.177-20.221,3.538-7.492,10.573-13.341,10.644-13.4.026-.021,2-1.722.606-9.486-1.382-7.7-3.677-15.525-11.041-20.574A30.861,30.861,0,0,0,2007.156,4632.532Zm-15.062,7.888h0Z" transform="translate(-1985.105 -4631.943)" fill="#263238"/>
      </g>
      <g id="Group_17184" data-name="Group 17184" transform="translate(29.425 9.553)">
        <g id="Group_17174" data-name="Group 17174" transform="translate(0.345)">
          <path id="Path_8165" data-name="Path 8165" d="M2027.481,4703.011s0,8.431.787,9.443a17.121,17.121,0,0,1,2.7,4.609c.337,1.349-.337,7.869.337,8.094a29.335,29.335,0,0,0,3.822.337s5.846,6.3,6.97,6.745,4.609-1.911,4.609-1.911.337.675,6.183-1.686a22.151,22.151,0,0,0,9.105-7.083l-4.946-8.656s.112-1.461.112-3.26a8.135,8.135,0,0,0-1.236-3.709l-4.609-1.012s.562,1.687-.45,2.024-3.373.787-8.319-.45-9.105-4.272-10.567-4.721a8.58,8.58,0,0,0-2.248-.45l4.384-8.543s-.225-1.461-1.574.45-4.272,8.768-4.272,8.768Z" transform="translate(-2027.173 -4691.937)" fill="#fff"/>
          <path id="Path_8166" data-name="Path 8166" d="M2040.848,4731.018a1.2,1.2,0,0,1-.445-.075c-1.112-.444-6.085-5.752-6.994-6.728a25.594,25.594,0,0,1-3.781-.348c-.529-.177-.579-1.171-.485-4.75a21.814,21.814,0,0,0-.054-3.562,17.017,17.017,0,0,0-2.642-4.495c-.811-1.042-.852-8.206-.852-9.632a.309.309,0,0,1,.065-.189l.762-.98c.258-.6,2.972-6.925,4.288-8.789.6-.853,1.087-1.2,1.53-1.1.485.114.591.711.6.779a.308.308,0,0,1-.031.188l-4.174,8.134a11.175,11.175,0,0,1,1.855.423,15.333,15.333,0,0,1,2.3,1.149,34.822,34.822,0,0,0,8.247,3.567c4.494,1.124,6.91.869,8.146.456.7-.231.259-1.619.254-1.633a.309.309,0,0,1,.359-.4l4.609,1.012a.308.308,0,0,1,.193.134,8.358,8.358,0,0,1,1.286,3.877c0,1.53-.082,2.833-.107,3.188l4.9,8.575a.31.31,0,0,1-.014.329,22.24,22.24,0,0,1-9.244,7.192c-3.386,1.368-5.487,1.953-6.267,1.75C2044.411,4729.591,2042.146,4731.018,2040.848,4731.018Zm-10.973-7.721a29.774,29.774,0,0,0,3.684.306.313.313,0,0,1,.215.1c2.331,2.51,6.08,6.357,6.858,6.668.67.271,2.93-.937,4.321-1.879a.309.309,0,0,1,.251-.043.3.3,0,0,1,.122.064c.136.035,1.149.167,5.867-1.738a22.124,22.124,0,0,0,8.854-6.816l-4.847-8.482a.317.317,0,0,1-.04-.177c0-.015.111-1.471.111-3.236a7.632,7.632,0,0,0-1.122-3.437l-4-.878a3.4,3.4,0,0,1,.049.47c.031,1.006-.5,1.334-.815,1.44-1.884.628-4.82.475-8.491-.443a35.337,35.337,0,0,1-8.4-3.626,15.7,15.7,0,0,0-2.187-1.1,8.483,8.483,0,0,0-2.158-.437.309.309,0,0,1-.274-.449l4.332-8.443c-.031-.095-.081-.178-.111-.185,0,0-.259-.032-.884.853-1.314,1.862-4.21,8.644-4.24,8.712a.3.3,0,0,1-.04.068l-.722.928c0,3.229.2,8.479.722,9.148a17.211,17.211,0,0,1,2.754,4.723,20.782,20.782,0,0,1,.072,3.729A19.7,19.7,0,0,0,2029.875,4723.3Zm15.527,5.309h0Zm0,0h0Zm0,0h0Zm-15.509-5.279h0Z" transform="translate(-2025.595 -4690.355)" fill="#263238"/>
        </g>
        <g id="Group_17175" data-name="Group 17175" transform="translate(12.823 29.65)">
          <path id="Path_8167" data-name="Path 8167" d="M2102.2,4875.528a.309.309,0,0,1-.022-.616,3.452,3.452,0,0,0,3.2-2.986.309.309,0,0,1,.613.068c-.361,3.253-3.736,3.531-3.77,3.534Z" transform="translate(-2101.891 -4871.651)" fill="#263238"/>
        </g>
        <g id="Group_17176" data-name="Group 17176" transform="translate(19.568 32.685)">
          <path id="Path_8168" data-name="Path 8168" d="M2145.019,4897.493l5.171-5.4-1.686,4.721S2146.143,4897.381,2145.019,4897.493Z" transform="translate(-2144.71 -4891.788)" fill="#263238"/>
          <path id="Path_8169" data-name="Path 8169" d="M2143.44,4896.222a.309.309,0,0,1-.223-.522l5.171-5.4a.308.308,0,0,1,.513.317l-1.686,4.722a.31.31,0,0,1-.219.2c-.1.023-2.394.568-3.526.681Zm4.4-4.449-3.551,3.705c.914-.161,2-.408,2.406-.5Z" transform="translate(-2143.132 -4890.209)" fill="#263238"/>
        </g>
        <g id="Group_17177" data-name="Group 17177" transform="translate(27.662 20.657)">
          <path id="Path_8170" data-name="Path 8170" d="M2196.757,4818.55l-2.248,2.473,3.26-.225Z" transform="translate(-2194.2 -4818.241)" fill="#263238"/>
          <path id="Path_8171" data-name="Path 8171" d="M2192.931,4819.753a.309.309,0,0,1-.228-.517l2.248-2.473a.309.309,0,0,1,.51.081l1.012,2.248a.309.309,0,0,1-.26.435l-3.26.225Zm2.16-2.226-1.415,1.557,2.052-.142Z" transform="translate(-2192.623 -4816.663)" fill="#263238"/>
        </g>
        <g id="Group_17178" data-name="Group 17178" transform="translate(8.391 21.685)">
          <path id="Path_8172" data-name="Path 8172" d="M2076.38,4823.8c.417.654.48,1.36.14,1.577s-.955-.137-1.372-.791-.48-1.36-.14-1.578S2075.962,4823.146,2076.38,4823.8Z" transform="translate(-2074.789 -4822.945)" fill="#263238"/>
        </g>
        <g id="Group_17182" data-name="Group 17182" transform="translate(0 12.676)">
          <g id="Group_17179" data-name="Group 17179" transform="translate(4.055 6.295)">
            <path id="Path_8173" data-name="Path 8173" d="M2054.019,4815.882a5.216,5.216,0,0,1-2.974-1.381,8.48,8.48,0,0,1-2.756-4.045.311.311,0,0,1,.052-.273c.109-.142,2.737-3.487,8.433-3.83a.308.308,0,0,1,.272.132c.085.123,2.082,3.034,1.965,5.027a4.346,4.346,0,0,1-1.8,2.835,7.764,7.764,0,0,1-2.823,1.495A1.624,1.624,0,0,1,2054.019,4815.882Zm-5.09-5.44c.953,3.035,4.12,5.08,5.321,4.8,1.365-.315,4.043-2.027,4.145-3.764.091-1.551-1.367-3.9-1.76-4.5A11.359,11.359,0,0,0,2048.929,4810.441Z" transform="translate(-2048.278 -4806.352)" fill="#263238"/>
          </g>
          <g id="Group_17180" data-name="Group 17180" transform="translate(12.261)">
            <path id="Path_8174" data-name="Path 8174" d="M2098.763,4774.773a.309.309,0,0,1-.145-.582l11.916-6.3a.308.308,0,0,1,.288.545l-11.916,6.3A.312.312,0,0,1,2098.763,4774.773Z" transform="translate(-2098.454 -4767.86)" fill="#263238"/>
          </g>
          <g id="Group_17181" data-name="Group 17181" transform="translate(0 10.005)">
            <path id="Path_8175" data-name="Path 8175" d="M2027.4,4836.622h-.013a3.714,3.714,0,0,1-2.706-1.4,4.722,4.722,0,0,1-1.185-2.991c.123-.985,3.255-2.667,4.212-3.159a.309.309,0,1,1,.282.549c-2.054,1.057-3.832,2.286-3.882,2.686a4.241,4.241,0,0,0,1.044,2.518,3.073,3.073,0,0,0,2.261,1.183.309.309,0,0,1-.013.617Z" transform="translate(-2023.484 -4829.035)" fill="#263238"/>
          </g>
        </g>
        <g id="Group_17183" data-name="Group 17183" transform="translate(5.404 18.409)">
          <path id="Path_8176" data-name="Path 8176" d="M2056.833,4805.669a.293.293,0,0,1-.107-.02.308.308,0,0,1-.182-.4c.035-.1.9-2.337,4.111-2.337a.309.309,0,1,1,0,.617,3.552,3.552,0,0,0-3.532,1.934A.309.309,0,0,1,2056.833,4805.669Z" transform="translate(-2056.525 -4802.916)" fill="#263238"/>
        </g>
      </g>
      <g id="Group_17191" data-name="Group 17191" transform="translate(30.553 50.249)">
        <g id="Group_17185" data-name="Group 17185">
          <path id="Path_8177" data-name="Path 8177" d="M2049.618,4948.823s-4.589,1.864-7.744,10.039-9.609,56.647-9.609,56.647l79.879,8.6s-8.748-58.8-15.632-71.13-17.352-11.9-17.352-11.9A59.392,59.392,0,0,1,2049.618,4948.823Z" transform="translate(-2031.957 -4940.769)" fill="#92e3a9"/>
          <path id="Path_8178" data-name="Path 8178" d="M2110.567,5022.841l-.033,0-79.879-8.6a.308.308,0,0,1-.273-.348c.264-1.98,6.494-48.6,9.626-56.717,3.167-8.205,7.724-10.135,7.916-10.213a.333.333,0,0,1,.119-.023l.452,0a59.608,59.608,0,0,0,28.923-7.7.306.306,0,0,1,.152-.047,16.076,16.076,0,0,1,6.225,1.35c3.218,1.327,7.81,4.263,11.409,10.711,2.871,5.144,6.381,18.7,10.431,40.284,3.014,16.062,5.215,30.8,5.237,30.952a.309.309,0,0,1-.305.354Zm-79.531-9.186,79.166,8.527c-.783-5.172-9.053-59.015-15.536-70.631-3.513-6.293-7.978-9.151-11.106-10.441a16.1,16.1,0,0,0-5.888-1.3,60.441,60.441,0,0,1-29.178,7.748h-.39a10.024,10.024,0,0,0-2.57,1.9,21.887,21.887,0,0,0-4.951,7.943C2037.611,4965.1,2031.6,5009.469,2031.036,5013.655Z" transform="translate(-2030.38 -4939.188)" fill="#263238"/>
        </g>
        <g id="Group_17189" data-name="Group 17189" transform="translate(20.994 44.772)">
          <g id="Group_17186" data-name="Group 17186" transform="translate(7.494 10.691)">
            <path id="Path_8179" data-name="Path 8179" d="M2206.153,5281a.309.309,0,0,1-.247-.123,20.227,20.227,0,0,1-1.295-2.1.309.309,0,1,1,.539-.3,19.663,19.663,0,0,0,1.25,2.026.308.308,0,0,1-.247.493Z" transform="translate(-2204.571 -5278.319)" fill="#263238"/>
          </g>
          <g id="Group_17187" data-name="Group 17187" transform="translate(2.391 0.398)">
            <path id="Path_8180" data-name="Path 8180" d="M2177.973,5224.8a.31.31,0,0,1-.273-.166c-1.964-3.734-4.281-8.766-4.3-8.816a.309.309,0,1,1,.561-.258c.023.05,2.334,5.068,4.29,8.788a.308.308,0,0,1-.129.417A.3.3,0,0,1,2177.973,5224.8Z" transform="translate(-2173.367 -5215.384)" fill="#263238"/>
          </g>
          <g id="Group_17188" data-name="Group 17188">
            <path id="Path_8181" data-name="Path 8181" d="M2162.044,5219.543a.309.309,0,0,1-.276-.17l-2.989-5.978a.308.308,0,0,1,.552-.276l2.989,5.978a.309.309,0,0,1-.276.447Z" transform="translate(-2158.746 -5212.949)" fill="#263238"/>
          </g>
        </g>
        <g id="Group_17190" data-name="Group 17190" transform="translate(6.256 22.517)">
          <path id="Path_8182" data-name="Path 8182" d="M2074.445,5130.692a.309.309,0,0,1-.294-.215c-.067-.211-6.745-21.269-5.318-31.686a173.337,173.337,0,0,1,4.742-21.7.309.309,0,1,1,.592.174,172.617,172.617,0,0,0-4.723,21.609c-1.408,10.281,5.227,31.2,5.294,31.414a.308.308,0,0,1-.2.388A.3.3,0,0,1,2074.445,5130.692Z" transform="translate(-2068.634 -5076.87)" fill="#263238"/>
        </g>
      </g>
      <g id="Group_17200" data-name="Group 17200" transform="translate(47.327 35.349)">
        <g id="Group_17192" data-name="Group 17192">
          <path id="Path_8183" data-name="Path 8183" d="M2136.526,4862.251a1.872,1.872,0,0,0,.113,2.36,5.7,5.7,0,0,1,1.125,3.373c.112.9-4.047,4.385-2.586,5.733s6.071,3.373,16.412.337,14.727-7.307,14.951-8.88-1.349-3.148-2.361-3.823-1.8-2.7-2.923-6.07,0-5.621-1.911-5.284-5.508,1.124-7.532,3.485C2151.814,4853.482,2146.868,4859.89,2136.526,4862.251Z" transform="translate(-2134.552 -4849.657)" fill="#92e3a9"/>
          <path id="Path_8184" data-name="Path 8184" d="M2140.466,4874.378c-4.436,0-6.44-1.4-7.1-2.009-1.14-1.052.3-2.9,1.459-4.376a5.971,5.971,0,0,0,1.029-1.547c-.015-.115-.027-.237-.041-.364a4.885,4.885,0,0,0-1.016-2.85,2.177,2.177,0,0,1-.115-2.75.306.306,0,0,1,.172-.107,30.315,30.315,0,0,0,11.386-5.2,21.077,21.077,0,0,0,3.727-3.456c2.258-2.636,6.371-3.362,7.722-3.6a1.336,1.336,0,0,1,1.091.173c.449.35.5,1.03.573,1.972a13.109,13.109,0,0,0,.593,3.345c1.15,3.448,1.9,5.309,2.8,5.911,2.222,1.481,2.614,3.289,2.495,4.123-.281,1.97-5.3,6.235-15.17,9.133A34.508,34.508,0,0,1,2140.466,4874.378Zm-5.359-13.429a1.563,1.563,0,0,0,.166,1.892,5.479,5.479,0,0,1,1.153,3.176c.013.122.025.24.039.353.054.434-.359.985-1.155,2-.949,1.214-2.249,2.875-1.527,3.542.686.633,4.687,3.622,16.116.268,10.751-3.155,14.561-7.429,14.732-8.627.195-1.366-1.225-2.854-2.226-3.522-1.058-.705-1.825-2.571-3.045-6.229a13.82,13.82,0,0,1-.623-3.494c-.057-.754-.1-1.349-.336-1.53a.788.788,0,0,0-.6-.054c-1.3.229-5.246.926-7.351,3.382C2150.4,4852.16,2145.359,4858.57,2135.106,4860.949Z" transform="translate(-2132.947 -4848.081)" fill="#263238"/>
        </g>
        <g id="Group_17199" data-name="Group 17199" transform="translate(4.573 2.173)">
          <g id="Group_17193" data-name="Group 17193" transform="translate(0 9.438)">
            <path id="Path_8185" data-name="Path 8185" d="M2161.329,4931.89a.317.317,0,0,1-.247-.118c-.422-.528.162-1.831,1.173-3.914a10.986,10.986,0,0,0,.762-1.754c0-.235-.165-1.045-1.687-3.438a3.307,3.307,0,0,1,.213-3.453.309.309,0,0,1,.507.352,2.739,2.739,0,0,0-.2,2.771c1.184,1.86,1.784,3.129,1.784,3.771a7.23,7.23,0,0,1-.824,2.022c-.458.944-1.411,2.908-1.241,3.267a.307.307,0,0,1-.241.5Z" transform="translate(-2160.91 -4919.079)" fill="#263238"/>
          </g>
          <g id="Group_17194" data-name="Group 17194" transform="translate(4.125 8.678)">
            <path id="Path_8186" data-name="Path 8186" d="M2187.893,4927.333a.3.3,0,0,1-.138-.033c-1.249-.624-.337-3.831.113-5.18.228-.686-.657-3.9-1.28-4.645-.757-.908-.348-2.727-.331-2.8a.309.309,0,0,1,.6.138,3.223,3.223,0,0,0,.2,2.27c.713.856,1.708,4.288,1.391,5.235-.756,2.269-.937,4.176-.422,4.433a.308.308,0,0,1-.138.584Z" transform="translate(-2186.132 -4914.433)" fill="#263238"/>
          </g>
          <g id="Group_17195" data-name="Group 17195" transform="translate(7.981 7.076)">
            <path id="Path_8187" data-name="Path 8187" d="M2212.156,4910.595a.31.31,0,0,1-.274-.165,32.692,32.692,0,0,1-2.159-5.4.309.309,0,0,1,.594-.17,31.963,31.963,0,0,0,2.113,5.282.309.309,0,0,1-.273.453Z" transform="translate(-2209.711 -4904.637)" fill="#263238"/>
          </g>
          <g id="Group_17196" data-name="Group 17196" transform="translate(9.81 14.003)">
            <path id="Path_8188" data-name="Path 8188" d="M2222.042,4954.164a.309.309,0,0,1-.207-.079c-1.252-1.128-1.038-1.779-.609-3.074.152-.459.341-1.031.516-1.767.193-.809.274-1.264.307-1.517l-.027-.014a.308.308,0,0,1-.114-.42c.208-.364.446-.317.539-.281.3.119.374.367-.1,2.375-.181.762-.375,1.348-.53,1.817-.417,1.263-.517,1.563.437,2.421a.309.309,0,0,1-.207.538Z" transform="translate(-2220.892 -4946.988)" fill="#263238"/>
          </g>
          <g id="Group_17197" data-name="Group 17197" transform="translate(18.396)">
            <path id="Path_8189" data-name="Path 8189" d="M2275.168,4869.062a.327.327,0,0,1-.1-.016c-.811-.271-1.012-4.155-1.012-4.7a5.188,5.188,0,0,0-.621-2.507.309.309,0,0,1,.524-.327,5.708,5.708,0,0,1,.715,2.833,12.1,12.1,0,0,0,.635,4.133.309.309,0,0,1-.143.582Zm.1-.6h0Z" transform="translate(-2273.391 -4861.368)" fill="#263238"/>
          </g>
          <g id="Group_17198" data-name="Group 17198" transform="translate(20.932 8.545)">
            <path id="Path_8190" data-name="Path 8190" d="M2291.078,4915.969a.3.3,0,0,1-.179-.058,13.3,13.3,0,0,1-1.922-1.783.308.308,0,0,1,.464-.406,13.02,13.02,0,0,0,1.816,1.688.308.308,0,0,1-.179.559Z" transform="translate(-2288.9 -4913.616)" fill="#263238"/>
          </g>
        </g>
      </g>
      <g id="Group_17205" data-name="Group 17205" transform="translate(0 104.813)">
        <g id="Group_17201" data-name="Group 17201">
          <path id="Path_8191" data-name="Path 8191" d="M1847.506,5277.246a14.455,14.455,0,0,0-2,3.738c-.267,1.335.267,5.741.935,5.34s.4-2.67.8-3.471a3.993,3.993,0,0,0,.4-1.6,43.478,43.478,0,0,0,3.338,5.34c.935.935,5.608,4.94,7.61,4.673s7.076-4.406,6.809-6.943-4.94-8.812-8.678-9.613l-2.27,1.335-4.806,1.068S1848.974,5276.578,1847.506,5277.246Z" transform="translate(-1845.127 -5274.4)" fill="#fff"/>
          <path id="Path_8192" data-name="Path 8192" d="M1856.832,5290.008c-2.324,0-6.865-4-7.634-4.774a32.834,32.834,0,0,1-2.949-4.615,4.087,4.087,0,0,1-.3.8,4.964,4.964,0,0,0-.239,1.429c-.081.954-.157,1.855-.68,2.169a.467.467,0,0,1-.524-.022c-.76-.535-1.108-4.463-.872-5.643a14.458,14.458,0,0,1,2.055-3.859.313.313,0,0,1,.122-.1,2.6,2.6,0,0,1,2.319-.181l4.637-1.031,2.228-1.31a.308.308,0,0,1,.221-.036c4.015.86,8.651,7.318,8.921,9.882.292,2.777-4.949,7-7.075,7.281A1.667,1.667,0,0,1,1856.832,5290.008Zm-10.754-10.643a.31.31,0,0,1,.271.16,43.634,43.634,0,0,0,3.285,5.271c1,1,5.548,4.829,7.352,4.586a9.965,9.965,0,0,0,4.086-2.54c1.645-1.534,2.563-3.054,2.457-4.064-.24-2.274-4.7-8.433-8.321-9.317l-2.164,1.272a.294.294,0,0,1-.089.035l-4.807,1.068a.307.307,0,0,1-.26-.06c-.017-.013-.546-.379-1.741.14a13.611,13.611,0,0,0-1.9,3.552,12.61,12.61,0,0,0,.553,4.935,4.692,4.692,0,0,0,.3-1.612,5.086,5.086,0,0,1,.3-1.652,3.72,3.72,0,0,0,.368-1.465.309.309,0,0,1,.233-.3A.335.335,0,0,1,1846.078,5279.365Zm-1.211,5.12h0Z" transform="translate(-1843.566 -5272.823)" fill="#263238"/>
        </g>
        <g id="Group_17202" data-name="Group 17202" transform="translate(1.77 1.068)">
          <path id="Path_8193" data-name="Path 8193" d="M1860.436,5281.24s-3.338,0-3.872,1.469-.534,5.875,1.469,7.477,1.736-1.336,1.736-2.67A43.085,43.085,0,0,1,1860.436,5281.24Z" transform="translate(-1855.956 -5280.932)" fill="#fff"/>
          <path id="Path_8194" data-name="Path 8194" d="M1857.434,5289.383a1.983,1.983,0,0,1-1.16-.535c-2.126-1.7-2.131-6.269-1.566-7.823.261-.718,1.056-1.216,2.365-1.483a10.029,10.029,0,0,1,1.8-.188.308.308,0,0,1,.3.393,43.229,43.229,0,0,0-.656,6.19c0,.13,0,.275.006.429.02,1.141.045,2.562-.71,2.933A.85.85,0,0,1,1857.434,5289.383Zm1.048-9.4c-1.034.059-2.864.347-3.194,1.252-.5,1.388-.508,5.628,1.372,7.131.4.318.716.456.875.377.4-.2.377-1.663.365-2.366,0-.158-.005-.307-.005-.44A48.288,48.288,0,0,1,1858.482,5279.982Z" transform="translate(-1854.391 -5279.354)" fill="#263238"/>
        </g>
        <g id="Group_17203" data-name="Group 17203" transform="translate(5.392 0.015)">
          <path id="Path_8195" data-name="Path 8195" d="M1882.574,5275.056s-2.67-.935-3.6.8-.534,6.942.133,7.877,2,.667,2-1.2a28.986,28.986,0,0,1,.534-4.54Z" transform="translate(-1878.11 -5274.496)" fill="#fff"/>
          <path id="Path_8196" data-name="Path 8196" d="M1878.432,5282.988a1.449,1.449,0,0,1-1.156-.653c-.756-1.058-1.129-6.393-.154-8.2a2.482,2.482,0,0,1,2.431-1.213,5.522,5.522,0,0,1,1.547.268.308.308,0,0,1,.192.385l-.929,2.92a28.568,28.568,0,0,0-.525,4.463c0,1.028-.392,1.768-1.05,1.978A1.172,1.172,0,0,1,1878.432,5282.988Zm1.03-9.452a1.9,1.9,0,0,0-1.8.888c-.919,1.707-.457,6.754.113,7.553a.757.757,0,0,0,.822.368c.3-.1.621-.513.621-1.391a28.883,28.883,0,0,1,.54-4.6c0-.011.005-.022.008-.033l.838-2.634A4.908,4.908,0,0,0,1879.461,5273.536Z" transform="translate(-1876.535 -5272.917)" fill="#263238"/>
        </g>
        <g id="Group_17204" data-name="Group 17204" transform="translate(8.709 0.031)">
          <path id="Path_8197" data-name="Path 8197" d="M1903.014,5275.786s-2.537-1.468-3.471-.667-1.335,7.744.133,8.946,2-1.2,2.136-1.869.935-5.074.935-5.074" transform="translate(-1898.397 -5274.574)" fill="#fff"/>
          <path id="Path_8198" data-name="Path 8198" d="M1898.852,5283.141a1.523,1.523,0,0,1-.949-.4c-.907-.742-1.068-3.022-1.083-4.316-.023-2.061.3-4.55.944-5.1,1.07-.918,3.548.472,3.827.634a.309.309,0,0,1-.309.534c-.908-.525-2.557-1.179-3.116-.7-.365.313-.754,2.358-.728,4.626.022,1.958.35,3.432.856,3.846.275.225.51.3.7.237s.63-.381.94-1.929c.132-.658.926-5.024.934-5.068a.309.309,0,0,1,.607.111c-.033.18-.8,4.416-.936,5.079-.273,1.365-.723,2.168-1.337,2.389A1.02,1.02,0,0,1,1898.852,5283.141Z" transform="translate(-1896.819 -5273.01)" fill="#263238"/>
        </g>
      </g>
      <g id="Group_17210" data-name="Group 17210" transform="translate(4.362 109.505)">
        <g id="Group_17206" data-name="Group 17206" transform="translate(1.711 1.052)">
          <path id="Path_8199" data-name="Path 8199" d="M1896.522,5309.952a29.618,29.618,0,0,1-6.375,1.519c-3.643.455-7.685.395-7.562,1.563s.731,1.776,5.133,1.624,9.108-.152,10.93-1.821S1898.192,5309.345,1896.522,5309.952Z" transform="translate(-1882.273 -5309.524)" fill="#fff"/>
          <path id="Path_8200" data-name="Path 8200" d="M1884.849,5313.413c-3.026,0-4-.5-4.149-1.925a.767.767,0,0,1,.178-.579c.531-.644,2.189-.817,4.85-1.046.919-.079,1.87-.161,2.8-.277a29.583,29.583,0,0,0,6.3-1.5l.006,0a2.569,2.569,0,0,1,2.959,1,1.84,1.84,0,0,1-.52,2.4c-1.753,1.607-5.766,1.733-10.015,1.866l-1.113.037Q1885.444,5313.413,1884.849,5313.413Zm10.2-4.75a30.238,30.238,0,0,1-6.445,1.535c-.943.118-1.9.2-2.825.28-1.983.171-4.034.348-4.427.824a.149.149,0,0,0-.041.121c.1.912.484,1.5,4.816,1.348l1.115-.036c3.949-.124,8.033-.252,9.617-1.7a1.236,1.236,0,0,0,.409-1.623A1.978,1.978,0,0,0,1895.052,5308.663Z" transform="translate(-1880.696 -5307.946)" fill="#263238"/>
        </g>
        <g id="Group_17207" data-name="Group 17207">
          <path id="Path_8201" data-name="Path 8201" d="M1948.479,5306.726s-17.624,3.738-25.5,4.807a68.405,68.405,0,0,1-16.689-.267s-11.75-5.608-13.752-6.542-3.739-1.736-4.272-1.069-8.946,5.475-10.281,6.676a53.443,53.443,0,0,0-5.608,7.744c-.534,1.068-.134,1.469.668,1.2a12.057,12.057,0,0,0,3.2-2.136c1.068-.935,4.005-4.139,4.005-4.139l2.67-1.736a47.221,47.221,0,0,0-3.872,5.073c-.668,1.334-3.6,4.807-3.338,5.208s1.869.267,3.2-.668a19.432,19.432,0,0,0,3.739-4,37.649,37.649,0,0,1,3.872-3.338s-2,3.873-2.8,5.074-1.869,2.8-1.2,2.938,2.537-.8,3.471-1.736a26.144,26.144,0,0,0,2.537-3.739l2.4-2.269a17.358,17.358,0,0,1-2.136,4.406c-1.068,1.2-2.937,2.8-1.869,3.071s3.2-.8,4.005-1.736,2.67-3.472,2.67-3.472,3.026,2.483,4.717,2.51,6.5.027,6.5.027,16.4,4.229,30.421,5.3,26.723-.492,27.258-1.292,1.335-16.29,1.335-16.29Z" transform="translate(-1871.822 -5303.098)" fill="#fff"/>
          <path id="Path_8202" data-name="Path 8202" d="M1943.368,5322.989c-2.906,0-6.215-.093-9.738-.362-13.559-1.033-29.54-5.068-30.437-5.3-.461,0-4.87,0-6.464-.027-1.5-.023-3.874-1.771-4.655-2.378-.5.673-1.837,2.466-2.494,3.233-.812.947-3.068,2.146-4.315,1.833a.659.659,0,0,1-.528-.451c-.162-.562.479-1.268,1.539-2.374.242-.253.492-.513.7-.751a12.075,12.075,0,0,0,1.62-3.071l-1.411,1.333a25.252,25.252,0,0,1-2.563,3.764c-.935.936-2.921,1.986-3.75,1.82a.542.542,0,0,1-.41-.326c-.229-.552.412-1.58,1.416-3.085.491-.737,1.457-2.522,2.112-3.759a21.687,21.687,0,0,0-2.647,2.333,19.5,19.5,0,0,1-3.837,4.12,4.61,4.61,0,0,1-3.076.9.821.821,0,0,1-.562-.317c-.246-.37.124-.954,1.687-3.1a23.5,23.5,0,0,0,1.632-2.413,27.95,27.95,0,0,1,2.6-3.562l-.922.6c-.314.342-2.977,3.235-4,4.134a12.457,12.457,0,0,1-3.31,2.2c-.677.226-1,0-1.137-.154-.271-.312-.239-.81.1-1.479a52.692,52.692,0,0,1,5.677-7.835,66.268,66.268,0,0,1,5.69-3.7c1.929-1.186,4.33-2.66,4.556-2.943.691-.863,2.435-.048,4.644.982,1.921.9,12.937,6.154,13.712,6.523a68.4,68.4,0,0,0,16.557.26c7.776-1.054,25.3-4.765,25.479-4.8a.306.306,0,0,1,.056-.006l15.354-.4a.309.309,0,0,1,.316.325c-.135,2.6-.833,15.614-1.386,16.444-.582.873-7.967,1.423-8.807,1.483C1950.379,5322.823,1947.23,5322.989,1943.368,5322.989Zm-51.351-8.813a.312.312,0,0,1,.2.07c.819.672,3.228,2.42,4.526,2.44,1.67.026,6.445.026,6.493.026a.293.293,0,0,1,.077.01c.164.043,16.537,4.235,30.368,5.289,14.422,1.1,26.21-.563,26.983-1.167.356-.758.953-9.926,1.261-15.789l-14.993.391c-.8.169-17.843,3.767-25.5,4.805a69.266,69.266,0,0,1-16.777-.268.3.3,0,0,1-.087-.026c-.117-.056-11.771-5.618-13.75-6.541-1.565-.731-3.514-1.64-3.9-1.156a39.6,39.6,0,0,1-4.715,3.083c-2.313,1.42-4.934,3.031-5.6,3.63a53.146,53.146,0,0,0-5.538,7.652c-.262.524-.22.754-.182.8s.192.068.476-.027a11.76,11.76,0,0,0,3.1-2.076c1.043-.913,3.952-4.083,3.981-4.116a.337.337,0,0,1,.059-.05l2.67-1.735a.309.309,0,0,1,.4.459,47.406,47.406,0,0,0-3.83,5.01,23.436,23.436,0,0,1-1.685,2.5,18.655,18.655,0,0,0-1.619,2.43,3.773,3.773,0,0,0,2.717-.782,19.593,19.593,0,0,0,3.639-3.891,30.924,30.924,0,0,1,3.958-3.443.309.309,0,0,1,.464.386c-.082.158-2.02,3.9-2.821,5.1a9.783,9.783,0,0,0-1.364,2.468,6.166,6.166,0,0,0,3.158-1.656,26.052,26.052,0,0,0,2.487-3.673.288.288,0,0,1,.056-.071l2.4-2.27a.309.309,0,0,1,.5.322,17.336,17.336,0,0,1-2.2,4.513c-.219.245-.473.511-.719.768-.5.52-1.419,1.48-1.392,1.767a.31.31,0,0,0,.086.032c.911.226,2.949-.766,3.7-1.637.784-.915,2.637-3.428,2.656-3.454a.311.311,0,0,1,.21-.123Zm68.653,6.66Z" transform="translate(-1870.235 -5301.511)" fill="#263238"/>
        </g>
        <g id="Group_17208" data-name="Group 17208" transform="translate(14.397 6.657)">
          <line id="Line_10" data-name="Line 10" y1="3.471" x2="3.471" transform="translate(0.309 0.309)" fill="#fff"/>
          <path id="Path_8203" data-name="Path 8203" d="M1958.576,5346.3a.308.308,0,0,1-.218-.526l3.472-3.471a.308.308,0,0,1,.436.436l-3.472,3.471A.308.308,0,0,1,1958.576,5346.3Z" transform="translate(-1958.267 -5342.214)" fill="#263238"/>
        </g>
        <g id="Group_17209" data-name="Group 17209" transform="translate(10.793 3.853)">
          <line id="Line_11" data-name="Line 11" y1="4.005" x2="3.872" transform="translate(0.309 0.308)" fill="#fff"/>
          <path id="Path_8204" data-name="Path 8204" d="M1936.534,5329.693a.309.309,0,0,1-.222-.523l3.872-4.005a.309.309,0,1,1,.443.429l-3.872,4.005A.308.308,0,0,1,1936.534,5329.693Z" transform="translate(-1936.225 -5325.071)" fill="#263238"/>
        </g>
      </g>
      <g id="Group_17214" data-name="Group 17214" transform="translate(72.141 56.417)">
        <g id="Group_17211" data-name="Group 17211" transform="translate(23.089 54.88)">
          <path id="Path_8205" data-name="Path 8205" d="M2428.883,5320.143l-1.147-5.163s3.3-1.29,4.446-.143S2432.755,5317.992,2428.883,5320.143Z" transform="translate(-2427.427 -5314.052)" fill="#263238"/>
          <path id="Path_8206" data-name="Path 8206" d="M2427.3,5318.872a.308.308,0,0,1-.3-.242l-1.147-5.163a.309.309,0,0,1,.189-.354,11.284,11.284,0,0,1,1.849-.518c1.391-.258,2.375-.108,2.927.444a1.984,1.984,0,0,1,.595,1.73c-.185,1.322-1.555,2.727-3.962,4.063A.3.3,0,0,1,2427.3,5318.872Zm-.788-5.275,1,4.491c2.656-1.552,3.2-2.79,3.29-3.4a1.371,1.371,0,0,0-.42-1.209C2429.629,5312.72,2427.528,5313.243,2426.517,5313.6Z" transform="translate(-2425.848 -5312.473)" fill="#263238"/>
        </g>
        <g id="Group_17212" data-name="Group 17212">
          <path id="Path_8207" data-name="Path 8207" d="M2296.885,4989.263l-10.325,46.465s28.251-.144,27.678.574-4.3,2.724-3.442,3.155,11.76-1.578,14.771-2.295a24.88,24.88,0,0,0,5.593-2.151s-7.457-27.1-14.341-38.864-9.752-15.918-12.907-17.353" transform="translate(-2286.25 -4978.485)" fill="#92e3a9"/>
          <path id="Path_8208" data-name="Path 8208" d="M2309.721,5038.232a1.694,1.694,0,0,1-.641-.079.5.5,0,0,1-.3-.419c-.036-.506.686-1.063,2.226-2.13.387-.269.784-.542,1.065-.763-2.744-.367-17.292-.434-27.09-.385h0a.308.308,0,0,1-.3-.375l10.325-46.465a.308.308,0,0,1,.6.134l-10.241,46.087c1.543-.006,7.458-.026,13.336.018,13.951.1,14.1.4,14.24.7a.337.337,0,0,1-.042.36,9.135,9.135,0,0,1-1.541,1.2,11.609,11.609,0,0,0-1.917,1.509c1.306.205,10.982-1.507,14.475-2.339a24.778,24.778,0,0,0,5.3-2.007c-.756-2.7-7.8-27.545-14.243-38.551-6.724-11.487-9.664-15.817-12.768-17.228a.309.309,0,0,1,.255-.562c3.281,1.491,6.135,5.672,13.045,17.478,6.825,11.66,14.3,38.667,14.372,38.938a.308.308,0,0,1-.148.352,24.938,24.938,0,0,1-5.671,2.182C2322.019,5036.37,2312.433,5038.232,2309.721,5038.232Z" transform="translate(-2284.673 -4976.907)" fill="#263238"/>
        </g>
        <g id="Group_17213" data-name="Group 17213" transform="translate(22.659 16.492)">
          <line id="Line_12" data-name="Line 12" x1="5.019" y1="41.015" transform="translate(0.309 0.309)" fill="#fff"/>
          <path id="Path_8209" data-name="Path 8209" d="M2428.545,5119.379a.309.309,0,0,1-.306-.271l-5.019-41.015a.309.309,0,1,1,.613-.075l5.019,41.015a.308.308,0,0,1-.269.344A.246.246,0,0,1,2428.545,5119.379Z" transform="translate(-2423.218 -5077.746)" fill="#263238"/>
        </g>
      </g>
      <g id="Group_17215" data-name="Group 17215" transform="translate(17.599 43.872)">
        <path id="Path_8210" data-name="Path 8210" d="M1979.868,4916.593a79.406,79.406,0,0,0-2.714,11.691c-.522,4.7,1.357,11.066-1.148,17.434s-6.368,7.725-10.231,6.891a5.684,5.684,0,0,1-4.384-6.891c.731-2.088,2.505-3.132,2.714-2.505s-1.253,1.044-.1,2.714,3.341-.208,2.61-3.131-4.8-1.044-9.291-4.176-5.533-8.351-2.819-15.346,8.143-12.11,8.873-15.346a13.093,13.093,0,0,0,0-5.846" transform="translate(-1952.714 -4901.773)" fill="#263238"/>
        <path id="Path_8211" data-name="Path 8211" d="M1966.25,4951.567a9.827,9.827,0,0,1-2.081-.234,6,6,0,0,1-4.029-2.958,5.6,5.6,0,0,1-.582-4.335c.424-1.21,1.663-2.893,2.724-2.893h.008a.572.572,0,0,1,.567.392,1.006,1.006,0,0,1-.24.9c-.264.4-.538.813.1,1.736a.871.871,0,0,0,1.127.414c.654-.294,1.375-1.512.929-3.3-.317-1.268-1.316-1.5-3.2-1.816a13.543,13.543,0,0,1-5.967-2.181c-4.647-3.242-5.66-8.674-2.93-15.71a46.746,46.746,0,0,1,5.682-9.814c1.534-2.186,2.858-4.073,3.178-5.488a12.863,12.863,0,0,0,0-5.7.309.309,0,0,1,.594-.167,13.291,13.291,0,0,1,0,6c-.347,1.535-1.639,3.376-3.275,5.707a46.3,46.3,0,0,0-5.612,9.683,16.63,16.63,0,0,0-1.276,8.953,9.254,9.254,0,0,0,3.984,6.028,13.014,13.014,0,0,0,5.718,2.079c1.825.312,3.267.558,3.7,2.276.5,2-.283,3.561-1.274,4.008a1.484,1.484,0,0,1-1.889-.627,1.845,1.845,0,0,1-.1-2.426.854.854,0,0,0,.173-.337h-.005a3.759,3.759,0,0,0-2.129,2.482,4.961,4.961,0,0,0,.538,3.83,5.323,5.323,0,0,0,3.62,2.657c4.428.957,7.752-1.3,9.878-6.7,1.618-4.111,1.378-8.261,1.166-11.921a33.531,33.531,0,0,1-.037-5.434,80.258,80.258,0,0,1,2.726-11.75.309.309,0,1,1,.589.185,79.532,79.532,0,0,0-2.7,11.634,33.1,33.1,0,0,0,.04,5.33c.216,3.724.46,7.945-1.207,12.183C1972.84,4949.116,1969.985,4951.567,1966.25,4951.567Z" transform="translate(-1951.173 -4900.196)" fill="#263238"/>
      </g>
    </g>
    <g id="Group_17253" data-name="Group 17253" transform="translate(1661.966 4042.901)">
      <g id="Group_17252" data-name="Group 17252" transform="translate(0 0)">
        <g id="Group_17222" data-name="Group 17222">
          <g id="Group_17218" data-name="Group 17218" transform="translate(0.933 1.139)">
            <g id="Group_17217" data-name="Group 17217">
              <path id="Path_8212" data-name="Path 8212" d="M2613.124,4587.3a25.926,25.926,0,0,1-4.639-10.01l-11.468.032v-48.747s1.785-26.395,19.6-37.643c0,0,7.553-5.827,16.849-6.795,0,0,.775-3.1,2.711-3.1s2.324,2.324,2.324,2.324l11.62,3.1-2.518,5.81,30.406,26.145v2.082s2.517,4.115,2.517,6.633-3.486,7.166-7.552,8.134-11.427-3.1-11.427-3.1l-9.1-.968s-2.518,1.355-7.94,1.937-7.166,0-7.166,0,13.944,13.557,17.236,20.141,3.873,16.462,2.13,22.078a85.025,85.025,0,0,1-5.058,11.947Z" transform="translate(-2597.017 -4481.042)" fill="#91e986"/>
            </g>
          </g>
          <g id="Group_17221" data-name="Group 17221">
            <g id="Group_17220" data-name="Group 17220">
              <g id="Group_17219" data-name="Group 17219">
                <path id="Path_8213" data-name="Path 8213" d="M2608.353,4581.48a15.946,15.946,0,0,1,2.684-.184l7.6-.186,28.245-.354-.641.388a79.542,79.542,0,0,0,4.96-12.025,32.391,32.391,0,0,0,.067-14.322,26.893,26.893,0,0,0-2.52-7.289,45.357,45.357,0,0,0-4.813-6.6c-3.65-4.3-7.752-8.583-12.095-12.842l-2.475-2.428,3.542.672a26.463,26.463,0,0,0,7.027-.108,25.071,25.071,0,0,0,7.225-1.8l.338-.157.3.031,9.1.948.211.021.213.112a32.033,32.033,0,0,0,6.695,2.686,6.975,6.975,0,0,0,6.4-.854,10.341,10.341,0,0,0,4.118-5.377c.293-1.759-1.1-4.46-2.284-6.536l-.171-.3v-.308c0-.65,0-1.366,0-2.082l.405.884-15.819-13.592-14.587-12.551-.652-.562.342-.788,2.522-5.808.766,1.584-11.616-3.112-.675-.18-.162-.74c-.213-.975-.811-1.518-1.342-1.347-.465.032-1.214,1.212-1.459,2.208l-.189.765-.8.089a35.654,35.654,0,0,0-16.3,6.534l-.073.052-.011.007c-8.21,5.2-13.1,13.772-15.972,22.042a67.775,67.775,0,0,0-3.02,12.5c-.515,4-.179,8.225-.312,12.092-.127,15.55-.235,28.7-.318,38.827l-.566-.565,11.468.138.313,0,.073.3a32.374,32.374,0,0,0,4.254,10.1,7.77,7.77,0,0,1-1.729-2.19,27.48,27.48,0,0,1-3.294-7.726l.385.3-11.467.2-.562.01,0-.576c-.083-10.138-.191-23.3-.318-38.874q-.016-2.944-.033-6a39.031,39.031,0,0,1,.233-6.3,69.128,69.128,0,0,1,3-12.9c2.9-8.54,7.909-17.6,16.7-23.247l-.083.059a37.656,37.656,0,0,1,17.4-7.056l-.983.853c.5-1.411.925-3.074,3.1-3.871a3.154,3.154,0,0,1,2.914.779,4.492,4.492,0,0,1,1.25,2.4l-.836-.919,11.622,3.085,1.3.346-.536,1.239-2.513,5.811-.309-1.348,14.6,12.542,15.808,13.6.406.35v.534c0,.716,0,1.432,0,2.082l-.171-.606a27.051,27.051,0,0,1,1.856,3.733,8,8,0,0,1,.7,4.5,12.4,12.4,0,0,1-5.1,6.8,9.378,9.378,0,0,1-4.065,1.586,12.191,12.191,0,0,1-4.171-.438,33.985,33.985,0,0,1-7.218-2.923l.422.133-9.1-.989.635-.125a26.434,26.434,0,0,1-8.019,2,25.993,25.993,0,0,1-7.938-.032l1.067-1.755c4.375,4.347,8.456,8.665,12.144,13.085a46.8,46.8,0,0,1,4.975,6.968,28.613,28.613,0,0,1,2.628,7.829,33.8,33.8,0,0,1-.278,15.148,79.26,79.26,0,0,1-5.254,12.227l-.2.394-.439-.005-28.49-.354-7.509-.186A12.546,12.546,0,0,1,2608.353,4581.48Z" transform="translate(-2591.313 -4474.079)" fill="#263238"/>
              </g>
            </g>
          </g>
        </g>
        <g id="Group_17228" data-name="Group 17228" transform="translate(8.889 10.565)">
          <g id="Group_17224" data-name="Group 17224" transform="translate(0.958 0.669)">
            <g id="Group_17223" data-name="Group 17223">
              <path id="Path_8214" data-name="Path 8214" d="M2653.235,4628.955c-2.72-16.258-1.713-32.89-.338-49.317.784-9.375,1.923-19.345,7.865-26.638a28.753,28.753,0,0,1,14.86-9.228,36.8,36.8,0,0,1,17.573.131" transform="translate(-2651.52 -4542.766)" fill="#91e986"/>
            </g>
          </g>
          <g id="Group_17227" data-name="Group 17227">
            <g id="Group_17226" data-name="Group 17226">
              <g id="Group_17225" data-name="Group 17225">
                <path id="Path_8215" data-name="Path 8215" d="M2688.3,4540.483c-.039.174-1.606-.1-4.433-.342a37.639,37.639,0,0,0-11.822.742,29.087,29.087,0,0,0-14.746,8.685c-4.318,4.9-6.466,12.078-7.408,19.695-1.646,15.44-2.53,29.589-2.322,39.756.146,10.193,1.153,16.455.77,16.516-.143.024-.587-1.509-1.089-4.343a101.777,101.777,0,0,1-1.339-12.113c-.633-10.308-.014-24.485,1.653-40.121.959-7.788,3.278-15.517,8.115-20.822a29.874,29.874,0,0,1,16-8.872,33.525,33.525,0,0,1,12.3-.029C2686.833,4539.763,2688.33,4540.342,2688.3,4540.483Z" transform="translate(-2645.663 -4538.676)" fill="#263238"/>
              </g>
            </g>
          </g>
        </g>
        <g id="Group_17231" data-name="Group 17231" transform="translate(28.331 28.822)">
          <g id="Group_17230" data-name="Group 17230">
            <g id="Group_17229" data-name="Group 17229">
              <path id="Path_8216" data-name="Path 8216" d="M2776.7,4671.842c.116.246-1.573,1.188-4.376.469-2.748-.591-6.186-3.519-7.226-7.73a18.318,18.318,0,0,1,.505-10.453c.837-2.5,1.656-3.9,1.951-3.811.323.1.059,1.7-.337,4.2a22.566,22.566,0,0,0,.141,9.437,10.107,10.107,0,0,0,5.512,6.794C2775.02,4671.718,2776.634,4671.481,2776.7,4671.842Z" transform="translate(-2764.542 -4650.313)" fill="#263238"/>
            </g>
          </g>
        </g>
        <g id="Group_17233" data-name="Group 17233" transform="translate(3.66 107.401)">
          <g id="Group_17232" data-name="Group 17232">
            <path id="Path_8217" data-name="Path 8217" d="M2678.375,5152.694a3.617,3.617,0,0,0-3.055-1.636v-14.413l-9.719-5.863h-39.131l-9.719,5.863v14.413a3.616,3.616,0,0,0-3.055,1.636Z" transform="translate(-2613.695 -5130.783)" fill="#91e986"/>
          </g>
        </g>
        <g id="Group_17237" data-name="Group 17237" transform="translate(5.844 127.398)">
          <g id="Group_17236" data-name="Group 17236">
            <g id="Group_17234" data-name="Group 17234" transform="translate(45.318 0.201)">
              <path id="Path_8218" data-name="Path 8218" d="M2914.281,5255.995c2.85-.763,4.446-1.407,4.395-1.609-.1-.474-5.872.751-14.534,1.609Z" transform="translate(-2904.141 -5254.28)" fill="#263238"/>
            </g>
            <g id="Group_17235" data-name="Group 17235">
              <path id="Path_8219" data-name="Path 8219" d="M2632.075,5254.969h10.517c-9.224-.921-15.435-2.3-15.545-1.812C2626.99,5253.373,2628.827,5254.111,2632.075,5254.969Z" transform="translate(-2627.045 -5253.054)" fill="#263238"/>
            </g>
          </g>
        </g>
        <g id="Group_17240" data-name="Group 17240" transform="translate(6.714 113.225)">
          <g id="Group_17239" data-name="Group 17239">
            <g id="Group_17238" data-name="Group 17238">
              <path id="Path_8220" data-name="Path 8220" d="M2690.937,5166.7c.074.283-3.062,1.449-8.338,2.589a101.469,101.469,0,0,1-41.911-.146c-5.268-1.177-8.4-2.363-8.32-2.647.166-.719,13.053,2.564,29.277,2.56C2677.864,5169.171,2690.777,5165.979,2690.937,5166.7Z" transform="translate(-2632.367 -5166.391)" fill="#263238"/>
            </g>
          </g>
        </g>
        <g id="Group_17243" data-name="Group 17243" transform="translate(16.533 107.409)">
          <g id="Group_17242" data-name="Group 17242">
            <g id="Group_17241" data-name="Group 17241">
              <path id="Path_8221" data-name="Path 8221" d="M2731.854,5130.934c.287.512-8.28,4.553-19.717,4.511-11.44.063-20.014-3.961-19.727-4.473.221-.682,8.788,2.2,19.725,2.125C2723.068,5133.152,2731.631,5130.253,2731.854,5130.934Z" transform="translate(-2692.402 -5130.831)" fill="#263238"/>
            </g>
          </g>
        </g>
        <g id="Group_17245" data-name="Group 17245" transform="translate(36.73 7.611)">
          <g id="Group_17244" data-name="Group 17244">
            <path id="Path_8222" data-name="Path 8222" d="M2815.9,4521.779l.733,6.279,6.779-1.063s-.526-4.865-.855-6.377Z" transform="translate(-2815.896 -4520.618)" fill="#91e986"/>
          </g>
        </g>
        <g id="Group_17248" data-name="Group 17248" transform="translate(35.553 2.78)">
          <g id="Group_17247" data-name="Group 17247">
            <g id="Group_17246" data-name="Group 17246">
              <path id="Path_8223" data-name="Path 8223" d="M2812.772,4508.2c-.458.419-3.508-2.929-4-8.246-.534-5.314,1.823-9.183,2.352-8.857.63.26-.506,4.01-.016,8.632C2811.512,4504.356,2813.341,4507.823,2812.772,4508.2Z" transform="translate(-2808.698 -4491.076)" fill="#263238"/>
            </g>
          </g>
        </g>
        <g id="Group_17251" data-name="Group 17251" transform="translate(41.704 2.173)">
          <g id="Group_17250" data-name="Group 17250">
            <g id="Group_17249" data-name="Group 17249">
              <path id="Path_8224" data-name="Path 8224" d="M2849,4502.261c-.671.009-1.17-3.337-1.812-7.348-.627-4.019-1.236-7.321-.6-7.538.589-.212,2.253,2.912,2.92,7.167S2849.62,4502.261,2849,4502.261Z" transform="translate(-2846.314 -4487.365)" fill="#263238"/>
            </g>
          </g>
        </g>
      </g>
    </g>
  </g>
</svg>
