<svg id="Component_48_1" data-name="Component 48 – 1" xmlns="http://www.w3.org/2000/svg" width="41.228" height="41.228" viewBox="0 0 41.228 41.228">
  <g id="Group_17885" data-name="Group 17885" transform="translate(-346.868 -559)">
    <g id="Group_17875" data-name="Group 17875" transform="translate(273 559)">
      <circle id="Ellipse_176" data-name="Ellipse 176" cx="20.614" cy="20.614" r="20.614" transform="translate(73.868)" fill="#ecf2f6"/>
    </g>
  </g>
  <path id="Path_8808" data-name="Path 8808" d="M644.44-598.712a1.975,1.975,0,0,1,.784.564q3.812,3.822,7.63,7.637a1.008,1.008,0,0,1,.316,1.094,1.174,1.174,0,0,1-.279.437q-3.951,3.968-7.913,7.925a.98.98,0,0,1-1.466.007c-.21-.2-.422-.406-.611-.629a.959.959,0,0,1,.019-1.269c.049-.058.1-.112.157-.165q3.219-3.223,6.44-6.445a1.45,1.45,0,0,0,.2-.213.78.78,0,0,1-.183-.1q-3.253-3.251-6.5-6.506a.968.968,0,0,1-.152-1.342,2.97,2.97,0,0,1,1.173-.992Z" transform="translate(-625.594 609.768)" fill="#4f5359"/>
</svg>
