<svg xmlns="http://www.w3.org/2000/svg" width="41.228" height="41.228" viewBox="0 0 41.228 41.228">
  <g id="Group_17921" data-name="Group 17921" transform="translate(-805.022 -770.532)">
    <circle id="Ellipse_178" data-name="Ellipse 178" cx="20.614" cy="20.614" r="20.614" transform="translate(805.022 770.532)" fill="#f50043"/>
    <path id="Icon_awesome-fire-alt" data-name="Icon awesome-fire-alt" d="M12.662,2a23.378,23.378,0,0,0-2.2,2.347A30.364,30.364,0,0,0,6.575,0C2.729,3.568,0,8.217,0,11.02a8.894,8.894,0,0,0,8.766,9.017,8.894,8.894,0,0,0,8.766-9.017c0-2.085-2.034-6.384-4.87-9.017ZM11.9,15.335a5.259,5.259,0,0,1-3.022.945,4.819,4.819,0,0,1-5.121-4.9c0-1.511.951-2.842,2.849-5.117.271.312,3.868,4.905,3.868,4.905l2.294-2.617c.162.268.31.53.441.782A4.668,4.668,0,0,1,11.9,15.335Z" transform="translate(816.545 780.422)" fill="#fff"/>
  </g>
</svg>
