<svg xmlns="http://www.w3.org/2000/svg" width="41.228" height="41.228" viewBox="0 0 41.228 41.228">
  <g id="Group_17922" data-name="Group 17922" transform="translate(-877.144 -770.659)">
    <g id="Group_17884" data-name="Group 17884" transform="translate(604.144 211.659)">
      <circle id="Ellipse_175" data-name="Ellipse 175" cx="20.614" cy="20.614" r="20.614" transform="translate(273 559)" fill="#4dc47d"/>
      <g id="Group_17878" data-name="Group 17878" transform="translate(282.552 568.04)">
        <g id="Group_17877" data-name="Group 17877">
          <path id="Path_8777" data-name="Path 8777" d="M-2669.64,4722.9h.306c1.813,0,3.628,0,5.441,0a2.147,2.147,0,0,1,2.22,2.221,6.309,6.309,0,0,1-.621,2.925c-1,2.168-1.951,4.362-2.921,6.545a2.718,2.718,0,0,1-2.668,1.735c-2.143,0-4.284,0-6.427,0a3.45,3.45,0,0,1-2.576-1.075c-.35-.358-.7-.715-1.059-1.065a.759.759,0,0,1-.242-.576c0-2.669,0-5.339.012-8.009a.751.751,0,0,1,.183-.51,36.572,36.572,0,0,0,4.93-6.12c.374-.519.753-1.034,1.112-1.561a1.9,1.9,0,0,1,2.029-.937,2.083,2.083,0,0,1,1.629,1.6,2.474,2.474,0,0,1-.109,1.7c-.384.952-.763,1.9-1.144,2.858C-2669.577,4722.711-2669.6,4722.791-2669.64,4722.9Z" transform="translate(2683.795 -4716.44)" fill="#fff"/>
          <path id="Path_8778" data-name="Path 8778" d="M-2678.13,4727.408c0,1.218.009,2.436,0,3.655a1.9,1.9,0,0,1-1.3,1.787,1.918,1.918,0,0,1-2.109-.592,1.757,1.757,0,0,1-.438-1.139c0-2.488-.015-4.978.006-7.466a1.88,1.88,0,0,1,1.94-1.822,1.9,1.9,0,0,1,1.9,1.844c.018,1.243,0,2.488,0,3.733Z" transform="translate(2681.985 -4713.87)" fill="#fff"/>
        </g>
      </g>
    </g>
  </g>
</svg>
