<svg xmlns="http://www.w3.org/2000/svg" width="41.228" height="41.228" viewBox="0 0 41.228 41.228">
  <g id="Group_17923" data-name="Group 17923" transform="translate(-880.368 -370.365)">
    <g id="Group_17886" data-name="Group 17886" transform="translate(880.368 370.365)">
      <g id="Group_17876" data-name="Group 17876" transform="translate(0 0)">
        <circle id="Ellipse_177" data-name="Ellipse 177" cx="20.614" cy="20.614" r="20.614" fill="#ecf2f6"/>
      </g>
      <path id="Path_8781" data-name="Path 8781" d="M-2578.192,4739.343a14.674,14.674,0,0,1-1.8-.013,2.11,2.11,0,0,1-1.833-2.146c-.006-2.007,0-4.013,0-6.021q0-5.678,0-11.358a2.171,2.171,0,0,1,1.631-2.166,1.606,1.606,0,0,1,.4-.064c1.49-.006,2.981,0,4.508,0v.264q0,2.716,0,5.43a1.461,1.461,0,0,0,1.574,1.57h5.588a1.461,1.461,0,0,0,1.56-1.564q0-2.714,0-5.428v-.265c.542,0,1.069-.016,1.593.01a.721.721,0,0,1,.406.224c1.439,1.43,2.878,2.862,4.3,4.309a.88.88,0,0,1,.232.563q.019,7.269.006,14.538a2.155,2.155,0,0,1-2.138,2.149c-.49.009-.981,0-1.491,0v-6.4a2.185,2.185,0,0,0-2.312-2.323h-9.926a2.187,2.187,0,0,0-2.3,2.294q0,3.067,0,6.133Z" transform="translate(2591.539 -4707.861)" fill="#4f5359"/>
    </g>
    <path id="Path_8782" data-name="Path 8782" d="M-2566.75,4734.678h-11.632v-6.406c0-.585.273-.856.864-.856h9.857c.65,0,.91.258.91.9q0,3.034,0,6.065Z" transform="translate(3473.549 -4332.806)" fill="#4f5359"/>
    <path id="Path_8783" data-name="Path 8783" d="M-2576.407,4723.365v-5.788h5.789v5.788Z" transform="translate(3474.388 -4337.578)" fill="#4f5359"/>
  </g>
</svg>
