<svg id="Group_15392" data-name="Group 15392" xmlns="http://www.w3.org/2000/svg" width="48.199" height="38.168" viewBox="0 0 48.199 38.168">
  <g id="Group_15382" data-name="Group 15382" transform="translate(11.403 8.223)">
    <g id="Group_15380" data-name="Group 15380" transform="translate(0 6.006)">
      <g id="Group_15376" data-name="Group 15376" transform="translate(0 0)">
        <g id="Group_15374" data-name="Group 15374">
          <path id="Path_6720" data-name="Path 6720" d="M-501.6,3453.667a6.334,6.334,0,0,1-.907-.067,6.37,6.37,0,0,1-3.447-1.6c-.417-.417-1.118-1.415-2.387-5.249-.674-2.037-1.193-3.938-1.2-3.957a.9.9,0,0,1,.232-.873.9.9,0,0,1,.874-.232c.019.005,1.92.525,3.957,1.2,3.834,1.269,4.832,1.97,5.249,2.387h0a6.372,6.372,0,0,1,1.6,3.448,4.4,4.4,0,0,1-1.025,3.85A4.056,4.056,0,0,1-501.6,3453.667Zm-5.763-9.8c.926,3.128,2.069,6.247,2.682,6.86a4.564,4.564,0,0,0,2.432,1.088,2.722,2.722,0,0,0,2.318-.516,2.721,2.721,0,0,0,.516-2.318,4.565,4.565,0,0,0-1.088-2.432C-501.112,3445.937-504.231,3444.8-507.359,3443.869Z" transform="translate(509.568 -3441.659)" fill="#1c2533"/>
        </g>
        <g id="Group_15375" data-name="Group 15375" transform="translate(5.465 5.465)">
          <path id="Path_6721" data-name="Path 6721" d="M-488.266,3463.863a.9.9,0,0,1-.637-.264l-3.913-3.912a.9.9,0,0,1,0-1.274.9.9,0,0,1,1.274,0l3.913,3.913a.9.9,0,0,1,0,1.273A.9.9,0,0,1-488.266,3463.863Z" transform="translate(493.08 -3458.149)" fill="#1c2533"/>
        </g>
      </g>
      <g id="Group_15379" data-name="Group 15379" transform="translate(13.386)">
        <g id="Group_15377" data-name="Group 15377">
          <path id="Path_6722" data-name="Path 6722" d="M-465.142,3453.667a4.057,4.057,0,0,1-2.943-1.093,4.4,4.4,0,0,1-1.025-3.85,6.372,6.372,0,0,1,1.6-3.448c.417-.417,1.415-1.118,5.249-2.387,2.037-.674,3.938-1.194,3.957-1.2a.9.9,0,0,1,.874.233.9.9,0,0,1,.232.873c0,.019-.524,1.92-1.2,3.957-1.269,3.834-1.97,4.832-2.387,5.249a6.372,6.372,0,0,1-3.447,1.6A6.332,6.332,0,0,1-465.142,3453.667Zm5.763-9.8c-3.128.926-6.247,2.068-6.86,2.682a4.567,4.567,0,0,0-1.088,2.432,2.721,2.721,0,0,0,.516,2.318,2.723,2.723,0,0,0,2.318.517,4.564,4.564,0,0,0,2.432-1.089C-461.447,3450.115-460.3,3447-459.379,3443.869Z" transform="translate(469.177 -3441.659)" fill="#1c2533"/>
        </g>
        <g id="Group_15378" data-name="Group 15378" transform="translate(0.829 5.465)">
          <path id="Path_6723" data-name="Path 6723" d="M-465.775,3463.863a.9.9,0,0,1-.637-.264.9.9,0,0,1,0-1.273l3.913-3.913a.9.9,0,0,1,1.274,0,.9.9,0,0,1,0,1.274l-3.913,3.912A.9.9,0,0,1-465.775,3463.863Z" transform="translate(466.676 -3458.149)" fill="#1c2533"/>
        </g>
      </g>
    </g>
    <g id="Group_15381" data-name="Group 15381" transform="translate(8.552)">
      <path id="Path_6724" data-name="Path 6724" d="M-479.619,3431.827a4.149,4.149,0,0,1-4.145-4.145,4.15,4.15,0,0,1,4.145-4.145,4.15,4.15,0,0,1,4.145,4.145A4.149,4.149,0,0,1-479.619,3431.827Zm0-6.489a2.347,2.347,0,0,0-2.344,2.344,2.346,2.346,0,0,0,2.344,2.344,2.346,2.346,0,0,0,2.344-2.344A2.347,2.347,0,0,0-479.619,3425.338Z" transform="translate(483.764 -3423.537)" fill="#1c2533"/>
    </g>
  </g>
  <g id="Group_15390" data-name="Group 15390" transform="translate(0 32.154)">
    <g id="Group_15383" data-name="Group 15383" transform="translate(0 0)">
      <path id="Path_6725" data-name="Path 6725" d="M-540.063,3495.744h.975v5.955h-.975l-2.935-4.44v4.44h-.976v-5.955H-543l2.935,4.432Z" transform="translate(543.973 -3495.744)" fill="#1c2533"/>
    </g>
    <g id="Group_15384" data-name="Group 15384" transform="translate(15.247 0.008)">
      <path id="Path_6726" data-name="Path 6726" d="M-497.969,3496.531v-.762h4.15v.762H-495.4v5.185h-.975v-5.185Z" transform="translate(497.969 -3495.769)" fill="#1c2533"/>
    </g>
    <g id="Group_15385" data-name="Group 15385" transform="translate(22.083 0.008)">
      <path id="Path_6727" data-name="Path 6727" d="M-477.342,3499.542v-3.773h.975v3.773a1.35,1.35,0,0,0,.355,1.018,1.369,1.369,0,0,0,.992.343,1.371,1.371,0,0,0,.993-.343,1.351,1.351,0,0,0,.355-1.018v-3.773h.975v3.773a2.063,2.063,0,0,1-.671,1.656,2.472,2.472,0,0,1-1.669.578,2.414,2.414,0,0,1-1.651-.573A2.089,2.089,0,0,1-477.342,3499.542Z" transform="translate(477.342 -3495.769)" fill="#1c2533"/>
    </g>
    <g id="Group_15386" data-name="Group 15386" transform="translate(44.499 0.008)">
      <path id="Path_6728" data-name="Path 6728" d="M-409.7,3495.769h.975v5.2H-406v.744h-3.7Z" transform="translate(409.705 -3495.769)" fill="#1c2533"/>
    </g>
    <g id="Group_15387" data-name="Group 15387" transform="translate(7.529)">
      <path id="Path_6729" data-name="Path 6729" d="M-517.995,3495.744h-1.129l-2.131,5.955h1.018l.34-.964.354-1.012h0l.984-2.8.8,2.3h0l.528,1.512.339.964h1.027Z" transform="translate(521.255 -3495.744)" fill="#1c2533"/>
    </g>
    <g id="Group_15388" data-name="Group 15388" transform="translate(36.474)">
      <path id="Path_6730" data-name="Path 6730" d="M-430.66,3495.744h-1.129l-2.131,5.955h1.018l.34-.964.354-1.012h0l.984-2.8.8,2.3h0l.528,1.512.34.964h1.027Z" transform="translate(433.92 -3495.744)" fill="#1c2533"/>
    </g>
    <g id="Group_15389" data-name="Group 15389" transform="translate(29.706 0.008)">
      <path id="Path_6731" data-name="Path 6731" d="M-451.662,3499.243a1.752,1.752,0,0,0,1.117-.625,1.737,1.737,0,0,0,.364-1.078,1.645,1.645,0,0,0-.547-1.27,2.226,2.226,0,0,0-1.557-.5h-2.053v5.947h.975v-5.185h1.078a1.152,1.152,0,0,1,.83.265.983.983,0,0,1,.274.74.983.983,0,0,1-.274.74,1.152,1.152,0,0,1-.83.265h-.479v.762l1.489,2.413h1.189Z" transform="translate(454.34 -3495.769)" fill="#1c2533"/>
    </g>
  </g>
  <g id="Group_15391" data-name="Group 15391" transform="translate(8.007)">
    <path id="Path_6732" data-name="Path 6732" d="M-518.534,3414.993a.962.962,0,0,1,.746-.214,1.055,1.055,0,0,1,.7.431,1.11,1.11,0,0,1,.258.794.937.937,0,0,1-.377.684.882.882,0,0,1-.474.194.856.856,0,0,1-.467-.086l.281.359-.21.164-1.729-2.217.21-.164.731.938a.847.847,0,0,1,.031-.473A.891.891,0,0,1-518.534,3414.993Zm1.149,1.542a.721.721,0,0,0,.282-.525.878.878,0,0,0-.205-.631.818.818,0,0,0-.55-.339.742.742,0,0,0-.567.158.727.727,0,0,0-.286.52.85.85,0,0,0,.2.622.852.852,0,0,0,.554.346A.727.727,0,0,0-517.385,3416.534Z" transform="translate(519.812 -3409.452)" fill="#1c2533"/>
    <path id="Path_6733" data-name="Path 6733" d="M-507.719,3411.475a.944.944,0,0,1-.773.107,1.1,1.1,0,0,1-.633-.535,1.078,1.078,0,0,1-.147-.816.969.969,0,0,1,.485-.623.946.946,0,0,1,.759-.121.954.954,0,0,1,.576.46,1.338,1.338,0,0,1,.09.185l-1.477.86a.816.816,0,0,0,.47.377.682.682,0,0,0,.543-.079.728.728,0,0,0,.3-.3.571.571,0,0,0,.057-.367l.246-.144a.974.974,0,0,1-.068.547A.966.966,0,0,1-507.719,3411.475Zm.029-1.393a.727.727,0,0,0-.453-.367.7.7,0,0,0-.545.083.7.7,0,0,0-.34.428.8.8,0,0,0,.084.586Z" transform="translate(512.784 -3405.898)" fill="#1c2533"/>
    <path id="Path_6734" data-name="Path 6734" d="M-500.211,3406.786a1.107,1.107,0,0,1-.563-.616,1.052,1.052,0,0,1-.031-.817.961.961,0,0,1,.554-.543.894.894,0,0,1,.509-.062.85.85,0,0,1,.426.206l-.173-.418.246-.1.791,1.917-.246.1-.174-.421a.863.863,0,0,1-.156.449.883.883,0,0,1-.4.316A.935.935,0,0,1-500.211,3406.786Zm1.144-.639a.845.845,0,0,0-.026-.653.846.846,0,0,0-.443-.481.73.73,0,0,0-.593-.008.741.741,0,0,0-.417.415.818.818,0,0,0,.024.646.875.875,0,0,0,.447.49.717.717,0,0,0,.594.015A.726.726,0,0,0-499.067,3406.147Z" transform="translate(507.15 -3402.542)" fill="#1c2533"/>
    <path id="Path_6735" data-name="Path 6735" d="M-490.18,3401.731l.258-.067.523,2.007-.257.067-.086-.328a.725.725,0,0,1-.57.538.792.792,0,0,1-.616-.073.866.866,0,0,1-.388-.572l-.311-1.195.253-.066.3,1.147a.744.744,0,0,0,.291.462.587.587,0,0,0,.483.059.587.587,0,0,0,.392-.287.741.741,0,0,0,.029-.545Z" transform="translate(500.969 -3400.69)" fill="#1c2533"/>
    <path id="Path_6736" data-name="Path 6736" d="M-481.532,3399.79l-.568.083.2,1.361a.31.31,0,0,0,.092.207.3.3,0,0,0,.223.031l.293-.043.03.207-.349.051a.432.432,0,0,1-.552-.415l-.2-1.361-.286.042-.03-.207.286-.042-.075-.515.263-.039.075.515.568-.083Z" transform="translate(494.986 -3399.01)" fill="#1c2533"/>
    <path id="Path_6737" data-name="Path 6737" d="M-475.277,3401.948l-.909-2.008.285-.012.757,1.733.61-1.79.269-.011-1.1,3.088-.269.011Z" transform="translate(490.645 -3399.484)" fill="#1c2533"/>
    <path id="Path_6738" data-name="Path 6738" d="M-460.431,3401.392a.746.746,0,0,1-.527.089.721.721,0,0,1-.477-.292.723.723,0,0,1-.123-.572.722.722,0,0,1,.3-.5.742.742,0,0,1,.563-.117.544.544,0,0,1,.063.014l-.079-.148a1.022,1.022,0,0,1-.17-.637.582.582,0,0,1,.248-.4.657.657,0,0,1,.5-.093.655.655,0,0,1,.443.252.561.561,0,0,1,.107.438.634.634,0,0,1-.045.151l-.273-.046a.643.643,0,0,0,.045-.15.37.37,0,0,0-.06-.282.368.368,0,0,0-.252-.152.367.367,0,0,0-.288.061.391.391,0,0,0-.152.265.787.787,0,0,0,.125.468l1.048,1.964-.33-.056-.348-.656A.744.744,0,0,1-460.431,3401.392Zm-.792-.332a.451.451,0,0,0,.317.214.464.464,0,0,0,.373-.1.545.545,0,0,0,.208-.356.535.535,0,0,0-.081-.4.469.469,0,0,0-.321-.21.457.457,0,0,0-.368.094.539.539,0,0,0-.2.353A.552.552,0,0,0-461.223,3401.06Z" transform="translate(480.874 -3398.726)" fill="#1c2533"/>
    <path id="Path_6739" data-name="Path 6739" d="M-446.006,3405.207a.546.546,0,0,1,.358-.326.822.822,0,0,1,.57.036.721.721,0,0,1,.415.35.685.685,0,0,1,.013.518l-.255-.1a.454.454,0,0,0,0-.339.454.454,0,0,0-.269-.24.5.5,0,0,0-.355-.026.325.325,0,0,0-.209.193.313.313,0,0,0,0,.255.47.47,0,0,0,.17.194q.117.079.252.178t.246.194a.47.47,0,0,1,.151.244.521.521,0,0,1-.032.328.5.5,0,0,1-.346.3.877.877,0,0,1-.569-.054.781.781,0,0,1-.435-.361.661.661,0,0,1-.026-.521l.254.1a.437.437,0,0,0,.011.344.5.5,0,0,0,.285.244.564.564,0,0,0,.363.04.3.3,0,0,0,.208-.185.314.314,0,0,0,0-.256.48.48,0,0,0-.169-.2c-.078-.054-.162-.114-.252-.18s-.172-.129-.247-.192a.471.471,0,0,1-.153-.237A.467.467,0,0,1-446.006,3405.207Z" transform="translate(470.714 -3402.817)" fill="#1c2533"/>
    <path id="Path_6740" data-name="Path 6740" d="M-438.419,3408.343a.962.962,0,0,1,.488.6,1.053,1.053,0,0,1-.125.809,1.111,1.111,0,0,1-.63.547.938.938,0,0,1-.777-.079.884.884,0,0,1-.365-.361.857.857,0,0,1-.1-.464l-.7,1.256-.232-.129,1.482-2.671.232.129-.219.4a.849.849,0,0,1,.447-.156A.893.893,0,0,1-438.419,3408.343Zm-.969,1.661a.722.722,0,0,0,.594.053.873.873,0,0,0,.5-.436.818.818,0,0,0,.1-.638.742.742,0,0,0-.368-.46.728.728,0,0,0-.59-.061.85.85,0,0,0-.494.428.848.848,0,0,0-.1.645A.726.726,0,0,0-439.389,3410Z" transform="translate(467.026 -3404.83)" fill="#1c2533"/>
    <path id="Path_6741" data-name="Path 6741" d="M-430.311,3415.318a1.108,1.108,0,0,1,.245-.8,1.052,1.052,0,0,1,.688-.442.964.964,0,0,1,.75.2.9.9,0,0,1,.312.407.849.849,0,0,1,.039.472l.272-.361.212.16-1.249,1.656-.212-.16.274-.364a.855.855,0,0,1-.466.094.885.885,0,0,1-.478-.187A.935.935,0,0,1-430.311,3415.318Zm1.131.661a.844.844,0,0,0,.55-.354.844.844,0,0,0,.189-.626.733.733,0,0,0-.294-.515.738.738,0,0,0-.569-.148.817.817,0,0,0-.544.349.873.873,0,0,0-.195.633.719.719,0,0,0,.288.52A.728.728,0,0,0-429.18,3415.979Z" transform="translate(459.977 -3408.982)" fill="#1c2533"/>
  </g>
</svg>
