<svg xmlns="http://www.w3.org/2000/svg" width="21.597" height="21.597" viewBox="0 0 21.597 21.597">
  <path id="Icon_awesome-print" data-name="Icon awesome-print" d="M18.9,8.1V3.258a1.351,1.351,0,0,0-.4-.955L16.593.4a1.35,1.35,0,0,0-.955-.4H4.049A1.35,1.35,0,0,0,2.7,1.35V8.1A2.7,2.7,0,0,0,0,10.8v4.724a.675.675,0,0,0,.675.675H2.7v4.049a1.35,1.35,0,0,0,1.35,1.35h13.5a1.35,1.35,0,0,0,1.35-1.35V16.2h2.025a.675.675,0,0,0,.675-.675V10.8A2.7,2.7,0,0,0,18.9,8.1ZM16.2,18.9H5.4V14.848H16.2Zm0-9.449H5.4V2.7h8.1V4.724a.675.675,0,0,0,.675.675H16.2Zm2.025,3.037a1.012,1.012,0,1,1,1.012-1.012A1.013,1.013,0,0,1,18.222,12.486Z" fill="#4dc47d"/>
</svg>
