<svg xmlns="http://www.w3.org/2000/svg" width="24.191" height="19.353" viewBox="0 0 24.191 19.353">
  <path id="Icon_awesome-user-check" data-name="Icon awesome-user-check" d="M8.467,9.676A4.838,4.838,0,1,0,3.629,4.838,4.838,4.838,0,0,0,8.467,9.676Zm3.387,1.21h-.631a6.58,6.58,0,0,1-5.511,0H5.08A5.081,5.081,0,0,0,0,15.966v1.572a1.815,1.815,0,0,0,1.814,1.814h13.3a1.815,1.815,0,0,0,1.814-1.814V15.966A5.081,5.081,0,0,0,11.853,10.886ZM24.062,6.033,23.011,4.97a.448.448,0,0,0-.635,0L18.415,8.9,16.7,7.166a.448.448,0,0,0-.635,0L15,8.217a.448.448,0,0,0,0,.635l3.088,3.111a.448.448,0,0,0,.635,0l5.341-5.3a.452.452,0,0,0,0-.635Z" fill="#4dc47d"/>
</svg>
