<svg xmlns="http://www.w3.org/2000/svg" width="19.115" height="16.391" viewBox="0 0 19.115 16.391">
  <g id="Group_17043" data-name="Group 17043" transform="translate(2659.2 -5283.915)">
    <rect id="Rectangle_11234" data-name="Rectangle 11234" width="16.779" height="13.766" transform="translate(-2658.031 5285.227)" fill="#fff"/>
    <rect id="Rectangle_11235" data-name="Rectangle 11235" width="2.681" height="2.681" transform="translate(-2657.685 5296.132)" fill="#b5b9d0"/>
    <rect id="Rectangle_11236" data-name="Rectangle 11236" width="2.681" height="2.681" transform="translate(-2657.685 5290.771)" fill="#b5b9d0"/>
    <rect id="Rectangle_11237" data-name="Rectangle 11237" width="2.681" height="2.681" transform="translate(-2655.004 5293.451)" fill="#b5b9d0"/>
    <rect id="Rectangle_11238" data-name="Rectangle 11238" width="2.681" height="2.681" transform="translate(-2655.004 5288.089)" fill="#b5b9d0"/>
    <rect id="Rectangle_11239" data-name="Rectangle 11239" width="2.681" height="2.681" transform="translate(-2657.685 5285.408)" fill="#b5b9d0"/>
    <rect id="Rectangle_11240" data-name="Rectangle 11240" width="2.681" height="2.681" transform="translate(-2652.323 5296.132)" fill="#b5b9d0"/>
    <rect id="Rectangle_11242" data-name="Rectangle 11242" width="2.681" height="2.681" transform="translate(-2652.323 5290.771)" fill="#b5b9d0"/>
    <rect id="Rectangle_11243" data-name="Rectangle 11243" width="2.681" height="2.681" transform="translate(-2649.642 5293.451)" fill="#b5b9d0"/>
    <rect id="Rectangle_11244" data-name="Rectangle 11244" width="2.681" height="2.681" transform="translate(-2649.642 5288.089)" fill="#b5b9d0"/>
    <rect id="Rectangle_11245" data-name="Rectangle 11245" width="2.681" height="2.681" transform="translate(-2652.323 5285.408)" fill="#b5b9d0"/>
    <rect id="Rectangle_11246" data-name="Rectangle 11246" width="2.681" height="2.681" transform="translate(-2646.961 5296.132)" fill="#b5b9d0"/>
    <rect id="Rectangle_11247" data-name="Rectangle 11247" width="2.681" height="2.681" transform="translate(-2646.961 5290.771)" fill="#b5b9d0"/>
    <rect id="Rectangle_11248" data-name="Rectangle 11248" width="2.681" height="2.681" transform="translate(-2644.28 5293.451)" fill="#b5b9d0"/>
    <rect id="Rectangle_11249" data-name="Rectangle 11249" width="2.681" height="2.681" transform="translate(-2644.28 5288.089)" fill="#b5b9d0"/>
    <rect id="Rectangle_11250" data-name="Rectangle 11250" width="2.681" height="2.681" transform="translate(-2646.961 5285.408)" fill="#b5b9d0"/>
    <path id="Path_8078" data-name="Path 8078" d="M-2595.4,5345.675v16.391h-19.115v-16.391Zm-1.538,14.853v-13.315h-16.04v13.315Zm0,0" transform="translate(-44.689 -61.76)" fill="#b5b9d0"/>
  </g>
</svg>
