<svg id="Component_50_1" data-name="Component 50 – 1" xmlns="http://www.w3.org/2000/svg" width="41.228" height="41.228" viewBox="0 0 41.228 41.228">
  <g id="Group_17886" data-name="Group 17886">
    <g id="Group_17876" data-name="Group 17876" transform="translate(0 0)">
      <circle id="Ellipse_177" data-name="Ellipse 177" cx="20.614" cy="20.614" r="20.614" fill="#ecf2f6"/>
    </g>
  </g>
  <path id="Icon_awesome-eraser" data-name="Icon awesome-eraser" d="M20.048,11.991a1.933,1.933,0,0,0,0-2.733L13.606,2.816a1.933,1.933,0,0,0-2.733,0L.566,13.123a1.933,1.933,0,0,0,0,2.733l3.865,3.865a1.933,1.933,0,0,0,1.367.566H20.131a.483.483,0,0,0,.483-.483v-1.61a.483.483,0,0,0-.483-.483h-5.8l5.719-5.719ZM7.864,9.469,13.394,15l-2.71,2.71H6.064L2.844,14.489l5.02-5.02Z" transform="translate(10.307 9.346)" fill="#4f5359"/>
</svg>
