<svg id="Group_15416" data-name="Group 15416" xmlns="http://www.w3.org/2000/svg" width="70.815" height="56.24" viewBox="0 0 70.815 56.24">
  <g id="Group_15410" data-name="Group 15410" transform="translate(8.184)">
    <path id="Path_6780" data-name="Path 6780" d="M-279.078,3392.5a26.9,26.9,0,0,1,6.992-12.048,26.88,26.88,0,0,1,19.133-7.925,26.88,26.88,0,0,1,19.133,7.925,26.9,26.9,0,0,1,6.992,12.048h1.1a27.948,27.948,0,0,0-7.339-12.8,27.937,27.937,0,0,0-19.884-8.236,27.936,27.936,0,0,0-19.884,8.236,27.949,27.949,0,0,0-7.339,12.8Z" transform="translate(280.176 -3371.462)" fill="#1c2533"/>
    <path id="Path_6781" data-name="Path 6781" d="M-226.828,3477.688a26.9,26.9,0,0,1-6.992,12.047,26.88,26.88,0,0,1-19.133,7.925,26.881,26.881,0,0,1-19.133-7.925,26.9,26.9,0,0,1-6.992-12.047h-1.1a27.948,27.948,0,0,0,7.339,12.8,27.936,27.936,0,0,0,19.884,8.236,27.937,27.937,0,0,0,19.884-8.236,27.947,27.947,0,0,0,7.339-12.8Z" transform="translate(280.176 -3442.482)" fill="#1c2533"/>
  </g>
  <g id="Group_15412" data-name="Group 15412" transform="translate(0 2.125)">
    <g id="Group_15411" data-name="Group 15411" transform="translate(10.385)">
      <path id="Path_6782" data-name="Path 6782" d="M-225.706,3477.688a23.753,23.753,0,0,1-5.927,9.794,23.717,23.717,0,0,1-16.88,6.992,23.717,23.717,0,0,1-16.88-6.992,23.753,23.753,0,0,1-5.927-9.794h-2.215a25.85,25.85,0,0,0,6.641,11.3,25.826,25.826,0,0,0,18.382,7.614,25.825,25.825,0,0,0,18.381-7.614,25.847,25.847,0,0,0,6.641-11.3Z" transform="translate(273.535 -3444.607)" fill="#1c2533"/>
      <path id="Path_6783" data-name="Path 6783" d="M-271.32,3396.783a23.75,23.75,0,0,1,5.927-9.794,23.715,23.715,0,0,1,16.88-6.992,23.715,23.715,0,0,1,16.88,6.992,23.75,23.75,0,0,1,5.927,9.794h2.215a25.857,25.857,0,0,0-6.641-11.3,25.825,25.825,0,0,0-18.381-7.614,25.826,25.826,0,0,0-18.382,7.614,25.857,25.857,0,0,0-6.641,11.3Z" transform="translate(273.535 -3377.873)" fill="#1c2533"/>
    </g>
    <path id="Path_6784" data-name="Path 6784" d="M-241.672,3448.561h-55.582a7.625,7.625,0,0,1-7.616-7.617,7.625,7.625,0,0,1,7.616-7.616h55.582a7.625,7.625,0,0,1,7.616,7.616A7.625,7.625,0,0,1-241.672,3448.561Zm-55.582-14.171a6.562,6.562,0,0,0-6.555,6.554,6.562,6.562,0,0,0,6.555,6.555h55.582a6.562,6.562,0,0,0,6.555-6.555,6.562,6.562,0,0,0-6.555-6.554Z" transform="translate(304.87 -3414.949)" fill="#1c2533"/>
  </g>
  <g id="Group_15413" data-name="Group 15413" transform="translate(30.29 7.499)">
    <path id="Path_6785" data-name="Path 6785" d="M-208.358,3394.088l1.208,3.718h3.909l-3.162,2.3,1.208,3.718-3.162-2.3-3.162,2.3,1.208-3.718-3.162-2.3h3.909Z" transform="translate(213.474 -3394.088)" fill="#1c2533"/>
  </g>
  <g id="Group_15414" data-name="Group 15414" transform="translate(18.264 38.418)">
    <path id="Path_6786" data-name="Path 6786" d="M-248.695,3491.491l.26-.449-.6-.8-.505.122-.223-.3,2.18-.487.18.24-1.073,1.96Zm-.035-1.318.45.6.472-.823Z" transform="translate(249.761 -3488.855)" fill="#1c2533"/>
    <path id="Path_6787" data-name="Path 6787" d="M-243.128,3495.457a.858.858,0,0,1,.3-.6l.86-.854.256.257-.874.869a.575.575,0,0,0-.2.368.47.47,0,0,0,.162.356.464.464,0,0,0,.352.16.574.574,0,0,0,.37-.192l.874-.868.256.258-.86.854a.855.855,0,0,1-.6.291.855.855,0,0,1-.6-.3A.863.863,0,0,1-243.128,3495.457Z" transform="translate(245.326 -3491.809)" fill="#1c2533"/>
    <path id="Path_6788" data-name="Path 6788" d="M-236.6,3501.083l1.062-1.369-.524-.407.186-.239,1.344,1.043-.186.239-.526-.408-1.062,1.369Z" transform="translate(240.96 -3495.195)" fill="#1c2533"/>
    <path id="Path_6789" data-name="Path 6789" d="M-229.411,3504.149l.316.184-1.025,1.758-.316-.184.445-.763-.9-.526-.445.763-.314-.183,1.025-1.758.314.183-.429.736.9.526Z" transform="translate(237.653 -3498.118)" fill="#1c2533"/>
    <path id="Path_6790" data-name="Path 6790" d="M-223.834,3509.193l.787-1.877,1.255.526-.113.269-.923-.387-.218.519.867.364-.113.269-.867-.364-.231.551.923.387-.113.269Z" transform="translate(232.427 -3500.709)" fill="#1c2533"/>
    <path id="Path_6791" data-name="Path 6791" d="M-215.133,3510.085l.333.091-.537,1.963-.264-.072-.682-1.666-.376,1.376-.331-.091.537-1.963.265.072.68,1.662Z" transform="translate(227.852 -3502.319)" fill="#1c2533"/>
    <path id="Path_6792" data-name="Path 6792" d="M-207.943,3513.63l.234-1.716-.657-.09.041-.3,1.685.23-.041.3-.66-.09-.234,1.716Z" transform="translate(222.085 -3503.522)" fill="#1c2533"/>
    <path id="Path_6793" data-name="Path 6793" d="M-201.14,3514.355l.082-2.033.369.015-.082,2.033Z" transform="translate(217.254 -3504.056)" fill="#1c2533"/>
    <path id="Path_6794" data-name="Path 6794" d="M-196.483,3514.166a.86.86,0,0,1-.365-.343,1.2,1.2,0,0,1-.152-.545,1.2,1.2,0,0,1,.087-.556.847.847,0,0,1,.322-.382,1.043,1.043,0,0,1,.516-.158,1.159,1.159,0,0,1,.39.042.83.83,0,0,1,.312.161l-.1.275a.967.967,0,0,0-.282-.145.83.83,0,0,0-.293-.033.565.565,0,0,0-.444.218.83.83,0,0,0-.129.558.848.848,0,0,0,.192.543.561.561,0,0,0,.468.166.818.818,0,0,0,.287-.067.959.959,0,0,0,.263-.177l.136.262a.837.837,0,0,1-.291.2,1.148,1.148,0,0,1-.383.086A1.039,1.039,0,0,1-196.483,3514.166Z" transform="translate(214.488 -3503.96)" fill="#1c2533"/>
    <path id="Path_6795" data-name="Path 6795" d="M-183.685,3512.107l-.376.1-.426-.587a.229.229,0,0,0-.136-.1.406.406,0,0,0-.189.012l-.357.1.218.817-.353.094-.525-1.966.842-.225a.8.8,0,0,1,.547.011.536.536,0,0,1,.286.373.555.555,0,0,1-.015.361.581.581,0,0,1-.242.273.355.355,0,0,1,.316.176Zm-1.118-.874a.5.5,0,0,0,.278-.154.277.277,0,0,0,.036-.252.272.272,0,0,0-.155-.2.512.512,0,0,0-.319.007l-.444.119.159.6Z" transform="translate(207.017 -3502.708)" fill="#1c2533"/>
    <path id="Path_6796" data-name="Path 6796" d="M-177.892,3509.838l-.768-1.885,1.26-.513.11.27-.927.377.212.522.871-.355.11.27-.871.354.225.553.927-.377.11.27Z" transform="translate(202.224 -3500.792)" fill="#1c2533"/>
    <path id="Path_6797" data-name="Path 6797" d="M-170.817,3506.625a.861.861,0,0,1-.479-.149,1.2,1.2,0,0,1-.375-.424,1.2,1.2,0,0,1-.164-.539.848.848,0,0,1,.123-.485,1.044,1.044,0,0,1,.4-.367,1.148,1.148,0,0,1,.369-.133.834.834,0,0,1,.35.009l.027.293a.959.959,0,0,0-.317-.008.832.832,0,0,0-.278.1.564.564,0,0,0-.3.39.83.83,0,0,0,.127.558.846.846,0,0,0,.41.4.561.561,0,0,0,.493-.056.828.828,0,0,0,.229-.185.969.969,0,0,0,.159-.274l.236.176a.833.833,0,0,1-.176.3,1.138,1.138,0,0,1-.306.245A1.029,1.029,0,0,1-170.817,3506.625Z" transform="translate(197.662 -3498.835)" fill="#1c2533"/>
    <path id="Path_6798" data-name="Path 6798" d="M-165.163,3503.817l-1.169-1.666.3-.212,1.169,1.666Z" transform="translate(193.982 -3497.115)" fill="#1c2533"/>
    <path id="Path_6799" data-name="Path 6799" d="M-163.15,3498.684l.669-.576a.756.756,0,0,1,.491-.213.544.544,0,0,1,.421.209.546.546,0,0,1,.144.449.753.753,0,0,1-.282.454l-.39.335.554.644-.279.24Zm1.224.134a.457.457,0,0,0,.169-.249.273.273,0,0,0-.074-.236.279.279,0,0,0-.224-.111.456.456,0,0,0-.272.131l-.358.308.4.466Z" transform="translate(191.855 -3494.41)" fill="#1c2533"/>
    <path id="Path_6800" data-name="Path 6800" d="M-156.33,3494.8l-1.5-1.37.916-1.006.216.2-.673.74.416.379.633-.7.216.2-.633.7.442.4.674-.74.215.2Z" transform="translate(188.301 -3490.75)" fill="#1c2533"/>
    <path id="Path_6801" data-name="Path 6801" d="M-151.381,3489.394a1.012,1.012,0,0,1-.348.178l-.146-.259a1.072,1.072,0,0,0,.314-.157,1.117,1.117,0,0,0,.248-.256.6.6,0,0,0,.13-.31.234.234,0,0,0-.1-.216.193.193,0,0,0-.205-.015,1.361,1.361,0,0,0-.3.22,1.46,1.46,0,0,1-.5.329.449.449,0,0,1-.413-.08.547.547,0,0,1-.2-.265.652.652,0,0,1-.019-.352,1,1,0,0,1,.175-.383,1.278,1.278,0,0,1,.289-.294.853.853,0,0,1,.329-.153l.147.256a.939.939,0,0,0-.525.362.526.526,0,0,0-.115.3.259.259,0,0,0,.114.222.2.2,0,0,0,.208.023,1.2,1.2,0,0,0,.3-.215,2.527,2.527,0,0,1,.347-.262.625.625,0,0,1,.289-.1.435.435,0,0,1,.274.091.532.532,0,0,1,.2.264.618.618,0,0,1,.008.35,1.14,1.14,0,0,1-.19.395A1.48,1.48,0,0,1-151.381,3489.394Z" transform="translate(185.029 -3487.381)" fill="#1c2533"/>
  </g>
  <g id="Group_15415" data-name="Group 15415" transform="translate(6.289 25.643)">
    <path id="Path_6802" data-name="Path 6802" d="M-283.421,3453.944h-2.473l.059-.417.7-.247v-3.456l-.712-.149.043-.468q.468-.074,1.1-.133t1.046-.059a3.4,3.4,0,0,1,1.6.3,1.041,1.041,0,0,1,.543.993,1.171,1.171,0,0,1-.151.57,1.633,1.633,0,0,1-.4.481,1.8,1.8,0,0,1-.548.309l.594.81q.244.33.4.513a1.941,1.941,0,0,0,.352.321,1.372,1.372,0,0,0,.45.2l.141.04-.09.393a2.151,2.151,0,0,1-.664.094,1.475,1.475,0,0,1-.94-.3,2.6,2.6,0,0,1-.672-.849l-.487-.9h-.488v1.259l.649.231Zm-.606-4.4v1.852h.688a1.122,1.122,0,0,0,.454-.342.864.864,0,0,0,.171-.547,1.018,1.018,0,0,0-.122-.5.875.875,0,0,0-.352-.35,1.094,1.094,0,0,0-.541-.128c-.076,0-.142,0-.2.006Z" transform="translate(285.894 -3448.955)" fill="#1c2533"/>
    <path id="Path_6803" data-name="Path 6803" d="M-267.225,3449.565l.059-.432h4.262l-.122,1.451-.507-.075-.244-.857h-1.6v1.683h.924l.173-.507.566-.106-.134,1.667-.547.09-.13-.664h-.853v1.616h1.687l.48-.889.487.059-.118,1.424h-4.341l.039-.417.649-.248v-3.574Z" transform="translate(273.412 -3449.034)" fill="#1c2533"/>
    <path id="Path_6804" data-name="Path 6804" d="M-249.131,3453.927a2.565,2.565,0,0,1-.95-.165,1.3,1.3,0,0,1-.6-.417l.091-1.234.55.083.157.736a.861.861,0,0,0,.354.284,1.138,1.138,0,0,0,.5.113.853.853,0,0,0,.35-.073.637.637,0,0,0,.265-.21.54.54,0,0,0,.1-.326.477.477,0,0,0-.12-.32,1.16,1.16,0,0,0-.3-.244q-.179-.1-.493-.254a7.009,7.009,0,0,1-.718-.385,1.629,1.629,0,0,1-.472-.462,1.208,1.208,0,0,1-.2-.7,1.3,1.3,0,0,1,.261-.82,1.6,1.6,0,0,1,.68-.511,2.322,2.322,0,0,1,.887-.171,2.526,2.526,0,0,1,.7.106,1.423,1.423,0,0,1,.552.271q0,.039-.043.558t-.059.708l-.535-.086-.126-.653a.784.784,0,0,0-.312-.269.933.933,0,0,0-.442-.116.571.571,0,0,0-.411.147.55.55,0,0,0-.155.419.513.513,0,0,0,.13.344,1.239,1.239,0,0,0,.322.263q.193.112.539.274a7.347,7.347,0,0,1,.751.4,1.739,1.739,0,0,1,.493.472,1.176,1.176,0,0,1,.206.7,1.251,1.251,0,0,1-.3.851,1.848,1.848,0,0,1-.755.519A2.506,2.506,0,0,1-249.131,3453.927Z" transform="translate(262.351 -3448.844)" fill="#1c2533"/>
    <path id="Path_6805" data-name="Path 6805" d="M-237.232,3449.133h4.667l-.13,1.545-.547-.091-.2-.936h-.959v3.739l.759.177-.059.456h-2.509l.039-.421.68-.228v-3.724h-.932l-.275,1.038-.515-.075Z" transform="translate(253.36 -3449.034)" fill="#1c2533"/>
    <path id="Path_6806" data-name="Path 6806" d="M-220.248,3453.826l.055-.417.605-.311,1.628-4.073.975-.189,1.533,4.278.562.271-.043.444h-2.438l.055-.417.665-.31-.291-.818h-1.592l-.291.826.735.268-.051.448Zm1.927-2.155h1.184l-.574-1.715Z" transform="translate(242.005 -3448.836)" fill="#1c2533"/>
    <path id="Path_6807" data-name="Path 6807" d="M-200.4,3449.8l-.735-.228.083-.444h2.481l-.059.444-.661.208v2.17a1.459,1.459,0,0,0,.338,1.06,1.241,1.241,0,0,0,.928.344,1.089,1.089,0,0,0,.845-.33,1.456,1.456,0,0,0,.3-1.01l0-2.214-.7-.228.055-.444h2.092l-.055.444-.653.208-.016,2.115a2.386,2.386,0,0,1-.539,1.681,2.107,2.107,0,0,1-1.589.548,3.569,3.569,0,0,1-1.028-.137,1.474,1.474,0,0,1-.775-.574,2.138,2.138,0,0,1-.316-1.266Z" transform="translate(229.229 -3449.034)" fill="#1c2533"/>
    <path id="Path_6808" data-name="Path 6808" d="M-178.587,3453.944h-2.473l.059-.417.7-.247v-3.456l-.712-.149.043-.468q.468-.074,1.1-.133t1.046-.059a3.406,3.406,0,0,1,1.6.3,1.041,1.041,0,0,1,.543.993,1.167,1.167,0,0,1-.151.57,1.632,1.632,0,0,1-.4.481,1.8,1.8,0,0,1-.549.309l.594.81q.244.33.4.513a1.929,1.929,0,0,0,.352.321,1.368,1.368,0,0,0,.45.2l.142.04-.09.393a2.148,2.148,0,0,1-.664.094,1.474,1.474,0,0,1-.94-.3,2.6,2.6,0,0,1-.672-.849l-.488-.9h-.488v1.259l.649.231Zm-.605-4.4v1.852h.688a1.117,1.117,0,0,0,.454-.342.864.864,0,0,0,.171-.547,1.018,1.018,0,0,0-.122-.5.874.874,0,0,0-.352-.35,1.1,1.1,0,0,0-.541-.128c-.076,0-.142,0-.2.006Z" transform="translate(215.804 -3448.955)" fill="#1c2533"/>
    <path id="Path_6809" data-name="Path 6809" d="M-162.4,3453.826l.055-.417.605-.311,1.628-4.073.975-.189,1.533,4.278.562.271-.043.444h-2.438l.055-.417.665-.31-.291-.818h-1.592l-.291.826.735.268-.051.448Zm1.927-2.155h1.184l-.574-1.715Z" transform="translate(203.331 -3448.836)" fill="#1c2533"/>
    <path id="Path_6810" data-name="Path 6810" d="M-143.177,3449.589l.051-.456h1.553l2.308,3.311V3449.8l-.731-.228.071-.444h2.068l-.079.444-.657.208v4.207l-.857.15-2.312-3.224v2.469l.712.189-.047.448h-2.076l.039-.417.661-.248v-3.5Z" transform="translate(190.477 -3449.034)" fill="#1c2533"/>
    <path id="Path_6811" data-name="Path 6811" d="M-124.26,3449.133h4.667l-.13,1.545-.547-.091-.2-.936h-.959v3.739l.759.177-.059.456h-2.509l.039-.421.68-.228v-3.724h-.932l-.275,1.038-.515-.075Z" transform="translate(177.829 -3449.034)" fill="#1c2533"/>
  </g>
</svg>
