<svg xmlns="http://www.w3.org/2000/svg" width="19.779" height="19.762" viewBox="0 0 19.779 19.762">
  <g id="Icon_ionic-ios-rocket" data-name="Icon ionic-ios-rocket" transform="translate(-3.366 -3.372)">
    <path id="Path_8853" data-name="Path 8853" d="M23.041,3.64a.21.21,0,0,0-.157-.162c-2.586-.632-8.56,1.621-11.8,4.858a13.992,13.992,0,0,0-1.573,1.858,5.854,5.854,0,0,0-2.847.356c-2.4,1.055-3.1,3.812-3.294,5a.426.426,0,0,0,.466.494l3.855-.423a8.57,8.57,0,0,0,.052.87A.863.863,0,0,0,8,17.016l1.492,1.492a.863.863,0,0,0,.528.252,8.552,8.552,0,0,0,.865.052l-.423,3.85a.426.426,0,0,0,.494.466c1.184-.19,3.945-.889,5-3.289A5.881,5.881,0,0,0,16.31,17a14.014,14.014,0,0,0,1.863-1.573C21.425,12.2,23.663,6.354,23.041,3.64Zm-7.757,7.6a2.03,2.03,0,1,1,2.871,0A2.028,2.028,0,0,1,15.283,11.241Z" transform="translate(0 0)" fill="#4dc47d"/>
    <path id="Path_8854" data-name="Path 8854" d="M10.169,25.648h0a1.8,1.8,0,0,1-.941.38,1.279,1.279,0,0,1-1.473-1.473,1.768,1.768,0,0,1,.376-.936l0,0A.159.159,0,0,0,8,23.343a2.185,2.185,0,0,0-1.279.623C5.868,24.821,5.787,28,5.787,28s3.18-.081,4.035-.936a2.171,2.171,0,0,0,.623-1.279A.163.163,0,0,0,10.169,25.648Z" transform="translate(-0.784 -6.47)" fill="#4dc47d"/>
  </g>
</svg>
