<svg id="Group_17947" data-name="Group 17947" xmlns="http://www.w3.org/2000/svg" width="62.491" height="16.529" viewBox="0 0 62.491 16.529">
  <path id="Path_4421" data-name="Path 4421" d="M254.506,404.748l-2.089-12.512L247.171,404.1h-1.184l-5.293-11.909-2.066,12.559h-2.182l2.716-16.25h2.182l5.223,12.118L251.79,388.5h2.229l2.67,16.25Z" transform="translate(-236.446 -388.497)" fill="#414141"/>
  <path id="Path_4422" data-name="Path 4422" d="M335.362,413.634a6.271,6.271,0,1,1,6.268,6.082A6.032,6.032,0,0,1,335.362,413.634Zm10.516,0a4.248,4.248,0,1,0-4.248,4.248A4.137,4.137,0,0,0,345.878,413.634Z" transform="translate(-312.705 -403.187)" fill="#414141"/>
  <path id="Path_4423" data-name="Path 4423" d="M477.23,426.037v2h-9.518v-6.407l.673-.673,1.081,1.08.636-3.332h6.269v2h-6.524v5.339Z" transform="translate(-414.739 -411.782)" fill="#414141"/>
  <path id="Path_4424" data-name="Path 4424" d="M501.434,388.533v1.988h-2Z" transform="translate(-439.198 -388.524)" fill="#414141"/>
  <path id="Path_4425" data-name="Path 4425" d="M474.664,388.5l-2,2h-2.813v2.8l-.869.866-1.266.241V388.5Z" transform="translate(-414.739 -388.495)" fill="#414141"/>
  <g id="Group_12240" data-name="Group 12240" transform="translate(38.489 4.365)">
    <path id="Path_4426" data-name="Path 4426" d="M445.722,436.694v5.21H443.7v-3.19Z" transform="translate(-434.718 -430.019)" fill="#414141"/>
    <path id="Path_4427" data-name="Path 4427" d="M415.225,410.948l-1.781,1.781c-.155-2.181-1.3-3.3-3.254-3.3-2.112,0-3.69,1.766-3.69,4.156v5.85h-2.021V407.83h1.58l.371,1.671a5.341,5.341,0,0,1,4.318-1.95A4.508,4.508,0,0,1,415.225,410.948Z" transform="translate(-404.478 -407.551)" fill="#414141"/>
    <path id="Path_4428" data-name="Path 4428" d="M451.268,414.414l-3.433.656.81.81-1.594,1.594-.918-1.365-2.516,2.516-.009,2.324,2.344-2.344.918,1.365,2.932-2.932.81.81Z" transform="translate(-434.644 -412.842)" fill="#91e986"/>
  </g>
</svg>
