<svg id="Component_32_1" data-name="Component 32 – 1" xmlns="http://www.w3.org/2000/svg" width="12.482" height="12.482" viewBox="0 0 12.482 12.482">
  <circle id="Ellipse_194" data-name="Ellipse 194" cx="6.241" cy="6.241" r="6.241" fill="#4dc47d"/>
  <path id="Path_8797" data-name="Path 8797" d="M-2733.945,4624.259a.312.312,0,0,1,.331-.189,1.786,1.786,0,0,0,.382-.029c.462-.093.874-1.027.414-1.451-.058-.054-.114-.111-.168-.17a.247.247,0,0,1,0-.385q.32-.327.647-.646a.246.246,0,0,1,.376,0c.078.071.149.151.231.218a.67.67,0,0,0,.635.135,2.058,2.058,0,0,0,.427-.177.688.688,0,0,0,.359-.6c.005-.093,0-.186,0-.279a.242.242,0,0,1,.263-.254q.464-.006.928,0a.244.244,0,0,1,.263.267c0,.071,0,.142,0,.212s.014.131.023.2a.956.956,0,0,0,1.442.462c.064-.067.13-.133.2-.2a.242.242,0,0,1,.357,0c.229.22.454.446.674.675a.238.238,0,0,1,0,.346c-.058.066-.125.124-.185.19a.718.718,0,0,0-.153.786,2.916,2.916,0,0,0,.125.292.706.706,0,0,0,.625.4c.092.006.186,0,.278,0a.238.238,0,0,1,.249.254q.006.469,0,.941c0,.165-.1.25-.272.26a2.907,2.907,0,0,0-.408.027.646.646,0,0,0-.476.385,2.046,2.046,0,0,0-.166.473.776.776,0,0,0,.308.708c.205.194.2.3,0,.5s-.381.382-.573.571c-.147.144-.277.152-.412,0a.853.853,0,0,0-1.206-.2.727.727,0,0,0-.434.673c0,.084,0,.168,0,.252a.239.239,0,0,1-.245.245c-.318.006-.637,0-.955,0a.241.241,0,0,1-.253-.252,1.825,1.825,0,0,0-.007-.277.961.961,0,0,0-.135-.392,1.055,1.055,0,0,0-.973-.4.743.743,0,0,0-.437.258c-.263.267-.325.265-.592,0-.172-.172-.345-.343-.515-.517-.15-.152-.158-.28,0-.421a.86.86,0,0,0,.186-1.22.71.71,0,0,0-.644-.415,1.689,1.689,0,0,0-.186,0,.309.309,0,0,1-.334-.184Zm2.182.56a2.153,2.153,0,0,0,2.208,2.155,2.087,2.087,0,0,0,2.155-2.2,2.175,2.175,0,0,0-2.2-2.158A2.188,2.188,0,0,0-2731.763,4624.819Z" transform="translate(2735.818 -4618.561)" fill="#fff"/>
  <path id="Path_8798" data-name="Path 8798" d="M-2729.579,4623.5a1.292,1.292,0,0,1,1.292,1.316,1.294,1.294,0,0,1-1.292,1.275,1.3,1.3,0,0,1-1.3-1.3A1.3,1.3,0,0,1-2729.579,4623.5Z" transform="translate(2735.818 -4618.561)" fill="#fff"/>
</svg>
