<svg xmlns="http://www.w3.org/2000/svg" width="32.267" height="31.35" viewBox="0 0 32.267 31.35">
  <g id="Group_16995" data-name="Group 16995" transform="translate(-893.405 -18.82)">
    <path id="Path_5209" data-name="Path 5209" d="M925.672,34.5a16.14,16.14,0,0,1-32.267,0,16.14,16.14,0,0,1,32.267,0Zm0,0" transform="translate(0 0)" fill="#4dc47d"/>
    <path id="Path_5210" data-name="Path 5210" d="M1020.011,47.168l-15.186-14.754-1.539,2.371-2.468,1.523,2.5,2.362-3.4,5.312,1.707,1.882a79.24,79.24,0,0,1-1.216,9.836L996.4,59.8l1.97,1.914a16.522,16.522,0,0,0,5.509.938,15.915,15.915,0,0,0,16.131-15.486Zm0,0" transform="translate(-94.341 -12.484)" fill="#22894c"/>
    <path id="Path_5211" data-name="Path 5211" d="M1055.085,34.471h-2.117V32.414h-1.891v2.057h-2.117v1.837h2.117v2.657h1.891V36.308h2.117Zm0,0" transform="translate(-142.484 -12.484)" fill="#daeaec"/>
    <path id="Path_5212" data-name="Path 5212" d="M1088.467,34.475v1.837h-2.117v2.657h-.945v-6.55h.945v2.057Zm0,0" transform="translate(-175.867 -12.488)" fill="#cedfe2"/>
    <path id="Path_5213" data-name="Path 5213" d="M1036.593,167.329c-.726-2-1.507-2.53-1.507-5.949v-2.763h-5.3v2.763c0,3.419-.781,3.945-1.506,5.949a11.811,11.811,0,0,0-.7,3.2h9.719a11.82,11.82,0,0,0-.7-3.2Zm0,0" transform="translate(-122.898 -128.384)" fill="#fff"/>
    <path id="Path_5214" data-name="Path 5214" d="M1090.264,170.53h-4.859V158.617h2.65v2.763c0,3.419.781,3.945,1.507,5.949a11.806,11.806,0,0,1,.7,3.2Zm0,0" transform="translate(-175.867 -128.384)" fill="#f1f4f6"/>
    <path id="Path_5215" data-name="Path 5215" d="M1040.155,104.461l1.271,4.646h5.063l1.271-4.646Zm0,0" transform="translate(-134.419 -78.649)" fill="#fff"/>
    <path id="Path_5216" data-name="Path 5216" d="M1089.207,104.457l-1.27,4.646h-2.532v-4.646Zm0,0" transform="translate(-175.867 -78.645)" fill="#f1f4f6"/>
    <rect id="Rectangle_10778" data-name="Rectangle 10778" width="7.923" height="2.081" transform="translate(905.577 29.417)" fill="#f1f4f6"/>
    <rect id="Rectangle_10779" data-name="Rectangle 10779" width="3.962" height="2.081" transform="translate(909.538 29.417)" fill="#daeaec"/>
    <rect id="Rectangle_10780" data-name="Rectangle 10780" width="12.83" height="2.535" transform="translate(903.123 41.88)" fill="#daeaec"/>
    <rect id="Rectangle_10781" data-name="Rectangle 10781" width="6.415" height="2.535" transform="translate(909.538 41.88)" fill="#cedfe2"/>
    <rect id="Rectangle_10782" data-name="Rectangle 10782" width="14.958" height="3.002" transform="translate(902.06 44.316)" fill="#f1f4f6"/>
    <rect id="Rectangle_10783" data-name="Rectangle 10783" width="7.479" height="3.002" transform="translate(909.538 44.316)" fill="#daeaec"/>
  </g>
</svg>
