<svg xmlns="http://www.w3.org/2000/svg" width="61.25" height="40" viewBox="0 0 61.25 40">
  <g id="Group_12245" data-name="Group 12245" transform="translate(-274.852 -764.828)">
    <g id="Group_12244" data-name="Group 12244" transform="translate(274.852 764.828)">
      <path id="Path_4443" data-name="Path 4443" d="M359.963,784.9v23.907h-6.8V787.17a22.392,22.392,0,0,0-.255-3.479l5.862-5.845A19.865,19.865,0,0,1,359.963,784.9Z" transform="translate(-298.713 -768.808)" fill="#414141"/>
      <path id="Path_4444" data-name="Path 4444" d="M320.917,809.02v9.016h-6.8v-3.86l6.14-6.14Z" transform="translate(-286.855 -778.036)" fill="#414141"/>
      <path id="Path_4445" data-name="Path 4445" d="M331.941,769.058l-5.145,5.128a8.64,8.64,0,0,0-7.1-3.027c-5.232,0-9.612,4.612-10.579,10.943l-7,7v-5.914c0-7.737-3.281-12.031-9.219-12.031-6.013,0-11.25,5.7-11.25,13.593v20.075h-6.794V765.765h5.312l1.169,5.313a17.12,17.12,0,0,1,13.206-6.25,13.515,13.515,0,0,1,12.5,7.344,16.719,16.719,0,0,1,14.138-7.344A14.435,14.435,0,0,1,331.941,769.058Z" transform="translate(-274.852 -764.828)" fill="#414141"/>
    </g>
    <path id="Path_4446" data-name="Path 4446" d="M326.79,786.724l2.717,2.717-5.35,5.35-3.081-4.582L314.1,797.18v7.768l6.367-6.367,3.081,4.582,9.838-9.839,2.717,2.717,2.2-11.522Z" transform="translate(-11.999 -6.02)" fill="#91e986"/>
  </g>
</svg>
