<svg xmlns="http://www.w3.org/2000/svg" width="55.078" height="55.078" viewBox="0 0 55.078 55.078">
  <g id="Group_17043" data-name="Group 17043" transform="translate(2666.683 -5273.573)">
    <path id="Path_8076" data-name="Path 8076" d="M-2611.6,5301.113a27.539,27.539,0,0,1-27.539,27.539,27.539,27.539,0,0,1-27.539-27.539,27.539,27.539,0,0,1,27.539-27.54,27.54,27.54,0,0,1,27.539,27.54Zm0,0" fill="#4dc47d"/>
    <path id="Path_8077" data-name="Path 8077" d="M-2607.395,5387.187a27.414,27.414,0,0,0,12.94,3.224,27.538,27.538,0,0,0,27.539-27.538,27.425,27.425,0,0,0-3.225-12.939l-4.259-4.258-40.112,34.4Zm0,0" transform="translate(-44.689 -61.76)" fill="#22894c"/>
    <rect id="Rectangle_11234" data-name="Rectangle 11234" width="35.208" height="28.887" transform="translate(-2656.748 5286.668)" fill="#fff"/>
    <rect id="Rectangle_11235" data-name="Rectangle 11235" width="5.626" height="5.626" transform="translate(-2656.021 5309.551)" fill="#263238"/>
    <rect id="Rectangle_11236" data-name="Rectangle 11236" width="5.626" height="5.626" transform="translate(-2656.021 5298.3)" fill="#263238"/>
    <rect id="Rectangle_11237" data-name="Rectangle 11237" width="5.626" height="5.626" transform="translate(-2650.396 5303.925)" fill="#263238"/>
    <rect id="Rectangle_11238" data-name="Rectangle 11238" width="5.626" height="5.626" transform="translate(-2650.396 5292.674)" fill="#263238"/>
    <rect id="Rectangle_11239" data-name="Rectangle 11239" width="5.626" height="5.626" transform="translate(-2656.021 5287.048)" fill="#263238"/>
    <rect id="Rectangle_11240" data-name="Rectangle 11240" width="5.626" height="5.626" transform="translate(-2644.77 5309.551)" fill="#263238"/>
    <rect id="Rectangle_11241" data-name="Rectangle 11241" width="17.605" height="28.888" transform="translate(-2639.144 5286.668)" fill="#daeaec"/>
    <rect id="Rectangle_11242" data-name="Rectangle 11242" width="5.626" height="5.626" transform="translate(-2644.77 5298.3)" fill="#263238"/>
    <rect id="Rectangle_11243" data-name="Rectangle 11243" width="5.626" height="5.626" transform="translate(-2639.144 5303.925)" fill="#2d2d2d"/>
    <rect id="Rectangle_11244" data-name="Rectangle 11244" width="5.626" height="5.626" transform="translate(-2639.144 5292.674)" fill="#2d2d2d"/>
    <rect id="Rectangle_11245" data-name="Rectangle 11245" width="5.626" height="5.626" transform="translate(-2644.77 5287.048)" fill="#263238"/>
    <rect id="Rectangle_11246" data-name="Rectangle 11246" width="5.626" height="5.626" transform="translate(-2633.518 5309.551)" fill="#2d2d2d"/>
    <rect id="Rectangle_11247" data-name="Rectangle 11247" width="5.626" height="5.626" transform="translate(-2633.518 5298.3)" fill="#2d2d2d"/>
    <rect id="Rectangle_11248" data-name="Rectangle 11248" width="5.626" height="5.626" transform="translate(-2627.893 5303.925)" fill="#2d2d2d"/>
    <rect id="Rectangle_11249" data-name="Rectangle 11249" width="5.626" height="5.626" transform="translate(-2627.893 5292.674)" fill="#2d2d2d"/>
    <rect id="Rectangle_11250" data-name="Rectangle 11250" width="5.626" height="5.626" transform="translate(-2633.518 5287.048)" fill="#2d2d2d"/>
    <path id="Path_8078" data-name="Path 8078" d="M-2574.4,5345.675v34.4h-40.112v-34.4Zm-3.227,31.167V5348.9h-33.658v27.939Zm0,0" transform="translate(-44.689 -61.76)" fill="#4f5359"/>
    <path id="Path_8079" data-name="Path 8079" d="M-2474.683,5348.906h16.829v27.939h-16.829v3.228h20.056v-34.394h-20.056Zm0,0" transform="translate(-164.461 -61.763)" fill="#2d2d2d"/>
  </g>
</svg>
