<svg id="Component_47_1" data-name="Component 47 – 1" xmlns="http://www.w3.org/2000/svg" width="77.945" height="27.92" viewBox="0 0 77.945 27.92">
  <g id="Group_17838" data-name="Group 17838" transform="translate(2929.554 -4710.996)">
    <circle id="Ellipse_148" data-name="Ellipse 148" cx="13.96" cy="13.96" r="13.96" transform="translate(-2929.554 4710.996)" fill="#ecf2f6"/>
    <circle id="Ellipse_149" data-name="Ellipse 149" cx="13.96" cy="13.96" r="13.96" transform="translate(-2879.53 4710.996)" fill="#ecf2f6"/>
  </g>
  <g id="Group_17840" data-name="Group 17840" transform="translate(2929.554 -4710.996)">
    <g id="Group_17839" data-name="Group 17839">
      <path id="Path_8728" data-name="Path 8728" d="M-2913.5,4720.815h.206c1.229,0,2.457,0,3.686,0a1.454,1.454,0,0,1,1.5,1.5,4.287,4.287,0,0,1-.42,1.981c-.68,1.468-1.322,2.954-1.978,4.432a1.841,1.841,0,0,1-1.807,1.175c-1.451,0-2.9,0-4.352,0a2.334,2.334,0,0,1-1.745-.728c-.237-.242-.476-.484-.718-.721a.513.513,0,0,1-.163-.39c0-1.808,0-3.616.007-5.424a.514.514,0,0,1,.124-.345,24.792,24.792,0,0,0,3.34-4.145c.252-.351.509-.7.753-1.057a1.285,1.285,0,0,1,1.373-.634,1.41,1.41,0,0,1,1.1,1.082,1.674,1.674,0,0,1-.074,1.15q-.39.967-.774,1.936C-2913.456,4720.687-2913.473,4720.741-2913.5,4720.815Z" fill="#4f5359"/>
      <path id="Path_8729" data-name="Path 8729" d="M-2920.474,4725.608c0,.825.005,1.65,0,2.475a1.286,1.286,0,0,1-.881,1.21,1.3,1.3,0,0,1-1.428-.4,1.189,1.189,0,0,1-.3-.771c0-1.685-.01-3.371,0-5.056a1.274,1.274,0,0,1,1.314-1.234,1.284,1.284,0,0,1,1.285,1.249c.012.842,0,1.685,0,2.528Z" fill="#4f5359"/>
    </g>
  </g>
  <g id="Group_17842" data-name="Group 17842" transform="translate(2929.554 -4710.996)">
    <g id="Group_17841" data-name="Group 17841">
      <path id="Path_8730" data-name="Path 8730" d="M-2867.664,4728.063h-.207q-1.842,0-3.685,0a1.455,1.455,0,0,1-1.5-1.5,4.282,4.282,0,0,1,.42-1.981c.68-1.468,1.321-2.954,1.978-4.433a1.839,1.839,0,0,1,1.807-1.174c1.451,0,2.9,0,4.352,0a2.335,2.335,0,0,1,1.745.728q.356.365.718.722a.512.512,0,0,1,.163.39c0,1.807,0,3.615-.007,5.423a.516.516,0,0,1-.124.346,24.8,24.8,0,0,0-3.34,4.144c-.253.352-.509.7-.753,1.058a1.285,1.285,0,0,1-1.374.633,1.41,1.41,0,0,1-1.1-1.082,1.672,1.672,0,0,1,.073-1.149q.39-.968.775-1.936C-2867.707,4728.192-2867.69,4728.138-2867.664,4728.063Z" fill="#4f5359"/>
      <path id="Path_8731" data-name="Path 8731" d="M-2860.689,4723.271c0-.825-.005-1.65,0-2.476a1.286,1.286,0,0,1,.881-1.21,1.3,1.3,0,0,1,1.428.4,1.187,1.187,0,0,1,.3.77c0,1.686.01,3.371,0,5.056a1.275,1.275,0,0,1-1.314,1.235,1.284,1.284,0,0,1-1.285-1.249c-.012-.843,0-1.685,0-2.528Z" fill="#4f5359"/>
    </g>
  </g>
</svg>
