<svg id="Component_46_1" data-name="Component 46 – 1" xmlns="http://www.w3.org/2000/svg" width="49.381" height="27.92" viewBox="0 0 49.381 27.92">
  <g id="Group_17904" data-name="Group 17904" transform="translate(21.46)">
    <ellipse id="Ellipse_179" data-name="Ellipse 179" cx="13.96" cy="13.96" rx="13.96" ry="13.96" transform="translate(0 0)" fill="#91e986"/>
    <g id="Group_17845" data-name="Group 17845" transform="translate(6.468 5.445)">
      <g id="Group_17844" data-name="Group 17844" transform="translate(0)">
        <path id="Path_8732" data-name="Path 8732" d="M-2672.79,4720.815H-2673c-1.228,0-2.457,0-3.685,0a1.454,1.454,0,0,0-1.5,1.5,4.272,4.272,0,0,0,.42,1.981c.68,1.468,1.321,2.954,1.978,4.432a1.84,1.84,0,0,0,1.807,1.175c1.451,0,2.9,0,4.352,0a2.335,2.335,0,0,0,1.745-.728c.237-.242.475-.484.717-.721a.514.514,0,0,0,.164-.39c0-1.808,0-3.616-.008-5.424a.509.509,0,0,0-.124-.345,24.773,24.773,0,0,1-3.339-4.145c-.253-.351-.51-.7-.753-1.057a1.286,1.286,0,0,0-1.374-.634,1.412,1.412,0,0,0-1.1,1.082,1.677,1.677,0,0,0,.074,1.15q.39.967.775,1.936C-2672.833,4720.687-2672.816,4720.741-2672.79,4720.815Z" transform="translate(2678.187 -4716.44)" fill="#fff"/>
        <path id="Path_8733" data-name="Path 8733" d="M-2681.983,4725.608c0,.825-.006,1.65,0,2.475a1.286,1.286,0,0,0,.88,1.21,1.3,1.3,0,0,0,1.428-.4,1.189,1.189,0,0,0,.3-.771c0-1.685.01-3.371,0-5.056a1.273,1.273,0,0,0-1.314-1.234,1.284,1.284,0,0,0-1.284,1.249c-.012.842,0,1.685,0,2.528Z" transform="translate(2694.355 -4716.44)" fill="#fff"/>
      </g>
    </g>
  </g>
  <g id="Group_17905" data-name="Group 17905" transform="translate(2688.454 -4710.996)">
    <circle id="Ellipse_179-2" data-name="Ellipse 179" cx="13.96" cy="13.96" r="13.96" transform="translate(-2688.454 4710.996)" fill="#4dc47d"/>
    <g id="Group_17845-2" data-name="Group 17845">
      <g id="Group_17844-2" data-name="Group 17844">
        <path id="Path_8732-2" data-name="Path 8732" d="M-2672.4,4720.815h.207c1.228,0,2.457,0,3.685,0a1.454,1.454,0,0,1,1.5,1.5,4.272,4.272,0,0,1-.42,1.981c-.68,1.468-1.321,2.954-1.978,4.432a1.84,1.84,0,0,1-1.807,1.175c-1.451,0-2.9,0-4.352,0a2.335,2.335,0,0,1-1.745-.728c-.237-.242-.475-.484-.717-.721a.514.514,0,0,1-.164-.39c0-1.808,0-3.616.008-5.424a.509.509,0,0,1,.124-.345,24.773,24.773,0,0,0,3.339-4.145c.253-.351.51-.7.753-1.057a1.286,1.286,0,0,1,1.374-.634,1.412,1.412,0,0,1,1.1,1.082,1.677,1.677,0,0,1-.074,1.15q-.39.967-.775,1.936C-2672.356,4720.687-2672.373,4720.741-2672.4,4720.815Z" fill="#fff"/>
        <path id="Path_8733-2" data-name="Path 8733" d="M-2679.374,4725.608c0,.825.006,1.65,0,2.475a1.286,1.286,0,0,1-.88,1.21,1.3,1.3,0,0,1-1.428-.4,1.189,1.189,0,0,1-.3-.771c0-1.685-.01-3.371,0-5.056a1.273,1.273,0,0,1,1.314-1.234,1.284,1.284,0,0,1,1.284,1.249c.012.842,0,1.685,0,2.528Z" fill="#fff"/>
      </g>
    </g>
  </g>
</svg>
