<svg xmlns="http://www.w3.org/2000/svg" width="24.242" height="20.185" viewBox="0 0 24.242 20.185">
  <g id="Group_18051" data-name="Group 18051" transform="translate(0 0)">
    <path id="Path_8866" data-name="Path 8866" d="M-2961.133,4097.47a6.649,6.649,0,0,1,.371-1.034,2.949,2.949,0,0,1,2.635-1.6c.5-.018.994-.009,1.491,0a1,1,0,0,1,1.051,1.012,1.006,1.006,0,0,1-1.076,1.009c-.465,0-.931,0-1.4,0a.993.993,0,0,0-1.051,1.033q-.008,2.5,0,4.99a1,1,0,0,0,1.115,1.038h17.912a1.022,1.022,0,0,0,1.16-1.161q0-2.378,0-4.755a1.024,1.024,0,0,0-1.153-1.146c-.458,0-.915.005-1.373,0a1,1,0,0,1-1-.918.944.944,0,0,1,.865-1.074,11.374,11.374,0,0,1,2.308.069,2.934,2.934,0,0,1,2.368,2.863q.019,2.589,0,5.18a3.025,3.025,0,0,1-2.493,2.92,1.368,1.368,0,0,0-.154.047h-18.934a.576.576,0,0,0-.107-.041,2.889,2.889,0,0,1-2.119-1.47,7.554,7.554,0,0,1-.425-1.138Z" transform="translate(2961.133 -4085.755)" fill="#4dc47d"/>
    <path id="Path_8867" data-name="Path 8867" d="M-2937.273,4071.472c-.916,0-1.775,0-2.635,0a1.236,1.236,0,0,1-.438-.067.742.742,0,0,1-.251-1.214c.371-.408.759-.8,1.141-1.2l4.067-4.26a.789.789,0,0,1,1.271,0q2.566,2.684,5.131,5.37a.817.817,0,0,1,.278.763.764.764,0,0,1-.814.612c-.8,0-1.609,0-2.413,0h-.295v.291c0,1.781-.021,3.563.009,5.345a1.339,1.339,0,0,1-1.44,1.434c-.756-.035-1.514-.006-2.271-.007a1.254,1.254,0,0,1-1.337-1.329c0-1.812,0-3.626,0-5.439Z" transform="translate(2946.87 -4064.406)" fill="#4dc47d"/>
  </g>
</svg>
