<svg xmlns="http://www.w3.org/2000/svg" width="32.266" height="32.266" viewBox="0 0 32.266 32.266">
  <g id="Group_17036" data-name="Group 17036" transform="translate(1193.894 -4650.203)">
    <path id="Path_8031" data-name="Path 8031" d="M-1161.628,4666.336a16.133,16.133,0,0,1-16.133,16.133,16.133,16.133,0,0,1-16.133-16.133,16.133,16.133,0,0,1,16.133-16.133,16.133,16.133,0,0,1,16.133,16.133Zm0,0" transform="translate(0)" fill="#4dc47d"/>
    <path id="Path_8032" data-name="Path 8032" d="M-1094.777,4671.387l-2.491-2.481-1.121,3.319-2.634-2.059,1.179,6.273-2.424-.886.4,2.491-.4.725,1.375,1.277c0,.335,1.324,8.2-.477,9.97-1.323,1.3-5.57,5.59-5.57,5.59l2.048,2.5a16.071,16.071,0,0,0,6.778,1.49,16.133,16.133,0,0,0,16.133-16.133,16.262,16.262,0,0,0-.151-2.21l-11.677-11.053Zm0,0" transform="translate(-79.647 -17.131)" fill="#22894c"/>
    <path id="Path_8033" data-name="Path 8033" d="M-1057.783,4786.6c-.831-2.057-1.725-2.6-1.725-6.105v-2.836h-6.068v2.836c0,3.509-.894,4.049-1.725,6.105a11.055,11.055,0,0,0-.8,3.285h11.127a11.058,11.058,0,0,0-.8-3.285Zm0,0" transform="translate(-115.22 -116.743)" fill="#fff"/>
    <path id="Path_8034" data-name="Path 8034" d="M-996.331,4789.882h-5.563v-12.226h3.034v2.836c0,3.509.894,4.049,1.725,6.105a11.051,11.051,0,0,1,.8,3.285Zm0,0" transform="translate(-175.867 -116.743)" fill="#f1f4f6"/>
    <path id="Path_8035" data-name="Path 8035" d="M-1041.72,4680.912l-1.622-2.592-1.622,2.592-2.18-1.623,1.271,5.383h5.063l1.271-5.383Zm0,0" transform="translate(-134.419 -25.754)" fill="#fff"/>
    <path id="Path_8036" data-name="Path 8036" d="M-998.092,4679.29l-1.27,5.383h-2.532v-6.353l.513.821,1.109,1.772Zm0,0" transform="translate(-175.867 -25.754)" fill="#f1f4f6"/>
    <rect id="Rectangle_11198" data-name="Rectangle 11198" width="8.31" height="3.216" transform="translate(-1181.916 4658.422)" fill="#f1f4f6"/>
    <rect id="Rectangle_11199" data-name="Rectangle 11199" width="4.155" height="3.217" transform="translate(-1177.761 4658.421)" fill="#daeaec"/>
    <rect id="Rectangle_11200" data-name="Rectangle 11200" width="15.142" height="2.422" transform="translate(-1185.332 4672.885)" fill="#daeaec"/>
    <rect id="Rectangle_11201" data-name="Rectangle 11201" width="7.571" height="2.422" transform="translate(-1177.761 4672.884)" fill="#cedfe2"/>
    <rect id="Rectangle_11202" data-name="Rectangle 11202" width="17.653" height="3.264" transform="translate(-1186.588 4675.212)" fill="#f1f4f6"/>
    <rect id="Rectangle_11203" data-name="Rectangle 11203" width="8.827" height="3.263" transform="translate(-1177.761 4675.212)" fill="#daeaec"/>
    <path id="Path_8037" data-name="Path 8037" d="M-1012.553,4665.083a1.076,1.076,0,0,1-1.077,1.076,1.076,1.076,0,0,1-1.077-1.076,1.076,1.076,0,0,1,1.077-1.076,1.076,1.076,0,0,1,1.077,1.076Zm0,0" transform="translate(-164.132 -12.644)" fill="#f1f4f6"/>
    <path id="Path_8038" data-name="Path 8038" d="M-1055.017,4680.715a.979.979,0,0,1,.727,1.178.979.979,0,0,1-1.178.728.979.979,0,0,1-.727-1.178.979.979,0,0,1,1.178-.728Zm0,0" transform="translate(-126.105 -27.924)" fill="#f1f4f6"/>
    <path id="Path_8039" data-name="Path 8039" d="M-969.2,4680.95a.979.979,0,0,1,0,1.384.979.979,0,0,1-1.384,0,.979.979,0,0,1,0-1.384.979.979,0,0,1,1.384,0Zm0,0" transform="translate(-204.285 -27.901)" fill="#daeaec"/>
    <path id="Path_8040" data-name="Path 8040" d="M-1000.818,4665.088a1.079,1.079,0,0,1-.563.947,1.08,1.08,0,0,1-.513.129v-2.152a1.076,1.076,0,0,1,1.076,1.076Zm0,0" transform="translate(-175.867 -12.648)" fill="#daeaec"/>
  </g>
</svg>
