<svg id="Component_39_1" data-name="Component 39 – 1" xmlns="http://www.w3.org/2000/svg" width="70.04" height="70.04" viewBox="0 0 70.04 70.04">
  <g id="Group_17921" data-name="Group 17921">
    <ellipse id="Ellipse_178" data-name="Ellipse 178" cx="35.02" cy="35.02" rx="35.02" ry="35.02" fill="#fff"/>
  </g>
  <g id="_3Zvmfb.tif" data-name="3Zvmfb.tif" transform="translate(17.226 18.292)">
    <g id="Group_18049" data-name="Group 18049" transform="translate(-0.001 0)">
      <path id="Path_8857" data-name="Path 8857" d="M-3617.3,3986.965a5.141,5.141,0,0,1,.721.453,1.465,1.465,0,0,1,.441,1.165q0,8,0,16a1.494,1.494,0,0,1-1.65,1.629q-6.491,0-12.984,0a1.5,1.5,0,0,1-1.663-1.682c0-5.231.011-10.462-.011-15.692a1.726,1.726,0,0,1,1.191-1.877Zm-1.825,16.283v-13.293h-10.314v13.293Z" transform="translate(3632.452 -3986.965)" fill="#4f5359"/>
      <path id="Path_8858" data-name="Path 8858" d="M-3339.391,4239.156a1.725,1.725,0,0,1-1.877,1.191c-4.223-.023-8.446-.01-12.669-.01a1.539,1.539,0,0,1-1.753-1.741c0-5.253.009-10.505-.008-15.758a1.62,1.62,0,0,1,1.779-1.765q6.334.045,12.669,0a1.69,1.69,0,0,1,1.859,1.209Zm-13.312-15.1v13.294h10.314v-13.294Z" transform="translate(3374.952 -4204.785)" fill="#4f5359"/>
      <path id="Path_8859" data-name="Path 8859" d="M-3339.43,3999.116a1.724,1.724,0,0,1-1.875,1.191c-4.231-.024-8.463-.01-12.695-.011a1.532,1.532,0,0,1-1.729-1.728c0-3.225.017-6.451-.012-9.676a1.774,1.774,0,0,1,1.173-1.928h13.957a1.786,1.786,0,0,1,1.18,1.18Zm-2.989-1.8v-7.363h-10.319v7.363Z" transform="translate(3374.992 -3986.965)" fill="#4f5359"/>
      <path id="Path_8860" data-name="Path 8860" d="M-3624.181,4319.671h-6.421a1.524,1.524,0,0,1-1.7-1.718q0-4.945,0-9.892a1.528,1.528,0,0,1,1.732-1.722h12.842a1.533,1.533,0,0,1,1.725,1.733q0,4.928,0,9.856a1.538,1.538,0,0,1-1.754,1.741Zm5.2-10.341h-10.324v7.344h10.324Z" transform="translate(3632.315 -4284.12)" fill="#4f5359"/>
    </g>
  </g>
</svg>
