<svg xmlns="http://www.w3.org/2000/svg" width="20.233" height="16.847" viewBox="0 0 20.233 16.847">
  <g id="Group_18055" data-name="Group 18055" transform="translate(2961.133 -4064.406)">
    <path id="Path_8866" data-name="Path 8866" d="M-2961.133,4097.033a5.54,5.54,0,0,1,.31-.863,2.463,2.463,0,0,1,2.2-1.335c.414-.014.83-.008,1.244,0a.837.837,0,0,1,.877.844.84.84,0,0,1-.9.842c-.388,0-.777,0-1.165,0a.829.829,0,0,0-.877.862q-.007,2.083,0,4.165a.832.832,0,0,0,.931.866h14.95a.853.853,0,0,0,.968-.969q0-1.985,0-3.968a.855.855,0,0,0-.962-.957c-.382,0-.764,0-1.146,0a.835.835,0,0,1-.831-.767.788.788,0,0,1,.722-.9,9.514,9.514,0,0,1,1.926.058,2.449,2.449,0,0,1,1.976,2.39q.016,2.161,0,4.323a2.525,2.525,0,0,1-2.081,2.438,1.119,1.119,0,0,0-.128.039h-15.8a.494.494,0,0,0-.089-.034,2.413,2.413,0,0,1-1.768-1.227,6.308,6.308,0,0,1-.355-.95Z" transform="translate(0 -22.85)" fill="#fff"/>
    <path id="Path_8867" data-name="Path 8867" d="M-2937.858,4070.3c-.764,0-1.481,0-2.2,0a1.036,1.036,0,0,1-.366-.056.62.62,0,0,1-.209-1.013c.31-.341.634-.668.952-1l3.395-3.555a.659.659,0,0,1,1.061,0q2.142,2.24,4.282,4.482a.681.681,0,0,1,.232.637.638.638,0,0,1-.68.511c-.671,0-1.343,0-2.014,0h-.246v.243c0,1.487-.018,2.974.008,4.461a1.118,1.118,0,0,1-1.2,1.2c-.631-.029-1.263,0-1.9-.006a1.047,1.047,0,0,1-1.116-1.109c0-1.513,0-3.027,0-4.54Z" transform="translate(-15.264)" fill="#fff"/>
  </g>
</svg>
