<svg xmlns="http://www.w3.org/2000/svg" width="150.551" height="54.826" viewBox="0 0 150.551 54.826">
  <g id="Group_12444" data-name="Group 12444" transform="translate(-93.565 -504.727)">
    <g id="Group_12442" data-name="Group 12442" transform="translate(93.565 504.727)">
      <path id="Path_4860" data-name="Path 4860" d="M137.076,543.878l-5.034-30.144L119.4,542.312h-2.853L103.8,513.621l-4.977,30.256H93.565l6.544-39.149h5.257l12.584,29.194,12.583-29.194h5.37l6.431,39.149Z" transform="translate(-93.565 -504.727)" fill="#414141"/>
      <path id="Path_4861" data-name="Path 4861" d="M159.542,532.09c0-8.277,6.376-14.652,15.1-14.652s15.1,6.376,15.1,14.652-6.376,14.653-15.1,14.653S159.542,540.367,159.542,532.09Zm25.334,0a10.234,10.234,0,1,0-10.234,10.234A9.965,9.965,0,0,0,184.876,532.09Z" transform="translate(-104.956 -506.922)" fill="#414141"/>
      <path id="Path_4862" data-name="Path 4862" d="M270.748,542.548v4.807H247.818V531.92l1.62-1.62,2.6,2.6,1.533-8.027h15.1v4.811H252.962v12.863Z" transform="translate(-120.197 -508.205)" fill="#414141"/>
      <path id="Path_4863" data-name="Path 4863" d="M273.786,504.752v4.79h-4.807Z" transform="translate(-123.85 -504.731)" fill="#414141"/>
      <path id="Path_4864" data-name="Path 4864" d="M264.566,504.727l-4.828,4.811h-6.776v6.751l-2.094,2.086-3.049.582v-14.23Z" transform="translate(-120.197 -504.727)" fill="#414141"/>
      <g id="Group_12441" data-name="Group 12441" transform="translate(92.727 10.516)">
        <path id="Path_4865" data-name="Path 4865" d="M236.669,536.876v12.551H231.8v-7.686Z" transform="translate(-210.159 -520.793)" fill="#414141"/>
        <path id="Path_4866" data-name="Path 4866" d="M231.533,525.621l-4.291,4.292c-.374-5.256-3.12-7.948-7.84-7.948-5.089,0-8.891,4.255-8.891,10.013v14.092h-4.869V518.11h3.8l.894,4.026a12.87,12.87,0,0,1,10.4-4.7A10.861,10.861,0,0,1,231.533,525.621Z" transform="translate(-205.642 -517.437)" fill="#414141"/>
        <path id="Path_4867" data-name="Path 4867" d="M250.2,522.015l-8.272,1.582,1.951,1.951-3.841,3.841-2.212-3.289-6.061,6.061-.021,5.6,5.648-5.648L239.6,535.4l7.063-7.063,1.951,1.951Z" transform="translate(-210.148 -518.227)" fill="#91e986"/>
      </g>
    </g>
    <g id="Group_12443" data-name="Group 12443" transform="translate(93.848 554.175)">
      <path id="Path_4868" data-name="Path 4868" d="M94.539,565.182v1.685H96.9v.592H94.539v2.349h-.632V564.59h3.654v.592Z" transform="translate(-93.907 -564.511)" fill="#414141"/>
      <path id="Path_4869" data-name="Path 4869" d="M107.31,569.809h-.633V564.59h.633Z" transform="translate(-96.112 -564.511)" fill="#414141"/>
      <path id="Path_4870" data-name="Path 4870" d="M120.543,569.809h-.784l-2.183-3.5-.554-.98h-.008l.032.791v3.685h-.6V564.59h.784l2.174,3.479.562,1h.007l-.031-.8V564.59h.6Z" transform="translate(-97.798 -564.511)" fill="#414141"/>
      <path id="Path_4871" data-name="Path 4871" d="M133.2,568.362h-2.365l-.553,1.447h-.664l2.033-5.219h.751l2.025,5.219h-.673Zm-.229-.593-.7-1.851-.245-.727h-.016l-.229.7-.712,1.874Z" transform="translate(-100.073 -564.511)" fill="#414141"/>
      <path id="Path_4872" data-name="Path 4872" d="M147.747,569.809h-.783l-2.183-3.5-.553-.98h-.007l.031.791v3.685h-.6V564.59h.784l2.174,3.479.562,1h.008l-.032-.8V564.59h.6Z" transform="translate(-102.495 -564.511)" fill="#414141"/>
      <path id="Path_4873" data-name="Path 4873" d="M160.94,569.5a2.274,2.274,0,0,1-1.3.376,2.435,2.435,0,0,1-1.282-.328,2.179,2.179,0,0,1-.842-.933,3.579,3.579,0,0,1,0-2.851,2.178,2.178,0,0,1,.842-.937,2.665,2.665,0,0,1,2.527-.02,1.878,1.878,0,0,1,.764.909l-.625.293a1.417,1.417,0,0,0-.506-.688,1.457,1.457,0,0,0-.846-.229,1.754,1.754,0,0,0-.942.249,1.64,1.64,0,0,0-.625.724,2.639,2.639,0,0,0-.221,1.123,2.308,2.308,0,0,0,.471,1.538,1.592,1.592,0,0,0,1.285.558,1.569,1.569,0,0,0,.918-.269,1.464,1.464,0,0,0,.553-.791l.632.237A2.079,2.079,0,0,1,160.94,569.5Z" transform="translate(-104.839 -564.494)" fill="#414141"/>
      <path id="Path_4874" data-name="Path 4874" d="M171.736,569.809H171.1V564.59h.633Z" transform="translate(-107.235 -564.511)" fill="#414141"/>
      <path id="Path_4875" data-name="Path 4875" d="M183.67,568.362h-2.365l-.553,1.447h-.664l2.033-5.219h.751l2.025,5.219h-.672Zm-.229-.593-.7-1.851-.245-.727h-.016l-.229.7-.712,1.874Z" transform="translate(-108.786 -564.511)" fill="#414141"/>
      <path id="Path_4876" data-name="Path 4876" d="M197.742,569.217v.592H194.12V564.59h.633v4.627Z" transform="translate(-111.209 -564.511)" fill="#414141"/>
      <path id="Path_4877" data-name="Path 4877" d="M216.717,564.59h1.859a2.023,2.023,0,0,1,1.34.376,1.321,1.321,0,0,1,.439,1.063,1.194,1.194,0,0,1-.233.728,1,1,0,0,1-.645.4v.007a1.218,1.218,0,0,1,.736.419,1.163,1.163,0,0,1,.277.767,1.282,1.282,0,0,1-.506,1.067,2.247,2.247,0,0,1-1.416.4h-1.851Zm1.867,2.293a1.364,1.364,0,0,0,.835-.21.759.759,0,0,0,.272-.645q0-.845-1.107-.846H217.35v1.7Zm.135,2.333a1.291,1.291,0,0,0,.83-.226.888.888,0,0,0,0-1.289,1.3,1.3,0,0,0-.83-.225H217.35v1.74Z" transform="translate(-115.11 -564.511)" fill="#414141"/>
      <path id="Path_4878" data-name="Path 4878" d="M233.218,564.823a2.173,2.173,0,0,1,.842.933,3.577,3.577,0,0,1,0,2.854,2.173,2.173,0,0,1-.842.933,2.663,2.663,0,0,1-2.562,0,2.173,2.173,0,0,1-.842-.933,3.586,3.586,0,0,1,0-2.854,2.173,2.173,0,0,1,.842-.933,2.663,2.663,0,0,1,2.562,0Zm-2.566.822a2.752,2.752,0,0,0,0,3.076,1.76,1.76,0,0,0,2.571,0,2.748,2.748,0,0,0,0-3.076,1.76,1.76,0,0,0-2.571,0Z" transform="translate(-117.32 -564.494)" fill="#414141"/>
      <path id="Path_4879" data-name="Path 4879" d="M246.577,568.362h-2.365l-.554,1.447h-.664l2.033-5.219h.751l2.025,5.219h-.672Zm-.23-.593-.7-1.851-.245-.727h-.017l-.229.7-.712,1.874Z" transform="translate(-119.647 -564.511)" fill="#414141"/>
      <path id="Path_4880" data-name="Path 4880" d="M260.332,569.809l-1.423-2.167H257.66v2.167h-.633V564.59H259a1.905,1.905,0,0,1,1.281.411,1.388,1.388,0,0,1,.482,1.114,1.372,1.372,0,0,1-.313.922,1.577,1.577,0,0,1-.858.5l1.488,2.269Zm-2.672-2.759H259q1.107,0,1.107-.934T259,565.182H257.66Z" transform="translate(-122.07 -564.511)" fill="#414141"/>
      <path id="Path_4881" data-name="Path 4881" d="M273.937,565.27a3.021,3.021,0,0,1,0,3.86,2.642,2.642,0,0,1-1.929.679h-1.685V564.59h1.685A2.642,2.642,0,0,1,273.937,565.27Zm-.47,3.412a2.439,2.439,0,0,0,0-2.965,1.824,1.824,0,0,0-1.4-.534h-1.115v4.034h1.115A1.825,1.825,0,0,0,273.467,568.682Z" transform="translate(-124.365 -564.511)" fill="#414141"/>
    </g>
  </g>
</svg>
